<svg version="1.1" xmlns="http://www.w3.org/2000/svg" xmlns:xlink="http://www.w3.org/1999/xlink" width="1588.18639" height="819.00162" viewBox="0,0,1588.18639,819.00162"><defs><linearGradient x1="728" y1="816" x2="728" y2="973" gradientUnits="userSpaceOnUse" id="color-1"><stop offset="0" stop-color="#1a1a1a" stop-opacity="0"/><stop offset="1" stop-color="#1a1a1a"/></linearGradient><radialGradient cx="1135" cy="925" r="320.5" gradientUnits="userSpaceOnUse" id="color-2"><stop offset="0" stop-color="#000000" stop-opacity="0"/><stop offset="1" stop-color="#000000"/></radialGradient></defs><g transform="translate(-366.75,-281.7494)"><g data-paper-data="{&quot;isPaintingLayer&quot;:true}" fill-rule="nonzero" stroke-width="0.5" stroke-linejoin="miter" stroke-miterlimit="10" stroke-dasharray="" stroke-dashoffset="0" style="mix-blend-mode: normal"><path d="M1089,894.5c0,43.35435 -161.62521,78.5 -361,78.5c-199.37479,0 -361,-35.14565 -361,-78.5c0,-43.35435 161.62521,-78.5 361,-78.5c199.37479,0 361,35.14565 361,78.5z" fill="url(#color-1)" stroke="#000000" stroke-linecap="butt"/><path d="M494,551h173v-138l162,-9l118,-84l132,-38l118,2" fill="none" stroke="#000000" stroke-linecap="round"/><path d="M1387,289l226,4l132,-3" fill="none" stroke="#000000" stroke-linecap="round"/><path d="M1818,292l93,-1" fill="none" stroke="#000000" stroke-linecap="round"/><path d="M1124,978v-57h641v57z" fill="url(#color-2)" stroke="#000000" stroke-linecap="butt"/><path d="M1934.6651,1081.01652c-0.11853,2.02412 -0.76765,3.98577 -1,6c-0.0949,0.82274 0.36259,1.72989 0.0213,2.4845l0,5c0,3.45178 -2.79822,6.25 -6.25,6.25c-3.44196,0 -6.23408,-2.78233 -6.24993,-6.22057l-0.02718,-5.0398c-0.94477,-0.37855 -0.26137,-1.95692 -0.01679,-3.11298l-0.00429,-0.79601c-0.47009,-2.91003 -0.93772,-5.8204 -1.4032,-8.73108c-5.01242,-0.30741 -10.46194,-0.83168 -10.95945,-0.878c-2.44272,-0.22743 -5.07582,0.11209 -7.46216,-0.34368c-0.29289,1.15693 -0.85323,2.00764 -1.51893,2.63319c-0.92472,0.98407 -2.34148,1.73791 -4.51209,1.73791h-3c-6.63619,0 -13.65148,-0.65999 -20.23635,-0.04683c-1.36845,0.12742 -2.62959,0.89577 -4,1c-7.0864,0.53897 -14.22369,-0.34517 -21.32059,0.0311c-4.58041,0.24285 -9.13359,1.01552 -13.7203,1.05162c-3.51844,0.27165 -17.34317,1.25365 -21.65106,1.87153c-1.46275,0.2098 -2.83635,0.91254 -4.30805,1.04574c-0.65068,0.05889 -12.21836,0.04683 -13.76365,0.04683c-10.66667,0 -21.33333,0 -32,0c-30.33333,0 -60.66667,0 -91,0c0,0 -2.93566,0 -4.78307,-2.01196c-2.24929,-1.82583 -2.24929,-4.98804 -2.24929,-4.98804v-2c0,-5.44116 0.82515,-10.54476 1.18236,-15.94343c1.09215,-16.50624 2.40312,-32.96472 4.37285,-49.39027c1.61804,-13.48012 3.94536,-26.88587 5.48432,-40.36806c0.5146,-4.50821 1.50139,-19.98326 2.00858,-24.07215c0.49527,-3.99278 1.48017,-7.91406 1.9889,-11.90515c1.97414,-15.48756 0.76602,-31.48301 2.00756,-47.06547c1.31822,-16.5449 3.75496,-32.96205 4.63111,-49.50401c-2.79716,-1.08009 -3.49427,-3.49428 -3.62768,-5.1301c-1.44622,0.62866 -2.79799,0.62866 -2.79799,0.62866h-1c-4.38407,0 -8.0968,0.62066 -12.4845,0.9787c-2.82879,0.23084 -5.72298,-0.57275 -8.51436,-0.05941c-1.03671,0.19065 -1.95825,0.83919 -3,1c-3.45951,0.53401 -7.00066,0.0807 -10.50114,0.0807c-7.33333,0 -14.66667,0.00167 -22,0c-4.87634,-0.00111 -24.15079,0.58186 -28.70589,-1.11744c-0.24989,-0.09322 -0.49568,-0.19402 -0.73773,-0.30173l-0.03281,0.09843l-5.86328,-1.95443c-2.5539,-0.78544 -4.4103,-3.16335 -4.4103,-5.97485c0,-2.8115 1.8564,-5.18941 4.4103,-5.97485l2.86328,-0.95443l0.03616,0.10847l0.19285,-0.17995c8.19256,-2.02663 16.29729,-5.81135 23.83774,-9.53064c4.72582,-2.33098 8.07433,-6.34342 13.16373,-8.08308c0.61446,-0.08973 1.23617,-0.14215 1.85098,-0.23006c-0.14694,-0.01044 -0.25512,-0.05427 -0.27433,-0.15433c-0.43998,-2.29202 -0.06935,-4.6673 -0.0807,-7.00114c-0.02705,-5.55772 -0.21568,-10.59835 1.41441,-16.11288c2.78759,-9.43031 7.88503,-18.16793 12.98446,-26.48016c5.16342,-8.41655 9.60501,-15.05736 16.57794,-21.96792c2.24869,-2.22857 8.96686,-6.20325 10.95595,-7.95832c4.293,-3.78795 6.90056,-9.14319 10.56599,-13.54127c6.10294,-7.3228 12.95946,-15.35589 20.46544,-21.25602c0.67496,-0.53056 1.89332,-0.03512 2.49211,-0.65035c1.28472,-1.32 1.70605,-3.28004 2.78573,-4.77242c1.45036,-2.00476 3.18488,-3.78773 4.77732,-5.68159c3.87102,-7.96193 6.67458,-16.46781 10.63161,-24.35634c3.27542,-6.5297 9.58128,-12.33261 11.70924,-19.31385c2.34847,-7.70466 0.30438,-14.9917 4.48411,-22.04592c4.28053,-7.22435 11.14939,-13.74645 14.69494,-21.40261c0.70439,-1.52104 1.18142,-3.13994 1.56672,-4.79509c0.29978,-6.88898 0.88259,-13.75746 1.96168,-20.58427c-0.04414,-0.33777 -0.06766,-0.69762 -0.06766,-1.08098c0,-2.1706 0.75384,-3.58736 1.73791,-4.51209c0.92472,-0.98407 2.34148,-1.73791 4.51209,-1.73791c2.43566,0 4.87213,0.03872 7.30853,0.07449c4.08091,-5.47618 7.63831,-11.46014 11.80742,-16.7243c3.88809,-4.90933 8.89997,-8.99792 12.69249,-13.94606c2.56241,-3.34319 4.8211,-6.91518 7.43999,-10.21431c0.68368,-0.86126 1.82926,-1.30789 2.435,-2.22563c0.53768,-0.81463 0.31844,-1.99366 0.87782,-2.79355c1.91887,-2.74389 4.38011,-5.06823 6.45686,-7.69466c0.79489,-1.00528 1.26643,-2.25868 2.1485,-3.18841c1.66651,-1.75656 3.11044,-4.15733 5.44162,-4.81182c4.30047,-1.20738 8.92614,-0.37644 13.39177,-0.47575c3.28501,-0.07306 6.57108,-0.05009 9.85717,-0.02576c0.09279,-3.45013 0.17408,-6.89976 -0.09509,-10.33588c-0.32337,-4.12808 -0.41342,-8.27901 -0.93137,-12.38722c-0.54518,-4.3241 -4.25602,-4.69979 0.09903,-10.65558c4.03557,-5.51888 9.08231,-2.67297 14.06912,-3.51486c2.07877,-0.35094 3.92013,-1.65562 6,-2c0.5145,-0.08519 1.0351,-0.13352 1.5578,-0.15397c0.59287,-1.98383 1.4607,-3.89395 2.58292,-5.60596c1.32219,-2.01708 3.86053,-2.91648 5.57117,-4.61663c2.74039,-2.72359 5.1653,-5.74721 7.74794,-8.62082c1.92988,-2.61069 3.33637,-5.70566 5.78963,-7.83206c5.96761,-5.17252 14.42652,-0.65592 21.08334,-2.02447c5.85485,-1.20368 7.04808,-8.78596 8.82632,-13.19791c1.05258,-2.61151 2.094,-5.23404 3.34651,-7.75578c0.12955,-0.26082 0.24383,-0.56817 0.36177,-0.88155c-0.28676,-1.04496 -0.22141,-2.2772 -0.74152,-3.23075c-0.16888,-0.30961 -0.70739,0.07519 -1.05751,0.03285c-1.48944,-0.18012 -2.96514,-0.45949 -4.4471,-0.69364h-2.62012c-3.45178,0 -6.25,-2.79822 -6.25,-6.25c0,-3.45178 2.79822,-6.25 6.25,-6.25h3c0,0 0.19194,0 0.50854,0.03364l0.00696,-0.01234c0.10013,0.01735 0.1998,0.03434 0.29902,0.05102c0.09601,0.01403 0.19861,0.03078 0.30674,0.05079c5.38958,0.87948 9.45186,0.88918 13.754,5.21611c0.87722,0.88228 -0.04914,2.6789 0.7105,3.66424c0.95558,1.23948 3.58868,0.94263 4.00441,2.45147c2.02594,7.35302 -0.81903,7.25396 -3.09467,11.77199c-3.39174,6.73393 -4.41953,13.86802 -9.05643,19.50674c0.29849,0.84996 0.5351,1.74731 0.95775,2.52041c1.72165,3.14919 2.75221,6.06514 4.15978,9.35418c7.86928,18.38806 6.47575,39.695 6.47575,59.39177c-0.01178,7.15804 -0.46591,9.20914 0.83281,15.56404c1.26127,6.17172 4.0054,12.06727 5.06093,18.28834c0.06127,0.36112 2.06483,16.40147 2.09419,16.75926c0.75815,9.23959 0.01208,19.15695 0.01208,28.38836c0,9.07809 0.31069,18.22885 -0.00727,27.30136c-0.22119,6.31152 -1.2094,12.57276 -1.81774,18.85879c-1.48072,15.30025 -2.78397,30.61435 -4.11562,45.92828c-2.00085,23.0086 -4.49397,45.96932 -7.08119,68.92187c0.09986,0.59323 0.09986,0.9897 0.09986,0.9897c0,39.5 0,79 0,118.5c0,13.98914 -0.3633,28.25091 0.18414,42.41031c0.51924,0.91127 0.81586,1.96584 0.81586,3.08969v3c0,2.22718 -0.01292,4.45377 -0.03738,6.67984c0.70158,8.13774 1.8367,16.20336 3.65222,24.12418c0.00617,0.02749 0.01231,0.05499 0.01843,0.08249c1.37241,0.07133 2.70567,0.2627 3.77116,1.04321c4.58704,3.36019 4.02786,10.65274 4.54873,15.30662c0.37085,3.31349 1.50251,6.51721 1.96612,9.76251c0.33333,2.33333 0.25464,4.76393 1,7c0.0074,0.45872 0.01444,0.91748 0.0211,1.37626c0.92161,3.36182 1.83192,6.76674 2.63233,9.75978c0.3609,-0.1677 0.7506,-0.27427 1.17613,-0.3042c3.49355,-0.24574 6.86077,2.84504 8.77539,5.77753c1.5317,2.34599 0.38012,5.59166 0.47575,8.39177c0.17557,5.14085 -0.21944,11.5733 -1.13823,16.30721c-0.36351,1.87294 -0.86635,3.84421 -2.0415,5.34723c-0.59803,0.76487 -1.25942,1.46876 -1.97282,2.11974c-0.16241,3.04543 -0.4505,6.05599 -0.84502,9.06479c-0.00049,0.05343 -0.0013,0.10711 -0.00242,0.16103c-0.03128,1.50267 -0.23411,2.76084 -0.58006,3.82181c-0.41624,2.58808 -0.90472,5.18562 -1.45329,7.81357c-0.84754,4.06022 -2.0832,8.03005 -3.19176,12.0269c-0.73956,2.66642 -1.14686,5.47024 -2.35209,7.96105c-0.20895,0.43182 -0.42657,0.86987 -0.65769,1.30409c0.06358,0.35444 0.11558,0.71145 0.15419,1.07144c0.34056,3.17569 0.68028,7.34804 -1.74988,9.42056c-1.11078,0.94731 -2.46758,1.38319 -3.9332,1.58039c-0.04031,1.42295 -0.09828,2.84527 -0.18151,4.26671zM1913.17213,886.20196c-0.01087,0.42794 -0.0214,0.85601 -0.03162,1.2842c0.01632,0.00462 0.03262,0.0093 0.04889,0.01404c-0.00616,-0.43275 -0.01191,-0.86549 -0.01727,-1.29824zM1903.1104,1019.94709c-0.06609,0.30909 -0.13011,0.61861 -0.19167,0.92864c0.06365,-0.05463 0.12754,-0.10798 0.19167,-0.1601c0,-0.25618 0,-0.51236 0,-0.76854z" fill="#000000" stroke="none" stroke-linecap="butt"/></g></g></svg>