<svg version="1.1" xmlns="http://www.w3.org/2000/svg" xmlns:xlink="http://www.w3.org/1999/xlink" width="1925.75" height="229.43433" viewBox="0,0,1925.75,229.43433"><defs><linearGradient x1="959.5" y1="1050" x2="959.5" y2="1081" gradientUnits="userSpaceOnUse" id="color-1"><stop offset="0" stop-color="#02ff00"/><stop offset="1" stop-color="#ffca00"/></linearGradient><linearGradient x1="125" y1="977.4837" x2="125" y2="1044.4837" gradientUnits="userSpaceOnUse" id="color-2"><stop offset="0" stop-color="#0084ff" stop-opacity="0.5098"/><stop offset="1" stop-color="#9900ff"/></linearGradient><linearGradient x1="269.5" y1="962.4837" x2="269.5" y2="1065.4837" gradientUnits="userSpaceOnUse" id="color-3"><stop offset="0" stop-color="#0084ff" stop-opacity="0.5098"/><stop offset="1" stop-color="#9900ff"/></linearGradient></defs><g transform="translate(6.75,-862.56966)"><g data-paper-data="{&quot;isPaintingLayer&quot;:true}" fill-rule="nonzero" stroke-linecap="butt" stroke-linejoin="miter" stroke-miterlimit="10" stroke-dasharray="" stroke-dashoffset="0" style="mix-blend-mode: normal"><path d="M0,1081v-31h1919v31z" fill="url(#color-1)" stroke="none" stroke-width="NaN"/><path d="M-6.5,1044.4837v-67h263v67z" fill="url(#color-2)" stroke="#000000" stroke-width="0.5"/><path d="M251.5,1065.4837v-103h36v103z" fill="url(#color-3)" stroke="#000000" stroke-width="0.5"/><path d="M1820.73223,1026.26777c-1.76777,-1.76777 0,-3.53553 0,-3.53553l0.26777,0.76777c0,-5.12948 0.05374,-10.11688 5.18567,-13.12663c0.66439,-0.38965 1.80067,0.26274 2.28622,-0.33515c0.41773,-0.51438 -0.54049,-1.28377 -0.43961,-1.93868c0.46915,-3.0458 1.0204,-3.70001 2.43609,-5.09979c-1.03804,-0.02231 -2.07609,-0.04462 -3.11413,-0.06693c-5.03999,-0.10973 -9.99349,-0.71935 -15.02014,-0.94012c-5.04185,-0.22143 -10.08344,0.18185 -15.12183,-0.29691c-4.29035,-0.40767 -8.56033,-1.4326 -12.86761,-1.70063c-1.7134,-0.10662 -3.44459,0.18176 -5.15011,-0.0139c-7.24803,-0.83151 -14.87189,-4.6278 -21.56191,-7.13656c-3.69797,-1.38674 -7.66011,-2.30539 -11.23101,-4.09892c-0.32663,-0.16405 -6.14505,-4.08318 -6.48659,-4.31243c-1.60909,-1.63348 -3.78521,-2.59111 -5.72936,-3.80673c-1.36344,-0.85253 -2.45714,-2.10162 -3.84594,-2.91218c-0.80418,-0.46935 -6.67608,-1.85805 -6.7071,-1.86974c-1.30101,-0.49018 -2.36102,-1.56347 -3.70702,-1.91159c-2.07375,-0.53634 -4.28363,0.06704 -6.42562,0.06688c-4.83271,-0.00036 -9.01845,0.50395 -13.7938,0.99148c-2.00596,0.20479 -4.0489,-0.2396 -6.04916,0.01499c-1.65591,0.21076 -3.24951,0.81739 -4.9107,0.98137c-3.75759,0.37092 -5.43407,-0.42445 -8.98198,0.37615c-7.95371,1.79478 -15.49343,5.1704 -23.1723,7.78462c-10.3023,4.03735 -20.66254,5.35617 -31.34979,7.82402c-9.75008,2.25144 -19.48625,5.07144 -29.30007,6.98796c-12.2975,2.40155 -25.02416,2.03977 -37.47672,2.03918c-4.45483,-0.12274 -9.28807,0.25505 -13.68386,-0.39553c-5.81827,-0.86111 -11.76983,-3.26347 -17.45217,-4.82911c-8.97835,-2.47378 -17.94223,-4.74135 -26.70609,-7.93387c-11.73885,-4.27625 -23.26659,-9.33723 -34.94787,-13.80314c-13.47775,-5.15299 -27.14705,-9.34724 -41.3235,-9.36916c2.0009,1.09889 3.9191,2.32479 5.78601,3.94241c6.15117,5.3298 10.28605,12.84607 14.54248,19.66574c1.56851,3.1361 3.87872,5.92287 5.05025,9.22785c0.29561,0.83393 0.3011,5.81629 0.26926,6.99504c-0.03565,1.31995 0.34856,2.75124 -0.1903,3.95671c-2.21301,4.95069 -8.00398,4.52993 -12.3097,4.54329c-4.12401,0.0128 -8.65856,-0.53017 -12.75366,-0.01217c-6.84461,0.8658 -14.3928,2.49022 -21.02474,-0.58175c-0.46928,-0.21738 -6.43445,-4.18789 -7.24392,-5.43631c-0.98411,-1.51775 -1.27815,-3.39072 -2.07971,-5.01231c-2.11285,-4.27444 -4.36065,-8.37643 -6.29922,-12.76175c-0.5792,-3.93548 -1.84432,-9.0555 -1.06647,-13.09616c0.9057,-4.70478 1.88073,-4.67126 5.87203,-7.723c4.45222,-3.40415 9.05007,-5.3891 14.24317,-6.68888c-2.27284,-0.66985 -4.73409,-0.59287 -7.08577,-0.95645c-6.19289,-0.95746 -12.30432,-0.73122 -18.56172,-0.73122c-7.76651,0 -14.99689,0.04058 -22.64785,1.34362c-1.30741,0.40236 -2.73106,0.53453 -3.92223,1.20707c-2.06056,1.16341 -2.87411,3.76048 -4.35427,5.6067c-2.83911,3.54123 -4.37794,6.32504 -6.53133,10.3314c-4.52065,8.41061 -10.27668,16.8453 -12.07082,26.37424c-0.9071,4.81775 0.0265,10.76448 0.0265,15.63697c0,6.32361 -1.25596,12.98004 2.43336,18.41503c11.93893,11.82673 24.22577,23.36784 37.04764,34.21708c3.45572,2.92406 6.89725,5.85893 10.41537,8.70765c1.47011,1.19039 5.27866,4.5291 7.27098,5.25095c1.98484,0.71914 4.22156,-0.09071 6.33267,-0.09071c0,0 2.5,0 2.5,2.5c0,2.5 -2.5,2.5 -2.5,2.5c-0.15958,0 -7.31064,0.03297 -7.66733,-0.09071c-3.21304,-1.11411 -6.48734,-4.08798 -9.08005,-6.18148c-3.55092,-2.86722 -7.01736,-5.83077 -10.50134,-8.77876c-13.0375,-11.03176 -25.64749,-22.73222 -37.68464,-34.86407c-4.51416,-6.85603 -3.56664,-13.65245 -3.56664,-21.58497c0,-5.1367 -0.89608,-11.27357 0.0265,-16.36303c1.84187,-10.16082 7.80364,-19.06634 12.61368,-28.01536c2.26221,-4.20882 4.04023,-7.34135 7.03112,-11.08769c1.77084,-2.21813 2.95559,-5.14003 5.39878,-6.58461c1.69235,-1.00063 3.70973,-1.30347 5.5646,-1.9552c8.06822,-1.39798 15.67821,-1.49411 23.86532,-1.49411c6.51802,0 12.86659,-0.19906 19.322,0.78936c2.81393,0.43086 5.75298,0.37761 8.43624,1.3284c0.18902,0.06698 3.56956,1.75094 6.20662,3.06862c9.6846,-1.16191 20.2402,-0.57437 29.45321,1.5198c7.71596,1.75388 15.17559,4.84512 22.54295,7.66162c11.66981,4.46153 23.18684,9.5239 34.91562,13.79094c8.6249,3.13782 17.44615,5.36178 26.28096,7.79601c5.47798,1.50934 11.24845,3.87343 16.85605,4.70336c4.18043,0.6187 8.78414,0.22479 13.02087,0.34213c12.12629,-0.00058 24.54885,0.39382 36.52328,-1.96082c9.73218,-1.91372 19.38771,-4.70523 29.05951,-6.9386c10.49385,-2.42319 20.65121,-3.68076 30.75668,-7.64777c7.89226,-2.67992 15.66136,-6.18447 23.84848,-7.97931c3.107,-0.68114 6.36598,-0.14716 9.53119,-0.46157c1.65592,-0.16449 3.24346,-0.77688 4.89511,-0.9798c2.03308,-0.24978 4.10793,0.19059 6.14504,-0.02385c4.88325,-0.51406 9.2612,-1.00815 14.2062,-1.00852c1.08913,-0.00008 7.2396,-0.0145 7.57438,0.06688c1.54632,0.37584 2.80213,1.53189 4.29298,2.08841c2.49645,0.9319 4.92297,0.80028 7.2929,2.13026c1.5046,0.84437 2.69082,2.17366 4.15406,3.08782c2.13254,1.3323 4.48067,2.42728 6.27064,4.19327c5.33352,3.52784 10.34516,5.36218 16.28239,7.58864c6.2951,2.36066 13.60148,6.13168 20.43809,6.86344c1.60745,0.17205 3.23638,-0.1144 4.84989,-0.0139c4.36662,0.27198 8.68331,1.29679 13.03188,1.71358c4.9488,0.47433 9.91244,0.06154 14.86626,0.27911c4.61877,0.20285 9.17245,0.74107 13.79144,0.90461c-0.12079,-0.09407 -0.24285,-0.18572 -0.36669,-0.27399c-2.76494,-1.97086 -6.7641,-3.82776 -8.60486,-6.81381c-1.80919,-2.93484 -1.09282,-5.1451 -3.64114,-7.54656l-0.73223,-2.76777c0,0 0,-2.5 2.5,-2.5c2.24035,0 2.47303,2.00767 2.4972,2.4247c0.60189,0.54194 1.21568,1.07476 1.62943,1.76097c1.08856,1.8054 0.95078,4.17145 2,6c2.17465,3.78992 8.66017,5.18057 11.48931,8.40678c0.04554,0.05193 0.09018,0.10449 0.13396,0.15765l0.01787,-0.01787l2,2l-0.52896,0.52896c0.3491,0.73737 0.67916,1.48813 1.0709,2.19551l-0.6367,0.18411c0.03158,0.02936 0.06317,0.05983 0.09476,0.09142c1.76777,1.76777 0,3.53553 0,3.53553c-1.04304,0.98293 -2.04793,2.22183 -2.30005,3.63269c-0.23953,1.34045 0.35989,2.95906 -0.43961,4.06132c-1.16956,1.61245 -3.83907,1.57687 -5.09475,3.1232c-2.09036,2.5742 -1.43336,4.2041 -1.43336,7.41503l-1.73223,2.76777c0,0 -1.76777,1.76777 -3.53553,0zM1414.65559,965.33099c-1.24972,0.17581 -2.50378,0.38841 -3.7624,0.63988c-6.42751,1.28423 -13.86087,3.80881 -18.3425,8.95905c-0.8143,0.93578 -0.59864,3.52881 -0.55232,4.47986c0.19283,3.95919 0.33528,4.27325 0.90288,8.39452c1.86619,4.07808 4.04044,7.94143 5.98687,11.95348c2.11517,4.35986 2.20683,5.85146 6.95879,8.12248c5.61765,2.68474 12.63169,0.83537 18.40674,0.13191c4.26545,-0.51958 8.95578,-0.02659 13.24634,-0.01217c0.54708,0.00184 7.05759,0.77583 7.6903,-1.45671c0.18652,-0.65813 -0.1643,-1.35974 -0.1903,-2.04329c-0.07002,-1.8405 0.61253,-3.8061 -0.04835,-5.52527c-1.13185,-2.94429 -3.2218,-5.43033 -4.63213,-8.25184c-3.95039,-6.31145 -7.76463,-13.39135 -13.45752,-18.33426c-3.2399,-2.81308 -6.73254,-4.27882 -10.53576,-6.18043c-0.56187,-0.28094 -1.11758,-0.57605 -1.67065,-0.87722z" fill-opacity="0.50196" fill="#000000" stroke="none" stroke-width="0.5"/><text transform="translate(1447.5,901.23584) scale(1.02201,1.02201)" font-size="40" xml:space="preserve" fill-opacity="0.50196" fill="#000000" fill-rule="nonzero" stroke="none" stroke-width="1" stroke-linecap="butt" stroke-linejoin="miter" stroke-miterlimit="10" stroke-dasharray="" stroke-dashoffset="0" font-family="Handwriting" font-weight="normal" text-anchor="start" style="mix-blend-mode: normal"><tspan x="0" dy="0">follow me!</tspan></text></g></g></svg>