<svg version="1.1" xmlns="http://www.w3.org/2000/svg" xmlns:xlink="http://www.w3.org/1999/xlink" width="85.23964" height="72.97973" viewBox="0,0,85.23964,72.97973"><g transform="translate(-917.68492,-500.05057)"><g data-paper-data="{&quot;isPaintingLayer&quot;:true}" fill="#0031ff" fill-rule="nonzero" stroke="none" stroke-linecap="butt" stroke-linejoin="miter" stroke-miterlimit="10" stroke-dasharray="" stroke-dashoffset="0" style="mix-blend-mode: normal"><path d="M925.72159,527.1894c-3.30593,-5.8771 -4.94771,-12.95504 -7.09027,-19.34934c-0.75301,-2.24728 -1.82204,-5.71878 0.3005,-7.36089c1.54252,-1.19337 5.31643,0.43346 6.76378,0.91514c7.30155,2.43 13.03527,7.93296 17.85238,13.79145c0.90649,1.10246 6.09222,5.27822 3.82134,7.54909c-1.78119,1.78119 -2.59381,1.55214 -4.375,0c-4.48245,-3.90606 -7.52085,-9.92196 -12.71068,-13.57231c-1.04613,-0.73581 -1.59393,-1.14112 -2.74961,-1.70293c-6.20476,-3.01635 -4.28361,-1.18401 -2.78644,3.45423c0.57502,1.7814 1.09864,3.6587 1.77474,5.40891c1.19816,3.10168 3.07695,5.83198 3.88675,9.07119v0.54545c0,1.17422 -0.80953,2.15936 -1.90093,2.42776c-0.90993,0.44206 -1.96664,0.27986 -2.78657,-1.17776z" stroke-width="0.5"/><path d="M968.09058,511.58656c2.19068,-1.36581 5.00437,-1.59195 7.4586,-2.36719c6.21902,-1.96446 13.73472,-4.59055 20.34776,-3.97078c2.43874,0.22855 6.10567,0.42803 6.85805,3.35602c1.5095,5.87462 -7.45749,19.30912 -11.09895,22.60458c-1.59992,1.44789 -7.33041,5.74994 -9.26869,2.74754c-1.92595,-2.98328 7.1269,-7.09147 8.46208,-9.16998c1.16615,-1.81538 2.23408,-3.6928 3.29398,-5.57217c1.20434,-2.13551 4.15661,-6.33967 3.70783,-8.75872c-0.07569,-0.40802 -3.35862,-0.37868 -3.92317,-0.26563c-4.41278,0.88365 -8.83604,1.59415 -13.22303,2.59681c-2.96118,0.67679 -8.15342,1.87034 -10.28062,3.28585c-0.19329,0.25432 -0.42848,0.46285 -0.68996,0.62145c-0.91114,0.92313 -1.9812,0.69887 -2.69362,-0.06191c-1.09235,-0.7329 -1.43515,-2.2003 -0.75728,-3.34702c0.19257,-0.32576 0.44752,-0.59182 0.74066,-0.79197c0.27253,-0.32433 0.62413,-0.63116 1.06637,-0.90687z" stroke-width="0.5"/><path d="M983.54545,549.43939c0,13.0289 -11.05043,23.59091 -24.68182,23.59091c-13.63139,0 -24.68182,-10.56201 -24.68182,-23.59091c0,-13.0289 11.05043,-23.59091 24.68182,-23.59091c13.63139,0 24.68182,10.56201 24.68182,23.59091z" stroke-width="0"/></g></g></svg>