<svg version="1.1" xmlns="http://www.w3.org/2000/svg" xmlns:xlink="http://www.w3.org/1999/xlink" width="1919" height="1077.03605" viewBox="0,0,1919,1077.03605"><defs><linearGradient x1="959.5" y1="1046.99702" x2="959.5" y2="1077.99702" gradientUnits="userSpaceOnUse" id="color-1"><stop offset="0" stop-color="#02ff00"/><stop offset="1" stop-color="#ffca00"/></linearGradient><linearGradient x1="1676.24474" y1="527.98799" x2="1914.98348" y2="527.98799" gradientUnits="userSpaceOnUse" id="color-2"><stop offset="0" stop-color="#000000" stop-opacity="0"/><stop offset="1" stop-color="#000000"/></linearGradient></defs><g transform="translate(0,-0.96097)"><g data-paper-data="{&quot;isPaintingLayer&quot;:true}" fill-rule="nonzero" stroke="none" stroke-linecap="butt" stroke-linejoin="miter" stroke-miterlimit="10" stroke-dasharray="" stroke-dashoffset="0" style="mix-blend-mode: normal"><path d="M0,1077.99702v-31h1919v31z" fill="url(#color-1)" stroke-width="NaN"/><path d="M200.96096,775.73574c0,2.5 -2.5,2.5 -2.5,2.5l-2.60255,-0.03228c-6.95193,2.37213 -13.73054,5.15862 -20.70911,7.43615c-4.73642,1.54578 -10.18872,2.04857 -15.08571,3.02289c-2.89081,0.96698 -5.86216,1.71776 -8.67638,2.88909c-2.92907,1.21913 -5.26667,3.77157 -8.32605,4.61175c-1.03565,0.28441 -8.78009,-0.03393 -10.26582,0.05814c-0.97121,0.06018 -2.1343,-0.13332 -2.87685,0.49556c-0.41,0.34724 0.41736,1.00672 0.47189,1.54123c0.13168,1.2907 -0.87498,3.36437 0.31583,3.87938c0.69869,0.30218 1.52071,-0.47501 2.26306,-0.3065c1.10038,0.24979 1.92537,1.28081 3.0306,1.50818c1.52192,0.31309 3.13211,-0.20413 4.66079,0.07411c1.0431,0.18986 9.13104,3.10686 10.11479,3.60709c5.85399,2.9767 11.17728,7.1442 17.15751,9.96902c2.28157,1.07772 4.7954,1.57235 7.19137,2.36378c0.30227,0.09985 9.57782,3.15952 9.72823,3.22649c6.04392,2.69125 11.66453,6.59425 17.67226,9.45073c3.97765,1.89124 8.12084,3.43478 12.10912,5.30381c4.27586,2.0038 8.62117,5.09373 13.0952,6.58388c3.99572,1.33084 9.25901,1.24353 13.42685,1.81841c9.83098,1.356 19.66355,2.70088 29.49155,4.0783c10.72033,-0.52664 21.90223,-0.09159 32.53839,-1.47506c7.38631,-0.96075 15.06388,-4.01994 22.27109,-5.93615c14.52076,-3.86069 28.69419,-7.60874 42.69236,-13.08713c32.59081,-12.75491 65.17017,-25.5367 97.7236,-38.38674c19.88913,-7.85097 40.40848,-13.5534 60.59393,-20.55782c12.38947,-4.29919 24.59827,-9.22458 36.87808,-13.82926c32.08917,-12.00644 64.13911,-25.02312 96.90418,-35.06584c6.82442,-2.09173 13.69016,-4.09261 20.51355,-6.21474c4.08654,-2.88156 8.39961,-5.5718 12.23304,-8.38175c3.90341,-2.86126 8.13891,-6.93661 12.46135,-9.08943c0.24992,-0.12448 9.47014,-2.88078 9.97347,-3.03188c7.97594,-2.39439 15.95862,-4.76689 23.91796,-7.21594c11.15906,-3.43356 22.27245,-7.19435 33.52277,-10.31357c22.41879,-6.21575 45.31447,-11.1406 67.93332,-16.58856c22.10358,-0.11848 44.11245,-0.36469 66.1476,1.39812c6.58429,0.52674 13.82282,0.31846 20.28716,1.64824c4.38584,0.90221 9.00357,3.40298 13.18155,4.99459c21.29562,8.11262 41.46169,17.50353 61.24544,28.82885c5.73114,3.28082 10.73033,7.43655 15.79914,11.66935c1.52712,1.27525 3.57698,2.14359 4.52418,3.89321c0.30589,0.56502 1.17535,9.80401 1.28413,10.89182c0.91824,9.98546 -3.62529,20.27181 -6.32832,29.88258c-2.25967,8.0344 -4.0843,16.37843 -6.8309,24.25771c-1.9624,5.62961 -5.1497,11.09401 -7.66384,16.50083c-4.21639,9.06764 -8.43278,18.13528 -12.64917,27.20291c-4.21639,9.06764 -8.43278,18.13528 -12.64917,27.20291c-2.10134,4.51908 -3.92285,9.50383 -6.43183,13.80666c-3.34286,5.73291 -7.89444,11.06368 -11.75539,16.4656c-7.75308,10.84747 -15.50616,21.69493 -23.25924,32.5424c-4.84568,6.77967 -9.69135,13.55933 -14.53703,20.339c-0.30444,0.42595 -5.89204,8.26265 -6.08965,8.45832c-3.43255,3.399 -8.64759,6.09718 -12.61389,8.87359c-5.33699,3.7359 -10.90374,8.84589 -16.75686,11.68465c-0.24511,0.11888 -9.26173,2.56427 -9.31757,2.5795c-8.04263,2.19345 -16.08526,4.3869 -24.1279,6.58032c-15.42621,4.08652 -30.81011,8.66844 -46.35375,12.27796c-17.85302,4.1458 -36.03382,7.20797 -54.00715,10.80264c-34.1783,6.83558 -68.319,13.26865 -102.80168,18.33964c-34.49002,5.07206 -69.29643,8.23465 -103.94367,12.08435c-19.8865,2.20961 -39.78347,4.89035 -59.71551,6.63367c-14.15862,1.23836 -28.53449,1.26845 -42.73493,1.89902c-34.62104,1.53735 -69.31286,1.49821 -103.95944,0.65042c-34.49744,-0.84414 -69.16289,-1.70856 -103.45111,-5.98868c-34.13735,-4.26717 -68.44332,-7.67714 -102.42226,-13.04223c-12.81152,-2.02287 -25.56634,-1.52903 -38.52676,-1.52903c-15.84585,0 -31.69169,0 -47.53754,0c0,0 -2.5,0 -2.5,-2.5c0,-2.5 2.5,-2.5 2.5,-2.5c15.84585,0 31.69169,0 47.53754,0c13.22621,0 26.22868,-0.47471 39.30658,1.59022c33.92574,5.3567 68.17869,8.75917 102.26262,13.01966c34.11976,4.27104 68.62443,5.11155 102.95324,5.95157c34.53194,0.84499 69.10885,0.88526 103.61532,-0.64699c14.14416,-0.62807 28.46775,-0.64945 42.56954,-1.88893c19.87678,-1.74707 39.71839,-4.41454 59.55054,-6.61811c34.58859,-3.84318 69.33675,-6.99825 103.76836,-12.06172c34.39797,-5.05852 68.45417,-11.47679 102.54857,-18.29574c17.92291,-3.58458 36.05386,-6.63598 53.85673,-10.77014c15.4876,-3.59651 30.81608,-8.16452 46.18678,-12.23615c8.03676,-2.19187 16.07352,-4.38371 24.11029,-6.57555c2.83355,-0.77279 5.87116,-0.99379 8.5103,-2.28265c5.58349,-2.72677 10.91063,-7.68259 16.01241,-11.25384c3.73129,-2.6119 8.73144,-5.13024 11.96307,-8.33028c2.26854,-2.24637 3.68356,-5.21553 5.53997,-7.81287c4.84568,-6.77967 9.69135,-13.55933 14.53703,-20.339c7.75308,-10.84747 15.50616,-21.69493 23.25924,-32.5424c3.77041,-5.27525 8.23976,-10.47896 11.50385,-16.0768c2.43137,-4.16973 4.1813,-9.0176 6.21734,-13.39625c4.21639,-9.06764 8.43278,-18.13528 12.64917,-27.20291c4.21639,-9.06764 8.43278,-18.13528 12.64917,-27.20291c2.45454,-5.27866 5.6049,-10.63082 7.50892,-16.12922c2.68705,-7.75965 4.48245,-15.96754 6.70638,-23.87484c2.47957,-8.81624 7.16852,-18.8967 6.16639,-28.03134c-0.16584,-1.6584 -0.36732,-3.31361 -0.49752,-4.97519c-0.10518,-1.34226 0.43256,-2.84974 -0.20843,-4.03374c-0.64099,-1.184 -2.19723,-1.55785 -3.26365,-2.37972c-1.32012,-1.01738 -2.59594,-2.09098 -3.89392,-3.13646c-5.063,-4.07813 -9.94177,-7.33834 -15.59067,-10.56628c-18.07163,-10.32664 -36.77189,-18.61441 -56.20351,-26.01693c-3.94447,-1.50265 -8.36,-3.95219 -12.50201,-4.78962c-6.2382,-1.26124 -13.23343,-1.0334 -19.58545,-1.54157c-21.72764,-1.73821 -43.36295,-1.27589 -65.15096,-1.41808c-22.35106,5.55407 -45.01037,10.29075 -67.20182,16.44447c-11.20293,3.10659 -22.26954,6.85329 -33.38176,10.27244c-7.97028,2.45237 -15.96388,4.82824 -23.95076,7.22591c-3.05721,0.91778 -6.32476,1.29556 -9.18199,2.71862c-3.41892,1.70281 -6.78615,4.74963 -9.95281,7.27601c6.47485,-2.43221 13.02874,-5.13612 19.64148,-6.80302c13.80558,-3.48001 28.07208,-3.07745 42.16713,-3.07745c16.15575,0 32.85848,-0.48747 48.92162,1.5326c5.69018,0.71559 11.62179,3.1172 17.16086,4.60972c4.66507,1.25702 10.52376,2.0116 14.89096,4.05142c5.84304,2.72915 11.46754,7.98132 16.76032,11.68627c2.73077,1.91154 5.49665,3.77389 8.19232,5.73462c1.61224,1.17268 3.65476,1.9472 4.78285,3.59095c0.91735,1.33668 0.66939,3.17307 0.9545,4.76899c0.87852,4.91751 1.56033,9.8821 2.33944,14.81644c0.07676,0.48614 1.57351,9.91991 1.58965,10.21403c0.23005,4.19439 -1.00411,8.98684 -1.47974,13.14862c-0.75698,6.62355 -1.51395,13.2471 -2.27093,19.87065c-0.86061,7.53038 -0.62235,16.32945 -3.67753,23.28508c-4.07814,9.06254 -7.49851,19.0394 -12.46195,27.64254c-1.39867,2.42431 -3.50792,4.36221 -5.26997,6.53679c-0.33202,0.40975 -6.38102,7.89274 -6.59197,8.07727c-4.85018,4.2428 -12.07201,7.53099 -17.80683,10.39997c-5.95949,2.98137 -11.90171,6.49392 -18.06402,9.02372c-4.50429,1.84913 -9.46366,3.03414 -14.10189,4.51738c-17.51655,5.60154 -35.08652,10.75797 -52.80176,15.6939c-8.07323,2.24941 -16.17525,4.22548 -24.33273,6.14489c-0.57678,0.13571 -9.88775,2.34087 -10.20874,2.35493c-4.68277,0.20508 -10.41471,-1.55585 -15.05583,-2.26987c-4.77674,-0.73668 -9.48486,-1.10253 -14.30243,-1.47312c-0.56655,-0.04358 -10.13009,-0.76622 -10.42496,-0.84455c-6.9762,-1.85306 -12.21877,-6.83939 -17.40789,-11.47527c-5.11973,-4.57388 -9.14424,-9.93957 -13.46638,-15.25913c-3.10393,-3.82022 -7.14887,-7.75353 -9.68222,-11.96568c-1.60883,-2.67498 -2.27016,-5.81568 -3.3908,-8.7291c-1.79503,-4.66668 -3.59005,-9.33336 -5.38508,-14.00003c-0.64484,-1.73219 -1.66271,-3.36834 -1.93451,-5.19656c-0.68858,-4.63165 0.72043,-10.8192 1.05879,-15.50865c0.03798,-0.52639 0.71922,-10.12412 0.78678,-10.39634c1.55527,-6.26664 5.58792,-12.7906 8.19288,-18.71096c2.67199,-6.07271 4.89969,-12.8198 8.19269,-18.57457c1.50648,-2.63269 3.6857,-4.8185 5.53576,-7.22221c5.08275,-6.60379 10.1655,-13.20759 15.24825,-19.81138c4.0662,-5.28304 8.1324,-10.56607 12.1986,-15.84911c0.1979,-0.25712 3.44002,-4.47634 5.20804,-6.75582c-3.2445,0.9737 -6.48865,1.94526 -9.72374,2.93683c-32.66747,10.0128 -64.62193,22.99695 -96.61559,34.96766c-12.31578,4.61817 -24.56056,9.55612 -36.98621,13.86834c-20.12079,6.98276 -40.57862,12.66146 -60.40382,20.4872c-32.55796,12.85182 -65.14185,25.63539 -97.73719,38.39208c-14.17472,5.54749 -28.52773,9.35423 -43.22987,13.26314c-7.39453,1.96601 -15.21589,5.03815 -22.79558,6.04589c-10.94053,1.45457 -22.49574,1.06138 -33.52767,1.52795c-9.98414,-1.35689 -19.96429,-2.7432 -29.94571,-4.11995c-4.45302,-0.61421 -9.94738,-0.58821 -14.22297,-1.99536c-4.70477,-1.5484 -9.24781,-4.72846 -13.73762,-6.83253c-3.98833,-1.86906 -8.13098,-3.41316 -12.10912,-5.30381c-5.97774,-2.84097 -11.5739,-6.73422 -17.58442,-9.41059c-2.96917,-1.32212 -6.17635,-2.02701 -9.26257,-3.04643c-2.54457,-0.84051 -5.20349,-1.39524 -7.63023,-2.532c-7.49025,-3.50869 -14.03736,-8.94006 -21.80596,-11.73774c-1.43564,-0.51701 -2.82428,-1.22955 -4.32714,-1.49374c-1.64116,-0.2885 -3.36472,0.19046 -4.99687,-0.14533c-1.08716,-0.22366 -1.90334,-1.20738 -2.9754,-1.49482c-1.20912,-0.32419 -2.74823,0.45351 -3.74295,-0.3065c-2.84646,-2.1748 -2.83847,-5.12851 -2.68717,-8.13263c0.07527,-1.49465 -0.55725,-3.37826 0.47189,-4.46478c4.68074,-4.94169 10.6327,-0.98931 15.86634,-2.44931c2.84979,-0.79499 4.98093,-3.25465 7.70999,-4.39726c0.20413,-0.08547 9.10817,-3.03935 9.34164,-3.11692c4.81241,-0.96717 10.29395,-1.44801 14.94432,-2.98311c7.17703,-2.36917 14.13951,-5.22666 21.33293,-7.57887l3.40346,-0.03228c0,0 2.5,0 2.5,2.5zM684.4469,719.34632c-0.19768,0.1449 -0.39537,0.28981 -0.59305,0.43471c-2.59389,1.90136 -5.49571,3.43666 -7.79633,5.684c-2.30062,2.24734 -3.90349,5.11239 -5.8651,7.66102c-4.0662,5.28304 -8.1324,10.56607 -12.1986,15.84911c-5.08275,6.60379 -10.1655,13.20759 -15.24825,19.81138c-1.72763,2.24464 -3.79617,4.26111 -5.19731,6.7228c-3.18061,5.58806 -5.32505,12.14757 -7.91685,18.03803c-2.48664,5.65146 -6.43325,11.92452 -7.91667,17.90164c-0.76872,3.09739 -0.42286,6.36872 -0.65253,9.5518c-0.31127,4.31399 -1.73449,10.14692 -1.10018,14.41356c0.21841,1.46911 1.1037,2.75786 1.65554,4.13679c1.79503,4.66668 3.59005,9.33336 5.38508,14.00003c1.02676,2.66934 1.56935,5.57302 3.05135,8.0191c4.10115,6.76904 10.54681,12.92131 15.54149,19.07888c5.43203,6.69675 13.32377,15.00024 21.9801,17.29612c3.07407,0.81532 6.34514,0.44546 9.51613,0.68938c4.94314,0.38024 9.777,0.76411 14.67923,1.51653c4.31554,0.66393 9.74235,2.41078 14.09949,2.21557c3.17128,-0.14208 6.16953,-1.49878 9.2596,-2.22586c8.09168,-1.90393 16.12788,-3.86309 24.13592,-6.09434c17.65478,-4.91909 35.16408,-10.05736 52.62082,-15.63978c4.51528,-1.44392 9.35506,-2.58468 13.73974,-4.38598c6.04284,-2.48251 11.86685,-5.94335 17.71306,-8.86483c5.36237,-2.67969 12.21978,-5.72748 16.75087,-9.69114c2.40209,-2.10128 3.99003,-4.98215 5.99924,-7.46176c1.627,-2.0079 3.61687,-3.76566 4.89713,-6.0106c4.81758,-8.44766 8.16588,-18.19708 12.15993,-27.07275c2.90744,-6.26406 2.48659,-14.95072 3.26948,-21.80099c0.75698,-6.62355 1.51395,-13.2471 2.27093,-19.87065c0.44688,-3.91017 1.68917,-8.53928 1.44855,-12.47387c-0.19662,-3.21501 -1.02725,-6.35963 -1.52961,-9.54123c-0.77872,-4.93187 -1.68514,-9.86671 -2.33944,-14.81644c-0.12717,-0.96204 0.31417,-2.11495 -0.25638,-2.89992c-0.78929,-1.08592 -2.29297,-1.39826 -3.40947,-2.14367c-2.77227,-1.85085 -5.46155,-3.82308 -8.19232,-5.73462c-5.04834,-3.53384 -10.44054,-8.65134 -16.00896,-11.25223c-4.10486,-1.91729 -9.69458,-2.57326 -14.07588,-3.75382c-5.34727,-1.44085 -11.15487,-3.83682 -16.64618,-4.49973c-15.82642,-1.91056 -32.22471,-1.4704 -48.13543,-1.4704c-13.68197,0 -27.55347,-0.45307 -40.95599,2.92855c-7.88665,1.9899 -15.69391,5.50449 -23.37615,8.19286c-3.56552,1.24774 -7.15722,2.42505 -10.763,3.56275z" fill-opacity="0.49804" fill="#000000" stroke-width="0.5"/><path d="M169.42721,879.44476c-0.10542,2.49778 -2.6032,2.39236 -2.6032,2.39236l-3.66452,-1.44448c-0.74536,-1.49071 -1.49071,-2.98142 -2.23607,-4.47214c-0.67604,-1.37613 -1.14489,-2.87512 -2.02811,-4.12839c-0.8489,-1.20458 -2.34269,-1.88719 -3.10152,-3.15045c-0.84487,-1.40649 -0.90951,-3.16529 -1.58932,-4.65857c-1.86612,-4.09911 -6.31057,-8.03004 -8.86918,-11.77731c-1.01908,-1.49251 -3.55387,-6.15346 -4.44997,-7.42964c-1.61792,-2.30415 -3.93029,-4.06166 -5.56467,-6.35415c-0.25671,-0.36008 -4.7129,-8.27334 -5.04767,-8.81178c-2.7011,-4.34448 -6.35784,-8.21918 -7.86891,-13.23148c-0.06831,-0.2266 -1.42876,-9.80931 -1.49305,-10.2594c0,0 -0.35355,-2.47487 2.12132,-2.82843c2.47487,-0.35355 2.82843,2.12132 2.82843,2.12132c0.45408,3.17859 0.43168,6.45852 1.33537,9.53959c1.31482,4.48276 4.90847,8.13505 7.32068,12.01457c1.7328,2.78684 2.9701,5.88099 4.87511,8.55308c1.62414,2.27813 3.92167,4.02421 5.53357,6.31101c2.66642,3.78284 4.69169,7.7602 7.48442,11.48034c2.00207,2.66692 4.81382,5.33856 6.22346,8.35175c0.64612,1.38113 0.62991,3.04251 1.41368,4.35044c0.69789,1.16461 2.12799,1.74182 2.90448,2.85556c1.02956,1.47671 1.62935,3.21059 2.44403,4.81588c0.74536,1.49071 1.49071,2.98142 2.23607,4.47214l-0.59678,-1.31501c0,0 2.49778,0.10542 2.39236,2.6032z" fill-opacity="0.49804" fill="#000000" stroke-width="0.5"/><text transform="translate(151.20397,963.4039) scale(1.04167,1.04167)" font-size="40" xml:space="preserve" fill-opacity="0.49804" fill="#000000" fill-rule="nonzero" stroke="none" stroke-width="1" stroke-linecap="butt" stroke-linejoin="miter" stroke-miterlimit="10" stroke-dasharray="" stroke-dashoffset="0" font-family="Handwriting" font-weight="normal" text-anchor="start" style="mix-blend-mode: normal"><tspan x="0" dy="0">nothing over here!</tspan></text><path d="M1676.24474,1055.01502v-1054.05405h238.73874v1054.05405z" fill="url(#color-2)" stroke-width="0"/><text transform="translate(837.60288,1027.43904) scale(1.43917,1.43917)" font-size="40" xml:space="preserve" fill="#9966ff" fill-rule="nonzero" stroke="none" stroke-width="1" stroke-linecap="butt" stroke-linejoin="miter" stroke-miterlimit="10" stroke-dasharray="" stroke-dashoffset="0" font-family="Handwriting" font-weight="normal" text-anchor="start" style="mix-blend-mode: normal"><tspan x="0" dy="0">Courtesy of InvisibleForceFeild.com!</tspan></text></g></g></svg>