<svg version="1.1" xmlns="http://www.w3.org/2000/svg" xmlns:xlink="http://www.w3.org/1999/xlink" width="82.53671" height="72.97973" viewBox="0,0,82.53671,72.97973"><g transform="translate(-917.68492,-500.05057)"><g data-paper-data="{&quot;isPaintingLayer&quot;:true}" fill="#0031ff" fill-rule="nonzero" stroke="none" stroke-linecap="butt" stroke-linejoin="miter" stroke-miterlimit="10" stroke-dasharray="" stroke-dashoffset="0" style="mix-blend-mode: normal"><path d="M925.72159,527.1894c-3.30593,-5.8771 -4.94771,-12.95504 -7.09027,-19.34934c-0.75301,-2.24728 -1.82204,-5.71878 0.3005,-7.36089c1.54252,-1.19337 5.31643,0.43346 6.76378,0.91514c7.30155,2.43 13.03527,7.93296 17.85238,13.79145c0.90649,1.10246 6.09222,5.27822 3.82134,7.54909c-1.78119,1.78119 -2.59381,1.55214 -4.375,0c-4.48245,-3.90606 -7.52085,-9.92196 -12.71068,-13.57231c-1.04613,-0.73581 -1.59393,-1.14112 -2.74961,-1.70293c-6.20476,-3.01635 -4.28361,-1.18401 -2.78644,3.45423c0.57502,1.7814 1.09864,3.6587 1.77474,5.40891c1.19816,3.10168 3.07695,5.83198 3.88675,9.07119v0.54545c0,1.17422 -0.80953,2.15936 -1.90093,2.42776c-0.90993,0.44206 -1.96664,0.27986 -2.78657,-1.17776z" stroke-width="0.5"/><path d="M966.68049,515.88127c1.74572,-1.90184 4.39649,-2.87209 6.55407,-4.27534c5.46731,-3.55582 12.00717,-8.09589 18.54515,-9.26693c2.41105,-0.43186 5.99781,-1.22013 7.5057,1.40007c3.02534,5.2571 -2.02295,20.6001 -4.65066,24.74924c-1.15452,1.82297 -5.52604,7.50064 -8.19655,5.12583c-2.65352,-2.35968 4.97124,-8.73891 5.70203,-11.09874c0.63828,-2.06109 1.16533,-4.1557 1.68412,-6.25006c0.58948,-2.37978 2.31012,-7.22027 1.23086,-9.43123c-0.18204,-0.37293 -3.33758,0.53316 -3.85135,0.79305c-4.01583,2.03139 -8.08806,3.89875 -12.04722,6.03793c-2.6724,1.44393 -7.35644,3.98236 -9.0277,5.91511c-0.11825,0.29675 -0.28912,0.56056 -0.49867,0.78331c-0.63113,1.13315 -1.72219,1.20317 -2.6121,0.66059c-1.24854,-0.41414 -1.97123,-1.73644 -1.62466,-3.02267c0.09845,-0.36539 0.27298,-0.68993 0.50193,-0.96118c0.17588,-0.38539 0.43264,-0.77506 0.78505,-1.15898z" stroke-width="0.5"/><path d="M983.54545,549.43939c0,13.0289 -11.05043,23.59091 -24.68182,23.59091c-13.63139,0 -24.68182,-10.56201 -24.68182,-23.59091c0,-13.0289 11.05043,-23.59091 24.68182,-23.59091c13.63139,0 24.68182,10.56201 24.68182,23.59091z" stroke-width="0"/></g></g></svg>