<svg version="1.1" xmlns="http://www.w3.org/2000/svg" xmlns:xlink="http://www.w3.org/1999/xlink" width="83.55687" height="72.97973" viewBox="0,0,83.55687,72.97973"><g transform="translate(-917.68492,-500.05058)"><g data-paper-data="{&quot;isPaintingLayer&quot;:true}" fill="#0031ff" fill-rule="nonzero" stroke="none" stroke-linecap="butt" stroke-linejoin="miter" stroke-miterlimit="10" stroke-dasharray="" stroke-dashoffset="0" style="mix-blend-mode: normal"><path d="M925.72159,527.1894c-3.30593,-5.8771 -4.94771,-12.95504 -7.09027,-19.34934c-0.75301,-2.24728 -1.82204,-5.71878 0.3005,-7.36089c1.54252,-1.19337 5.31643,0.43346 6.76378,0.91514c7.30155,2.43 13.03527,7.93296 17.85238,13.79145c0.90649,1.10246 6.09222,5.27822 3.82134,7.54909c-1.78119,1.78119 -2.59381,1.55214 -4.375,0c-4.48245,-3.90606 -7.52085,-9.92196 -12.71068,-13.57231c-1.04613,-0.73581 -1.59393,-1.14112 -2.74961,-1.70293c-6.20476,-3.01635 -4.28361,-1.18401 -2.78644,3.45423c0.57502,1.7814 1.09864,3.6587 1.77474,5.40891c1.19816,3.10168 3.07695,5.83198 3.88675,9.07119v0.54545c0,1.17422 -0.80953,2.15936 -1.90093,2.42776c-0.90993,0.44206 -1.96664,0.27986 -2.78657,-1.17776z" stroke-width="0.5"/><path d="M967.0003,514.18444c1.93792,-1.70558 4.67678,-2.38867 6.97125,-3.55471c5.81419,-2.95474 12.79945,-6.7742 19.42484,-7.2439c2.44329,-0.17322 6.0935,-0.57591 7.31444,2.18968c2.4496,5.5488 -4.20042,20.26852 -7.25413,24.11496c-1.34169,1.68997 -6.29176,6.87099 -8.69481,4.22586c-2.38776,-2.62828 5.87167,-8.1612 6.84908,-10.43002c0.85367,-1.9816 1.60031,-4.00835 2.3387,-6.03572c0.83901,-2.30367 3.06425,-6.93392 2.22603,-9.24705c-0.14138,-0.39016 -3.37534,0.1755 -3.91381,0.37932c-4.20895,1.59318 -8.45654,3.01726 -12.62059,4.72363c-2.8107,1.15179 -7.73795,3.17813 -9.60512,4.92236c-0.14911,0.2825 -0.34705,0.52667 -0.57908,0.72589c-0.74796,1.05967 -1.84029,1.01336 -2.6675,0.37929c-1.19747,-0.54446 -1.77556,-1.93607 -1.29428,-3.17819c0.13672,-0.35286 0.34475,-0.65702 0.60122,-0.9024c0.21584,-0.36452 0.51255,-0.7247 0.90376,-1.069z" stroke-width="0.5"/><path d="M983.54545,549.43939c0,13.0289 -11.05043,23.59091 -24.68182,23.59091c-13.63139,0 -24.68182,-10.56201 -24.68182,-23.59091c0,-13.0289 11.05043,-23.59091 24.68182,-23.59091c13.63139,0 24.68182,10.56201 24.68182,23.59091z" stroke-width="0"/></g></g></svg>