<svg version="1.1" xmlns="http://www.w3.org/2000/svg" xmlns:xlink="http://www.w3.org/1999/xlink" width="593.99363" height="957.76463" viewBox="0,0,593.99363,957.76463"><defs><linearGradient x1="383.38272" y1="254.58106" x2="383.38272" y2="1210.34568" gradientUnits="userSpaceOnUse" id="color-1"><stop offset="0" stop-color="#ff6666"/><stop offset="1" stop-color="#9142a5"/></linearGradient></defs><g transform="translate(-112,-253.58105)"><g data-paper-data="{&quot;isPaintingLayer&quot;:true}" fill-rule="nonzero" stroke-linecap="butt" stroke-linejoin="miter" stroke-miterlimit="10" stroke-dasharray="" stroke-dashoffset="0" style="mix-blend-mode: normal"><path d="M614,660.84568c0,-2.5 2.5,-2.5 2.5,-2.5h3c3.49867,0.02567 7.00209,0.43284 10.40046,1.03228c2.66692,0.47042 4.93286,2.26154 7.50123,3.12015c4.22948,1.41392 9.39757,2.18699 13.7767,3.11277c11.03777,2.33348 22.08841,1.73479 33.32161,1.73479c0,0 0.31242,0 0.71637,0.11044c0.56277,-0.14178 1.1524,-0.17283 1.77392,-0.06189c1.77954,0.31762 2.48418,2.63461 3.58984,4.0647c1.35336,1.75047 4.28946,6.61101 5.44844,8.48628c2.42546,3.97575 3.46881,8.25681 4.8667,12.68347c2.03066,6.43043 4.37321,13.01378 5.05333,19.7725c0.01562,0.15526 0.04382,9.94131 0.04441,10.24542c0.02507,12.95609 -0.7063,25.4567 -1.99549,38.34859l-0.00993,0.09926c0,0 -0.24876,2.48759 -2.73635,2.23883c-2.48759,-0.24876 -2.23883,-2.73635 -2.23883,-2.73635l0.00993,-0.09926c2.01759,-20.17594 4.82055,-41.95653 -1.38932,-61.59542c-1.71018,-5.40851 -2.83345,-11.51006 -5.8579,-16.3287c-1.73664,-2.81088 -3.82742,-5.41149 -5.35524,-8.34112c-0.30492,-0.5847 0.21423,-1.72322 -0.41016,-1.9353c-0.55132,-0.18725 -0.55372,1.03317 -0.92474,1.4819c-0.11095,0.13419 -3.80443,3.82191 -3.81721,3.83441c-2.36632,2.31606 -5.69559,4.21364 -8.75638,5.51852c-1.2649,0.53925 -5.31341,1.14784 -6.91301,1.9595c-1.09997,0.55815 -1.9527,1.5559 -3.08699,2.0405c-2.45016,1.04677 -5.2476,1.19143 -7.62807,2.38826c-3.21947,1.61864 -6.95609,3.98965 -9.79835,6.25881c-0.98265,0.78452 -3.38073,3.72152 -4.30113,4.21182c-1.93666,1.03165 -7.82497,2.22062 -9.914,2.69491c-6.27056,1.14998 -12.78763,2.87889 -19.09704,3.64499c-4.28568,0.52037 -8.95141,0.01493 -13.27279,0.01493c-7.66667,0 -15.33333,0 -23,0c-14.35161,0 -28.82029,0.34556 -41.96407,-6.19336c-5.36244,-1.81708 -10.59471,-3.97626 -15.89583,-5.95917c-4.26221,-1.59431 -8.72901,-2.43015 -12.98986,-3.99631c-3.09743,-1.13852 -5.93039,-2.94023 -9.05416,-4.00434c-3.24701,-1.1061 -8.43104,-2.43717 -11.79612,-3.21545c-12.55203,-2.90304 -26.49687,-2.63137 -39.29997,-2.63137c-3.90917,0 -7.94094,-0.20574 -11.84059,-0.00509c-4.43143,0.22802 -8.73683,1.49972 -13.1071,2.04903c-4.93732,0.62058 -9.41926,1.05058 -14.23444,2.60057c-7.32154,2.35678 -14.01268,6.03235 -21.10414,8.81162c-10.70826,4.19677 -21.93809,7.361 -32.21009,12.65563c-12.6283,7.57911 -24.80804,16.34819 -38.03131,22.88737c-2.9481,1.4579 -6.09139,2.51953 -8.96869,4.11263c-2.2341,1.23697 -3.99905,3.20184 -6.18931,4.51486c-5.34974,3.20706 -11.65102,4.40037 -17.5457,6.25228c-4.38579,1.37787 -8.18784,3.04694 -12.76778,3.83506c-4.94356,0.83655 -9.70202,2.39915 -14.62251,3.25409c-6.72354,1.16822 -13.58865,1.03194 -20.37834,1.03194c-0.40945,0 -10.10423,0.00643 -10.31978,-0.02054c-9.13215,-1.14263 -17.12479,-7.02953 -22.61357,-13.89449c-5.11481,-6.39722 -9.61784,-12.39162 -12.27608,-20.30757c-0.31017,-0.9305 -0.63769,-1.85575 -0.97666,-2.7774c-24.2713,0 -48.54261,0 -72.81391,0c0,0 -2.5,0 -2.5,-2.5c0,-2.5 2.5,-2.5 2.5,-2.5c23.62923,0 47.25846,0 70.88769,0c-1.14465,-2.89811 -2.296,-5.78975 -3.26516,-8.72693c-3.70232,-11.22049 -3.1471,-23.38948 -3.12147,-35.02553c0.01085,-4.92848 -0.56022,-10.44015 0.08523,-15.32036c1.54018,-11.64507 8.90902,-21.63656 15.15029,-31.1797c2.33233,-3.88805 5.07827,-10.69119 8.88055,-13.33019c2.52779,-1.75443 6.53746,-1.41156 9.38287,-1.41729c4.75425,-0.00957 9.46065,-0.04406 14.20353,0.29388c8.37611,0.59683 19.20791,0.15426 26.89485,3.96033c3.94537,1.95349 7.51517,5.21213 10.785,8.07182c4.77654,4.17741 9.18892,8.21361 12.58662,13.60898c6.66679,10.67779 15.77312,20.63713 20.13361,32.64702c2.9142,8.02645 3.62895,16.41042 5.41382,24.69602c0.71435,3.31613 2.00998,6.51277 2.45841,9.8752c0.24906,1.86754 0.2353,3.78221 0.00543,5.65221c-1.24972,10.16671 -11.09793,11.16494 -19.48127,11.19454c-30.95828,0 -61.91656,0 -92.87483,0c0.13917,0.39788 0.2756,0.79659 0.40882,1.19626c2.42473,7.33636 6.6746,12.81616 11.39937,18.71876c4.69493,5.86533 11.49945,11.1698 19.38643,12.10551c3.20427,0.38015 6.45347,-0.02054 9.68022,-0.02054c6.49985,0 13.08526,0.16032 19.52241,-0.95813c4.92361,-0.85548 9.69412,-2.41644 14.64236,-3.2575c4.3429,-0.72461 7.90903,-2.35515 12.06661,-3.66328c3.12435,-0.98304 6.44605,-1.34634 9.48353,-2.57175c1.51046,-0.60937 2.80621,-1.66676 4.28837,-2.34205c0.85207,-0.38822 1.87972,-0.35179 2.6824,-0.83391c2.25387,-1.35378 4.09122,-3.3462 6.38562,-4.63009c2.94176,-1.64614 6.16371,-2.73645 9.18714,-4.22729c13.15162,-6.48504 25.25691,-15.24113 37.81286,-22.77271c10.48151,-5.3961 21.89022,-8.68253 32.82205,-12.94399c2.48614,-0.96915 4.6661,-2.62284 7.14617,-3.60742c4.60851,-1.82957 9.52698,-3.78793 14.24638,-5.30688c5.09802,-1.64082 9.91303,-2.14593 15.14344,-2.80209c4.47276,-0.56111 8.87537,-1.8403 13.41126,-2.07781c4.00406,-0.20966 8.1443,-0.00509 12.15941,-0.00509c13.19001,0 27.49298,-0.22169 40.42483,2.75954c3.31244,0.76363 9.08261,2.26199 12.28489,3.35481c3.15181,1.0756 6.01448,2.88484 9.14004,4.0345c4.2644,1.56855 8.74081,2.40863 13.01014,4.00369c5.37222,2.00711 10.67559,4.18465 16.10417,6.04083c12.49719,6.28149 26.36883,5.80664 40.03593,5.80664c7.66667,0 15.33333,0 23,0c4.13827,0 8.62551,0.51918 12.72721,0.01493c6.16174,-0.7575 12.51131,-2.44943 18.63843,-3.57297c0.51504,-0.11672 7.38051,-1.58845 8.35052,-2.08713c1.56957,-0.80691 2.3217,-2.68452 3.69887,-3.78818c3.11072,-2.49294 7.24439,-5.1285 10.77658,-6.88614c2.44051,-1.21442 5.29279,-1.38983 7.797,-2.46679c1.07505,-0.46233 1.86352,-1.44177 2.91301,-1.9595c4.1275,-2.03616 8.77942,-2.5487 12.78405,-4.88084c1.12105,-0.65286 2.19986,-1.95828 3.32763,-3.34881c-9.8742,0.07664 -19.61386,0.19486 -29.3691,-1.86748c-4.5607,-0.96417 -9.9469,-1.8063 -14.35171,-3.27068c-1.76906,-0.58813 -4.538,-2.58471 -6.69296,-2.91869c-3.1799,-0.49282 -6.34592,-0.9969 -9.59954,-0.96772h-3c0,0 -2.5,0 -2.5,-2.5zM190.75336,710.34568c0.24888,0 0.49776,0 0.74664,0c31.33333,0 62.66667,0 94,0c1.56485,0.00624 3.14141,0.20993 4.69454,0.01873c2.40643,-0.29624 4.96393,-0.49947 7.07371,-1.69423c2.16249,-1.22461 2.5324,-2.81675 2.75048,-5.12996c0.58947,-6.25262 -2.35332,-12.71092 -3.45841,-18.83389c-1.17283,-6.49828 -1.90968,-12.8101 -4.15959,-19.08069c-4.17405,-11.63325 -13.21203,-21.37118 -19.67073,-31.69496c-3.08581,-4.98006 -7.25175,-8.65513 -11.63915,-12.49609c-2.94525,-2.57842 -6.14752,-5.55 -9.68923,-7.34313c-1.59291,-0.80647 -6.03569,-1.56967 -7.20607,-1.75883c-5.90806,-0.95488 -11.88771,-1.27897 -17.84825,-1.70578c-4.62577,-0.33124 -9.21068,-0.27119 -13.8473,-0.28118c-1.0118,-0.00218 -5.4582,-0.28441 -6.61713,0.58271c-1.07752,0.8062 -1.58096,2.17998 -2.30825,3.31226c-1.78696,2.78205 -3.39967,5.67225 -5.10112,8.50741c-5.80724,8.88312 -13.01115,18.3198 -14.42991,29.1768c-0.61084,4.67441 -0.03216,9.9616 -0.04255,14.67937c-0.02441,11.08261 -0.65603,22.77826 2.87642,33.46838c1.14277,3.45831 2.53777,6.85454 3.87589,10.27307z" fill="#ff6666" stroke="none" stroke-width="0.5"/><path d="M329.88272,1210.34568v-955.76463h107v955.76463z" fill="url(#color-1)" stroke="#000000" stroke-width="2"/></g></g></svg>