<svg version="1.1" xmlns="http://www.w3.org/2000/svg" xmlns:xlink="http://www.w3.org/1999/xlink" width="1764.66872" height="1249.20085" viewBox="0,0,1764.66872,1249.20085"><defs><linearGradient x1="113" y1="912" x2="113" y2="1326" gradientUnits="userSpaceOnUse" id="color-1"><stop offset="0" stop-color="#ff6666"/><stop offset="1" stop-color="#9142a5"/></linearGradient><linearGradient x1="628" y1="694" x2="628" y2="1108" gradientUnits="userSpaceOnUse" id="color-2"><stop offset="0" stop-color="#ff6666"/><stop offset="1" stop-color="#9142a5"/></linearGradient><linearGradient x1="824" y1="524" x2="824" y2="938" gradientUnits="userSpaceOnUse" id="color-3"><stop offset="0" stop-color="#ff6666"/><stop offset="1" stop-color="#9142a5"/></linearGradient><linearGradient x1="1022.41564" y1="78.79915" x2="1022.41564" y2="1083.9465" gradientUnits="userSpaceOnUse" id="color-4"><stop offset="0" stop-color="#ff6666"/><stop offset="1" stop-color="#9142a5"/></linearGradient><linearGradient x1="383.38272" y1="382.94245" x2="383.38272" y2="1210.34568" gradientUnits="userSpaceOnUse" id="color-5"><stop offset="0" stop-color="#ff6666"/><stop offset="1" stop-color="#9142a5"/></linearGradient><linearGradient x1="383.38272" y1="245.32179" x2="383.38272" y2="1237.67784" gradientUnits="userSpaceOnUse" id="color-6"><stop offset="0" stop-color="#ff6666"/><stop offset="1" stop-color="#9142a5"/></linearGradient></defs><g transform="translate(-58.5,-77.79915)"><g data-paper-data="{&quot;isPaintingLayer&quot;:true}" fill-rule="nonzero" stroke="#000000" stroke-width="2" stroke-linecap="butt" stroke-linejoin="miter" stroke-miterlimit="10" stroke-dasharray="" stroke-dashoffset="0" style="mix-blend-mode: normal"><path d="M59.5,1326v-414h107v414z" fill="url(#color-1)"/><path d="M574.5,1108v-414h107v414z" fill="url(#color-2)"/><path d="M770.5,938v-414h107v414z" fill="url(#color-3)"/><path d="M968.91564,1083.9465v-1005.14735h107v1005.14735z" fill="url(#color-4)"/><path d="M329.88272,1210.34568v-383.62877c2.30727,0 4.61454,0 6.92181,0c6.3071,0 13.08359,0.73127 19.09153,-1.00242c16.80145,0.24527 33.61113,0.11178 50.41464,0.11178c10.19021,0 20.38362,0.20063 30.57202,0.08438v384.43502z" fill="url(#color-5)"/><path d="M329.88272,245.32179h107v250.47527c-3.61941,0.13952 -7.23976,0.25226 -10.85739,0.37008c-18.37932,0.59855 -36.88595,-0.00423 -55.27019,-0.00423c-13.62414,0 -27.24828,0 -40.87242,0z" fill="url(#color-6)"/><path d="M1378.16872,219v-106h444v106z" fill="#9966ff"/></g></g></svg>