<svg version="1.1" xmlns="http://www.w3.org/2000/svg" xmlns:xlink="http://www.w3.org/1999/xlink" width="80.88649" height="74.38226" viewBox="0,0,80.88649,74.38226"><g transform="translate(-917.68491,-498.77643)"><g data-paper-data="{&quot;isPaintingLayer&quot;:true}" fill="#0031ff" fill-rule="nonzero" stroke="none" stroke-linecap="butt" stroke-linejoin="miter" stroke-miterlimit="10" stroke-dasharray="" stroke-dashoffset="0" style="mix-blend-mode: normal"><path d="M925.72159,527.1894c-3.30593,-5.8771 -4.94771,-12.95504 -7.09027,-19.34934c-0.75301,-2.24728 -1.82204,-5.71878 0.3005,-7.36089c1.54252,-1.19337 5.31643,0.43346 6.76378,0.91514c7.30155,2.43 13.03527,7.93296 17.85238,13.79145c0.90649,1.10246 6.09222,5.27822 3.82134,7.54909c-1.78119,1.78119 -2.59381,1.55214 -4.375,0c-4.48245,-3.90606 -7.52085,-9.92196 -12.71068,-13.57231c-1.04613,-0.73581 -1.59393,-1.14112 -2.74961,-1.70293c-6.20476,-3.01635 -4.28361,-1.18401 -2.78644,3.45423c0.57502,1.7814 1.09864,3.6587 1.77474,5.40891c1.19816,3.10168 3.07695,5.83198 3.88675,9.07119v0.54545c0,1.17422 -0.80953,2.15936 -1.90093,2.42776c-0.90993,0.44206 -1.96664,0.27986 -2.78657,-1.17776z" stroke-width="0.5"/><path d="M967.10013,520.01194c1.19079,-2.29054 3.49783,-3.91704 5.21602,-5.83331c4.35388,-4.85582 9.4873,-10.94105 15.49544,-13.77279c2.21566,-1.04428 5.47381,-2.7386 7.61147,-0.60095c4.28893,4.28893 3.40637,20.41698 1.94866,25.10689c-0.64046,2.06057 -3.38425,8.68007 -6.58065,7.08186c-3.17607,-1.58804 2.52637,-9.73136 2.61803,-12.20004c0.08006,-2.15618 0.04399,-4.31578 0,-6.47299c-0.04998,-2.45119 0.35202,-7.57265 -1.26531,-9.42667c-0.2728,-0.31272 -3.08392,1.38316 -3.51238,1.76776c-3.34901,3.00626 -6.79515,5.8688 -10.0614,8.96439c-2.20469,2.0895 -6.06698,5.75918 -7.17782,8.0602c-0.03696,0.3173 -0.13333,0.61647 -0.2777,0.88608c-0.31458,1.25833 -1.34985,1.60981 -2.35027,1.31744c-1.31329,-0.07504 -2.35513,-1.16378 -2.35513,-2.49587c0,-0.37842 0.08407,-0.7372 0.23457,-1.05868c0.06955,-0.41788 0.21609,-0.86094 0.45647,-1.32332z" stroke-width="0.5"/><path d="M983.54545,549.56778c0,13.0289 -11.05043,23.59091 -24.68182,23.59091c-13.63139,0 -24.68182,-10.56201 -24.68182,-23.59091c0,-13.0289 11.05043,-23.59091 24.68182,-23.59091c13.63139,0 24.68182,10.56201 24.68182,23.59091z" stroke-width="0"/></g></g></svg>