<svg version="1.1" xmlns="http://www.w3.org/2000/svg" xmlns:xlink="http://www.w3.org/1999/xlink" width="1919" height="914.03163" viewBox="0,0,1919,914.03163"><defs><linearGradient x1="959.5" y1="1048.49852" x2="959.5" y2="1079.49852" gradientUnits="userSpaceOnUse" id="color-1"><stop offset="0" stop-color="#02ff00"/><stop offset="1" stop-color="#ffca00"/></linearGradient></defs><g transform="translate(0,-165.46689)"><g data-paper-data="{&quot;isPaintingLayer&quot;:true}" fill-rule="nonzero" stroke="none" stroke-linecap="butt" stroke-linejoin="miter" stroke-miterlimit="10" stroke-dasharray="" stroke-dashoffset="0" style="mix-blend-mode: normal"><path d="M0,1079.49852v-31h1919v31z" fill="url(#color-1)" stroke-width="NaN"/><text transform="translate(50.5,244.25001) scale(2.0818,2.0818)" font-size="40" xml:space="preserve" fill-opacity="0.50196" fill="#0084ff" fill-rule="nonzero" stroke="none" stroke-width="1" stroke-linecap="butt" stroke-linejoin="miter" stroke-miterlimit="10" stroke-dasharray="" stroke-dashoffset="0" font-family="Handwriting" font-weight="normal" text-anchor="start" style="mix-blend-mode: normal"><tspan x="0" dy="0">Mode Select:</tspan></text><path d="M127.64264,205.16518c0,-1.38071 1.11929,-2.5 2.5,-2.5c1.38071,0 2.5,1.11929 2.5,2.5c0,1.38071 -1.11929,2.5 -2.5,2.5c-1.38071,0 -2.5,-1.11929 -2.5,-2.5z" fill="#0084ff" stroke-width="0.5"/><text transform="translate(160.17267,851.37098) scale(1.75286,1.75286)" font-size="40" xml:space="preserve" fill-opacity="0.50196" fill="#0084ff" fill-rule="nonzero" stroke="none" stroke-width="1" stroke-linecap="butt" stroke-linejoin="miter" stroke-miterlimit="10" stroke-dasharray="" stroke-dashoffset="0" font-family="Handwriting" font-weight="normal" text-anchor="start" style="mix-blend-mode: normal"><tspan x="0" dy="0">To load:</tspan></text><text transform="translate(159.16667,614.62924) scale(1.75286,1.75286)" font-size="40" xml:space="preserve" fill-opacity="0.50196" fill="#0084ff" fill-rule="nonzero" stroke="none" stroke-width="1" stroke-linecap="butt" stroke-linejoin="miter" stroke-miterlimit="10" stroke-dasharray="" stroke-dashoffset="0" font-family="Handwriting" font-weight="normal" text-anchor="start" style="mix-blend-mode: normal"><tspan x="0" dy="0">To start a new game:</tspan></text><path d="M878.22204,561.67674c-6.61981,-11.76834 -9.90732,-25.94125 -14.1976,-38.74523c-1.50783,-4.49997 -3.64846,-11.45132 0.60172,-14.73949c3.08875,-2.38961 10.64565,0.86796 13.54383,1.83248c14.62067,4.86585 26.1019,15.885 35.74771,27.61608c1.81516,2.20757 12.1991,10.56914 7.65187,15.11634c-3.56667,3.56667 -5.19386,3.10801 -8.76053,0c-8.97568,-7.82152 -15.05979,-19.86779 -25.45194,-27.17727c-2.09478,-1.47339 -3.19169,-2.28499 -5.50583,-3.40996c-12.42445,-6.03996 -8.57753,-2.37087 -5.57958,6.91677c1.15142,3.56709 2.19992,7.3262 3.55375,10.83083c2.3992,6.21082 6.1613,11.67799 7.78285,18.1642v1.09221c0,2.35126 -1.62101,4.32391 -3.80643,4.86136c-1.82205,0.88518 -3.93801,0.56039 -5.57984,-2.35835z" fill="#0094cc" stroke-width="0.5"/><path d="M961.07866,547.30454c2.38444,-4.58659 7.00407,-7.8435 10.44459,-11.68065c8.71823,-9.72332 18.99742,-21.90842 31.02816,-27.57871c4.43665,-2.09107 10.96079,-5.48379 15.24125,-1.20335c8.58818,8.58818 6.82093,40.88308 3.90201,50.27418c-1.28246,4.1261 -6.77664,17.38102 -13.17713,14.18076c-6.35978,-3.1799 5.05882,-19.48613 5.24236,-24.42943c0.16031,-4.31755 0.08809,-8.64194 0,-12.96155c-0.10008,-4.90828 0.70489,-15.16352 -2.53366,-18.87602c-0.54626,-0.62619 -6.17526,2.76965 -7.03321,3.53977c-6.70608,6.01975 -13.60665,11.75172 -20.14701,17.95035c-4.41468,4.18403 -12.14856,11.53222 -14.37291,16.13979c-0.07401,0.63536 -0.26698,1.23442 -0.55607,1.77429c-0.62992,2.51969 -2.70295,3.22349 -4.70619,2.63805c-2.62974,-0.15026 -4.71593,-2.33036 -4.71593,-4.99774c0,-0.75775 0.16834,-1.47617 0.4697,-2.11991c0.13927,-0.83677 0.4327,-1.72395 0.91404,-2.64982z" fill="#0094cc" stroke-width="0.5"/><path d="M994.00886,606.48733c0,26.08914 -22.12744,47.23857 -49.42302,47.23857c-27.29557,0 -49.42302,-21.14943 -49.42302,-47.23857c0,-26.08914 22.12744,-47.23857 49.42302,-47.23857c27.29557,0 49.42302,21.14943 49.42302,47.23857z" fill="#0094cc" stroke-width="0"/><path d="M878.71753,799.40947c-6.61982,-11.76834 -9.90732,-25.94124 -14.1976,-38.74523c-1.50783,-4.49996 -3.64846,-11.45132 0.60172,-14.73949c3.08875,-2.38961 10.64565,0.86796 13.54383,1.83248c14.62066,4.86585 26.1019,15.885 35.7477,27.61608c1.81516,2.20757 12.1991,10.56913 7.65187,15.11634c-3.56666,3.56666 -5.19386,3.10802 -8.76052,0c-8.97568,-7.82151 -15.0598,-19.86779 -25.45194,-27.17727c-2.09478,-1.47339 -3.19169,-2.28499 -5.50583,-3.40996c-12.42445,-6.03995 -8.57752,-2.37087 -5.57958,6.91677c1.15143,3.56709 2.19992,7.3262 3.55375,10.83083c2.3992,6.21082 6.1613,11.67799 7.78285,18.1642v1.09222c0,2.35127 -1.621,4.32391 -3.80643,4.86136c-1.82205,0.88518 -3.93801,0.56039 -5.57984,-2.35836z" fill="#bfff00" stroke-width="0.5"/><path d="M961.57416,785.03728c2.38445,-4.58659 7.00407,-7.84351 10.44459,-11.68066c8.71824,-9.72332 18.99742,-21.90842 31.02816,-27.57871c4.43665,-2.09107 10.96079,-5.48379 15.24125,-1.20335c8.58818,8.58818 6.82093,40.88307 3.90201,50.27418c-1.28246,4.12609 -6.77664,17.38103 -13.17713,14.18076c-6.35978,-3.1799 5.05882,-19.48613 5.24236,-24.42943c0.16032,-4.31754 0.08809,-8.64194 0,-12.96155c-0.10008,-4.90828 0.70489,-15.16352 -2.53366,-18.87602c-0.54625,-0.62619 -6.17526,2.76964 -7.03321,3.53977c-6.70608,6.01975 -13.60665,11.75172 -20.14701,17.95034c-4.41468,4.18403 -12.14856,11.53222 -14.37291,16.1398c-0.07401,0.63536 -0.26698,1.23442 -0.55606,1.77429c-0.62991,2.51968 -2.70295,3.2235 -4.70619,2.63805c-2.62974,-0.15026 -4.71592,-2.33036 -4.71592,-4.99775c0,-0.75775 0.16834,-1.47618 0.4697,-2.11991c0.13927,-0.83677 0.43269,-1.72395 0.91404,-2.64982z" fill="#bfff00" stroke-width="0.5"/><path d="M994.50436,844.22006c0,26.08915 -22.12745,47.23858 -49.42302,47.23858c-27.29557,0 -49.42301,-21.14943 -49.42301,-47.23858c0,-26.08915 22.12744,-47.23857 49.42301,-47.23857c27.29557,0 49.42302,21.14942 49.42302,47.23857z" fill="#bfff00" stroke-width="0"/><path d="M1079.73382,861.10606c-1.28624,2.14373 -3.42997,0.85749 -3.42997,0.85749l-3.22004,-1.93203c-4.17689,-2.50827 -9.59435,-4.29544 -13.47201,-7.19261c-5.99182,-4.47676 -10.1182,-10.768 -16.44149,-14.96299c0,0 -0.53734,-0.35822 -0.88374,-0.98364c-1.46915,0.14514 -3.01943,0.11825 -4.00178,-0.83022c-3.14678,-3.03823 0.87078,-10.06313 2.33765,-12.85266c0,-2.19725 0.78464,-4.3581 1.62493,-6.38833c0.70503,-1.70343 0.78703,-3.73345 1.92257,-5.1858c1.41284,-1.80701 4.50493,-1.51082 6.12687,-3.13277c0.60578,-0.60578 0.66675,-1.5789 1.0332,-2.35327c1.4346,-3.03157 3.00457,-6.00913 4.5045,-9.00901l1.5015,-3.003c0,0 1.11803,-2.23607 3.3541,-1.11803c2.23607,1.11803 1.11803,3.3541 1.11803,3.3541l-1.5015,3.003c-1.50053,3.00105 -2.95293,6.03409 -4.5045,9.00901c-0.6397,1.22654 -0.99164,2.67457 -1.9698,3.65274c-1.54363,1.54363 -4.63219,1.08558 -5.88514,2.87324c-0.76009,1.08447 -0.60837,2.58589 -1.08044,3.82321c-0.68798,1.80324 -1.37808,3.69366 -1.37808,5.62368c-1.12034,2.33409 -3.11956,5.79021 -3.66836,8.16836c-0.07029,0.30459 0.39702,-0.49771 0.66085,-0.66536c1.33683,-0.84945 2.59219,-1.82116 3.86937,-2.7579c1.53972,-1.12931 3.03009,-2.40265 4.79198,-3.13874c1.46227,-0.61091 3.17931,-0.31954 4.68305,-0.81974c1.64652,-0.54769 2.98705,-1.88459 4.67361,-2.29263c4.17704,-1.01059 10.29706,-0.06688 14.59841,-0.06688c8.33834,0 16.67668,0 25.01502,0c1.20092,0 9.18793,-0.01691 9.59949,0.07073c1.43743,0.3061 2.63268,1.30714 3.94903,1.96072c6.85567,3.54306 12.87244,7.71636 19.29734,11.85543c2.83745,1.82796 6.41409,2.6264 9.15646,4.60303c4.86161,3.50412 9.049,9.00335 13.28697,13.24132c10.08402,10.08402 19.63245,20.71108 31.55111,28.66655c3.23911,1.7163 6.027,0.75319 9.50734,1.59707c8.00879,1.9419 15.70676,4.74943 23.99689,5.58282c4.48345,0.45071 9.29511,-0.0101 13.79951,-0.0101c10.34034,0 20.68068,0 31.02102,0c0,0 1.95858,0 2.40859,1.73357c4.47477,-1.29504 8.96241,-2.59911 13.0875,-4.51884c2.94766,-1.37177 5.63966,-3.23667 8.46251,-4.84973c6.49537,-3.71164 13.16061,-7.18879 19.49693,-11.15151c1.41308,-0.88373 2.81702,-1.78228 4.23999,-2.64999c0.99302,-0.60554 2.05066,-1.10795 3.00736,-1.7694c0.34985,-0.24188 1.06106,-0.5342 0.88345,-0.92067c-0.94327,-2.05254 -4.0088,-2.10028 -6.10614,-2.93922c-2.41148,-0.96459 -4.32764,-2.87847 -6.40143,-4.44214c-0.99775,-0.75232 -2.43668,-0.86709 -3.30899,-1.76184c-4.05912,-4.16352 -3.73524,-10.0301 -3.73524,-15.28128c0,-6.61701 0.12378,-13.20743 -0.34976,-19.80925c-0.83141,-11.64386 -2.01763,-23.32357 -2.497,-34.9865c-0.19247,-4.68265 0.19082,-9.43089 -0.15053,-14.10441c-1.32292,-18.11215 -5.00228,-36.3141 -7.56009,-54.29082c-1.87671,-13.18986 -4.02206,-26.26003 -6.45814,-39.3581c-0.86091,-4.62888 -0.90887,-10.06453 -2.27214,-14.54301c-1.3452,-4.41912 -4.35682,-8.99571 -6.36057,-13.16381c-4.42738,-9.20964 -8.73779,-18.47855 -13.06786,-27.73434c-0.53706,-0.80311 -4.97008,-7.42806 -5.45007,-8.16274c-0.79262,-1.21322 -1.24293,-2.71663 -2.33883,-3.66486c-1.1452,-0.99088 -2.80942,-1.15711 -4.11701,-1.92103c-1.49541,-0.87366 -2.84124,-1.98129 -4.26078,-2.97348c-6.83774,-4.77924 -13.75285,-9.47018 -20.51175,-14.36005c-14.72711,-10.65462 -28.94882,-21.85459 -44.08107,-31.94276c-6.23809,-4.15873 -12.37307,-8.96931 -18.91884,-12.61837c-4.30228,-2.39838 -8.87489,-4.42859 -13.27962,-6.63441c-5.16096,-2.58453 -11.64931,-5.65055 -17.3993,-6.57394c-4.39095,-0.70515 -9.65442,0.03257 -14.10229,0.03257c-3.33333,0 -6.66759,0.07861 -10,0c-1.02412,-0.02416 -2.13233,-0.60888 -3.06732,-0.1903c-1.0773,0.4823 -1.46373,1.87616 -2.37474,2.62666c-0.12261,0.10101 -8.25994,5.52125 -8.51872,5.69377c-4.09833,2.73222 -8.34972,6.31393 -12.76471,8.484c-3.30381,1.6239 -7.19289,2.70794 -10.89812,3.80381c3.89649,3.86001 8.03234,7.78188 12.3916,10.9604c3.67401,2.67888 7.94534,4.82645 11.73997,7.35557l0.76748,-0.17127c0,0 2.4809,0.30848 2.17242,2.78937c-0.30848,2.4809 -2.78937,2.17242 -2.78937,2.17242l-2.92403,-0.63027c-3.85308,-2.56939 -8.18171,-4.75563 -11.91226,-7.47573c-5.16511,-3.76609 -10.02927,-8.51613 -14.56894,-13.04629c-0.41847,1.19205 -0.92455,2.36473 -2.005,2.78001c-2.02085,0.77674 -5.37301,1.06925 -6.44396,-0.8123c-1.12896,-1.98347 0.77069,-4.76244 2.3138,-6.44396c0.54369,-0.59245 1.40968,-0.49736 2.2954,-0.38998c0.3129,-0.8899 0.62906,-1.7813 0.76193,-2.70271c0.60522,-4.19691 -0.60948,-6.19479 2.2908,-9.83056c2.11187,-2.64743 7.91651,-5.93124 10.75171,-7.82176c5.495,-3.66409 10.98927,-7.32928 16.4899,-10.98492c2.92458,-2.66276 5.33742,-4.29042 7.02906,-7.80201l1.9698,-2.15123c0,0 1.76777,-1.76777 3.53553,0c1.76777,1.76777 0,3.53553 0,3.53553l-1.0332,0.85177c-2.16687,4.21529 -4.89646,6.31284 -8.42548,9.50802c-5.59365,3.73993 -11.19309,7.47119 -16.79211,11.20309c-2.46461,1.64273 -7.56407,4.44292 -9.58081,6.73425c-1.69091,1.92115 -0.98009,5.4789 -1.28985,7.49504c-0.03948,0.257 -0.08088,0.5142 -0.12479,0.77124c0.96397,-0.38168 1.92372,-0.77995 2.9015,-1.11016c3.05486,-1.03166 6.27772,-1.6523 9.17142,-3.07462c4.21931,-2.07389 8.28163,-5.54689 12.1968,-8.15701c2.70518,-1.80345 5.57231,-3.38328 8.12228,-5.40023c1.29685,-1.02577 2.1038,-2.74622 3.63127,-3.37935c1.53483,-0.63618 3.31958,-0.15863 4.98073,-0.1903c3.33273,-0.06354 6.66667,0 10,0c4.72067,0 10.24742,-0.71757 14.90672,0.03257c6.2468,1.00572 13.22636,4.23862 18.83095,7.03667c4.49839,2.24579 9.1654,4.32841 13.55319,6.782c6.63585,3.71067 12.85496,8.56417 19.18271,12.78267c15.18582,10.12388 29.45934,21.35985 44.23834,32.05202c6.73842,4.87504 13.63878,9.5398 20.44848,14.31502c2.79358,1.95897 6.24161,2.97012 8.8012,5.22625c1.41383,1.2462 2.15,3.09609 3.20817,4.65565c0.52717,0.77696 5.17449,7.77207 5.64393,8.47826c4.41682,9.33676 8.7449,18.71705 13.22007,28.02597c2.11512,4.39972 5.21841,9.21211 6.63754,13.87411c1.41813,4.65871 1.50848,10.26973 2.4045,15.08454c2.4504,13.16735 4.60596,26.30844 6.49263,39.56829c2.57513,18.09846 6.27242,36.42172 7.59852,54.65732c0.34321,4.7196 -0.0366,9.50866 0.15774,14.23689c0.4773,11.61249 1.66071,23.24217 2.48852,34.83573c0.47785,6.72183 0.36246,13.42854 0.36246,20.16536c0,3.57173 -0.69901,8.88406 2.27077,11.74575c0.71263,0.68669 1.90357,0.64971 2.69701,1.24116c1.10769,0.8257 1.79774,2.13469 2.91745,2.94401c2.18442,1.57888 5.33913,1.40217 7.50751,3.003c1.66951,1.23254 3.68353,2.65556 4.09449,4.68965c0.84789,4.19663 -3.73589,6.17334 -6.17625,7.73097c-7.78089,4.9664 -15.89143,9.32284 -23.90623,13.90273c-0.29459,0.16834 -8.73142,4.99383 -8.90235,5.07305c-7.12935,3.30379 -15.27066,4.82964 -22.64375,7.55793c-11.66221,4.31542 -23.07446,10.06838 -34.30678,15.38895c-8.26333,3.91421 -16.34442,7.32697 -23.66299,12.8159c-8.02979,6.02234 -15.93357,12.00921 -25.20828,16.0604c-9.12508,3.98584 -19.11028,6.6442 -28.52059,9.91172c-14.08232,4.88978 -28.62685,10.23774 -43.6651,10.67422c-10.01194,0.2747 -19.50868,1.88368 -29.38169,3.52918c-7.60761,1.26793 -15.30534,2.28819 -22.86471,3.80926c-16.22101,3.26393 -32.14392,7.93229 -48.3803,11.17357c-13.07462,2.6101 -26.25241,4.7039 -39.31694,7.32738c-21.25641,4.26848 -42.26265,9.5425 -63.57572,13.60213c-9.13329,1.72814 -18.55077,1.5899 -27.82746,2.0178c-23.50272,1.08407 -47.1332,0.46342 -70.66013,0.46342c-11.65092,0 -23.04557,-0.81242 -34.66346,-1.50565c-22.31217,-1.33135 -44.71482,-1.75931 -67.04681,-2.7744c-8.38958,-0.38717 -16.50603,-2.30016 -24.83198,-3.25492c-14.88108,-1.70646 -29.92793,-1.74232 -44.84413,-2.98617c-10.90932,-0.90972 -21.5535,-3.02582 -32.50869,-3.54675c-28.6086,-1.36037 -57.24119,-0.94713 -85.8797,-0.94713c0,0 -2.5,0 -2.5,-2.5c0,-2.5 2.5,-2.5 2.5,-2.5c28.71785,0 57.42926,-0.41137 86.11719,0.95277c11.03194,0.52458 21.74776,2.65077 32.73165,3.56236c14.95331,1.24102 30.03548,1.2868 44.95332,2.99748c8.20821,0.94126 16.21975,2.85768 24.48938,3.22752c22.35237,1.01602 44.77503,1.4459 67.10765,2.77753c11.52352,0.68712 22.81976,1.49735 34.37558,1.49735c23.44988,0 47.00402,0.62241 70.42974,-0.45811c9.02831,-0.41644 18.2376,-0.23043 27.12228,-1.9348c21.2968,-4.05653 42.28656,-9.32732 63.52689,-13.59257c13.06649,-2.62387 26.24597,-4.71801 39.32249,-7.32849c16.23179,-3.24037 32.15001,-7.90701 48.36659,-11.17081c7.61611,-1.53284 15.37056,-2.56329 23.03526,-3.84074c10.09826,-1.68304 19.82288,-3.31427 30.06655,-3.59533c14.48855,-0.37245 28.60371,-5.69101 42.16206,-10.39943c9.28678,-3.22503 19.15476,-5.83714 28.15936,-9.77035c8.91963,-3.8961 16.48872,-9.68772 24.20968,-15.47844c7.59505,-5.69629 15.95401,-9.2758 24.52256,-13.33459c11.06442,-5.24104 22.29868,-10.87954 33.77152,-15.20746c-7.74618,0 -15.49235,0 -23.23853,0c-4.65668,0 -9.61299,0.45133 -14.24854,-0.0101c-8.49472,-0.84558 -16.43611,-3.6187 -24.62997,-5.68111c-2.34728,-0.59081 -4.88424,0.12349 -7.25143,-0.38167c-1.33255,-0.28437 -2.45563,-1.18157 -3.68344,-1.77235c-12.31036,-8.19788 -22.17032,-19.04888 -32.57701,-29.45557c-4.03671,-4.03671 -8.05202,-9.38851 -12.67499,-12.72064c-2.62041,-1.88873 -6.13432,-2.65642 -8.86156,-4.40598c-6.33308,-4.06276 -12.21118,-8.17867 -18.96379,-11.66656c-3.80545,-2.07303 -6.98175,-1.47358 -11.25341,-1.47358c-8.33834,0 -16.67668,0 -25.01502,0c-3.17317,0 -6.34645,0.02511 -9.51952,0c-1.31019,-0.01037 -2.66132,-0.39374 -3.93012,-0.06688c-1.54769,0.39871 -2.7548,1.67308 -4.27066,2.17951c-1.40639,0.46985 -3.01125,0.17024 -4.3907,0.71413c-1.74933,0.68973 -3.07477,2.06087 -4.45184,3.33585c0.01569,0.11322 0.0238,0.22886 0.0238,0.34639c0,0.41167 -0.0995,0.8001 -0.27577,1.14255c5.13506,4.11558 9.00289,9.38999 14.25256,13.34586c3.7206,2.80364 9.09714,4.54905 13.12094,6.96136l3.22004,1.93203c0,0 2.14373,1.28624 0.85749,3.42997z" fill-opacity="0.49804" fill="#000000" stroke-width="0.5"/><text transform="translate(1068.58108,675.13514) scale(0.5,0.5)" font-size="40" xml:space="preserve" fill-opacity="0.49804" fill="#000000" fill-rule="nonzero" stroke="none" stroke-width="1" stroke-linecap="butt" stroke-linejoin="miter" stroke-miterlimit="10" stroke-dasharray="" stroke-dashoffset="0" font-family="Handwriting" font-weight="normal" text-anchor="start" style="mix-blend-mode: normal"><tspan x="0" dy="0">CLICKY CLICK!</tspan></text></g></g></svg>