<svg version="1.1" xmlns="http://www.w3.org/2000/svg" xmlns:xlink="http://www.w3.org/1999/xlink" width="1983.86235" height="977.27716" viewBox="0,0,1983.86235,977.27716"><g transform="translate(66,-147.74996)"><g data-paper-data="{&quot;isPaintingLayer&quot;:true}" fill-rule="nonzero" stroke="#000000" stroke-linejoin="miter" stroke-miterlimit="10" stroke-dasharray="" stroke-dashoffset="0" style="mix-blend-mode: normal"><path d="M58,996.4837v-483h862v483z" fill="#707070" stroke-width="0.5" stroke-linecap="butt"/><path d="M58,508.4837l-119,497" fill="none" stroke-width="10" stroke-linecap="round"/><path d="M68.5,986.5v-301h10v301z" fill="#000000" stroke-width="0.5" stroke-linecap="butt"/><path d="M73.5,711.5v-20h706v20z" fill="#000000" stroke-width="0.5" stroke-linecap="butt"/><path d="M906.5,869.5v-351h10v351z" fill="#000000" stroke-width="0.5" stroke-linecap="butt"/><path d="M63.5,537.5v-17h849v17z" fill="#000000" stroke-width="0.5" stroke-linecap="butt"/><path d="M254.5,860.5v-11h657v11z" fill="#000000" stroke-width="0.5" stroke-linecap="butt"/><path d="M76.5,979.5v-15h466v15z" fill="#000000" stroke-width="0.5" stroke-linecap="butt"/><path d="M720.5,982.5v-17h187v17z" fill="#000000" stroke-width="0.5" stroke-linecap="butt"/><path d="M988.5,155h320l453,-1l150,1l-4,223v245l-616,-4" fill="none" stroke-width="12.5" stroke-linecap="round"/><path d="M1431.5,1101.5l-434,17l2,-19.5l38,-654l229,-99l398,12" fill="none" stroke-width="12.5" stroke-linecap="round"/><path d="M1535.5,1038.5l348,-11" fill="none" stroke-width="12.5" stroke-linecap="round"/></g></g></svg>