<svg version="1.1" xmlns="http://www.w3.org/2000/svg" xmlns:xlink="http://www.w3.org/1999/xlink" width="3449.23569" height="1090" viewBox="0,0,3449.23569,1090"><defs><linearGradient x1="202.5" y1="1001" x2="202.5" y2="1076" gradientUnits="userSpaceOnUse" id="color-1"><stop offset="0" stop-color="#ffffff" stop-opacity="0.54902"/><stop offset="1" stop-color="#1a1a1a"/></linearGradient><linearGradient x1="2493.24068" y1="617.25616" x2="2493.24068" y2="705.4837" gradientUnits="userSpaceOnUse" id="color-2"><stop offset="0" stop-color="#ffffff" stop-opacity="0.54902"/><stop offset="1" stop-color="#1a1a1a"/></linearGradient><linearGradient x1="2495.24068" y1="197.25616" x2="2495.24068" y2="285.4837" gradientUnits="userSpaceOnUse" id="color-3"><stop offset="0" stop-color="#ffffff" stop-opacity="0.54902"/><stop offset="1" stop-color="#1a1a1a"/></linearGradient><linearGradient x1="2348" y1="-14" x2="2348" y2="199" gradientUnits="userSpaceOnUse" id="color-4"><stop offset="0" stop-color="#ffffff" stop-opacity="0.54902"/><stop offset="1" stop-color="#1a1a1a"/></linearGradient><linearGradient x1="2346" y1="283" x2="2346" y2="631" gradientUnits="userSpaceOnUse" id="color-5"><stop offset="0" stop-color="#ffffff" stop-opacity="0.54902"/><stop offset="1" stop-color="#1a1a1a"/></linearGradient></defs><g transform="translate(3,14)"><g data-paper-data="{&quot;isPaintingLayer&quot;:true}" fill-rule="nonzero" stroke-linejoin="miter" stroke-miterlimit="10" stroke-dasharray="" stroke-dashoffset="0" style="mix-blend-mode: normal"><path d="M-3,1076v-75h411v75z" fill="url(#color-1)" stroke="none" stroke-width="0" stroke-linecap="butt"/><path d="M1542.24567,705.4837v-88.22754h1901.99002v88.22754z" fill="url(#color-2)" stroke="none" stroke-width="0" stroke-linecap="butt"/><path d="M1544.24567,285.4837v-88.22754h1901.99002v88.22755z" fill="url(#color-3)" stroke="none" stroke-width="0" stroke-linecap="butt"/><path d="M1259.5,246.4837l247,-6" fill="none" stroke="#000000" stroke-width="12.5" stroke-linecap="round"/><path d="M1093.5,221.4837l-77,-2" fill="none" stroke="#000000" stroke-width="12.5" stroke-linecap="round"/><path d="M1339.5,668.4837l-101,17" fill="none" stroke="#000000" stroke-width="12.5" stroke-linecap="round"/><path d="M1412.5,668.4837l99,-24" fill="none" stroke="#000000" stroke-width="12.5" stroke-linecap="round"/><path d="M1120.5,622.5l-165,11" fill="none" stroke="#000000" stroke-width="12.5" stroke-linecap="round"/><path d="M718.5,648.5h109" fill="none" stroke="#000000" stroke-width="12.5" stroke-linecap="round"/><path d="M536.5,641.5l-116,1" fill="none" stroke="#000000" stroke-width="12.5" stroke-linecap="round"/><path d="M348.5,599.5l-143,-17" fill="none" stroke="#000000" stroke-width="12.5" stroke-linecap="round"/><path d="M72.5,576.5h53" fill="none" stroke="#000000" stroke-width="12.5" stroke-linecap="round"/><path d="M69.5,238.5l231,-5" fill="none" stroke="#000000" stroke-width="12.5" stroke-linecap="round"/><path d="M591.5,292.5l61,-2" fill="none" stroke="#000000" stroke-width="12.5" stroke-linecap="round"/><path d="M675.5,176.5l134,-5" fill="none" stroke="#000000" stroke-width="12.5" stroke-linecap="round"/><path d="M797.5,304.5l-108,2" fill="none" stroke="#000000" stroke-width="12.5" stroke-linecap="round"/><path d="M853.5,289.5l61,-1" fill="none" stroke="#000000" stroke-width="12.5" stroke-linecap="round"/><path d="M2298.5,199v-213h99v213z" fill="url(#color-4)" stroke="none" stroke-width="0" stroke-linecap="butt"/><path d="M2292.5,631v-348h107v348z" fill="url(#color-5)" stroke="none" stroke-width="0" stroke-linecap="butt"/></g></g></svg>