<svg version="1.1" xmlns="http://www.w3.org/2000/svg" xmlns:xlink="http://www.w3.org/1999/xlink" width="1721.23949" height="1099.5991" viewBox="0,0,1721.23949,1099.5991"><g transform="translate(-325.86862,2.29204)"><g data-paper-data="{&quot;isPaintingLayer&quot;:true}" fill="#000000" fill-rule="nonzero" stroke-width="0.5" stroke-linecap="butt" stroke-linejoin="miter" stroke-miterlimit="10" stroke-dasharray="" stroke-dashoffset="0" style="mix-blend-mode: normal"><path d="M431.22372,1008.46847v-157.65766h132.13213v157.65766z" stroke="#000000"/><path d="M636.92943,690.15015v-48.04805h229.72973v48.04805z" stroke="#000000"/><path d="M326.11862,536.997v-201.2012h73.57357v201.2012z" stroke="#000000"/><path d="M509.3018,502.46246v-87.08709h87.08709v87.08709z" stroke="#000000"/><path d="M527.31982,804.26426v-34.53453h40.54054v34.53453z" stroke="#000000"/><path d="M468.76126,224.68468v-82.58258h240.24024v82.58258z" stroke="#000000"/><path d="M884.67718,1050.51051v-968.46847h120.12012v968.46847z" stroke="#000000"/><path d="M1056.63664,358.31832v-73.57357h166.66667v73.57357z" stroke="#000000"/><path d="M1432.01201,792.25225v-794.29429h111.11111v794.29429z" stroke="#000000"/><path d="M1352.51752,649.52452c-4.41942,-4.41942 0,-8.83883 0,-8.83883l0.92092,-0.83208c1.69503,-2.22514 3.104,-4.70067 5.08509,-6.67542c2.64482,-2.63636 11.67787,-8.43213 14.57594,-10.36366c21.01585,-14.00685 43.43407,-24.48596 67.62714,-31.74388c0,0 5.98641,-1.79592 7.78234,4.19049c1.79592,5.98641 -4.19049,7.78234 -4.19049,7.78234c-23.00833,6.9025 -44.30073,16.84499 -64.28523,30.17168c-0.84088,0.56074 -11.11193,7.23644 -12.67085,8.80187c-1.55802,1.56452 -2.61595,3.55773 -3.92392,5.33659l-2.08208,2.17092c0,0 -4.41942,4.41942 -8.83883,0z" stroke="none"/><path d="M2044.86862,1017.47748c0,6.25 -6.25,6.25 -6.25,6.25l-3.01735,-0.18661c-8.52025,-2.13765 -17.1434,-3.49868 -25.89954,-4.32997c-10.91076,-1.03585 -22.14439,0.71933 -33.08773,-0.00365c-3.53137,-0.2333 -6.98015,-1.25339 -10.51051,-1.5015c-7.6912,-0.54053 -15.42034,0.01572 -23.13052,0.01572c-30.03521,0 -60.3058,1.50283 -90.09806,-2.93676c-28.73063,-4.29715 -57.79258,-6.67 -86.67941,-9.73994c-32.9176,-3.49832 -66.09053,-7.17719 -99.19424,-8.34823c-23.87752,-0.84466 -47.95783,0.00391 -71.85112,0.00391c-85.19491,0 -170.41055,3.52075 -255.58843,5.68629c-31.26803,0.79369 -62.94281,1.46225 -94.08152,-1.19135c-14.78924,-1.26032 -30.17179,0.31431 -45.01075,0.0018c-5.1154,-0.10773 -10.1805,-1.0366 -15.27417,-1.51983c-10.03741,-0.95224 -20.04349,-1.97538 -30.07001,-3.0068c-8.12635,-0.83594 -16.35709,-0.56949 -24.39403,-2.14454c-7.73446,-1.55012 -15.3626,-3.59297 -23.01461,-5.50904c-2.2681,-0.56794 -13.12395,-2.48387 -15.14662,-3.03643c-8.17913,-2.23441 -16.4967,-5.45074 -23.92591,-9.57085c-9.63158,-5.3415 -18.29786,-12.00983 -27.35882,-18.21369c-7.40895,-5.07277 -17.71689,-10.35509 -25.84398,-14.43188c-7.70073,-3.86291 -21.1628,-2.61925 -29.37523,-2.61925c0,0 -6.25,0 -6.25,-6.25c0,-6.25 6.25,-6.25 6.25,-6.25c5.7108,0 11.48231,-0.80027 17.13238,0.03042c4.32547,0.63594 8.58233,1.67374 12.86712,2.54241c1.23392,0.25016 2.54902,0.2781 3.68833,0.81393c1.0772,0.50663 10.43049,5.70917 14.39248,7.91027c4.60748,2.55971 9.45851,4.72487 13.81759,7.68788c8.86807,6.0279 17.29958,12.59226 26.69524,17.82234c6.53289,3.63653 13.92168,6.48791 21.11914,8.44717c4.8813,1.32877 9.97508,1.74441 14.88341,2.96958c7.48994,1.86956 14.95046,3.88906 22.52092,5.39987c7.58218,1.55696 15.47436,1.17286 23.16352,1.96157c10.00015,1.02576 19.97936,2.04987 29.99005,2.99921c4.92133,0.4667 9.81328,1.39329 14.75586,1.48317c14.8749,0.2705 30.25108,-1.22549 45.07934,0.0018c4.16106,0.3444 8.2816,1.13213 12.44942,1.38188c1.72243,0.10321 23.07787,0.1088 24.63242,0.1099c18.66606,0.01319 37.33041,0.15966 55.99073,-0.31552c85.28378,-2.16823 170.60523,-5.69033 255.90613,-5.69033c24.04094,0 48.26782,-0.84598 72.29303,0.00391c33.39769,1.18144 66.86354,4.88104 100.07333,8.41041c29.06389,3.08876 58.29829,5.49028 87.20602,9.80725c29.15683,4.37072 58.85402,2.79946 88.25045,2.79946c8.00555,0 16.03001,-0.53439 24.01663,0.01572c3.53071,0.24319 6.97942,1.26389 10.51051,1.5015c10.92479,0.73515 22.07487,-1.01275 32.97834,-0.00365c9.52319,0.88136 18.8875,2.36989 28.15452,4.67904l-0.01435,-0.18661c0,0 6.25,0 6.25,6.25z" stroke="none"/><path d="M1919.23048,1097.05706v-190.69069h127.62763v190.69069z" stroke="#000000"/><path d="M1826.13739,865.07508c0,-46.02373 31.2594,-83.33333 69.81982,-83.33333c38.56042,0 69.81982,37.3096 69.81982,83.33333c0,46.02373 -31.2594,83.33333 -69.81982,83.33333c-38.56042,0 -69.81982,-37.3096 -69.81982,-83.33333z" stroke="#000000"/><path d="M1507.81907,715.67568c0,-50.58464 23.52858,-91.59159 52.55255,-91.59159c29.02397,0 52.55255,41.00695 52.55255,91.59159c0,50.58464 -23.52858,91.59159 -52.55255,91.59159c-29.02397,0 -52.55255,-41.00695 -52.55255,-91.59159z" stroke="#000000"/><path d="M1758.56982,462.67267c0,-0.41463 -0.33612,-0.75075 -0.75075,-0.75075c-0.41463,0 -0.75075,0.33612 -0.75075,0.75075c0,0.41463 0.33612,0.75075 0.75075,0.75075c0.41463,0 0.75075,-0.33612 0.75075,-0.75075z" stroke="#000000"/></g></g></svg>