<svg version="1.1" xmlns="http://www.w3.org/2000/svg" xmlns:xlink="http://www.w3.org/1999/xlink" width="81.79206" height="72.97973" viewBox="0,0,81.79206,72.97973"><g transform="translate(-917.68492,-500.05057)"><g data-paper-data="{&quot;isPaintingLayer&quot;:true}" fill="#0031ff" fill-rule="nonzero" stroke="none" stroke-linecap="butt" stroke-linejoin="miter" stroke-miterlimit="10" stroke-dasharray="" stroke-dashoffset="0" style="mix-blend-mode: normal"><path d="M925.72159,527.1894c-3.30593,-5.8771 -4.94771,-12.95504 -7.09027,-19.34934c-0.75301,-2.24728 -1.82204,-5.71878 0.3005,-7.36089c1.54252,-1.19337 5.31643,0.43346 6.76378,0.91514c7.30155,2.43 13.03527,7.93296 17.85238,13.79145c0.90649,1.10246 6.09222,5.27822 3.82134,7.54909c-1.78119,1.78119 -2.59381,1.55214 -4.375,0c-4.48245,-3.90606 -7.52085,-9.92196 -12.71068,-13.57231c-1.04613,-0.73581 -1.59393,-1.14112 -2.74961,-1.70293c-6.20476,-3.01635 -4.28361,-1.18401 -2.78644,3.45423c0.57502,1.7814 1.09864,3.6587 1.77474,5.40891c1.19816,3.10168 3.07695,5.83198 3.88675,9.07119v0.54545c0,1.17422 -0.80953,2.15936 -1.90093,2.42776c-0.90993,0.44206 -1.96664,0.27986 -2.78657,-1.17776z" stroke-width="0.5"/><path d="M966.62315,517.24811c1.5753,-2.04523 4.13258,-3.24034 6.16118,-4.82433c5.14048,-4.01382 11.26469,-9.10067 17.67741,-10.83087c2.36486,-0.63806 5.87033,-1.73255 7.59844,0.74793c3.4672,4.97678 -0.23987,20.6978 -2.50019,25.05798c-0.9931,1.9157 -4.85899,7.94902 -7.72425,5.81323c-2.84703,-2.12219 4.19952,-9.13487 4.7242,-11.5489c0.45826,-2.10843 0.80281,-4.24068 1.13915,-6.37196c0.38217,-2.42173 1.6792,-7.39251 0.41339,-9.50222c-0.21351,-0.35585 -3.27921,0.81885 -3.76866,1.12205c-3.8258,2.36996 -7.72192,4.58136 -11.48197,7.05382c-2.538,1.66889 -6.98582,4.6016 -8.48427,6.67121c-0.09223,0.30584 -0.23973,0.58339 -0.4293,0.82338c-0.53111,1.18333 -1.61208,1.34713 -2.54544,0.88327c-1.27959,-0.30499 -2.11356,-1.56008 -1.87914,-2.87139c0.06659,-0.37252 0.2125,-0.71089 0.41722,-1.00087c0.14201,-0.39912 0.36423,-0.80947 0.68223,-1.22233z" stroke-width="0.5"/><path d="M983.54545,549.43939c0,13.0289 -11.05043,23.59091 -24.68182,23.59091c-13.63139,0 -24.68182,-10.56201 -24.68182,-23.59091c0,-13.0289 11.05043,-23.59091 24.68182,-23.59091c13.63139,0 24.68182,10.56201 24.68182,23.59091z" stroke-width="0"/></g></g></svg>