<svg version="1.1" xmlns="http://www.w3.org/2000/svg" xmlns:xlink="http://www.w3.org/1999/xlink" width="1919" height="914.00996" viewBox="0,0,1919,914.00996"><defs><linearGradient x1="959.5" y1="1048.49852" x2="959.5" y2="1079.49852" gradientUnits="userSpaceOnUse" id="color-1"><stop offset="0" stop-color="#02ff00"/><stop offset="1" stop-color="#ffca00"/></linearGradient></defs><g transform="translate(0,-165.48856)"><g data-paper-data="{&quot;isPaintingLayer&quot;:true}" fill-rule="nonzero" stroke="none" stroke-linecap="butt" stroke-linejoin="miter" stroke-miterlimit="10" stroke-dasharray="" stroke-dashoffset="0" style="mix-blend-mode: normal"><path d="M0,1079.49852v-31h1919v31z" fill="url(#color-1)" stroke-width="NaN"/><text transform="translate(50.5,244.25) scale(2.0818,2.0818)" font-size="40" xml:space="preserve" fill-opacity="0.50196" fill="#0084ff" fill-rule="nonzero" stroke="none" stroke-width="1" stroke-linecap="butt" stroke-linejoin="miter" stroke-miterlimit="10" stroke-dasharray="" stroke-dashoffset="0" font-family="Handwriting" font-weight="normal" text-anchor="start" style="mix-blend-mode: normal"><tspan x="0" dy="0">Mode Select:</tspan></text><path d="M878.22204,561.67675c-6.61981,-11.76834 -9.90732,-25.94125 -14.1976,-38.74523c-1.50783,-4.49997 -3.64846,-11.45132 0.60172,-14.73949c3.08875,-2.38961 10.64565,0.86796 13.54383,1.83248c14.62067,4.86585 26.1019,15.885 35.74771,27.61608c1.81516,2.20757 12.1991,10.56914 7.65187,15.11634c-3.56667,3.56667 -5.19386,3.10801 -8.76053,0c-8.97568,-7.82152 -15.05979,-19.86779 -25.45194,-27.17727c-2.09478,-1.47339 -3.19169,-2.28499 -5.50583,-3.40996c-12.42445,-6.03996 -8.57753,-2.37087 -5.57958,6.91677c1.15142,3.56709 2.19992,7.3262 3.55375,10.83083c2.3992,6.21082 6.1613,11.67799 7.78285,18.1642v1.09221c0,2.35126 -1.62101,4.32391 -3.80643,4.86136c-1.82205,0.88518 -3.93801,0.56039 -5.57984,-2.35835z" fill="#0094cc" stroke-width="0.5"/><path d="M961.07866,547.30454c2.38444,-4.58659 7.00407,-7.8435 10.44459,-11.68065c8.71823,-9.72332 18.99742,-21.90842 31.02816,-27.57871c4.43665,-2.09107 10.96079,-5.48379 15.24125,-1.20335c8.58818,8.58818 6.82093,40.88308 3.90201,50.27418c-1.28246,4.1261 -6.77664,17.38102 -13.17713,14.18076c-6.35978,-3.1799 5.05882,-19.48613 5.24236,-24.42943c0.16031,-4.31755 0.08809,-8.64194 0,-12.96155c-0.10008,-4.90828 0.70489,-15.16352 -2.53366,-18.87602c-0.54626,-0.62619 -6.17526,2.76965 -7.03321,3.53977c-6.70608,6.01975 -13.60665,11.75172 -20.14701,17.95035c-4.41468,4.18403 -12.14856,11.53222 -14.37291,16.13979c-0.07401,0.63536 -0.26698,1.23442 -0.55607,1.77429c-0.62992,2.51969 -2.70295,3.22349 -4.70619,2.63805c-2.62974,-0.15026 -4.71593,-2.33036 -4.71593,-4.99774c0,-0.75775 0.16834,-1.47617 0.4697,-2.11991c0.13927,-0.83677 0.4327,-1.72395 0.91404,-2.64982z" fill="#0094cc" stroke-width="0.5"/><path d="M994.00886,606.48734c0,26.08914 -22.12744,47.23857 -49.42302,47.23857c-27.29557,0 -49.42302,-21.14943 -49.42302,-47.23857c0,-26.08914 22.12744,-47.23857 49.42302,-47.23857c27.29557,0 49.42302,21.14943 49.42302,47.23857z" fill="#0094cc" stroke-width="0"/><path d="M878.71753,799.40948c-6.61982,-11.76834 -9.90732,-25.94124 -14.1976,-38.74523c-1.50783,-4.49996 -3.64846,-11.45132 0.60172,-14.73949c3.08875,-2.38961 10.64565,0.86796 13.54383,1.83248c14.62066,4.86585 26.1019,15.885 35.7477,27.61608c1.81516,2.20757 12.1991,10.56913 7.65187,15.11634c-3.56666,3.56666 -5.19386,3.10802 -8.76052,0c-8.97568,-7.82151 -15.0598,-19.86779 -25.45194,-27.17727c-2.09478,-1.47339 -3.19169,-2.28499 -5.50583,-3.40996c-12.42445,-6.03995 -8.57752,-2.37087 -5.57958,6.91677c1.15143,3.56709 2.19992,7.3262 3.55375,10.83083c2.3992,6.21082 6.1613,11.67799 7.78285,18.1642v1.09222c0,2.35127 -1.621,4.32391 -3.80643,4.86136c-1.82205,0.88518 -3.93801,0.56039 -5.57984,-2.35836z" fill="#bfff00" stroke-width="0.5"/><path d="M961.57416,785.03729c2.38445,-4.58659 7.00407,-7.84351 10.44459,-11.68066c8.71824,-9.72332 18.99742,-21.90842 31.02816,-27.57871c4.43665,-2.09107 10.96079,-5.48379 15.24125,-1.20335c8.58818,8.58818 6.82093,40.88307 3.90201,50.27418c-1.28246,4.12609 -6.77664,17.38103 -13.17713,14.18076c-6.35978,-3.1799 5.05882,-19.48613 5.24236,-24.42943c0.16032,-4.31754 0.08809,-8.64194 0,-12.96155c-0.10008,-4.90828 0.70489,-15.16352 -2.53366,-18.87602c-0.54625,-0.62619 -6.17526,2.76964 -7.03321,3.53977c-6.70608,6.01975 -13.60665,11.75172 -20.14701,17.95034c-4.41468,4.18403 -12.14856,11.53222 -14.37291,16.1398c-0.07401,0.63536 -0.26698,1.23442 -0.55606,1.77429c-0.62991,2.51968 -2.70295,3.2235 -4.70619,2.63805c-2.62974,-0.15026 -4.71592,-2.33036 -4.71592,-4.99775c0,-0.75775 0.16834,-1.47618 0.4697,-2.11991c0.13927,-0.83677 0.43269,-1.72395 0.91404,-2.64982z" fill="#bfff00" stroke-width="0.5"/><path d="M994.50436,844.22007c0,26.08915 -22.12745,47.23858 -49.42302,47.23858c-27.29557,0 -49.42301,-21.14943 -49.42301,-47.23858c0,-26.08915 22.12744,-47.23857 49.42301,-47.23857c27.29557,0 49.42302,21.14942 49.42302,47.23857z" fill="#bfff00" stroke-width="0"/></g></g></svg>