<svg version="1.1" xmlns="http://www.w3.org/2000/svg" xmlns:xlink="http://www.w3.org/1999/xlink" width="1799" height="762.50102" viewBox="0,0,1799,762.50102"><defs><radialGradient cx="182.5" cy="847.50102" r="87" gradientUnits="userSpaceOnUse" id="color-1"><stop offset="0" stop-color="#ffffff" stop-opacity="0"/><stop offset="1" stop-color="#ffffff"/></radialGradient><radialGradient cx="364" cy="672.00102" r="80" gradientUnits="userSpaceOnUse" id="color-2"><stop offset="0" stop-color="#ffffff" stop-opacity="0"/><stop offset="1" stop-color="#ffffff"/></radialGradient><radialGradient cx="648.5" cy="462.50102" r="111.5" gradientUnits="userSpaceOnUse" id="color-3"><stop offset="0" stop-color="#ffffff" stop-opacity="0"/><stop offset="1" stop-color="#ffffff"/></radialGradient></defs><g transform="translate(-94.5,-174.5)"><g data-paper-data="{&quot;isPaintingLayer&quot;:true}" fill-rule="nonzero" stroke="#000000" stroke-width="5" stroke-linecap="butt" stroke-linejoin="miter" stroke-miterlimit="10" stroke-dasharray="" stroke-dashoffset="0" style="mix-blend-mode: normal"><path d="M268,847.50102c0,-48.04877 -38.27965,-87 -85.5,-87c-47.22035,0 -85.5,38.95123 -85.5,87c0,48.04877 38.27965,87 85.5,87c47.22035,0 85.5,-38.95123 85.5,-87z" fill="url(#color-1)"/><path d="M444,672.00102c0,-32.86094 -35.81722,-59.5 -80,-59.5c-44.18278,0 -80,26.63906 -80,59.5c0,32.86094 35.81722,59.5 80,59.5c44.18278,0 80,-26.63906 80,-59.5z" fill="url(#color-2)"/><path d="M760,462.50102c0,-20.98682 -49.92025,-38 -111.5,-38c-61.57975,0 -111.5,17.01318 -111.5,38c0,20.98682 49.92025,38 111.5,38c61.57975,0 111.5,-17.01318 111.5,-38z" fill="url(#color-3)"/><path d="M949,552c0,-11.59798 -29.54921,-21 -66,-21c-36.45079,0 -66,9.40202 -66,21c0,11.59798 29.54921,21 66,21c36.45079,0 66,-9.40202 66,-21z" fill="#ffffff"/><path d="M1141,453c0,-25.4051 -31.78778,-46 -71,-46c-39.21222,0 -71,20.5949 -71,46c0,25.4051 31.78778,46 71,46c39.21222,0 71,-20.5949 71,-46z" fill="#ffffff"/><path d="M1517,300c0,-17.67311 -68.94815,-32 -154,-32c-85.05185,0 -154,14.32689 -154,32c0,17.67311 68.94815,32 154,32c85.05185,0 154,-14.32689 154,-32z" fill="#ffffff"/><path d="M1770,237.5c0,-2.48528 -49.02482,-4.5 -109.5,-4.5c-60.47518,0 -109.5,2.01472 -109.5,4.5c0,2.48528 49.02482,4.5 109.5,4.5c60.47518,0 109.5,-2.01472 109.5,-4.5z" fill="#ffffff"/><path d="M1891,196.5c0,-10.76955 -18.80404,-19.5 -42,-19.5c-23.19596,0 -42,8.73045 -42,19.5c0,10.76955 18.80404,19.5 42,19.5c23.19596,0 42,-8.73045 42,-19.5z" fill="#ffffff"/></g></g></svg>