<svg version="1.1" xmlns="http://www.w3.org/2000/svg" xmlns:xlink="http://www.w3.org/1999/xlink" width="1775.5" height="1018.16575" viewBox="0,0,1775.5,1018.16575"><g transform="translate(-134.75,-54.34158)"><g data-paper-data="{&quot;isPaintingLayer&quot;:true}" fill="#ffffff" fill-rule="nonzero" stroke="none" stroke-width="0.5" stroke-linecap="butt" stroke-linejoin="miter" stroke-miterlimit="10" stroke-dasharray="" stroke-dashoffset="0" style="mix-blend-mode: normal"><path d="M134.75,666c0,-6.25 6.25,-6.25 6.25,-6.25l-1.46688,1.04969c14.1929,-9.20842 31.23091,-8.11313 47.57882,-9.20436c12.24411,-0.80862 24.70647,-1.82631 36.83285,-3.75561c5.03732,-0.80143 9.97974,-2.1264 15.00491,-3.00084c9.73511,-1.69402 20.17108,-2.46374 29.59725,-5.58736c1.04034,-0.34474 1.72543,-1.37869 2.70711,-1.86599c6.47098,-3.2122 13.69034,-4.78423 20.44191,-7.19534c1.44926,-0.51756 2.67594,-1.56459 4.13562,-2.05197c2.60724,-0.87053 5.39079,-1.13537 8,-2c4.21684,-1.39735 8.09735,-3.69633 12.31022,-5.1056c1.14584,-0.3833 2.42255,-0.34423 3.52797,-0.83198c4.59063,-2.02553 8.20589,-5.56012 12.48389,-8.12692c1.87549,-1.75972 2.41288,-4.54737 3.77606,-6.72816c0.35816,-0.57297 1.30344,-0.66949 1.5598,-1.29467c0.46604,-1.13654 0.19677,-2.45742 0.46984,-3.65506c1.20214,-5.27235 4.05137,-11.75128 6.54512,-16.37273c4.37245,-8.10307 11.25847,-14.5966 16.17893,-22.30892c1.57771,-2.47289 2.48289,-5.32182 3.92533,-7.87599c2.97493,-5.26782 6.78938,-10.01524 10.19408,-15.01605c6.05758,-8.89737 11.72274,-18.0949 14.37501,-28.29981c-0.24282,0.07086 -0.48448,0.14602 -0.72479,0.22614c-1.24469,0.41499 -2.0423,1.80067 -3.31388,2.12403c-3.30179,0.83964 -6.78223,0.70907 -10.13804,1.29678c-10.61826,1.8596 -11.41866,3.00548 -21.30692,4.04203c-9.71971,1.01888 -18.93684,1.4666 -28.58871,2.94013c-7.30046,1.11454 -14.52396,3.34338 -21.73434,4.94629c-13.71579,3.04909 -27.68136,4.78494 -41.54604,7.09756c-13.69575,1.36386 -27.1102,4.40488 -40.63635,6.94061l-4.96306,0.99273c0,0 -6.12863,1.22573 -7.35436,-4.9029c-1.22573,-6.12863 4.9029,-7.35436 4.9029,-7.35436l5.03694,-1.00727c13.76855,-2.58203 27.42247,-5.65957 41.36365,-7.05939c13.50794,-2.24939 27.09441,-3.93483 40.45396,-6.90244c7.38927,-1.64141 14.78481,-3.89454 22.26566,-5.05371c9.90024,-1.53407 19.45053,-2.03044 29.41129,-3.05987c9.3913,-0.97058 10.23121,-2.22678 20.69308,-3.95797c2.59582,-0.42955 5.30614,-0.07828 7.86196,-0.70322c1.06087,-0.2594 1.65003,-1.53068 2.68612,-1.87597c2.35175,-0.78374 4.79809,-1.2319 7.23271,-1.72165c0.14682,-1.45386 1.02058,-5.77987 6.22034,-5.77987c2.34266,0 3.80724,0.87809 4.72285,1.97601c7.97272,-3.11963 15.92671,-6.30483 23.96888,-9.21591c7.82856,-2.83376 15.85095,-5.11402 23.66901,-7.97663c22.01744,-8.06177 43.61244,-17.38612 65.28279,-26.32221c18.76563,-7.73829 37.98399,-14.49455 56.5366,-22.75221c15.02184,-6.68613 29.25029,-14.70932 43.54655,-22.78332c17.38459,-11.59856 34.95472,-22.54179 51.36253,-35.551c10.87584,-8.62309 19.91252,-19.34095 29.36582,-29.41492c7.76025,-8.26976 16.31251,-15.7814 23.58654,-24.5146c3.55148,-4.26391 5.98699,-9.34515 8.98211,-14.01668c2.14185,-3.34067 4.41287,-6.60257 6.4143,-10.02922c2.6308,-4.5042 3.80455,-9.71449 5.78703,-14.53929c3.43132,-8.35087 7.17532,-16.48108 9.93852,-25.0894c2.30562,-10.00975 4.19558,-20.28383 6.82008,-30.21343c1.46881,-5.55711 3.15871,-11.10927 3.78768,-16.8227c0.32771,-2.97686 -0.0213,-5.98966 -0.0213,-8.9845c0,-6.72414 0.32578,-13.45576 0.00859,-20.17241c-0.38149,-8.07815 -1.69664,-16.17363 -2.58997,-24.21385c-0.98884,-8.89987 -1.62803,-17.89244 -3.1512,-26.71779c-1.03177,-5.97815 -0.46169,-9.72244 -3.37183,-14.17216c-5.96257,-9.11704 -14.3357,-14.64054 -22.88337,-21.20825c-5.36821,-3.57669 -10.3758,-7.78048 -16.13848,-10.6791c-7.72012,-3.88322 -14.4304,-4.95828 -22.4709,-7.36562c-4.42678,-1.32539 -9.32609,-3.11153 -13.91649,-3.76763c-3.27885,-0.46865 -6.90465,0.04683 -10.23635,0.04683c-9.23999,0 -19.85521,-1.08359 -28.99886,-0.0807c-2.09562,0.22985 -3.90434,1.77052 -6,2c-0.83147,0.09105 -13.98843,0.0807 -18.00114,0.0807c0,0 -6.25,0 -6.25,-6.25c0,-6.25 6.25,-6.25 6.25,-6.25c5.33302,0 10.69951,0.67904 15.99886,0.0807c2.09487,-0.23653 3.90371,-1.77633 6,-2c9.85314,-1.0513 21.03134,-0.0807 31.00114,-0.0807c3.83193,0 7.97237,-0.49462 11.76365,0.04683c5.29949,0.75684 10.9749,2.69665 16.08351,4.23237c8.86216,2.66409 15.92829,3.93265 24.60602,8.24976c6.28286,3.12568 11.74804,7.67892 17.58586,11.57302c9.92186,7.61052 19.58872,14.15007 26.31538,24.92424c4.0279,6.45155 3.41589,9.79197 4.97281,18.44743c1.63231,9.07461 2.2472,18.35028 3.26495,27.50971c0.92006,8.28026 2.25253,16.6183 2.64924,24.93906c0.33062,6.93465 0.00859,13.88506 0.00859,20.82759c0,1.66561 0.00381,9.79127 -0.0213,10.0155c-0.72832,6.50417 -2.5362,12.85074 -4.21232,19.1773c-2.62174,9.89587 -4.49608,20.17429 -6.80141,30.14635c-2.92328,9.1066 -6.80997,17.71632 -10.43999,26.55082c-2.11089,5.13735 -3.44698,10.64432 -6.21297,15.46071c-2.17381,3.78524 -4.65997,7.38235 -7.00759,11.06232c-3.17599,4.97847 -5.83376,10.34013 -9.596,14.89179c-7.52031,9.09825 -16.35924,16.89898 -24.41346,25.4854c-9.85576,10.507 -19.30972,21.57877 -30.63418,30.58508c-16.79414,13.35633 -34.81521,24.5763 -52.63747,36.449c-14.7723,8.35603 -29.48254,16.64338 -45.01029,23.55468c-18.67551,8.31235 -38.01739,15.11889 -56.90656,22.90979c-21.80674,8.99426 -43.54113,18.36986 -65.69788,26.48263c-2.39737,0.87781 -21.18256,7.07669 -23.71232,7.9924c-9.1846,3.32461 -18.25464,6.99962 -27.37355,10.52006c-1.43997,9.96684 -5.08959,19.71672 -10.1815,28.37798c-5.087,8.6529 -12.08728,16.25179 -17,25c-1.48339,2.64152 -2.4421,5.572 -4.07467,8.12401c-4.75048,7.42588 -11.61915,13.8675 -15.82107,21.69108c-2.12796,3.96207 -4.26801,9.19857 -5.45488,13.62727c-0.56318,2.10146 -0.65612,4.35261 -1.53016,6.34494c-0.48788,1.11211 -1.79661,1.67547 -2.4402,2.70533c-1.18502,1.89624 -1.75374,4.14344 -3,6c-0.85336,1.27125 -2.14929,2.18123 -3.22394,3.27184c-5.55488,3.33293 -9.41686,7.04379 -15.51611,9.87308c-1.39763,0.64833 -3.00988,0.68241 -4.47203,1.16802c-4.00903,1.33147 -7.68444,3.55187 -11.68978,4.8944c-2.60623,0.87357 -5.39187,1.13211 -8,2c-1.36874,0.45547 -2.50589,1.46282 -3.86438,1.94803c-6.39876,2.28542 -13.43679,3.7202 -19.55809,6.80466c-1.16806,0.58857 -2.05262,1.71867 -3.29289,2.13401c-10.39043,3.47952 -21.67053,4.54703 -32.40275,6.41264c-5.02205,0.87299 -9.96082,2.1997 -14.99509,2.99916c-12.55669,1.99406 -25.43596,3.05477 -38.11178,3.90737c-4.89941,0.3262 -9.77937,0.93535 -14.68369,1.17696c-9.53031,0.4695 -18.65334,0.29199 -26.79287,5.95571l-5.46688,1.04969c0,0 -6.25,0 -6.25,-6.25z"/><path d="M1904,1066.25733c-1.73578,0 -2.98949,-0.48207 -3.89502,-1.17844c-2.02047,-0.1863 -3.95345,-0.50638 -6.10612,-0.90226c-4.27212,-0.78565 -9.62908,0.0807 -13.99886,0.0807c-25.66667,0 -51.33333,0 -77,0c0,0 -5.2086,0 -6.116,-4.75489c-6.23057,-1.70448 -12.59956,-3.26963 -18.87461,-4.32411c-5.51945,-0.92751 -13.22634,-1.1064 -18.80608,-1.35985c-15.57145,-0.7073 -31.11793,-0.56115 -46.70331,-0.56115c-27.52134,0 -54.98481,1 -82.5,1c-13.66949,0 -27.19738,0.21043 -40.82249,-1.05436c-7.73719,-0.71822 -15.39545,-3.08196 -22.85828,-5.17589c-3.92135,-1.10026 -7.95826,-1.84271 -11.77228,-3.27128c-1.8739,-0.70188 -3.31933,-2.28197 -5.15855,-3.07027c-2.83336,-1.2144 -5.93044,-1.72847 -8.78017,-2.90396c-0.30422,-0.12549 -10.29929,-5.13329 -12.55734,-6.26378c-5.07982,-2.91032 -7.94971,-4.14522 -12.1459,-7.78888c-8.6278,-7.49173 -15.37213,-16.20554 -25.19081,-22.40502c-11.26918,-7.11533 -24.03995,-13.97587 -37.10844,-17.22407c-2.75381,-0.68447 -5.65131,-0.53349 -8.4649,-0.90183c-6.17,-0.80776 -12.31095,-1.85506 -18.41352,-3.07162c-11.60391,-2.31325 -22.75709,-7.00542 -34.4093,-8.90637c-2.14176,-0.34941 -9.78189,0.87555 -10.06821,0.91108c-6.68535,1.90044 -8.07714,2.80204 -13.56073,6.92135c-1.03314,0.7761 -2.14449,1.44228 -3.2222,2.1552c-0.95494,0.63171 -2.68456,0.63657 -2.95641,1.7488c-1.27948,5.23482 -1.5857,10.68226 -1.57659,16.15828c0.01259,-0.00637 0.02518,-0.01274 0.03777,-0.0191c15.69992,-3.1999 30.60137,-3.35621 46.52835,-3.33829c18.93999,0.0213 38.9044,3.18003 55.18977,13.66848c7.17124,4.61857 6.16886,6.78822 8.37362,15.06567c1.33408,5.00862 2.25583,8.70506 0.91843,14.327c-1.01219,4.25489 -7.97016,10.03424 -10.86681,11.60726c-7.31663,3.97329 -10.95411,4.24797 -17.84734,5.70168c-11.08339,2.33736 -21.65281,4.22483 -32.89593,5.63208c-9.0512,1.10374 -18.10981,0.33027 -27.18296,-0.16779c-7.09033,-0.38922 -9.72634,-0.24605 -15.45084,-2.37748c-0.24202,0.02847 -0.48827,0.04311 -0.73794,0.04311c-0.933,0 -1.81825,-0.20444 -2.6134,-0.57096c-3.06604,1.03923 -6.7708,0.29055 -10.07527,0.5632c-7.18976,0.59322 -16.02291,1.62145 -20.08558,-5.85047c-0.86185,-1.58509 -0.37363,-3.59042 -0.47575,-5.39177c-0.07539,-1.32975 -0.12095,-2.62805 -0.08663,-3.9039c-10.15049,-3.32764 -20.82288,-4.43784 -31.20047,-7.03806c-5.12603,-1.28438 -9.72275,-3.25723 -14.97841,-3.82934c-6.10127,-0.66416 -12.0616,0.54783 -18.09614,1.00922c-1.53713,0.11752 -3.10144,-0.27187 -4.62471,-0.03475c-2.71603,0.4228 -5.29478,1.51285 -8,2c-1.06561,0.19189 -2.1749,-0.11759 -3.24814,0.02553c-7.4037,0.98732 -14.75146,2.51683 -22.20417,3.01354c-2.05192,0.13676 -4.13111,0.15602 -6.21503,0.13412c-0.54934,2.43062 -2.51506,4.32418 -4.98411,4.76765l-4.88647,0.97729l-0.0511,-0.25548l-0.55877,0.34644c-31.28956,0.12497 -62.77828,0.99375 -93.99748,-0.98125c-7.24645,-0.45843 -14.50261,-0.77332 -21.76031,-0.98995c-2.49022,-0.07433 -4.99922,0.25852 -7.47392,-0.0288c-3.37666,-0.39205 -6.63093,-1.54732 -10,-2c-6.77646,-0.91051 -13.90678,-0.65288 -20.7499,-0.98029c-13.84001,-0.66219 -27.72453,-3.75044 -41.35807,-6.03134c-26.81562,-1.73684 -53.44044,-1.59715 -80.27617,-1.95794c-1.47957,-0.01989 -3.00513,0.20998 -4.43596,-0.16719c-2.31512,-0.61029 -4.17342,-2.80527 -6.56518,-2.91351c-6.92956,-0.31361 -13.87951,-0.14938 -20.80936,0.15775c-27.5799,1.22233 -55.16387,5.08166 -82.61112,7.89613c-0.93401,0.07786 -24.07208,2.00834 -24.31864,2.02142c-8.45045,0.44827 -17.70913,-1.45919 -26.0291,0.59379c-1.83593,0.45302 -2.67541,2.6817 -4.13563,3.8832c-1.71971,1.41501 -3.40416,2.95196 -5.40894,3.92177c-5.38725,2.6061 -10.45338,1.27267 -16.29771,1.59456c-16.43091,0.90498 -32.33817,6.56589 -49.00422,4.98166c-2.49866,-0.23752 -5.03954,-0.68999 -7.33325,-1.70912c-3.95809,-1.75863 -4.2871,-5.7919 -8.50795,-6.43268c-7.94025,-1.85691 -15.7908,-1.43573 -23.83955,-1.83483c-10.77613,-0.53434 -21.9487,-1.59827 -32.63168,-3.06228c-10.51775,-1.44136 -20.71502,-5.36297 -31.38053,-5.93831c-9.84485,-0.53108 -20.76645,0.94493 -30.37959,2.86846c-12.56975,2.51513 -24.44968,8.11013 -36.62595,11.90757c-7.11632,2.21938 -14.63438,3.89409 -21.83848,5.95241c-12.87007,4.26698 -26.26372,5.35249 -39.4727,8.12619c-9.83813,2.06587 -19.63057,5.21125 -29.50757,7.09259c-3.55837,0.67779 -7.24453,0.06041 -10.86688,0.06041c-5.83333,0 -11.66667,0 -17.5,0c-14.5,0 -29,0 -43.5,0c0,0 -6.25,0 -6.25,-6.25c0,-6.25 6.25,-6.25 6.25,-6.25c14.5,0 29,0 43.5,0c5.83333,0 11.66667,0 17.5,0c3.04444,0 6.15559,0.69521 9.13312,0.06041c9.52548,-2.03079 18.95536,-4.90865 28.49243,-6.90741c12.87841,-2.69903 25.99719,-3.67278 38.5273,-7.87381c7.31139,-2.08897 14.94533,-3.78766 22.16152,-6.04759c12.43375,-3.89394 24.53109,-9.51744 37.37405,-12.09243c10.66374,-2.13806 22.69604,-3.71935 33.62041,-3.13154c11.11505,0.59807 21.66707,4.57372 32.61947,6.06169c10.27633,1.39612 21.00536,2.43162 31.36832,2.93772c8.83384,0.43142 17.44665,0.19527 26.16045,2.16517c1.8741,0.54634 3.89019,0.73873 5.6223,1.63903c0.41719,0.21684 4.55428,4.11576 5.34005,5.01933c0.23012,0.26461 0.20139,0.78572 0.52969,0.90895c3.67331,1.37883 7.84902,0.46323 11.76767,0.26689c12.77548,-0.6401 25.16213,-4.28096 37.89486,-4.99434c3.89699,-0.21834 8.26711,1.44761 11.70229,-0.40544c4.03503,-2.17663 5.80511,-6.68123 10.45543,-8.19503c9.47253,-3.08354 20.26373,-0.88519 29.9709,-1.40621c7.9099,-0.42456 15.78741,-1.32095 23.68136,-1.97858c27.65751,-2.83731 55.45018,-6.71126 83.24161,-7.93869c1.94175,-0.08576 21.76284,-0.14902 23.33792,-0.00743c2.67256,0.24026 4.88722,2.24383 7.43482,3.08649c0.49779,0.16465 1.03981,-0.15803 1.56404,-0.16719c2.66626,-0.04661 5.33333,0 8,0c6.16667,0 12.33333,0 18.5,0c18.44879,0 36.81932,0.77111 55.22383,2.04206c13.37211,2.22061 27.06672,5.35511 40.64193,5.96866c7.01068,0.31685 14.3022,0.10022 21.2501,1.01971c3.36996,0.44598 6.62458,1.59739 10,2c6.34263,0.75653 12.77404,0.25382 19.15504,0.54363c7.31893,0.3324 14.61458,1.10344 21.93548,1.3894c24.07733,0.94049 48.3258,0.1218 72.4518,0.06025c0.03085,-0.07794 0.06323,-0.1565 0.09717,-0.23569c1.46428,-3.41664 4.08972,-3.93035 5.97717,-3.78561c1.84828,-1.99507 4.76749,-1.99507 4.76749,-1.99507c12.85115,0 25.5909,-0.63097 38.23635,-2.95317c2.70353,-0.49648 5.28253,-1.5866 8,-2c1.77142,-0.26948 3.58882,0.10346 5.37529,-0.03475c6.61314,-0.51161 13.2231,-1.74384 19.90386,-0.99078c6.15039,0.69327 11.06975,2.68622 17.02159,4.17066c10.21116,2.54676 20.76586,3.57165 30.71957,6.93568c0.28809,0.02302 0.57768,0.04571 0.86866,0.06817c0.01931,-0.11543 0.05149,-0.22822 0.10043,-0.33758c0.89147,-1.99178 3.28282,-3.09703 4.05853,-5.13669c2.24757,-5.90976 3.27517,-12.68496 7.35083,-17.79709c-0.24859,-8.39853 -0.66838,-17.00543 1.26715,-25.04562c0.52791,-2.19293 0.5934,-4.55313 1.58727,-6.57794c1.36797,-2.78698 4.60693,-4.61531 7.04359,-6.2512c2.79995,-1.87979 5.27139,-4.22547 8.09842,-6.06428c4.48479,-2.91708 7.80513,-3.33528 13.11865,-4.85917c3.15465,-0.39664 10.07629,-1.65603 13.93179,-1.08892c12.0811,1.77702 23.60713,6.70982 35.5907,9.09363c5.82867,1.15946 11.69638,2.13812 17.58648,2.92838c3.17096,0.42544 6.42976,0.32816 9.5351,1.09817c14.40117,3.57094 28.47448,10.87806 40.89156,18.77593c10.39936,6.6145 17.7294,15.57248 26.80919,23.59498c3.04343,2.68903 6.25922,4.16305 9.8541,6.21112c3.81727,1.90597 7.49635,4.1142 11.44266,5.73622c2.99852,1.23246 6.23999,1.81907 9.21983,3.09604c1.7338,0.743 3.07555,2.26663 4.84145,2.92973c3.30329,1.24038 6.82523,1.79422 10.22772,2.72872c6.91516,1.89926 13.97737,4.19123 21.14172,4.82411c28.90334,2.55325 58.11192,0.52525 87.04738,-0.053c11.52585,-0.23033 23.10175,-0.00135 34.63012,-0.00135c15.77487,0 31.50988,-0.14285 47.2709,0.57404c6.36353,0.28945 13.94772,0.46149 20.21971,1.50496c8.59256,1.42955 17.33393,3.767 25.7264,6.16147l-0.71701,-0.24048c0,0 3.83155,0 5.49464,3c23.16845,0 46.33691,0 69.50536,0c5.14537,0 10.91993,-0.70364 16.00114,0.0807c1.04175,0.16081 1.96329,0.80935 3,1c1.63902,0.30142 3.33236,-0.0807 4.99886,-0.0807l6.25,7.25c0,0 0,6.25 -6.25,6.25zM1378.09151,1049.85338c1.87794,0.39957 3.83669,0.15946 5.75426,0.2556c8.29323,0.4158 16.69613,1.31337 24.97554,0.24704c9.15701,-1.14307 11.66311,-1.24182 19.7549,-2.86305c7.97722,-1.59828 18.84503,-3.09742 26.30878,-6.90406c2.0062,-1.02319 4.93555,-2.14937 5.13319,-4.39274c0.31083,-3.52809 -1.10306,-10.95435 -2.36757,-13.95674c-0.31905,-0.75753 -1.25502,-1.08233 -1.9797,-1.47025c-4.35146,-2.32928 -12.1248,-6.29873 -17.35903,-7.74416c-6.50902,-1.79745 -13.17913,-3.133 -19.8992,-3.79536c-7.7666,-0.76551 -15.60845,0.02906 -23.41268,0.02766c-10.15022,-0.00182 -19.97647,0.71128 -29.97165,2.66171c-1.45592,0.71054 -2.70315,1.57142 -3.78663,2.55257c0.00533,0.51317 0.00828,1.02513 0.00828,1.53572c0,6.69185 -0.42474,13.73307 0.82189,20.43142c0.68288,0.21081 1.35645,0.4366 2.01922,0.67879c2.39184,0.87403 4.90831,1.91888 6.63047,3.79479c1.24831,1.35976 1.87468,2.76609 2.19029,4.22033c1.21163,0.97357 2.05262,2.38957 2.27779,4.00282c0.96024,0.26789 1.92689,0.51047 2.90183,0.71791zM1346.26606,1046.21371c0.03738,0.4846 0.07066,0.96701 0.06971,1.47818c1.93299,-0.03783 4.10818,0.12016 6.06853,0.10983c-0.0737,-0.17381 -0.14594,-0.34805 -0.21675,-0.52271c-1.95631,-0.43988 -3.9213,-0.84003 -5.92149,-1.0653z"/></g></g></svg>