<svg version="1.1" xmlns="http://www.w3.org/2000/svg" xmlns:xlink="http://www.w3.org/1999/xlink" width="1936" height="865.47976" viewBox="0,0,1936,865.47976"><g transform="translate(21,-202.52024)"><g data-paper-data="{&quot;isPaintingLayer&quot;:true}" fill-rule="nonzero" stroke-linejoin="miter" stroke-miterlimit="10" stroke-dasharray="" stroke-dashoffset="0" style="mix-blend-mode: normal"><path d="M4,1043l184,-5" fill="none" stroke="#000000" stroke-width="50" stroke-linecap="round"/><path d="M212,932l190,-1" fill="none" stroke="#000000" stroke-width="50" stroke-linecap="round"/><path d="M377,858l208,-1" fill="none" stroke="#000000" stroke-width="50" stroke-linecap="round"/><path d="M497,800l259,-1" fill="none" stroke="#000000" stroke-width="50" stroke-linecap="round"/><path d="M652,732l148,-3" fill="none" stroke="#000000" stroke-width="50" stroke-linecap="round"/><path d="M790,668l180,1" fill="none" stroke="#000000" stroke-width="50" stroke-linecap="round"/><path d="M1155,650l258,1" fill="none" stroke="#000000" stroke-width="50" stroke-linecap="round"/><path d="M1674,706l216,-1" fill="none" stroke="#000000" stroke-width="50" stroke-linecap="round"/><path d="M562.20492,566.59017c-5.59017,-2.79508 -2.79508,-8.38525 -2.79508,-8.38525l2.17075,-3.62433c2.10999,-2.10999 3.76945,-4.76074 5.81255,-6.80424c2.762,-2.76255 6.04529,-4.94987 9.0274,-7.47323c10.43342,-8.82841 20.86778,-17.70349 31.19129,-26.66091c2.55587,-2.21766 4.99352,-4.76911 7.52162,-7.20389c-1.78239,0.28919 -3.57172,0.53618 -5.35822,0.76342c-15.11864,1.86789 -30.55519,1.04826 -45.77522,1.04826c-17.0994,0 -34.14295,0.79034 -51.05521,-2.08972c-11.10212,-1.89063 -24.85462,-7.4152 -29.6605,-18.63182c-3.18358,-7.43026 -0.5973,-14.78721 -0.26611,-22.33961c5.07475,-8.45646 11.36109,-14.97715 19.01939,-21.02224c5.24566,-4.14066 9.01318,-10.0671 13.66733,-14.70695c0.95496,-0.95203 2.32468,-1.39735 3.33267,-2.29305c2.11429,-1.87877 3.88601,-4.1209 6,-6c6.42623,-5.7122 13.9333,-10.22813 18.76212,-17.63349c0.92697,-1.31751 1.65192,-2.80341 2.7809,-3.95254c0.65674,-0.66847 1.86598,-0.64344 2.4525,-1.37429c0.53734,-0.66957 0.12246,-1.81506 0.65035,-2.49211c1.90028,-2.43722 4.1044,-4.65203 6.47024,-6.64046c1.48791,-1.25056 3.46535,-1.80726 5,-3c1.55136,-1.20573 2.5821,-3.01744 4.19189,-4.14398c1.95221,-1.36616 4.32685,-2.01801 6.36862,-3.2463c1.35981,-0.81804 2.47816,-1.98949 3.79839,-2.86999c2.45263,-1.63572 5.29813,-2.71499 7.525,-4.64684c2.84868,-2.47128 5.13666,-5.54571 8,-8c0.75851,-0.65015 1.8366,-0.87961 2.54301,-1.58603c2.6596,-2.6596 5.27989,-7.27079 7.3173,-10.19041c6.22183,-8.91595 9.96971,-18.30691 13.95241,-28.50533c-0.12063,-7.07816 0.92569,-14.89286 -0.01959,-21.88371c-0.34709,-2.56694 -1.94451,-5.55756 -2.75997,-8.02472c-1.97619,-5.97891 -3.72185,-12.0862 -7.90412,-17.01399c-0.89346,-1.05273 -2.07737,-1.84085 -2.93549,-2.92259c-1.65551,-2.08692 -2.82279,-4.54657 -4.57871,-6.54975c-0.68016,-0.77593 -1.82099,-0.99756 -2.61484,-1.65671c-2.79563,-2.32129 -5.49004,-4.76213 -8.20583,-7.17634c-2.13327,-1.89638 -4.29856,-4.82818 -6.95998,-6.24626c-5.37895,-2.86606 -10.0186,-4.75474 -15.00881,-8.0051c-8.27252,-4.10572 -15.37457,-9.67305 -23.64023,-13.80665c-5.0767,-2.53882 -10.64253,-4.2575 -15.50855,-7.28248c-3.89339,-2.42034 -7.28674,-5.98873 -11.8961,-7.17934c-1.55541,-0.40177 -3.21161,0.11277 -4.81808,0.11277c-2.87482,0 -8.71424,-0.68475 -11.99886,-0.0807c-3.35681,0.61732 -6.79914,1.7279 -10.23749,2.03388c-0.79722,0.07094 -13.09822,0.04064 -14.45231,0.03907c-19.30991,1.93099 -38.64255,-0.31271 -57.94945,0.99727c-7.34354,0.49826 -14.6442,1.5448 -21.99058,1.99945c-10.49884,0.64975 -21.08733,0.52437 -31.52854,1.95396c-13.3889,1.83318 -26.28152,4.05708 -39.84278,4.05708c-27.33333,0 -54.66667,0 -82,0c0,0 -6.25,0 -6.25,-6.25c0,-6.25 6.25,-6.25 6.25,-6.25c27.33333,0 54.66667,0 82,0c6.86259,0 13.73209,-0.47113 20.55694,-0.98428c4.16372,-0.31306 14.79314,-2.57733 17.60028,-2.95864c10.76173,-1.46185 21.65238,-1.37912 32.47146,-2.04604c7.35276,-0.45325 14.6589,-1.51236 22.00942,-2.00055c19.3446,-1.28479 38.71141,0.93119 58.05055,-1.00273c4.51591,-0.00479 9.05123,0.45776 13.54769,0.03907c3.30724,-0.30796 6.53063,-1.46725 9.76251,-1.96612c4.19703,-0.64786 9.92849,-0.0807 14.00114,-0.0807c1.08608,0 6.61386,-0.02696 7.18192,0.11277c6.40195,1.57473 10.74529,5.45019 16.1039,8.82066c4.50885,2.83598 9.76958,4.35699 14.49145,6.71752c8.51585,4.2572 15.88209,9.92815 24.35977,14.19335c1.89093,1.29827 4.17956,1.91297 6.14878,3.08912c0.88226,0.52695 1.3195,1.6426 2.21811,2.14115c2.09226,1.16078 4.53382,1.60066 6.6243,2.76463c4.81566,2.68133 5.07958,4.23359 9.04002,7.75374c2.58092,2.29399 5.14517,4.60865 7.79417,6.82366c1.05281,0.88032 2.46755,1.32282 3.38516,2.34329c2.0536,2.28379 3.49385,5.05903 5.42129,7.45025c3.95514,4.90683 7.23398,8.34326 9.93679,14.48878c1.35574,3.08262 2.15136,6.38232 3.22361,9.57464c1.0475,3.11864 2.76372,6.73806 3.24003,9.97528c1.22227,8.30725 0.08371,17.75774 -0.01959,26.11629c-2.88332,7.93063 -5.55061,16.29886 -9.58494,23.73017c-6.68353,12.31119 -16.00949,22.98906 -26.60233,31.98806c-2.02689,1.72191 -6.45551,4.00736 -8.475,5.35316c-1.4533,0.96849 -2.70297,2.23328 -4.20161,3.13001c-1.79305,1.0729 -3.91975,1.55518 -5.63138,2.7537c-1.47978,1.03617 -2.38257,2.74641 -3.80811,3.85602c-3.92588,3.05581 -5.65376,2.31176 -8.52976,6.35954c-0.72566,1.02131 -0.56794,2.52882 -1.34965,3.50789c-1.38832,1.73884 -3.62825,2.76132 -4.7666,4.67317c-5.73942,8.47616 -13.79673,13.75215 -21.23788,20.36651c-2.11399,1.8791 -3.88633,4.12053 -6,6c-0.78883,0.70143 -1.9224,0.95906 -2.66733,1.70695c-1.03232,1.03642 -1.62345,2.44237 -2.57351,3.55468c-4.33705,5.0777 -9.57175,9.6437 -14.75916,13.73838c-4.62818,3.65326 -8.01575,8.72615 -11.98061,12.97776c0.33793,4.50751 -2.16768,9.22644 -0.26611,13.66039c0.57532,1.34148 3.00677,3.39473 3.7037,4.10904c5.89152,6.03843 15.47093,7.08227 23.46447,8.23223c13.72863,1.97503 28.25273,0.93718 42.11612,0.93718c14.67392,0 29.65046,0.89335 44.22478,-0.95174c2.50847,-0.30734 5.04755,-0.42494 7.5254,-0.92203c2.01875,-0.40498 3.91379,-1.34583 5.9188,-1.78837c-0.43109,-0.36632 -0.86901,-0.71418 -1.32343,-1.0176c-4.54235,-3.03297 -8.57837,-6.78023 -12.59212,-10.4845c-6.00695,-5.54377 -12.38797,-10.38146 -18.17286,-16.16635l-1,-1c0,0 -4.41942,-4.41942 0,-8.83883c4.41942,-4.41942 8.83883,0 8.83883,0l1,1c5.67203,5.67203 11.93185,10.39076 17.82714,15.83365c1.98607,1.83366 3.64009,4.02093 5.71587,5.75238c5.41167,4.51396 12.98879,6.28442 16.65204,13.08744c1.53058,2.84244 1.48105,7.31312 -0.73921,9.65674c-0.84541,0.89238 -1.87011,1.50689 -2.99871,1.95913c0.01787,0.05062 0.03545,0.10183 0.05272,0.15365c1.97642,5.92927 -3.95285,7.90569 -3.95285,7.90569c-0.56353,0.1291 -1.24168,0.02301 -1.6906,0.3873c-4.80533,3.89933 -8.80749,8.7078 -13.47999,12.76535c-10.35885,8.99551 -20.83809,17.90195 -31.31102,26.76353c-2.58129,2.18413 -5.49667,3.98755 -7.88794,6.37821c-2.15679,2.15624 -3.95375,4.96206 -6.18745,7.19576l0.17075,0.37567c0,0 -2.79508,5.59017 -8.38525,2.79508z" fill="#ffffff" stroke="none" stroke-width="0.5" stroke-linecap="butt"/></g></g></svg>