<svg version="1.1" xmlns="http://www.w3.org/2000/svg" xmlns:xlink="http://www.w3.org/1999/xlink" width="1979.5" height="1005.5" viewBox="0,0,1979.5,1005.5"><g transform="translate(-1.75,-69.75)"><g data-paper-data="{&quot;isPaintingLayer&quot;:true}" fill-rule="nonzero" stroke-width="0.5" stroke-linejoin="miter" stroke-miterlimit="10" stroke-dasharray="" stroke-dashoffset="0" style="mix-blend-mode: normal"><path d="M985,1075v-1005h644.82482c-4.8082,1.60387 -9.6307,3.17508 -14.18954,5.36763c-3.63468,1.74808 -6.59154,4.64967 -9.87014,6.9986c-5.41935,3.88266 -10.82494,7.78456 -16.22353,11.69603c-7.05702,5.11307 -14.86797,9.62221 -20.38797,16.36569c-4.60828,6.10577 -11.08029,11.17698 -13.82484,18.3173c-2.74455,7.14031 -1.42495,15.23352 -2.0031,22.86126c-0.54062,7.13253 -1.53739,14.26567 -1.35299,21.41629c0.08739,3.38858 1.41794,6.6296 2.16153,9.93675c2.92489,13.00857 5.88053,26.01043 8.91299,38.99434c1.66665,7.13601 2.17074,14.66572 5.09206,21.38631c2.53452,5.83074 7.2941,10.41561 10.98264,15.59403c11.60254,16.28907 23.37245,32.4626 35.05767,48.6925c1.41528,1.96572 23.73326,33.0663 24.6879,33.95149c5.37221,4.98138 12.41708,7.77936 18.65044,11.62905c2.8274,1.74618 34.82488,21.38964 36.63729,21.9514c7.46239,2.313 18.03383,0.44536 26.1312,-0.68362c0,0 9.89949,-1.41421 8.48528,-11.31371c-0.02685,-0.18792 -0.05675,-0.37177 -0.08959,-0.55162c0.57809,-0.48395 1.15562,-0.96963 1.76712,-1.39622c4.34079,-3.0282 8.92507,-5.72451 13.0711,-9.01432c5.63103,-4.46813 18.41155,-16.31894 24.81729,-22.22288c5.09377,-4.69474 10.50846,-9.06467 15.27325,-14.09298c3.71422,-3.91964 6.74781,-8.43239 10.09039,-12.67341c4.47813,-5.68179 9.68252,-10.87159 13.37153,-17.09475c2.42441,-4.08986 3.20512,-8.95285 4.73718,-13.45369c2.33614,-6.86307 5.76546,-13.47121 6.867,-20.63682c0.27422,-1.78382 -0.87937,-41.03403 -0.93477,-43.05886c-5.22343,-18.00881 -9.79979,-36.52196 -16.05589,-54.19368c-0.59119,-1.66995 -1.78535,-3.06057 -2.70717,-4.57335c-3.46908,-5.69297 -6.97684,-11.36228 -10.46526,-17.04342c-1.21943,-1.98594 -20.9256,-34.14673 -21.8182,-35.31344c-2.23194,-2.91735 -5.4707,-4.90339 -8.23053,-7.3274c-5.00893,-4.39944 -10.01101,-8.80729 -15.07545,-13.1427c-2.7325,-2.33915 -5.30495,-4.91228 -7.95753,-7.37182h245.56782v1005zM1745.13937,955.44901v-14.44808c-0.06185,-7.30582 0.95118,-14.70035 -0.18556,-21.91746c-0.77636,-4.92906 -3.43893,-9.3761 -5.46182,-13.93749c-3.40973,-7.68856 -4.78458,-16.94043 -10.82671,-22.79132c-3.83405,-3.71269 -10.44463,-2.26817 -15.73992,-2.93444c-7.34032,-0.92359 -14.72139,-1.9145 -22.1191,-1.82911c-2.33251,0.02692 -4.45657,1.38388 -6.6559,2.16124c-6.28558,2.22168 -12.61207,4.34385 -18.79587,6.83486c-7.85199,3.16301 -17.2686,4.17168 -23.29213,10.11941c-3.83708,3.7888 -2.34432,10.54131 -3.04651,15.88781c-0.94216,7.17365 -2.25483,14.39863 -1.88015,21.62418c0.27642,5.33057 2.51236,10.37574 3.80802,15.55383c0.31783,1.27021 9.89636,38.90862 10.12895,39.62732c1.1728,3.62385 3.14145,6.93992 4.72396,10.40451c5.50601,12.0543 13.11003,25.63265 17.22689,38.229c0,0 3.16228,9.48683 12.64911,6.32456c9.48683,-3.16228 6.32456,-12.64911 6.32456,-12.64911c-4.60119,-13.61771 -12.01048,-27.17489 -18.01926,-40.23754c-1.34064,-2.91446 -3.0693,-5.67642 -4.04688,-8.73186c-3.97152,-12.41304 -6.33373,-25.28488 -9.60539,-37.90046c-1.05457,-4.06643 -3.05759,-7.97991 -3.25059,-12.17643c-0.28018,-6.092 1.64422,-12.10634 1.85347,-18.20119c0.06433,-1.87377 -2.58587,-4.46875 -1.03879,-5.52785c4.05258,-2.77434 9.61365,-2.07989 14.29961,-3.55031c6.36085,-1.996 12.55548,-4.48923 18.79587,-6.83486c0.81705,-0.30711 1.49486,-1.15392 2.36705,-1.11983c5.9316,0.23187 11.77532,1.65649 17.70627,1.90451c1.91529,0.08009 4.53306,-2.46589 5.67574,-0.92672c2.95675,3.98267 2.58782,9.58625 4.22837,14.26734c1.22759,3.50276 3.82086,6.57293 4.36227,10.24488c0.87926,5.96336 -0.1237,12.05502 -0.18556,18.08254v14.44808c0,0 0,10 10,10c10,0 10,-10 10,-10zM1563.10779,954.91186l-2.04871,-0.90384c-42.57912,-18.78491 -85.52845,-36.90587 -127.79771,-56.37574c-15.81098,-7.28278 -31.14671,-16.36642 -46.45202,-24.6568c0,0 -8.79292,-4.76283 -13.55575,4.03009c-4.76283,8.79292 4.03009,13.55575 4.03009,13.55575c15.60394,8.45213 31.20876,17.66456 47.32332,25.10154c42.44731,19.58975 85.60637,37.77312 128.37927,56.64351l2.04871,0.90384c0,0 9.14918,4.0364 13.18558,-5.11278c4.0364,-9.14918 -5.11278,-13.18558 -5.11278,-13.18558zM1770.54435,996.06953c14.29022,0 47.9077,0 62.19793,0c0,0 10,0 10,-10c0,-10 -10,-10 -10,-10c-14.29022,0 -47.9077,0 -62.19793,0c0,0 -10,0 -10,10c0,10 10,10 10,10zM1294.01252,631.97929c5.52285,0 10,-4.47715 10,-10c0,-5.52285 -4.47715,-10 -10,-10c-5.52285,0 -10,4.47715 -10,10c0,5.52285 4.47715,10 10,10zM1252.8662,534.37638c5.52285,0 10,-4.47715 10,-10c0,-5.52285 -4.47715,-10 -10,-10c-5.52285,0 -10,4.47715 -10,10c0,5.52285 4.47715,10 10,10zM1220.3319,627.19483c5.52285,0 10,-4.47715 10,-10c0,-5.52285 -4.47715,-10 -10,-10c-5.52285,0 -10,4.47715 -10,10c0,5.52285 4.47715,10 10,10zM1148.56506,840.09626c5.52285,0 10,-4.47715 10,-10c0,-5.52285 -4.47715,-10 -10,-10c-5.52285,0 -10,4.47715 -10,10c0,5.52285 4.47715,10 10,10zM1269.13335,964.49212c5.52285,0 10,-4.47715 10,-10c0,-5.52285 -4.47715,-10 -10,-10c-5.52285,0 -10,4.47715 -10,10c0,5.52285 4.47715,10 10,10zM1139.95304,643.46198c5.52285,0 10,-4.47715 10,-10c0,-5.52285 -4.47715,-10 -10,-10c-5.52285,0 -10,4.47715 -10,10c0,5.52285 4.47715,10 10,10zM1226.07325,1058.26746c5.52285,0 10,-4.47715 10,-10c0,-5.52285 -4.47715,-10 -10,-10c-5.52285,0 -10,4.47715 -10,10c0,5.52285 4.47715,10 10,10zM1094.97915,1055.39679c5.52285,0 10,-4.47715 10,-10c0,-5.52285 -4.47715,-10 -10,-10c-5.52285,0 -10,4.47715 -10,10c0,5.52285 4.47715,10 10,10zM1369.60693,609.97079c5.52285,0 10,-4.47715 10,-10c0,-5.52285 -4.47715,-10 -10,-10c-5.52285,0 -10,4.47715 -10,10c0,5.52285 4.47715,10 10,10zM1174.40112,571.69514c5.52285,0 10,-4.47715 10,-10c0,-5.52285 -4.47715,-10 -10,-10c-5.52285,0 -10,4.47715 -10,10c0,5.52285 4.47715,10 10,10zM1388.74475,727.66841c5.52285,0 10,-4.47715 10,-10c0,-5.52285 -4.47715,-10 -10,-10c-5.52285,0 -10,4.47715 -10,10c0,5.52285 4.47715,10 10,10zM1145.69439,725.75463c5.52285,0 10,-4.47715 10,-10c0,-5.52285 -4.47715,-10 -10,-10c-5.52285,0 -10,4.47715 -10,10c0,5.52285 4.47715,10 10,10zM1372.4776,1063.05192c5.52285,0 10,-4.47715 10,-10c0,-5.52285 -4.47715,-10 -10,-10c-5.52285,0 -10,4.47715 -10,10c0,5.52285 4.47715,10 10,10zM1261.47822,1060.18124c5.52285,0 10,-4.47715 10,-10c0,-5.52285 -4.47715,-10 -10,-10c-5.52285,0 -10,4.47715 -10,10c0,5.52285 4.47715,10 10,10zM1379.17584,679.82385c5.52285,0 10,-4.47715 10,-10c0,-5.52285 -4.47715,-10 -10,-10c-5.52285,0 -10,4.47715 -10,10c0,5.52285 4.47715,10 10,10zM1311.23657,1063.05192c5.52285,0 10,-4.47715 10,-10c0,-5.52285 -4.47715,-10 -10,-10c-5.52285,0 -10,4.47715 -10,10c0,5.52285 4.47715,10 10,10zM1318.8917,730.53908c5.52285,0 10,-4.47715 10,-10c0,-5.52285 -4.47715,-10 -10,-10c-5.52285,0 -10,4.47715 -10,10c0,5.52285 4.47715,10 10,10zM1644.23471,842.96694c5.52285,0 10,-4.47715 10,-10c0,-5.52285 -4.47715,-10 -10,-10c-5.52285,0 -10,4.47715 -10,10c0,5.52285 4.47715,10 10,10zM1272.00403,690.34965c5.52285,0 10,-4.47715 10,-10c0,-5.52285 -4.47715,-10 -10,-10c-5.52285,0 -10,4.47715 -10,10c0,5.52285 4.47715,10 10,10zM1583.95056,1040.08653c5.52285,0 10,-4.47715 10,-10c0,-5.52285 -4.47715,-10 -10,-10c-5.52285,0 -10,4.47715 -10,10c0,5.52285 4.47715,10 10,10zM1536.106,931.00093c5.52285,0 10,-4.47715 10,-10c0,-5.52285 -4.47715,-10 -10,-10c-5.52285,0 -10,4.47715 -10,10c0,5.52285 4.47715,10 10,10z" fill="#707070" stroke="#000000" stroke-linecap="butt"/><path d="M59,996.4837v-483h862v483z" fill="#707070" stroke="#000000" stroke-linecap="butt"/><path d="M58,515.4837l-56,490" fill="none" stroke="#000000" stroke-linecap="round"/><path d="M154.08058,780.90312c-4.41942,-4.41942 0,-8.83883 0,-8.83883l1.58603,-1.54301c1.01323,-1.33483 1.74927,-2.93526 3.03968,-4.00449c0.81166,-0.67254 2.15931,-0.36412 3,-1c0.58874,-0.44531 0.49105,-1.42569 0.96032,-1.99551c1.16004,-1.4086 2.48265,-2.6867 3.87096,-3.87096c3.60909,-3.07863 7.34881,-6.00077 11.01446,-9.01182c5.34768,-4.39271 11.58852,-7.56863 17.41169,-11.30816c4.59767,-2.95254 7.33575,-7.4693 11.11686,-11.26604c0,0 0.40662,-0.40662 1.09653,-0.84985c-0.31491,-3.0248 -0.03203,-6.04913 2.47656,-7.65702c7.45077,-4.7756 17.36678,4.95086 21.68129,7.90271c9.21032,6.30139 16.6654,13.74055 24.31695,21.75005c9.3748,9.81337 18.08788,19.55592 26.48534,30.24112c2.23916,2.86313 5.0695,5.23631 7.25386,8.14146c2.42689,3.2277 4.07663,7.08317 6.94227,9.92852l2.36693,3.49555c0,0 3.46688,5.20031 -1.73344,8.66719c-5.20031,3.46688 -8.66719,-1.73344 -8.66719,-1.73344l-1.63307,-2.50445c-2.88905,-2.90836 -4.60224,-6.78885 -7.05773,-10.07148c-2.19218,-2.93063 -5.03385,-5.32724 -7.3006,-8.20058c-8.15509,-10.38166 -16.59933,-19.79284 -25.69831,-29.33295c-3.42632,-3.59243 -6.69378,-7.3766 -10.50836,-10.55373c-3.90441,-3.25195 -7.72314,-6.63004 -11.88177,-9.54986c-1.06566,-0.74821 -2.21082,-1.41107 -3.353,-2.07735c0.06866,2.65775 -0.01768,5.32371 0.13835,7.97808c0.54165,9.21436 1.63273,17.9673 2.69928,27.09238c0.5459,4.67059 0.28332,9.4249 1.00821,14.07108c0.6337,4.06165 1.99522,8.05574 2.01602,12.16648c2.99206,17.95237 2.0213,36.30632 2.0213,54.5155c0,29.33333 0,58.66667 0,88c0,0 0,6.25 -6.25,6.25c-6.25,0 -6.25,-6.25 -6.25,-6.25c0,-29.33333 0,-58.66667 0,-88c0,-17.87812 0.95846,-35.86154 -1.9787,-53.4845c0.02262,-3.9995 -1.38375,-7.87926 -1.98398,-11.83352c-0.69855,-4.60201 -0.44421,-9.30651 -0.99179,-13.92892c-1.10367,-9.31666 -2.35115,-18.51132 -2.85603,-27.86435c-0.18533,0.19423 -0.37333,0.38593 -0.56449,0.57467c-5.58762,5.51696 -9.59775,6.45413 -16.70365,11.03417c-5.00281,3.22451 -9.3266,7.74607 -13.87197,11.46502c-1.64505,1.34595 -3.59632,2.37451 -4.966,3.99986c-1.07991,1.28148 -1.74927,2.93526 -3.03968,4.00449c-0.81166,0.67254 -2.15931,0.36412 -3,1c-0.58874,0.44531 -0.64021,1.33034 -0.96032,1.99551l-2.41397,2.45699c0,0 -4.41942,4.41942 -8.83883,0z" fill="#000000" stroke="none" stroke-linecap="butt"/><path d="M426.21998,858.82901c1.68511,0.70822 3.53002,2.259 3.53002,5.65469c0,6.25 -6.25,6.25 -6.25,6.25l-6.20031,-2.78312c-5.55212,-8.34084 -11.80542,-16.30185 -17.9875,-24.17855c-6.66617,-8.49348 -14.46247,-15.91076 -18.61517,-25.96714c0,0 -0.37184,-0.92959 -0.4458,-2.19348c-1.2712,-2.75404 -0.98892,-7.11639 -0.95439,-9.89136c1.52272,-6.31137 3.34235,-12.9057 6.84876,-18.46014c5.65448,-8.95715 12.73911,-17.09652 19.72363,-24.97363c2.55407,-2.88047 4.92872,-5.93138 7.66835,-8.63597l3.49555,-2.36693c0,0 5.20031,-3.46688 8.66719,1.73344c3.46688,5.20031 -1.73344,8.66719 -1.73344,8.66719l-2.50445,1.63307c-2.26044,2.31738 -4.18418,4.94159 -6.33165,7.36403c-9.80823,11.06411 -19.47636,21.86177 -23.37396,36.36495c0.24444,0.12133 0.49183,0.2219 0.74431,0.26833c0.65583,0.12061 1.33209,-0.07173 1.99886,-0.0807c6.32973,-0.08515 12.66972,-0.02052 19,0c5.42066,0.01757 10.0851,-1.42803 15.4845,-1.9787c10.28431,-1.04888 20.64402,-1.95292 30.73459,-4.76219c8.46888,-2.35779 16.88119,-6.63495 25.27374,-9.4602c7.85751,-2.64222 15.60237,-5.60835 23.39661,-8.43176c11.01752,-3.99103 21.49858,-8.55519 32.14024,-13.49472c3.58427,-1.66371 7.33382,-3.00823 10.75663,-4.9829c8.39745,-4.84463 16.02119,-13.74645 20.87743,-21.89326c1.75721,-2.94788 3.26387,-6.03966 5,-9c0.48197,-0.82182 1.33258,-1.4363 1.64777,-2.33538c3.9131,-11.16219 3.4385,-21.759 3.4385,-33.41089c0,-5.46139 0.54226,-10.94679 0.03042,-16.38414c-0.2947,-3.13067 -1.2521,-6.16312 -1.87815,-9.24469c-1.6072,-6.49238 -3.63705,-13.06626 -7.73565,-18.40874c-2.52455,-3.29072 -5.56999,-3.73487 -9.16191,-5.03948c-2.20193,-0.79976 -6.67435,-3.32865 -9.76835,-3.71977c-7.35374,-0.92961 -15.16364,-1.46754 -22.58198,-1.96274c-2.06729,-0.138 -4.15792,0.22612 -6.21566,-0.01569c-5.69975,-0.6698 -11.22739,-2.62299 -16.95422,-2.99604c-7.71311,-0.50244 -15.73641,0.0213 -23.4845,0.0213c-5.84387,0 -11.8562,-0.40175 -17.68866,-0.00776c-7.69406,0.51974 -15.28063,1.45736 -22.96571,1.9982c-9.20888,0.64807 -18.39067,0.25932 -27.58198,0.96274c-1.37036,0.10487 -2.63023,0.88766 -4,1c-4.14624,0.34006 -8.32971,-0.23982 -12.48043,0.04041c-17.47722,1.17995 -34.98082,1.49446 -52.4867,2.3744c-51.84988,2.58449 -103.87831,1.63202 -155.79651,1.63202c0,0 -6.25,0 -6.25,-6.25c0,-6.25 6.25,-6.25 6.25,-6.25c51.70791,0 103.53315,0.97371 155.17229,-1.61642c17.52621,-0.87185 35.04627,-1.22488 52.54449,-2.37716c4.72777,-0.31133 6.17978,0.49338 11.51957,0.04041c1.36945,-0.11617 2.62972,-0.89407 4,-1c9.46374,-0.73161 18.93982,-0.34975 28.41802,-1.03726c13.85034,-1.00465 27.43314,-2.00956 41.34563,-2.00956c8.08839,0 16.46793,-0.52584 24.5155,0.0213c5.75619,0.39135 11.31591,2.32903 17.04578,3.00396c1.91488,0.22556 3.86048,-0.14378 5.78434,-0.01569c7.60799,0.50652 15.89655,0.88398 23.41802,2.03726c4.26974,0.65469 8.1726,2.8026 12.23165,4.28023c3.74184,1.36216 7.66254,2.61122 10.85103,4.99666c3.58438,2.68163 6.72279,7.50826 8.76814,11.18034c2.71666,4.8773 4.12035,10.96461 5.48327,16.37477c0.70728,3.5851 1.7719,7.1179 2.12185,10.75531c0.72826,7.56971 0.03778,15.93737 0.03042,23.61586c-0.01157,12.06816 -0.39641,21.08675 -4.5615,32.58911c-0.49421,1.36481 -1.62347,2.40929 -2.35223,3.66462c-1.72302,2.96799 -3.22653,6.06188 -5,9c-5.96984,9.89027 -15.02714,20.15117 -25.12257,26.10674c-2.84677,1.67939 -11.02093,5.08698 -15.49439,7.26695c-17.18819,8.37603 -35.1312,14.67479 -53.24101,20.7691c-8.59015,2.88753 -17.02026,7.14082 -25.69738,9.59438c-10.88926,3.07906 -22.14036,4.1498 -33.26541,5.23781c-3.67579,0.35948 -7.22431,1.62674 -10.89964,1.99088c-0.39811,0.03944 -9.87321,0.03042 -10.61586,0.03042c-4.1316,0 -8.43477,0.30719 -12.64799,0.14295c3.84455,5.7637 9.12528,10.86699 13.29571,16.18097c5.83892,7.43996 11.71603,14.9575 17.07225,22.77139z" fill="#000000" stroke="none" stroke-linecap="butt"/><path d="M758.09017,911.68862c2.79508,5.59017 -2.79508,8.38525 -2.79508,8.38525l-0.37567,-0.17075c-8.16716,7.83004 -19.99145,9.35084 -29.80781,14.25879c-5.81879,2.90926 -10.15577,8.55436 -16.08315,11.03751c-4.43025,1.85596 -6.07858,1.49054 -10.52846,1.53429c0,0 -6.25,0 -6.25,-6.25c0,-6.25 6.25,-6.25 6.25,-6.25c3.46589,0.05015 5.30892,-0.57856 7.16359,-1.81562c-1.45613,-1.13375 -2.39725,-2.89791 -2.41338,-4.88251c-0.23431,-2.05909 0.65962,-3.84695 0.65962,-3.84695l4.61375,-5.13419c3.89894,-1.27465 7.60957,-4.2671 11.54047,-5.15354c2.77276,-0.62527 5.91471,-0.612 9.0407,-0.47418c-0.00804,-0.0079 -0.01609,-0.01577 -0.02417,-0.0236c-2.59603,-2.51934 -5.63182,-5.74219 -7.65085,-8.76498c-2.25009,-3.36873 -2.35318,-5.63977 -4.85602,-8.80811c-1.17778,-1.49095 -2.87258,-2.52509 -4.0267,-4.03444c-3.77761,-4.94035 -6.12883,-10.82768 -9.41776,-16.10598c-2.23808,-3.59182 -4.80433,-6.97241 -7.03495,-10.56887c-0.72738,-1.17276 -1.03667,-2.5834 -1.82497,-3.71611c-4.33534,-6.2295 -8.96091,-8.86469 -14.86436,-13.69934c-3.96759,-3.24927 -7.8507,-6.67788 -11.86742,-9.8882c-1.82603,-1.45943 -3.50651,-3.22067 -5.64917,-4.15518c-1.78014,-0.7764 -3.69209,-1.20637 -5.53813,-1.80955c-4.31324,-1.85212 -7.25173,-1.61866 -11.85026,-1.61866c-2.41217,0 -4.86693,-0.49893 -7.23635,-0.04683c-2.70003,0.51518 -5.28331,1.58148 -8,2c-1.56903,0.24172 -3.21041,-0.36747 -4.76251,-0.03388c-6.95198,1.49419 -13.08807,4.58979 -19.44079,7.5322c-8.05764,3.73209 -15.80685,7.56226 -23.61124,11.80897c-9.49871,5.16866 -20.10616,8.49573 -27.8541,16.21112c-4.34864,3.26617 -9.12168,5.95149 -13.39505,9.31555c-3.06971,2.41652 -5.76364,5.27846 -8.74541,7.8027c-2.49748,2.11426 -5.41692,3.70435 -7.85954,5.88175c-7.84039,6.98906 -15.11101,14.70949 -23.32099,21.2603c-1.44661,1.15426 -7.05007,5.808 -9.11697,8.18637c-2.76496,3.18161 -5.08285,6.44852 -8.23763,9.25116c-1.30626,1.16046 -2.40909,2.69661 -4.02765,3.35483c-3.78636,1.5398 -10.6601,0.47836 -14.78013,0.46368c-14.82613,-1.85133 -29.9715,-2.05092 -44.89486,-2.99434c-7.31222,-0.46226 -14.71576,0.47995 -22.02812,-0.00134c-7.4198,-0.48835 -14.6846,-1.38782 -22.07702,-2.00432c-1.42628,-0.11895 -2.87871,0.19029 -4.29362,-0.02524c-5.079,-0.77366 -10.01251,-2.41629 -15.11524,-3.01373c-4.99882,-0.58528 -9.96373,-1.44452 -14.96642,-1.99577c-1.57445,-0.17349 -3.17526,0.17825 -4.75186,0.02553c-6.73824,-0.6527 -12.06556,-2.07192 -17.02483,-6.93361c-1.1608,-1.13796 -1.85082,-2.67285 -2.77623,-4.00928c-1.49426,-2.65187 -3.26783,-5.16471 -4.48279,-7.9556c-2.63347,-6.04937 -1.45064,-12.94464 -1.45064,-19.33022c0,-3.37188 -0.7604,-6.85497 0.10029,-10.11516c2.265,-8.57953 7.52472,-17.14502 11.67092,-24.8924c2.8972,-5.41357 6.56438,-11.83765 10.87192,-16.2161c1.64028,-1.66729 3.66956,-2.90341 5.43861,-4.43339c2.74661,-2.37545 5.20344,-5.21027 8.39437,-6.94367c4.73556,-2.57248 11.54126,-2.62461 16.77389,-2.64928c0,0 6.25,0 6.25,6.25c0,6.25 -6.25,6.25 -6.25,6.25c-3.30923,-0.02022 -8.29632,-0.34733 -11.22611,1.35072c-2.94698,1.70801 -3.31603,3.11386 -5.60563,5.05633c-5.31169,4.50637 -6.78437,6.5559 -10.94151,12.76985c-3.46838,5.18441 -4.45653,8.41336 -7.74796,14.58066c-1.93353,3.62294 -4.19557,7.16053 -5.32908,11.1076c-0.72552,2.52638 0.10029,5.25635 0.10029,7.88484c0,4.64221 -1.51464,10.41581 0.54936,14.66978c1.01758,2.09726 2.3448,4.0296 3.51721,6.0444c3.62077,5.88996 9.31973,4.39682 15.44708,5.08265c5.02416,0.56235 10.013,1.41079 15.03358,2.00423c5.02547,0.59402 9.88445,2.20838 14.88476,2.98627c1.2208,0.18992 2.47515,-0.12776 3.70638,-0.02524c7.34517,0.61161 14.55068,1.49767 21.92298,1.99568c7.29036,0.49247 14.67626,-0.45226 21.97188,-0.00134c14.98974,0.92647 30.21484,1.14241 45.10514,3.00566c2.77439,-0.01283 5.86649,-0.37403 8.61164,-0.01208c0.25519,0.03365 0.36114,0.54786 0.60823,0.47575c0.20664,-0.0603 -0.15632,-0.47261 -0.02765,-0.64517c0.31135,-0.41756 3.32678,-3.23869 3.76237,-3.74884c4.87342,-5.70771 8.87807,-9.9978 14.88303,-14.81363c7.96582,-6.38839 15.03035,-13.95933 22.67901,-20.7397c1.87344,-1.66076 6.14318,-4.42904 8.14046,-6.11825c3.14653,-2.66119 6.01197,-5.65408 9.25459,-8.1973c4.0148,-3.14885 8.52062,-5.62633 12.60495,-8.68445c8.42176,-8.45983 19.84343,-12.15503 30.1459,-17.78888c8.04674,-4.40031 16.05997,-8.3598 24.38876,-12.19103c7.43285,-3.41911 14.43715,-6.7319 22.55921,-8.4678c1.70731,-0.3649 3.51188,0.23126 5.23749,-0.03388c2.71686,-0.41743 5.29195,-1.52881 8,-2c3.71079,-0.64566 7.9921,-0.0886 11.76365,-0.04683c2.39412,0.02652 4.82597,-0.31388 7.18192,0.11277c2.09409,0.37923 3.97854,1.51238 5.96781,2.26857c2.15396,0.73015 4.40197,1.22636 6.46187,2.19045c7.81113,3.65583 13.93323,10.60256 20.48341,15.95662c6.34157,5.18356 7.12103,4.54688 11.52013,9.50697c1.53122,1.72649 2.91079,3.58028 4.21158,5.49247c0.53451,-0.6865 1.30054,-1.3292 2.37819,-1.86802c5.59017,-2.79508 8.38525,2.79508 8.38525,2.79508l-0.17075,0.37567c1.29905,1.37787 2.84631,2.55823 3.89715,4.1336c0.76911,1.153 0.88056,2.63394 1.45768,3.89405c1.1523,2.51601 2.40733,4.98585 3.72397,7.41989c4.24573,7.84896 8.19539,16.17015 12.85619,23.74809c1.57917,2.56755 3.66433,4.80286 5.21506,7.38768c0.45572,0.75961 0.29774,1.78691 0.7471,2.55029c0.64202,1.09067 2.42567,1.62885 2.45768,2.89405c0.06317,2.49697 -0.65873,4.92523 -1.33905,7.35712c1.18115,-0.6642 2.27461,-1.43351 3.14539,-2.38477l3.62433,-2.17075c0,0 5.59017,-2.79508 8.38525,2.79508z" fill="#000000" stroke="none" stroke-linecap="butt"/><path d="M845.25,934.4837c0,-6.25 6.25,-6.25 6.25,-6.25l1.74334,0.12764c1.24987,-0.56585 2.4912,-1.13733 3.72501,-1.71816c-0.34208,0.01842 -0.68387,0.04296 -1.0253,0.07479c-15.09804,1.40766 -30.24906,1.01572 -45.44306,1.01572c0,0 -6.25,0 -6.25,-6.25c0,-6.25 6.25,-6.25 6.25,-6.25c14.90521,0 29.74663,0.33034 44.55694,-0.98428c3.7991,-0.33722 7.6439,0.41417 11.44192,0.06498c1.04967,-0.09651 1.95539,-0.85891 3,-1c0.1638,-0.02212 0.68513,-0.03867 1.40168,-0.05095c-1.21733,-0.83885 -2.43763,-1.67323 -3.68636,-2.46319c-1.50672,-0.95317 -3.36445,-1.35867 -4.71885,-2.51812c-0.85431,-0.73135 -3.03514,-3.76283 -4.28115,-5.48188l-1.6906,-0.3873c0,0 -5.92927,-1.97642 -3.95285,-7.90569c1.97642,-5.92927 7.90569,-3.95285 7.90569,-3.95285l4.3094,1.6127c1.14526,1.07385 2.40035,2.04143 3.43577,3.22156c0.88155,1.00475 1.26904,2.42572 2.28308,3.29656c0.91044,0.78187 2.25952,0.85221 3.28115,1.48188c2.97816,1.83555 5.72063,4.03998 8.72174,5.83778c4.32728,2.24287 13.84001,7.68895 10.82195,14.73252c-0.4187,0.97715 -1.13208,1.71795 -2.01431,2.30754c-1.41765,3.68873 -5.81521,3.68873 -5.81521,3.68873c-4.29176,-0.37507 -8.04215,3.18836 -11.75217,5.37826c-5.78395,3.41407 -11.78586,5.93543 -17.99117,8.4941l-4.25666,0.12764c0,0 -6.25,0 -6.25,-6.25z" fill="#000000" stroke="none" stroke-linecap="butt"/></g></g></svg>