<svg version="1.1" xmlns="http://www.w3.org/2000/svg" xmlns:xlink="http://www.w3.org/1999/xlink" width="1925.12908" height="1087.5" viewBox="0,0,1925.12908,1087.5"><defs><linearGradient x1="969.92488" y1="957.14714" x2="969.92488" y2="1069.75975" gradientUnits="userSpaceOnUse" id="color-1"><stop offset="0" stop-color="#ff9400"/><stop offset="1" stop-color="#525252"/></linearGradient><linearGradient x1="82.93166" y1="590.78077" x2="82.93166" y2="958.64864" gradientUnits="userSpaceOnUse" id="color-2"><stop offset="0" stop-color="#ff9400"/><stop offset="1" stop-color="#525252"/></linearGradient><linearGradient x1="1861.20493" y1="594.27927" x2="1861.20493" y2="962.14713" gradientUnits="userSpaceOnUse" id="color-3"><stop offset="0" stop-color="#ff9400"/><stop offset="1" stop-color="#525252"/></linearGradient><radialGradient cx="444.79352" cy="780.72071" r="96.84685" gradientUnits="userSpaceOnUse" id="color-4"><stop offset="0" stop-color="#525252"/><stop offset="1" stop-color="#ff9400"/></radialGradient><radialGradient cx="1509.85358" cy="778.2132" r="96.84685" gradientUnits="userSpaceOnUse" id="color-5"><stop offset="0" stop-color="#525252"/><stop offset="1" stop-color="#ff9400"/></radialGradient><radialGradient cx="960" cy="427.38739" r="331.83183" gradientUnits="userSpaceOnUse" id="color-6"><stop offset="0" stop-color="#525252"/><stop offset="1" stop-color="#ff9400"/></radialGradient><linearGradient x1="960" y1="-3.5" x2="960" y2="1083.5" gradientUnits="userSpaceOnUse" id="color-7"><stop offset="0" stop-color="#ff4a00"/><stop offset="1" stop-color="#ff4a00" stop-opacity="0"/></linearGradient></defs><g transform="translate(0.75,3.75)"><g data-paper-data="{&quot;isPaintingLayer&quot;:true}" fill-rule="nonzero" stroke="#000000" stroke-width="0.5" stroke-linecap="butt" stroke-linejoin="miter" stroke-miterlimit="10" stroke-dasharray="" stroke-dashoffset="0" style="mix-blend-mode: normal"><path d="M15.72067,1069.75975v-112.61261h1908.40841v112.61261z" fill="url(#color-1)"/><path d="M22.12085,958.64864v-367.86787h121.62162v367.86787z" fill="url(#color-2)"/><path d="M1800.39412,962.14713v-367.86787h121.62162v367.86787z" fill="url(#color-3)"/><path d="M353.95268,877.56756v-193.69369h181.68168v193.69369z" fill="url(#color-4)"/><path d="M1419.01274,875.06005v-193.6937h181.68169v193.6937z" fill="url(#color-5)"/><path d="M628.16817,456.66667v-58.55856h663.66366v58.55856z" fill="url(#color-6)"/><path d="M-0.5,1083.5v-1087h1921v1087z" fill="url(#color-7)"/></g></g></svg>