<svg version="1.1" xmlns="http://www.w3.org/2000/svg" xmlns:xlink="http://www.w3.org/1999/xlink" width="1764.66872" height="1249.20085" viewBox="0,0,1764.66872,1249.20085"><defs><linearGradient x1="108.5" y1="912" x2="108.5" y2="1326" gradientUnits="userSpaceOnUse" id="color-1"><stop offset="0" stop-color="#ff6666"/><stop offset="1" stop-color="#9142a5"/></linearGradient><linearGradient x1="623.5" y1="694" x2="623.5" y2="1108" gradientUnits="userSpaceOnUse" id="color-2"><stop offset="0" stop-color="#ff6666"/><stop offset="1" stop-color="#9142a5"/></linearGradient><linearGradient x1="819.5" y1="524" x2="819.5" y2="938" gradientUnits="userSpaceOnUse" id="color-3"><stop offset="0" stop-color="#ff6666"/><stop offset="1" stop-color="#9142a5"/></linearGradient><linearGradient x1="1017.91564" y1="78.79915" x2="1017.91564" y2="1083.9465" gradientUnits="userSpaceOnUse" id="color-4"><stop offset="0" stop-color="#ff6666"/><stop offset="1" stop-color="#9142a5"/></linearGradient><linearGradient x1="378.88272" y1="382.94245" x2="378.88272" y2="1210.34568" gradientUnits="userSpaceOnUse" id="color-5"><stop offset="0" stop-color="#ff6666"/><stop offset="1" stop-color="#9142a5"/></linearGradient><linearGradient x1="378.88272" y1="245.32179" x2="378.88272" y2="1237.67784" gradientUnits="userSpaceOnUse" id="color-6"><stop offset="0" stop-color="#ff6666"/><stop offset="1" stop-color="#9142a5"/></linearGradient><linearGradient x1="544.40331" y1="209.36164" x2="544.40331" y2="327.22631" gradientUnits="userSpaceOnUse" id="color-7"><stop offset="0" stop-color="#666666"/><stop offset="1" stop-color="#ffffff"/></linearGradient></defs><g transform="translate(-54,-77.79915)"><g data-paper-data="{&quot;isPaintingLayer&quot;:true}" fill-rule="nonzero" stroke-linecap="butt" stroke-linejoin="miter" stroke-miterlimit="10" stroke-dasharray="" stroke-dashoffset="0" style="mix-blend-mode: normal"><path d="M55,1326v-414h107v414z" fill="url(#color-1)" stroke="#000000" stroke-width="2"/><path d="M570,1108v-414h107v414z" fill="url(#color-2)" stroke="#000000" stroke-width="2"/><path d="M766,938v-414h107v414z" fill="url(#color-3)" stroke="#000000" stroke-width="2"/><path d="M964.41564,1083.9465v-1005.14735h107v1005.14735z" fill="url(#color-4)" stroke="#000000" stroke-width="2"/><path d="M325.38272,1210.34568v-383.62877c2.30727,0 4.61454,0 6.92181,0c6.3071,0 13.08359,0.73127 19.09153,-1.00242c16.80145,0.24527 33.61113,0.11178 50.41464,0.11178c10.19021,0 20.38362,0.20063 30.57202,0.08438v384.43502z" fill="url(#color-5)" stroke="#000000" stroke-width="2"/><path d="M325.38272,245.32179h107v250.47527c-3.61941,0.13952 -7.23976,0.25226 -10.85739,0.37008c-18.37932,0.59855 -36.88595,-0.00423 -55.27019,-0.00423c-13.62414,0 -27.24828,0 -40.87242,0z" fill="url(#color-6)" stroke="#000000" stroke-width="2"/><path d="M1373.66872,219v-106h444v106z" fill="#9966ff" stroke="#000000" stroke-width="2"/><path d="M328.17407,193.74392c4.08145,0 4.08145,4.08145 4.08145,4.08145v3.2725c45.21461,0 90.4292,0 135.6438,0c10.52506,0 21.86205,-1.17823 32.31251,0.02437c14.92945,1.71803 29.60741,7.22754 44.41025,9.84706c0.94017,0.16638 15.66011,2.19167 16.32661,2.34239c12.5196,2.83135 24.628,9.19687 36.28768,14.37904c10.20122,4.53395 20.3068,8.27664 29.52616,14.62499c4.72258,3.28036 10.58277,5.20692 15.11566,8.57896c1.77843,1.32299 2.76128,3.60132 4.66193,4.74179c2.10257,1.26164 4.80127,1.17423 7.00141,2.25678c2.40786,1.18475 4.2476,3.36615 6.68928,4.4795c2.37632,1.08354 5.1128,1.13629 7.56963,2.02224c4.19085,1.51126 7.89022,4.27984 12.16431,5.53657c7.88271,2.31777 16.91974,1.97901 24.58589,4.92681c7.50603,2.88624 14.74805,6.8687 22.23973,9.87095c2.61911,1.0496 5.57676,1.32427 7.99729,2.77429c2.13589,1.27952 3.40313,3.65921 5.34449,5.21816c7.21437,5.79332 12.13485,9.34738 17.39441,17.21693c5.89239,6.96775 6.63648,18.86799 -4.33636,21.77885c-4.87612,1.29353 -16.17826,0.11732 -21.35722,0.10919c-5.59436,-0.00878 -12.79163,-0.32379 -17.9122,-2.762c-6.48882,-3.08972 -11.22126,-8.42372 -18.70244,-9.54731c-2.59258,-0.38937 -5.2533,0.26642 -7.86492,0.03716c-17.59991,-1.54502 -35.30368,-6.47959 -52.035,-11.84554c-2.87954,-0.182 -5.88334,0.31034 -8.63861,-0.546c-2.7109,-0.84254 -4.66674,-3.31714 -7.28912,-4.40431c-4.01954,-1.66639 -8.49656,-1.88499 -12.72458,-2.9133c-5.2426,-1.27508 -10.41741,-2.84206 -15.7022,-3.92914c-22.15408,-4.55715 -44.64338,-8.75934 -66.92828,-12.48136c-10.98572,-1.83484 -22.94605,-0.6346 -34.07439,-0.6346c-33.76285,0 -67.52569,0 -101.28854,0c-20.01038,0 -40.53861,1.33236 -60.43372,-0.7704c-1.36453,-3.33707 -3.28512,-6.49776 -4.09359,-10.01122c-0.59859,-2.60132 -0.044,-5.33845 -0.0527,-8.00774c-0.02219,-6.80601 0,-13.61344 0,-20.4195c0,-12.80406 0,-25.60813 0,-38.41219c0,-4.08145 4.08145,-4.08145 4.08145,-4.08145c1.36048,0 2.72097,0 4.08145,0c0,2.71687 0,5.44602 0,8.1629c-1.36048,0 -2.72097,0 -4.08145,0c0,0 -4.08145,0 -4.08145,-4.08145v0c0,-1.3564 0,-2.71279 0,-4.06919v-3.28477c0,0 0,-4.08145 4.08145,-4.08145zM332.25552,209.26077c0,14.16455 0,28.32909 0,42.49364c0,7.90033 -0.58629,15.85914 0.75634,23.65348c5.58798,-1.71093 12.27164,-0.7704 18.05755,-0.7704c9.81345,0 19.6269,0 29.44035,0c36.48382,0 72.96762,0 109.45144,0c11.60344,0 23.92739,-1.13195 35.39094,0.74147c22.39504,3.65987 45.0044,7.9646 67.25642,12.5419c9.26018,1.90484 21.12042,3.70156 29.89048,7.29004c2.40944,0.98588 4.12579,3.38195 6.61038,4.15929c2.44036,0.76349 5.10992,0.20461 7.66488,0.30692c16.54802,5.1687 33.91708,10.23025 51.29069,11.74572c2.80965,0.24508 5.67801,-0.42096 8.46087,0.03716c8.45343,1.39163 13.29584,6.4472 20.51868,10.06327c3.36971,1.68701 7.36218,1.65749 11.09687,2.16051c5.1742,0.69688 10.71026,-0.07038 15.94813,-0.01987c2.40856,0.02323 4.81998,0.23845 7.22517,0.10919c0.81533,-0.04382 1.99171,0.09957 2.36848,-0.6248c0.4343,-0.83497 -0.5602,-1.81703 -0.60956,-2.7569c-0.05967,-1.13624 0.67248,-2.33121 0.28613,-3.4014c-0.33723,-0.93411 -1.48542,-1.31862 -2.22811,-1.97793c-5.10987,-7.6846 -9.16337,-10.29806 -16.17471,-15.97751c-1.65731,-1.34249 -2.63283,-3.48827 -4.46079,-4.58711c-2.01127,-1.20902 -4.5254,-1.27297 -6.71064,-2.12834c-7.41359,-2.90193 -14.50935,-6.8234 -21.88404,-9.73961c-7.48549,-2.96001 -16.69908,-2.57405 -24.44051,-4.87846c-4.35904,-1.29756 -8.15144,-4.08417 -12.42976,-5.62717c-2.66243,-0.96022 -5.60453,-1.10083 -8.18146,-2.27131c-2.51148,-1.14073 -4.42213,-3.35343 -6.89459,-4.57641c-2.43449,-1.20419 -5.3775,-1.24856 -7.70651,-2.64586c-2.06304,-1.23772 -3.22469,-3.612 -5.14336,-5.06348c-4.4008,-3.32922 -10.34528,-5.28601 -14.98827,-8.48899c-8.73422,-6.07933 -18.49053,-9.56427 -28.19588,-13.87769c-11.13923,-4.9507 -22.79508,-11.1914 -34.76589,-13.87495c-5.2555,-1.17815 -10.69348,-1.33556 -15.99681,-2.27523c-14.60642,-2.58805 -29.11235,-8.05944 -43.83728,-9.76351c-10.1446,-1.174 -21.2011,0.02437 -31.42181,0.02437c-45.21461,0 -90.4292,0 -135.6438,0z" fill="#666666" stroke="none" stroke-width="0.5"/><path d="M467.63528,209.92518c10.44429,0 21.75839,-1.24037 32.1249,-0.04069c15.04703,1.74135 29.92127,7.31527 44.8472,9.95995c5.41934,0.96023 11.00413,1.126 16.37459,2.32992c12.23266,2.74227 24.18642,9.15441 35.56932,14.21341c9.91764,4.40778 19.89772,7.99468 28.823,14.20698c4.74457,3.27304 10.82064,5.28268 15.3177,8.68472c1.96064,1.48323 3.148,3.91406 5.25617,5.17888c2.37997,1.42787 5.38741,1.4755 7.87515,2.70602c2.52656,1.24973 4.47898,3.51422 7.04538,4.67992c2.6333,1.19608 5.63971,1.34116 8.36037,2.32238c4.37191,1.57675 8.24706,4.42743 12.70145,5.75337c7.91077,2.35481 17.32577,1.96188 24.975,4.98664c7.536,2.97998 14.78656,6.99064 22.36232,9.95604c2.23304,0.87408 4.80209,0.93993 6.85736,2.1754c1.86795,1.12288 2.86456,3.31725 4.5581,4.68908c7.16471,5.80368 11.30588,8.47931 16.52753,16.332c0.75896,0.67374 1.93213,1.06717 2.27673,2.02174c0.3948,1.09361 -0.35368,2.31597 -0.2927,3.47707c0.05045,0.96042 1.06644,1.9649 0.62266,2.81813c-0.38501,0.74022 -1.58725,0.59415 -2.42041,0.63892c-2.45781,0.1321 -4.92218,-0.08713 -7.38341,-0.11087c-5.35244,-0.05163 -11.01015,0.73423 -16.29752,0.0221c-3.81638,-0.514 -8.05539,-0.53372 -11.49881,-2.25763c-7.38085,-3.69515 -12.32971,-8.85964 -20.96803,-10.28169c-2.84374,-0.46814 -5.61515,0.26072 -8.48626,0.01028c-17.75365,-1.54862 -35.5037,-6.71772 -52.4137,-11.99948c-2.61084,-0.10455 -5.33952,0.46849 -7.83326,-0.3117c-2.53894,-0.79434 -4.2923,-3.24421 -6.75446,-4.25167c-8.96189,-3.66697 -21.08348,-5.49822 -30.54623,-7.44472c-22.73877,-4.67742 -45.99343,-9.0715 -68.87835,-12.81142c-11.71432,-1.9144 -24.31603,-0.78286 -36.17329,-0.78286c-37.28188,0 -74.56465,-0.00864 -111.84654,-0.00864c-10.02811,0 -20.05626,-0.00065 -30.08438,-0.00065c-5.91246,0 -12.74234,-0.9611 -18.45255,0.78725c-1.372,-7.96486 -0.77275,-16.1071 -0.77275,-24.18024c0,-14.47439 0.0027,-28.96482 0.0027,-43.43921c46.20365,0 92.42141,-0.02868 138.62506,-0.02868z" data-paper-data="{&quot;noHover&quot;:false,&quot;origItem&quot;:[&quot;Path&quot;,{&quot;applyMatrix&quot;:true,&quot;segments&quot;:[[[329.00523,256.94443],[27.6952,0],[0,8.67618]],[[329.00523,282.97296],[0,-8.67618],[0,4.83917]],[[329.46851,297.46137],[-0.8224,-4.77426],[3.42279,-1.04799]],[[340.52925,296.98948],[-3.54402,0],[6.01101,0]],[[358.56229,296.98948],[-6.01101,0],[22.34735,0]],[[425.60433,296.98948],[-22.34735,0],[7.10743,0]],[[447.28226,297.44364],[-7.02175,-1.14752],[13.71758,2.24177]],[[488.47869,305.1259],[-13.62998,-2.80372],[5.67212,1.16677]],[[506.78743,309.59126],[-5.3719,-2.19804],[1.47585,0.60388]],[[510.83647,312.13893],[-1.52188,-0.47614],[1.49479,0.46766]],[[515.53142,312.32693],[-1.56498,-0.06267],[10.13612,3.16597]],[[546.94839,319.52152],[-10.64182,-0.92827],[1.72099,0.15012]],[[552.13091,319.54428],[-1.70458,-0.28061],[5.17796,0.85241]],[[564.69918,325.70831],[-4.4242,-2.21493],[2.06404,1.03334]],[[571.49632,327.03167],[-2.2876,-0.3081],[3.16934,0.42686]],[[581.26499,327.01951],[-3.20834,-0.03095],[1.47531,0.01423]],[[585.69061,327.08639],[-1.47325,0.07918],[0.49941,-0.02684]],[[587.14137,326.70368],[-0.23078,0.4437],[0.26602,-0.51144]],[[586.76799,325.015],[0.03024,0.57569],[-0.03655,-0.69598]],[[586.94325,322.93155],[0.23665,0.65553],[-0.20656,-0.57217]],[[585.57847,321.72001],[0.45493,0.40385],[-3.12994,-4.70703]],[[575.67101,311.93334],[4.29464,3.47882],[-1.01515,-0.82231]],[[572.93865,309.12361],[1.11968,0.67307],[-1.23196,-0.74056]],[[568.8282,307.81994],[1.33852,0.52394],[-4.54103,-1.77751]],[[555.42362,301.85416],[4.5172,1.78625],[-4.58507,-1.81309]],[[540.45313,298.86597],[4.74184,1.41151],[-2.67003,-0.79479]],[[532.83955,295.41917],[2.62059,0.94513],[-1.63081,-0.58816]],[[527.82818,294.02793],[1.57844,0.71695],[-1.53835,-0.69873]],[[523.60505,291.22476],[1.51446,0.74911],[-1.49119,-0.7376]],[[518.8846,289.60409],[1.42659,0.85589],[-1.26367,-0.75814]],[[515.73414,286.50257],[1.17524,0.88907],[-2.69561,-2.03924]],[[506.55341,281.30283],[2.84397,1.96191],[-5.34995,-3.72376]],[[489.28265,272.80236],[5.94479,2.64209],[-6.82309,-3.03244]],[[467.98758,264.30357],[7.33245,1.64376],[-3.21914,-0.72165]],[[458.18909,262.90992],[3.24844,0.57558],[-8.94684,-1.58525]],[[431.33754,256.9295],[9.01943,1.04379],[-6.21385,-0.71911]],[[412.09082,256.94443],[6.26047,0],[-27.6952,0]]],&quot;closed&quot;:true}]}" fill="url(#color-7)" stroke="none" stroke-width="0.5"/></g></g></svg>