<svg version="1.1" xmlns="http://www.w3.org/2000/svg" xmlns:xlink="http://www.w3.org/1999/xlink" width="1903.73348" height="361.32755" viewBox="0,0,1903.73348,361.32755"><g transform="translate(3.65468,-791.26478)"><g data-paper-data="{&quot;isPaintingLayer&quot;:true}" fill-rule="nonzero" stroke-linecap="butt" stroke-linejoin="miter" stroke-miterlimit="10" stroke-dasharray="" stroke-dashoffset="0" style="mix-blend-mode: normal"><path d="M-3.40468,1077.26726v-93.09309h396.3964v93.09309z" fill="#666666" stroke="#ffffff" stroke-width="0.5"/><path d="M594.19292,1152.34233c-53.90166,0 -97.5976,-82.68615 -97.5976,-184.68468c0,-14.07754 0.83235,-27.78721 2.40901,-40.96238c2.8635,0.52808 5.73397,1.00952 8.62332,1.36473c10.23387,1.25813 20.61695,0.44911 30.92574,0.65853c0.57197,0.01162 40.17318,0.81955 40.44981,0.81126c8.85947,-0.2656 28.0948,0.49129 35.48241,-8.81841c2.48574,-3.13248 2.15757,-7.9412 1.55886,-11.89504c-2.16639,-14.30686 -10.19049,-20.9381 -18.98735,-31.91531c-0.43397,-0.54153 -25.02813,-31.0345 -25.33054,-31.40045c-5.16181,-6.24638 -10.79746,-12.25589 -16.4881,-18.19806c-0.472,-4.55255 -3.99827,-8.19803 -8.49434,-8.85196c-0.90632,-0.95061 -1.80867,-1.90165 -2.70531,-2.85385c0.78369,-0.70348 1.55421,-1.41868 2.29822,-2.15729c2.39719,-2.37978 4.20208,-5.46853 7.05945,-7.27001c5.15483,-3.24996 11.09075,-5.05377 16.60421,-7.64919c1.9529,-0.91931 3.66958,-2.50501 5.7927,-2.89399c9.83527,-1.80193 19.92855,-1.67441 29.87809,-2.66751c2.60501,-0.21429 6.17756,-2.6802 7.81502,-0.64287c1.69746,2.11198 -0.95996,5.37668 -1.99907,7.8791c-2.14594,5.16793 -6.40781,9.52837 -7.50751,15.01502c-3.4853,17.38896 1.93818,27.42854 20.00064,34.27878c7.24689,2.74841 15.49813,0.76807 23.24536,0.54127c2.02312,-0.05923 4.29294,0.16268 6.30034,-0.20735c1.65024,6.59677 3.11091,12.43132 3.1375,12.52275c3.90618,13.43297 5.49852,17.18046 9.8545,27.28353c0.54877,6.5995 1.15214,13.19796 1.75872,19.8113v4.68157c-1.13157,1.1939 -1.85553,2.44813 -1.37238,3.88597c0.33976,1.01111 0.80756,1.94498 1.37238,2.82031v1.78451c0,0.40956 0.02462,0.81336 0.07246,1.21001l-0.51824,0.25912l1.40462,2.80923c1.60344,3.38246 5.04913,5.72163 9.04116,5.72163c5.52285,0 10,-4.47715 10,-10v-1.18243c0.14292,-0.0253 0.28288,-0.06135 0.41637,-0.10805c2.02166,14.8067 3.09715,30.33344 3.09715,46.33552c0,101.99853 -43.69593,184.68468 -97.5976,184.68468z" fill="#666666" stroke="#ffffff" stroke-width="0.5"/><path d="M752.93166,1092.28227v-114.11411h1147.14715v114.11411z" fill="#7c7c7c" stroke="none" stroke-width="0"/></g></g></svg>