<svg version="1.1" xmlns="http://www.w3.org/2000/svg" xmlns:xlink="http://www.w3.org/1999/xlink" width="1885.46623" height="746.21202" viewBox="0,0,1885.46623,746.21202"><g transform="translate(-82.66738,-178.23598)"><g data-paper-data="{&quot;isPaintingLayer&quot;:true}" fill="#ffffff" fill-rule="nonzero" stroke="none" stroke-width="0.5" stroke-linecap="butt" stroke-linejoin="miter" stroke-miterlimit="10" stroke-dasharray="" stroke-dashoffset="0" style="mix-blend-mode: normal"><path d="M1923.64727,897.75c1.5755,-1.02177 4.67382,-2.26775 7.77215,0.83058c4.41942,4.41942 0,8.83883 0,8.83883l-5.41942,2.83058c-30,0 -60,0 -90,0c-13.97019,0 -28.75248,1.15085 -42.72055,-0.04167c-5.9471,-0.50774 -11.62892,-2.69667 -17.43829,-4.0667c-9.30243,-1.3317 -18.23247,-3.79356 -27.35701,-6.07824c-6.33227,-1.58552 -13.51036,-2.8569 -19.63389,-5.19473c-19.72489,-7.53054 -39.33523,-15.73971 -59.9146,-20.70995c-4.84358,-1.1698 -9.9426,-0.67819 -14.91273,-1.034c-6.33148,-0.45327 -12.67526,-0.87843 -19.02294,-0.8747c0,0 -3.897,0 -5.5366,-3.0772c-13.70023,-0.54175 -27.93634,-3.82793 -41.09806,-7.14035c-3.28359,-0.82638 -7.81064,-3.41567 -11.36648,-3.86315c-1.19559,-0.15046 -2.42182,0.22081 -3.61472,0.05029c-8.53353,-1.21986 -16.86409,-3.57136 -25.3196,-5.03999c-8.41647,-1.46185 -17.53417,-0.93058 -26.06454,-0.9296c-14.34881,0.00166 -28.51052,0.24633 -42.8357,0.99784c-4.91808,-0.00864 -9.81758,0.61004 -14.72125,0.98644c-5.37192,0.41234 -10.7541,0.67811 -16.13172,1.00796c-1.8115,0.11112 -3.65128,-0.33265 -5.44445,-0.05265c-2.28452,0.35672 -4.38633,1.51707 -6.65904,1.94259c-9.85832,1.84579 -20.51471,2.84219 -30.45478,4.07229c-28.06572,3.47318 -56.19294,8.55515 -84.46984,10.03911c-10.36988,0.54421 -20.90732,0.00642 -31.28322,0.00642c-24.96214,0 -49.79616,1.05427 -74.37445,-4.153c-4.30999,-0.91313 -8.3717,-2.74864 -12.54848,-4.15016c-1.47781,-0.49588 -3.12358,-0.50433 -4.52123,-1.19457c-2.94521,-1.45451 -5.48962,-3.62531 -8.38389,-5.1787c-1.54555,-0.82952 -3.3206,-1.16085 -4.88951,-1.9453c-2.43878,-1.21938 -4.66816,-2.83029 -7.10565,-4.05225c-8.93177,-4.47765 -18.50788,-6.90936 -27.65846,-10.83983c-6.6175,-2.84243 -12.614,-6.97462 -19.12403,-10.05526c-8.46954,-4.00791 -17.90832,-6.59628 -26.78331,-9.58722c-6.7493,-0.83372 -13.45708,-1.97781 -20.19871,-2.87139c-10.29533,-1.36461 -21.51573,-0.97292 -31.91228,-0.97231c-19.66667,0.00116 -39.33333,0 -59,0c-12.5,0 -25,0 -37.5,0c-6.37549,0 -12.52209,-0.41598 -18.77427,0.87863c0,0 -0.63513,0.12703 -1.53736,0.09483c-2.47949,1.76758 -5.66479,0.70581 -5.66479,0.70581l-2.02472,-0.75997c-7.16204,0.14454 -14.33634,0.1151 -21.49886,0.0807c-3.79505,-0.01822 -7.62325,-0.60347 -11.38484,-0.10029c-5.45289,0.72942 -6.8562,3.44267 -11.50355,5.5285c-4.79303,2.15121 -9.85532,2.93113 -14.65452,5.03754c-5.80559,2.54813 -12.00914,6.35213 -18.38183,7.87883l-0.25868,0.69125c-17.20731,18.02311 -40.46911,25.14467 -63.13745,33.57199c-7.65267,2.845 -15.24142,5.8614 -22.80907,8.92539c-4.3927,1.77852 -8.54154,4.11719 -12.9072,5.96109c-6.17441,2.60785 -12.557,4.76199 -18.54123,7.7808c-1.87807,0.94741 -3.48948,2.40622 -5.43398,3.20851c-2.57287,1.06154 -5.31573,1.6621 -8.01507,2.34045c-6.98138,1.75442 -7.12403,1.14955 -15.47257,1.17595c-15.81498,0 -31.73872,-0.43758 -47.4845,0.9787c-10.35817,0.93169 -20.13233,4.7191 -30.21203,6.88386c-2.26037,0.48545 -4.61445,0.45198 -6.86752,0.97024c-1.95013,0.44857 -3.7604,1.38268 -5.68853,1.91794c-11.00525,3.05515 -22.28829,5.32987 -33.37625,8.09698c-7.16994,1.4365 -14.58008,3.31937 -21.80989,4.12701c-2.37928,0.26579 -4.79348,-0.1461 -7.18221,0.01375c-7.06229,0.4726 -14.0697,1.65861 -21.13922,2.0069c-9.19758,0.45314 -18.52792,0.0046 -27.73985,0.0046c-10.58413,0 -21.32909,0.39481 -31.91392,-0.01372c-5.14414,-0.19855 -10.19789,-1.42297 -15.31014,-2.02836c-15.66627,-1.85521 -30.88464,-3.89108 -46.12309,-8.23711c-11.33095,-3.77637 -23.7585,-6.61361 -34.21488,-12.52228c-5.35697,-3.02711 -5.23861,-4.52582 -9.9004,-8.61514c-1.05657,-0.92682 -2.46317,-1.42016 -3.45699,-2.41397c-0.99381,-0.99381 -1.49931,-2.38988 -2.41397,-3.45699c-4.27111,-4.98296 -10.34221,-10.29902 -14.74719,-14.70418c-13.31336,-13.31391 -26.09149,-27.1309 -39.42784,-40.42377c-4.76628,-4.75074 -12.01918,-12.33318 -17.5758,-16.31323c-6.65299,-4.76534 -14.09744,-8.31539 -21.13978,-12.48387c-11.1889,-7.12979 -22.77842,-13.8981 -35.39388,-18.15528c-3.63183,-1.22559 -7.13595,-2.9066 -10.88326,-3.71282c-1.95507,-0.42062 -3.99909,0.06917 -5.99886,0.0807c-5.33324,0.03075 -10.66667,0 -16,0c-15.5,0 -31,0 -46.5,0c-10.66667,0 -21.33333,0 -32,0c-9.47418,0 -19.50743,-1.47876 -28.52358,1.67927c0,0 -5.92927,1.97642 -7.90569,-3.95285c-1.97642,-5.92927 3.95285,-7.90569 3.95285,-7.90569c2.32509,-0.74668 4.54955,-1.95822 6.97528,-2.24003c0.91731,-0.10657 24.29107,-0.0807 25.50114,-0.0807c10.66667,0 21.33333,0 32,0c15.5,0 31,0 46.5,0c5.33333,0 10.66673,-0.0269 16,0c2.66715,0.01345 5.38835,-0.45522 8.00114,0.0807c4.40867,0.90429 8.55981,2.7833 12.83383,4.19287c13.53879,4.46511 26.00045,11.7471 37.98058,19.36092c0.66728,0.39486 21.58732,12.76482 21.8892,12.98192c6.4591,4.64502 13.48861,12.01442 19.10967,17.61327c13.3464,13.29367 26.12464,27.12109 39.44384,40.43973c4.74991,4.74971 11.03795,10.32477 15.57514,15.61815c0.65015,0.75851 0.87961,1.8366 1.58603,2.54301c0.70642,0.70642 1.79028,0.92919 2.54301,1.58603c1.83523,1.60145 5.37262,5.90822 8.0996,7.38486c9.80627,5.31002 21.25216,7.96616 31.78512,11.47772c14.49138,4.14867 28.97929,5.99795 43.87691,7.76289c4.90622,0.58125 9.75208,1.80685 14.68986,1.97164c10.31917,0.34437 20.7684,-0.01372 31.08608,-0.01372c9.05207,0 18.22244,0.44968 27.26015,0.0046c6.9768,-0.34359 13.89121,-1.52528 20.86078,-1.9931c2.2675,-0.1522 4.55892,0.26326 6.81779,0.01375c6.67876,-0.73772 13.56356,-2.55014 20.19011,-3.87299c10.83513,-2.71391 21.86803,-4.91348 32.62375,-7.90302c2.13443,-0.59326 4.15319,-1.58249 6.31147,-2.08206c2.34027,-0.54169 4.78342,-0.52754 7.13248,-1.02976c10.61691,-2.26984 20.88116,-6.11549 31.78797,-7.11614c16.08437,-1.47567 32.35986,-1.0213 48.5155,-1.0213c6.4891,0.02354 12.40728,0.0919 18.51236,-2.4836c1.64364,-0.69339 2.97256,-1.98949 4.56602,-2.79149c3.90226,-1.96405 7.8739,-3.79533 11.89828,-5.49519c6.87365,-2.90336 13.72712,-5.95295 20.65329,-8.76291c27.14605,-11.01323 57.5678,-17.7008 80.05348,-37.50262l0.09367,-0.40887c0.18485,-2.30737 1.28967,-3.65639 2.51836,-4.4451c1.04124,-0.83922 2.49557,-1.43119 4.45972,-1.09883c1.95818,-0.14372 3.77458,-1.57143 5.59385,-2.42133c5.48045,-2.56026 10.92547,-5.25307 16.63342,-7.25547c3.08353,-1.08173 6.43876,-1.39381 9.40594,-2.7628c1.73003,-0.79819 3.15556,-2.17401 4.89535,-2.95069c3.11268,-1.38956 6.23305,-2.99549 9.6011,-3.52081c4.48429,-0.69943 9.07669,-0.0806 13.61516,-0.10029c7.83321,-0.03399 15.6686,-0.02463 23.50114,0.0807l2.72146,0.84891c1.08721,-0.61535 2.05168,-0.80825 2.05168,-0.80825c7.102,-1.38113 13.9745,-1.12137 21.22573,-1.12137c12.5,0 25,0 37.5,0c19.66667,0 39.33333,-0.00114 59,0c10.81662,0.00063 22.36266,-0.35519 33.08772,1.02769c7.28127,0.93884 14.52135,2.17953 21.80129,3.12861c9.69162,3.19993 19.96879,6.05919 29.21669,10.41278c6.43446,3.02911 12.33873,7.14433 18.87597,9.94474c9.40282,4.02795 19.15064,6.57628 28.34154,11.16017c2.36982,1.18192 4.52573,2.76343 6.89435,3.94775c1.64219,0.8211 3.49515,1.18196 5.11049,2.0547c2.64347,1.42823 4.9364,3.46229 7.61611,4.8213c1.06155,0.53836 2.34877,0.43152 3.47877,0.80543c3.82324,1.2651 7.50837,3.03177 11.45152,3.84984c23.68137,4.91304 47.58481,3.847 71.62555,3.847c10.18829,0 20.53512,0.54394 30.71678,0.00642c27.9597,-1.47609 55.77766,-6.52921 83.53016,-9.96089c9.64572,-1.19272 19.9799,-2.13163 29.54522,-3.92771c2.49762,-0.46898 4.82849,-1.67591 7.34096,-2.05741c2.16049,-0.32805 4.3747,0.08601 6.55555,-0.05265c5.28907,-0.3363 10.58421,-0.58468 15.86828,-0.99204c5.08901,-0.39232 10.17465,-1.0052 15.27875,-1.01356c14.43096,-0.76206 28.70913,-1.0038 43.1643,-1.00216c9.16786,0.00104 18.8725,-0.45138 27.93546,1.0704c8.24489,1.38441 16.37173,3.77383 24.6804,4.96001c1.44718,0.20661 2.94053,-0.17269 4.38528,0.05029c4.23862,0.65416 8.51201,3.10584 12.63352,4.13685c13.17604,3.29605 27.75641,6.84021 41.36534,6.78244h2c0,0 3.91107,0 5.54545,3.09389c4.79383,0.15255 9.58434,0.47165 14.36807,0.81259c5.38441,0.38375 10.89146,-0.03109 16.1508,1.18482c21.33167,4.93169 41.73242,13.39818 62.0854,21.29005c5.64629,2.18935 12.52006,3.34611 18.36611,4.80527c8.89227,2.21948 17.58019,4.62982 26.64299,5.92176c5.52392,1.29691 10.9049,3.49043 16.56171,3.9333c13.52525,1.0589 27.75454,-0.04167 41.27945,-0.04167c29.21576,0 58.43151,0 87.64727,0z"/><path d="M461.25,451c0,6.25 -6.25,6.25 -6.25,6.25l0.97642,-0.32073c-8.549,2.76117 -18.14767,2.68329 -27.03019,3.41184c-17.90049,1.27589 -35.56645,4.35321 -53.43181,5.88769c-14.39851,1.2367 -28.87868,0.86503 -43.30644,1.01775c-5.01082,0.05304 -9.993,0.79737 -15,1c-22.69488,0.91845 -45.87344,-1.90078 -68.43277,0.9552c0,0 -6.20174,0.77522 -6.97695,-5.42652c-0.77522,-6.20174 5.42652,-6.97695 5.42652,-6.97695c22.98751,-2.84008 46.45624,-0.10264 69.56723,-1.0448c5.00694,-0.20412 9.98925,-0.94083 15,-1c14.22175,-0.16793 28.50012,0.23886 42.69356,-0.98225c17.88914,-1.53907 35.57954,-4.61045 53.50466,-5.89349c7.34299,-0.60176 16.90745,-0.31751 24.03335,-2.80699l2.97642,-0.32073c0,0 6.25,0 6.25,6.25z"/><path d="M612.71749,311.39626c0.64014,-0.93735 1.67339,-1.7813 3.30609,-2.32554c5.92927,-1.97642 7.90569,3.95285 7.90569,3.95285l0.14099,8.63086c-2.69009,0.86519 -5.29136,2.08293 -8.07026,2.59556c-6.06435,1.1187 -12.33333,0 -18.5,0c-8.33333,0 -16.66667,0 -25,0c-31.16667,0 -62.33333,0 -93.5,0c0,0 -6.25,0 -6.25,-6.25c0,-6.25 6.25,-6.25 6.25,-6.25c31.16667,0 62.33333,0 93.5,0c12.5,0 25,0 37.5,0c0.8704,0 1.80353,-0.20877 2.71749,-0.35374z"/><path d="M837.54518,244.75c4.07555,-2.96811 7.87424,0.83058 7.87424,0.83058l-3.41942,11.66942c-67.33333,0 -134.66667,0 -202,0c0,0 -6.25,0 -6.25,-6.25c0,-6.25 6.25,-6.25 6.25,-6.25c65.84839,0 131.69678,0 197.54518,0z"/><path d="M1154.59017,296.20492c2.79508,5.59017 -2.79508,8.38525 -2.79508,8.38525l-4.79508,1.65983c-9.51123,0 -19.2102,-0.64654 -28.68866,-0.00776c-6.68475,0.45051 -13.31463,1.55878 -20,2c-6.20867,0.40976 -12.58967,0.00776 -18.81134,0.00776c-15.94361,0 -31.75141,-0.11473 -47.67341,-1.00241c-15.07857,0.00438 -30.76357,0.97309 -45.43076,-3.20697c-10.96679,-3.12547 -20.0128,-8.36207 -30.12628,-13.4186c-3.37935,-1.6896 -6.98738,-2.95465 -10.19971,-4.94354c-3.65948,-2.26574 -7.46823,-4.30832 -10.96967,-6.81139c-2.52396,-1.8043 -16.69159,-13.88962 -19.4186,-15.91029c-5.38189,-3.98789 -13.16496,-9.64307 -19.93822,-11.83444c-1.50488,-0.48688 -3.16165,0.12764 -4.74334,0.12764c0,0 -6.25,0 -6.25,-6.25c0,-6.25 6.25,-6.25 6.25,-6.25c1.10374,0 6.70729,-0.02997 7.25666,0.12764c17.45047,5.00642 29.86992,19.63873 44.11289,29.82058c3.27781,2.3432 6.85825,4.2312 10.28295,6.35395c2.84907,1.76595 6.07972,2.82703 9.07795,4.32581c9.39284,4.69536 17.70924,9.66856 27.87372,12.5814c13.67677,3.91936 28.50118,2.78908 42.56924,2.79303c15.80927,0.87528 31.49604,0.99759 47.32659,0.99759c6.01223,0 12.18995,0.41203 18.18866,0.00776c6.68475,-0.45051 13.31463,-1.55878 20,-2c9.6913,-0.63961 19.58973,-0.00776 29.31134,-0.00776l-0.79508,-0.34017c0,0 5.59017,-2.79508 8.38525,2.79508z"/><path d="M1516.25,185c0,6.25 -6.25,6.25 -6.25,6.25h-1c-14.29038,0 -29.19135,-1.14238 -43.46117,-0.02327c-14.99729,1.17616 -29.77808,7.90602 -43.76738,12.77029c-7.79425,2.71017 -15.78069,4.87284 -23.48809,7.82095c-14.18846,5.42713 -28.13891,12.58311 -41.49027,19.7732c-12.62839,5.84246 -25.26683,11.6507 -37.81982,17.65398c-4.3351,2.0732 -15.89068,7.7377 -20.8589,9.6307c-11.99517,4.57044 -24.37752,6.70165 -36.53537,10.58721c-4.21975,1.3486 -8.20081,3.38925 -12.43803,4.68191c-0.86266,0.26318 -1.83857,-0.31258 -2.70503,-0.06216c-1.4321,0.41389 -2.54043,1.6969 -4,2c-0.97185,0.20182 -8.51288,0.16719 -10.43596,0.16719c-7.33333,0 -14.66667,0 -22,0c0,0 -6.25,0 -6.25,-6.25c0,-6.25 6.25,-6.25 6.25,-6.25c7.33333,0 14.66667,0 22,0c2.52196,0 5.11301,0.76109 7.56404,0.16719c1.44879,-0.35105 2.5655,-1.59449 4,-2c1.0571,-0.29882 2.24479,0.26011 3.29497,-0.06216c3.7318,-1.1452 7.18122,-3.09209 10.89561,-4.29256c11.9077,-3.8485 24.09472,-5.86744 35.84808,-10.34401c4.48897,-1.70974 16.32273,-7.50202 19.97738,-9.24999c12.48806,-5.97287 25.05515,-11.76513 37.62683,-17.55963c13.68034,-7.36543 27.97529,-14.65883 42.50973,-20.2268c0.46792,-0.17925 23.235,-7.74316 23.94608,-7.99044c15.07052,-5.24094 30.67713,-12.09982 46.79846,-13.41832c14.61351,-1.19518 29.90332,-0.02327 44.53883,-0.02327h1c0,0 6.25,0 6.25,6.25z"/><path d="M1791.1336,257c0,6.25 -6.25,6.25 -6.25,6.25h-1c-4.97301,-0.10031 -9.94791,-1.32634 -14.90154,-2.06536c-12.19354,-1.81913 -24.62462,-3.69956 -36.47291,-7.08764c-12.90965,-2.14138 -25.46757,-4.79761 -38.12926,-8.03058c-9.86213,-2.51815 -19.7171,-4.12073 -29.48622,-7.14317c-11.75008,-3.63532 -23.44587,-6.82711 -35.39914,-9.82816c-3.87792,-0.97361 -7.68893,-2.2652 -11.63171,-2.92901c-9.08498,-1.52954 -19.34915,-0.91608 -28.47922,-0.91608c-8.3387,0 -17.06549,-0.82113 -25.27427,0.87863c0,0 -6.12863,1.22573 -7.35436,-4.9029c-1.22573,-6.12863 4.9029,-7.35436 4.9029,-7.35436c9.1563,-1.78063 18.41226,-1.12137 27.72573,-1.12137c9.9708,0 20.62858,-0.55793 30.52078,1.08392c20.58652,3.41683 40.20293,11.4964 60.36034,16.49215c18.15744,4.50008 36.54171,8.48763 54.99333,11.57693c11.55491,3.29865 23.64132,5.12015 35.52709,6.91236c3.1894,0.48092 9.33325,2.08666 13.09846,1.93464h1c0,0 6.25,0 6.25,6.25z"/><path d="M1968.1336,277c0,6.25 -6.25,6.25 -6.25,6.25c-46.66667,0 -97.33333,0 -144,0c0,0 -6.25,0 -6.25,-6.25c0,-6.25 6.25,-6.25 6.25,-6.25c46.66667,0 93.33333,0 140,0h4c0,0 6.25,0 6.25,6.25z"/></g></g></svg>