<svg version="1.1" xmlns="http://www.w3.org/2000/svg" xmlns:xlink="http://www.w3.org/1999/xlink" width="1940.82752" height="1081.46678" viewBox="0,0,1940.82752,1081.46678"><defs><linearGradient x1="955.36595" y1="946.63662" x2="955.36595" y2="1081.77175" gradientUnits="userSpaceOnUse" id="color-1"><stop offset="0" stop-color="#ff7400"/><stop offset="1" stop-color="#441a00"/></linearGradient></defs><g transform="translate(5.29284,-2.80498)"><g data-paper-data="{&quot;isPaintingLayer&quot;:true}" fill-rule="nonzero" stroke="#000000" stroke-width="5" stroke-linecap="butt" stroke-linejoin="miter" stroke-miterlimit="10" stroke-dasharray="" stroke-dashoffset="0" style="mix-blend-mode: normal"><path d="M-2.79284,1081.77175v-135.13514h1916.31759v135.13514z" fill="url(#color-1)"/><path d="M387.41873,949.68229l0,-74.72227c35.00887,0.00383 70.0232,0.00216 105.04373,0.00216c34.60776,0 69.21553,0 103.82329,0v74.72011z" fill="#ff7400"/><path d="M539.59327,488.68294h56.69248v191.73114c-9.39354,0 -18.78707,0 -28.18061,0c-9.50551,0 -19.00941,0.00634 -28.51187,-0.00563z" fill="#ff7400"/><path d="M538.10136,484.20722v-83.54681h1394.93331v83.54681z" fill="#ff7400"/><path d="M538.10136,394.69278v-389.3878h61.1682v389.3878z" fill="#ff7400"/><path d="M536.60945,72.4408v-64.15201h1390.8567v64.15201z" fill="#ff7400"/></g></g></svg>