<svg version="1.1" xmlns="http://www.w3.org/2000/svg" xmlns:xlink="http://www.w3.org/1999/xlink" width="1895.75013" height="577.51287" viewBox="0,0,1895.75013,577.51287"><g transform="translate(-80.5,-399.7371)"><g data-paper-data="{&quot;isPaintingLayer&quot;:true}" fill-rule="nonzero" stroke-linejoin="miter" stroke-miterlimit="10" stroke-dasharray="" stroke-dashoffset="0" style="mix-blend-mode: normal"><path d="M83,803l249,-137l228,13l164,41" fill="none" stroke="#000000" stroke-width="5" stroke-linecap="round"/><path d="M686,548l109,-31" fill="none" stroke="#000000" stroke-width="5" stroke-linecap="round"/><path d="M623,553h-32" fill="none" stroke="#000000" stroke-width="5" stroke-linecap="round"/><path d="M465,585h-13" fill="none" stroke="#000000" stroke-width="5" stroke-linecap="round"/><path d="M1976.24974,517.94312c0.05688,6.24974 -6.19286,6.30663 -6.19286,6.30663l-4.32543,0.03579c-6.88294,0.53098 -13.7636,1.11418 -20.62594,1.86592c-4.13492,1.00159 -8.47104,0.81965 -12.71716,1.08647c-12.681,0.79687 -25.34046,2.64598 -38.04718,3.44045c-8.20045,0.51272 -16.42051,0.77046 -24.602,1.52776c-5.79431,0.53634 -11.4089,2.3923 -17.19402,3.02004c-2.66608,0.2893 -5.36343,0.02071 -8.04516,0.02382c-6.09481,0.00707 -13.49991,0.50884 -19.84563,-0.00956c-13.05609,-1.0666 -25.95433,-2.68244 -38.8263,-5.10129c-6.18851,-1.16292 -12.02366,-3.01115 -18.27113,-3.90487c-6.34423,0.01973 -12.73087,-0.06638 -19.10241,0.08199c4.52395,2.22503 9.03869,4.44334 13.52089,6.68373c6.68328,3.34164 13.86584,5.99882 18.81448,11.98511c4.71475,5.70335 5.1951,8.50194 6.35769,14.88813c1.61215,8.85562 3.26215,17.1583 3.10241,26.12676c-0.06574,3.69088 0.80195,7.56243 -0.35232,11.06879c-2.52891,7.68212 -11.61634,11.13726 -17.54572,14.62821c-3.59058,2.11397 -7.1963,4.20211 -10.79724,6.29839c-8.39773,4.88874 -17.80316,7.64695 -26.95677,10.71292c-4.42096,1.48079 -8.30982,3.09558 -12.9821,3.51127c-2.52865,0.22498 -5.07768,0.07898 -7.61586,0.03042c-1.60591,-0.03072 -3.35614,0.41215 -4.81115,-0.26817c-10.92564,-5.10859 -12.49786,-8.60267 -20.40231,-17.33265c-5.71914,-7.8288 -12.46254,-16.3179 -14.80481,-25.9631c-2.6055,-10.72914 -3.23172,-20.75975 -3.23172,-31.68607c0,-1.10246 -0.10719,-8.88184 0.32073,-9.97642c0.82659,-2.11432 2.54826,-3.75776 3.82715,-5.6334c5.28568,-7.75208 13.04997,-12.61764 21.25679,-16.95494c4.71338,-2.49101 8.38929,-3.63781 12.68182,-4.75003c-6.90703,-3.55295 -13.76925,-7.16291 -20.29624,-11.48014c-3.23581,-2.14031 -6.36137,-4.36212 -9.41157,-6.64992c-2.75913,2.09078 -5.52981,4.16593 -8.33588,6.19297c-16.21951,11.7073 -33.70864,20.47313 -50.76899,30.73953c-2.81994,1.69696 -18.29331,12.41317 -20.89474,13.92266c-5.88674,3.41581 -16.91615,8.1973 -23.16372,10.52265c-3.87804,1.44341 -8.08506,1.80481 -12.04243,3.01389c-1.95884,0.59847 -3.70949,1.92934 -5.74101,2.19039c-4.0277,0.51757 -8.12117,0.09008 -12.18192,0.11277c-9.70976,0.05426 -19.42108,0.01554 -29.13135,0.00334c-1.72753,1.46334 -3.45505,2.92668 -5.18258,4.39002c-2.93043,0.79034 -5.67113,2.16515 -8.51766,3.21842c-3.80975,1.40968 -4.7119,0.9004 -8.31022,2.1056c-3.81465,1.27765 -7.42809,3.20957 -11.35162,4.09832c-13.0763,2.96203 -26.16851,2.1843 -39.50657,2.1843c-8.69642,0 -17.65105,0.51048 -26.32984,-0.00871c-5.67909,-0.33974 -19.44487,-2.17177 -24.87162,-3.10786c-3.34254,-0.57658 -9.3116,-2.47351 -11.73651,-4.28009c-1.56479,-1.16579 -2.31181,-3.1442 -3.46772,-4.7163c-2.62133,-5.24267 -5.58963,-10.13156 -8.19335,-15.35977c-3.07363,-6.17176 -5.96985,-14.51975 -8.26961,-20.62753c-5.62459,-14.93793 -8.03126,-30.96636 -13.04532,-46.128c-1.32035,-3.99252 -3.18505,-7.23953 -5.08603,-11.04631c-1.92748,-3.85986 -4.03026,-7.63749 -5.77425,-11.58365c-0.80012,-1.81046 -0.9545,-3.87566 -1.84022,-5.64582c-0.44424,-0.88783 -1.01458,-1.70086 -1.60946,-2.49988c-3.34806,-0.1179 -6.02607,-2.86924 -6.02607,-6.24606v-1.49154c-0.95708,-1.10469 -1.78492,-2.32151 -2.58339,-3.54603c-2.02779,-2.02779 -3.58063,-4.49308 -5.58603,-6.54301c-3.13841,-3.20811 -8.30939,-5.81817 -11.74884,-8.76237c-2.59712,-2.22315 -5.6758,-5.41762 -8.60563,-7.05633c-1.01066,-0.56528 -2.30884,-0.33611 -3.39452,-0.73894c-1.4723,-0.54627 -2.7811,-1.46629 -4.22336,-2.08753c-4.09692,-1.76473 -8.74868,-2.36737 -12.874,-3.9494c-3.98796,-1.52936 -7.71471,-3.9683 -11.92458,-4.68924c-9.76477,-1.67222 -19.93015,-1.88753 -29.80965,-1.8856c-11.08692,0.00217 -22.14163,-0.13138 -33.21687,0.39836c-9.36385,0.43203 -16.97717,0.63232 -26.05627,3.36742c-9.5111,2.86524 -18.09845,8.1583 -26.88153,12.54898c-3.72758,1.86342 -7.49123,3.63609 -11.24394,5.41679c6.67091,3.90017 12.94872,8.30733 19.61224,12.64971c5.73792,3.73919 11.54758,7.36873 17.24796,11.1649c3.99655,2.6615 10.73645,6.81279 13.5949,10.53036c3.41132,4.4366 3.138,9.34689 4.07694,14.47201c0.54339,2.96601 1.2934,5.89049 1.9643,8.83029c1.49012,6.52948 2.32606,10.88137 2.15226,17.37117c-0.07124,2.66 0.46507,5.43414 -0.32073,7.97642c-0.68745,2.22411 -2.61951,3.84905 -3.92927,5.77358c-6.21404,8.19944 -14.11095,13.8564 -22.11805,20.14826c-1.20352,0.94571 -12.07023,10.17216 -12.84043,10.56174c-1.11768,0.56535 -17.54292,6.16586 -21.17195,6.72921c-7.54468,1.17119 -16.25509,0.06079 -23.86958,0.06079c-11.90547,0 -29.14165,-0.41107 -36.21776,-11.80943c-1.94911,-3.13968 -2.45935,-7.01907 -2.98542,-10.67692c-0.80415,-5.59142 -1.45079,-11.2122 -1.81438,-16.84944c-0.6699,-10.86086 -1.0654,-23.25033 1.74652,-33.89958c2.70475,-10.24335 8.0437,-19.07356 13.53631,-27.93265c2.26914,-3.65991 4.20751,-7.55084 6.83527,-10.96241c5.42131,-7.03837 7.82539,-7.33082 14.72982,-11.85493c-6.59882,0.07275 -13.23194,-0.01463 -19.81812,-0.01464c-21.28718,0.07488 -42.2417,1.9456 -63.41837,3.97173c-7.72693,0.73929 -16.53766,0.94364 -24.15792,2.86109c-5.35863,1.34837 -10.4805,3.52962 -15.8193,4.95449c-7.62517,2.03507 -8.76449,1.82652 -16.35663,4.78978c-5.75202,2.24505 -11.3256,4.94376 -17.13029,7.04887c-15.35915,5.5701 -30.61489,11.21434 -45.87175,16.95192c-10.74393,4.29844 -21.08437,9.31816 -31.34213,14.70027c-8.74836,4.59015 -17.12711,10.92993 -26.06647,15.03455c-2.70551,1.24227 -5.60454,2.01777 -8.35116,3.1663c-11.39089,4.76324 -23.43676,11.19352 -35.88238,12.49059c-0.36114,0.03764 -8.43626,0.03042 -9.61586,0.03042c0,0 -6.25,0 -6.25,-6.25c0,-6.25 6.25,-6.25 6.25,-6.25c2.79473,0 5.60172,0.29243 8.38414,0.03042c3.78077,-0.35603 9.83234,-2.77207 12.63944,-3.70969c6.7141,-2.24263 12.9731,-5.09948 19.47819,-7.79972c2.51121,-1.04239 5.16864,-1.71955 7.64884,-2.8337c3.45909,-1.55388 6.4565,-3.98172 9.74853,-5.86384c4.19402,-2.3978 12.25754,-7.04023 16.185,-9.10161c10.68425,-5.60778 21.46445,-10.82324 32.65787,-15.29973c15.34987,-5.73883 30.68338,-11.45672 46.12825,-17.04808c5.71869,-2.07028 11.19882,-4.75329 16.86971,-6.95113c8.54055,-3.31003 9.29788,-2.98663 17.64337,-5.21022c5.45924,-1.45457 10.69783,-3.68269 16.1807,-5.04551c8.20333,-2.03901 17.50628,-2.34044 25.84208,-3.13891c21.56349,-2.06554 42.90627,-3.93501 64.58163,-4.02827c6.99127,-0.00001 14.01546,-0.07748 21.01225,-0.00001c2.43276,0.02693 4.94213,-0.47337 7.29745,0.13615c2.50813,0.64907 4.84276,1.80838 7.18014,2.95631c1.29423,-0.69106 2.59695,-1.3655 3.90767,-2.0228c5.19055,-2.60298 10.59332,-4.79585 15.76942,-7.38443c9.45959,-4.73077 18.72127,-10.28852 28.95915,-13.3859c10.00339,-3.02644 18.76006,-3.38148 29.07475,-3.88682c11.27381,-0.53454 22.52595,-0.41467 33.81143,-0.41251c10.64681,0.00204 21.68446,0.19836 32.19035,2.1144c4.93329,0.89972 9.39688,3.50573 14.07542,5.31076c4.24849,1.63911 8.90818,2.25163 13.126,4.0506c1.29796,0.5536 2.45697,1.41283 3.77664,1.91247c1.48855,0.56358 3.21253,0.49093 4.60548,1.26106c3.94666,2.18203 7.92899,5.96925 11.39437,8.94367c3.75505,3.22304 8.75342,5.78703 12.25116,9.23763c0.69066,0.68136 1.3312,1.40943 1.95088,2.15697c0.88072,-0.59204 2.05745,-0.98756 3.6297,-0.98756c6.25,0 6.25,6.25 6.25,6.25v2c0,1.25239 0.26715,2.55168 0.29959,3.80976c2.02227,3.48103 4.26581,6.84385 6.06488,10.44429c0.99993,2.00115 1.25601,4.3078 2.15978,6.35418c1.62366,3.67641 3.60689,7.18327 5.40609,10.77703c2.33938,4.67271 4.11183,7.761 5.73363,12.59301c4.43544,13.21495 7.14805,26.85901 11.06785,40.21059c4.14926,14.13317 10.94552,26.71743 17.42386,39.67411c0.96106,2.31778 4.48456,2.62217 6.79577,3.00361c5.00176,0.82549 17.87833,2.57894 23.12838,2.89214c8.46091,0.50475 17.19334,-0.00871 25.67016,-0.00871c12.30499,0 24.43217,0.80039 36.49343,-1.8157c8.62795,-1.8714 16.73182,-6.41962 25.27135,-8.4507c0.08012,-1.37357 0.47969,-2.41808 1.04107,-3.21236l-0.05584,-0.27124c0,0 0,-6.25 6.25,-6.25c3.71536,0 5.22209,2.20862 5.83314,4c6.38895,0 12.77791,0 19.16686,0c5.93948,0 11.92128,0.82357 17.81808,0.11277c1.53141,-0.18459 2.78565,-1.35291 4.25899,-1.80961c3.92407,-1.21636 8.11159,-1.54173 11.95757,-2.98611c5.32442,-1.99963 15.80081,-6.54507 20.83628,-9.47735c7.17009,-4.17533 13.59853,-9.53422 20.70777,-13.81235c16.75983,-10.08556 33.96981,-18.65396 49.89548,-30.16273c1.8592,-1.34247 3.71369,-2.68766 5.56268,-4.03719c-5.41393,-4.47435 -10.70454,-9.11472 -16.09314,-13.82254c-1.78101,-1.556 -3.97239,-2.6757 -5.50229,-4.47917c-3.01781,-3.55743 -5.6522,-7.44926 -8.02433,-11.46617c-2.26442,-3.83452 -1.64048,-7.53224 -1.66709,-11.80956c-0.02545,-4.09001 -0.02207,-8.0799 1.3602,-12.09112c2.71652,-7.88306 9.99865,-13.06201 16.43106,-17.65493c11.51679,-2.05061 20.25111,-3.20958 31.92992,-2.48616c6.53481,0.40478 14.63458,2.8205 20.74583,4.10185c6.68799,1.40228 14.65415,1.10772 20.68366,4.59425c2.03621,1.17742 4.03435,2.52189 5.63967,4.24102c4.43461,4.74901 5.18549,11.61908 1.9498,17.28188c-1.17109,2.04953 -3.00839,3.64507 -4.35869,5.58123c-1.20112,1.72226 -1.96401,3.74229 -3.28303,5.37601c-3.90783,4.8402 -9.04663,8.54301 -13.6706,12.70445c-2.71927,2.44726 -5.40952,4.93381 -8.26281,7.2234c-2.95407,2.37045 -6.0956,4.49733 -9.14432,6.74473c-2.73953,2.01948 -5.50077,4.00987 -8.2312,6.04153c11.86922,8.17854 24.51451,15.25067 37.38793,21.89276c13.68424,-2.14893 27.68782,-1.82176 41.51563,-1.78517c6.77128,0.96629 13.04099,2.84411 19.72887,4.09513c12.33518,2.3074 24.66807,3.83381 37.1737,4.89871c6.08814,0.51843 13.37979,-0.01663 19.15437,-0.00956c2.31829,0.00284 4.65068,0.27945 6.95484,0.02382c5.65469,-0.62733 11.14191,-2.44395 16.80598,-2.97996c0.40591,-0.03841 24.67489,-1.55206 25.30063,-1.59115c12.70744,-0.79391 25.36705,-2.65231 38.05019,-3.44064c3.76599,-0.23408 7.63031,0.0333 11.28284,-0.91353c7.41806,-0.83457 14.85743,-1.48052 22.30042,-2.0515l4.74821,-0.0468c0,0 6.24974,-0.05688 6.30663,6.19286zM1679.19189,486.06692c12.67609,-9.51685 25.01611,-19.3844 36.75391,-30.13795c2.34826,-2.15135 4.09094,-4.89178 5.92276,-7.49699c0.32506,-0.4623 4.65513,-4.29963 4.14962,-6.62083c-0.31542,-1.44838 -3.27557,-2.48398 -4.62235,-2.77053c-5.17801,-1.1017 -10.43146,-1.82447 -15.61284,-2.91026c-4.21396,-0.88306 -13.96584,-3.59239 -19.25417,-3.89815c-9.23731,-0.53409 -17.01645,0.14784 -26.07008,1.51384c-2.92215,2.44225 -4.7137,3.82603 -7.53245,7.10028c-2.66072,3.09067 -2.3474,4.33684 -2.69201,8.59673c-0.20309,2.51049 -0.20023,5.04074 -0.06498,7.5558c0.32137,5.97592 6.92453,9.80766 10.88699,13.24625c3.17829,2.75809 6.19921,5.693 9.34317,8.49016c2.85864,2.54332 5.79281,4.98305 8.79242,7.33165zM1725.35124,528.51553c-1.89601,0.37133 -3.78418,0.80238 -5.66291,1.30265c-7.07935,1.88512 -11.72661,2.50174 -17.843,5.74658c-6.79541,3.60508 -12.1141,7.07862 -16.74321,13.04506c-0.65648,0.84613 -1.65941,1.42677 -2.17285,2.3666c-0.17142,0.31378 0.30172,0.66653 0.32073,1.02358c0.08862,1.66431 0,3.33333 0,5c0,9.84485 0.56139,18.60481 2.76828,28.31393c1.80165,7.92629 7.78582,15.05689 12.47107,21.45454c5.98033,6.69273 6.97987,9.09469 14.3218,13.2497c0.35355,0.20008 0.78281,-0.25543 1.18885,-0.26817c3.47165,-0.10899 7.05026,0.16444 10.39017,-0.78912c10.3213,-2.94679 21.58486,-6.33702 30.86617,-11.76273c6.86525,-4.01332 14.02705,-7.54278 20.65993,-11.9295c0.8898,-0.58848 1.97902,-1.29094 2.18606,-2.33745c0.44898,-2.2694 -0.29526,-4.61853 -0.35232,-6.93121c-0.20745,-8.40741 -1.45743,-15.38623 -2.89759,-23.87324c-0.68822,-4.05575 -0.59504,-5.50362 -3.64231,-9.11187c-3.70853,-4.39124 -9.8546,-6.34943 -14.82484,-8.83455c-6.6641,-3.33314 -13.49317,-6.32713 -20.18961,-9.59482c-3.72345,-1.81694 -7.26968,-3.96947 -10.84441,-6.06999zM1125.92592,440.75406c-5.5587,2.96422 -10.95878,6.2274 -16.03497,10.13706c-5.66998,4.36699 -7.05772,8.39544 -10.99736,14.77028c-4.89534,7.92131 -9.61861,15.43178 -12.08702,24.57524c-2.49681,9.24867 -1.94286,20.52491 -1.34847,29.89784c0.32501,5.38893 0.98694,10.75665 1.74507,16.10188c0.25365,1.7884 0.04458,3.79933 1.01458,5.32308c2.78606,4.37653 10.02617,4.5342 14.00797,5.31194c4.16959,0.81442 7.54185,0.87863 11.77427,0.87863c5.66644,0 11.33368,-0.034 17,0c1.71023,0.01026 3.44073,0.32523 5.13042,0.06079c2.11648,-0.33123 4.11697,-1.18764 6.16129,-1.82794c3.56541,-1.11674 7.31911,-1.7838 10.66677,-3.44285c4.36522,-2.16334 7.32903,-6.42793 11.15957,-9.43826c7.13492,-5.60716 14.41839,-10.46968 19.88195,-17.85174c0.69024,-0.74214 1.79746,-1.25045 2.07073,-2.22642c0.72171,-2.57753 -0.33805,-5.34697 -0.32073,-8.02358c0.04365,-6.74455 -2.68955,-13.17948 -3.88343,-19.79854c-0.57512,-3.18859 0.19387,-7.07514 -1.92306,-9.52799c-1.54753,-1.7931 -8.73884,-6.36281 -10.4051,-7.46964c-5.67211,-3.76773 -11.44462,-7.38219 -17.14952,-11.10009c-6.85184,-4.46536 -13.27953,-9.60921 -20.40236,-13.62821c-1.9294,-1.08865 -4.00306,-1.88821 -6.06061,-2.72148z" fill="#ffffff" stroke="none" stroke-width="0.5" stroke-linecap="butt"/><path d="M1069.00013,764c0,6.25 -6.25,6.25 -6.25,6.25c-57.33333,0 -116.66667,0 -174,0c0,0 -6.25,0 -6.25,-6.25c0,-6.25 6.25,-6.25 6.25,-6.25c57.33333,0 114.66667,0 172,0h2c0,0 6.25,0 6.25,6.25z" fill="#ffffff" stroke="none" stroke-width="0.5" stroke-linecap="butt"/><path d="M1307.91975,711.74193c0.61282,-1.78994 2.1206,-3.99193 5.83038,-3.99193c6.25,0 6.25,6.25 6.25,6.25l-2.78312,7.20031c-1.55191,0.92717 -2.89972,2.35195 -4.65573,2.78151c-1.37681,0.3368 -11.67988,0.26817 -13.81115,0.26817c-8.33333,0 -16.66667,0 -25,0c-25.66667,0 -51.33333,0 -77,0c0,0 -6.25,0 -6.25,-6.25c0,-6.25 6.25,-6.25 6.25,-6.25c29.83333,0 59.66667,0 89.5,0c6.16667,0 12.33547,-0.16225 18.5,0c1.00647,0.02649 2.1302,0.11319 3.16962,-0.00807z" fill="#ffffff" stroke="none" stroke-width="0.5" stroke-linecap="butt"/><path d="M1561.00013,746c0,6.25 -6.25,6.25 -6.25,6.25c-38.33333,0 -79.66667,0 -118,0c0,0 -6.25,0 -6.25,-6.25c0,-6.25 6.25,-6.25 6.25,-6.25c38.33333,0 76.66667,0 115,0h3c0,0 6.25,0 6.25,6.25z" fill="#ffffff" stroke="none" stroke-width="0.5" stroke-linecap="butt"/><path d="M1916.81586,951.14854c0.80438,-0.61647 5.0125,-3.48797 8.67665,0.78054c4.07092,4.74238 -0.67146,8.81329 -0.67146,8.81329l-4.23865,2.45545c-9.46313,1.58747 -18.3702,2.33673 -27.89647,3.28976c-23.09703,2.31067 -45.97887,4.13704 -69.16489,5.18836c-10.60621,0.48092 -20.71637,1.66391 -31.28753,2.55532c-5.74008,0.48403 -11.55651,-0.20784 -17.27968,0.40385l-0.78428,0.78428c-1.13103,1.13103 -2.69353,1.83058 -4.41942,1.83058c-3.45178,0 -6.25,-2.79822 -6.25,-6.25c0,-14.5 0,-32 0,-46.5c0,-6.50044 -0.64182,-13.04098 0.0807,-19.50114c0.37987,-3.39643 1.53726,-6.66918 2.00902,-10.05407c1.35405,-6.78634 3.14711,-13.57936 3.93157,-20.46029c0.45761,-4.01389 -0.0213,-8.44791 -0.0213,-12.4845c0,-8 0,-16 0,-24c0,-20.33333 0,-40.66667 0,-61c0,0 0,-6.25 6.25,-6.25c6.25,0 6.25,6.25 6.25,6.25c0,20.33333 0,40.66667 0,61c0,8 0,16 0,24c0,4.3949 0.45456,9.14423 -0.0213,13.5155c-0.78908,7.24852 -2.63683,14.39985 -4.06843,21.53971c-0.48841,3.34562 -1.62096,6.58515 -1.99098,9.94593c-0.63836,5.79798 0.0807,11.66585 0.0807,17.49886c0,12.65969 0,25.31937 0,37.97906c5.16046,-0.31502 11.50684,-0.39241 15.26662,-0.71034c10.69157,-0.90409 20.95424,-2.09085 31.68669,-2.57987c22.96175,-1.04624 45.61437,-2.85274 68.48869,-5.13922c8.65164,-0.8648 16.83195,-1.54282 25.37373,-2.90109z" fill="#ffffff" stroke="none" stroke-width="0.5" stroke-linecap="butt"/><path d="M1881.75013,780.25c-6.25,0 -6.25,-6.25 -6.25,-6.25v-2c0,-12.10085 -0.88193,-24.56021 0.03042,-36.61586c0.12826,-1.69483 0.80474,-3.31158 1,-5c0.49925,-4.31713 -0.03042,-9.02269 -0.03042,-13.38414c0.0269,-1.66705 -0.14247,-3.34888 0.0807,-5.00114c0.14109,-1.04461 0.91101,-1.94967 1,-3c0.25837,-3.04935 -0.40672,-6.15212 0.03207,-9.18078c0.27207,-1.87792 1.69152,-3.44414 2.0665,-5.30425c1.17028,-5.8053 0.95695,-11.81935 1.927,-17.66145c0.62251,-3.74905 1.652,-7.44884 1.90581,-11.24074c0.65423,-9.77412 -0.01208,-19.81388 -0.01208,-29.61164c0,-24.66667 0,-49.33333 0,-74c0,0 0,-6.25 6.25,-6.25c6.25,0 6.25,6.25 6.25,6.25c0,24.66667 0,49.33333 0,74c0,10.05089 0.69675,20.36227 -0.01208,30.38836c-0.30395,4.29926 -1.38286,8.50837 -2.09419,12.75926c-1.0153,6.06742 -0.87518,12.30451 -2.073,18.33855c-0.3296,1.66035 -1.69767,3.01951 -1.9335,4.69575c-0.40956,2.91109 0.27202,5.88927 0.03207,8.81922c-0.16512,2.01621 -0.97372,3.97663 -0.9193,5.99886c0,4.78828 0.47853,9.86639 -0.03042,14.61586c-0.1811,1.69 -0.86733,3.30551 -1,5c-0.91031,11.62713 0.03042,23.70651 0.03042,35.38414v2c0,0 0,6.25 -6.25,6.25z" fill="#ffffff" stroke="none" stroke-width="0.5" stroke-linecap="butt"/></g></g></svg>