<svg version="1.1" xmlns="http://www.w3.org/2000/svg" xmlns:xlink="http://www.w3.org/1999/xlink" width="215.47612" height="210.67085" viewBox="0,0,215.47612,210.67085"><defs><radialGradient cx="235.45624" cy="165.10911" r="97.95165" gradientUnits="userSpaceOnUse" id="color-1"><stop offset="0" stop-color="#333333"/><stop offset="1" stop-color="#4e4e4e"/></radialGradient></defs><g transform="translate(-136.19006,-51.17939)"><g data-paper-data="{&quot;isPaintingLayer&quot;:true}" fill-rule="nonzero" stroke-linejoin="miter" stroke-miterlimit="10" stroke-dasharray="" stroke-dashoffset="0" style="mix-blend-mode: normal"><path d="M166.96272,115.21596c-7.45084,-13.24569 -11.15105,-29.19781 -15.97991,-43.60915c-1.69712,-5.06487 -4.10648,-12.88887 0.67726,-16.58982c3.4765,-2.68959 11.98206,0.97692 15.24407,2.06252c16.45609,5.47668 29.37863,17.87914 40.23533,31.08289c2.04303,2.4847 13.73052,11.89595 8.61246,17.01399c-4.01441,4.01441 -5.84588,3.49818 -9.86029,0c-10.10245,-8.8034 -16.95034,-22.36191 -28.64707,-30.589c-2.35775,-1.65835 -3.59237,-2.57183 -6.19702,-3.83803c-13.98416,-6.79819 -9.65431,-2.6685 -6.28002,7.78507c1.29597,4.01488 2.47609,8.2459 3.99987,12.19049c2.70039,6.9905 6.93477,13.144 8.75988,20.44446v1.22932c0,2.64643 -1.8245,4.86672 -4.28428,5.47164c-2.05078,0.99631 -4.43237,0.63074 -6.28031,-2.65441z" fill="#333333" stroke="none" stroke-width="0.5" stroke-linecap="butt"/><path d="M260.22084,99.03954c2.68378,-5.16237 7.88334,-8.82815 11.75576,-13.147c9.81269,-10.94395 21.38228,-24.65872 34.92331,-31.04083c4.99361,-2.35358 12.33676,-6.1722 17.15458,-1.35441c9.6663,9.6663 7.67721,46.01538 4.39185,56.5854c-1.44346,4.64407 -7.62735,19.56297 -14.83134,15.96095c-7.15816,-3.57909 5.69388,-21.93234 5.90046,-27.4962c0.18044,-4.85955 0.09914,-9.72682 0,-14.58869c-0.11264,-5.52444 0.79338,-17.06708 -2.85173,-21.24564c-0.61483,-0.7048 -6.95048,3.11734 -7.91613,3.98414c-7.54793,6.77545 -15.31477,13.22698 -22.67618,20.20376c-4.96889,4.70927 -13.67364,12.97992 -16.17722,18.16592c-0.0833,0.71512 -0.3005,1.38939 -0.62587,1.99703c-0.70899,2.836 -3.04226,3.62816 -5.29699,2.96922c-2.95987,-0.16912 -5.30794,-2.6229 -5.30794,-5.62514c0,-0.85288 0.18948,-1.66149 0.52867,-2.38603c0.15675,-0.94181 0.48702,-1.94037 1.02878,-2.98247z" fill="#333333" stroke="none" stroke-width="0.5" stroke-linecap="butt"/><path d="M297.28496,165.6519c0,29.36427 -24.90523,53.16871 -55.62738,53.16871c-30.72215,0 -55.62738,-23.80444 -55.62738,-53.16871c0,-29.36427 24.90523,-53.16871 55.62738,-53.16871c30.72215,0 55.62738,23.80444 55.62738,53.16871z" fill="#333333" stroke="none" stroke-width="0" stroke-linecap="butt"/><path d="M154.99808,222.66439l184.16809,-133.29221" fill="none" stroke="url(#color-1)" stroke-width="25" stroke-linecap="round"/><text transform="translate(136.44006,253.61261) scale(0.5,0.5)" font-size="40" xml:space="preserve" fill="#000000" fill-rule="nonzero" stroke="none" stroke-width="1" stroke-linecap="butt" stroke-linejoin="miter" stroke-miterlimit="10" stroke-dasharray="" stroke-dashoffset="0" font-family="Handwriting" font-weight="normal" text-anchor="start" style="mix-blend-mode: normal"><tspan x="0" dy="0">You are currently offline :(</tspan></text></g></g></svg>