<svg version="1.1" xmlns="http://www.w3.org/2000/svg" xmlns:xlink="http://www.w3.org/1999/xlink" width="81.16876" height="73.35747" viewBox="0,0,81.16876,73.35747"><g transform="translate(-917.68491,-499.67283)"><g data-paper-data="{&quot;isPaintingLayer&quot;:true}" fill="#0031ff" fill-rule="nonzero" stroke="none" stroke-linecap="butt" stroke-linejoin="miter" stroke-miterlimit="10" stroke-dasharray="" stroke-dashoffset="0" style="mix-blend-mode: normal"><path d="M925.72159,527.1894c-3.30593,-5.8771 -4.94771,-12.95504 -7.09027,-19.34934c-0.75301,-2.24728 -1.82204,-5.71878 0.3005,-7.36089c1.54252,-1.19337 5.31643,0.43346 6.76378,0.91514c7.30155,2.43 13.03527,7.93296 17.85238,13.79145c0.90649,1.10246 6.09222,5.27822 3.82134,7.54909c-1.78119,1.78119 -2.59381,1.55214 -4.375,0c-4.48245,-3.90606 -7.52085,-9.92196 -12.71068,-13.57231c-1.04613,-0.73581 -1.59393,-1.14112 -2.74961,-1.70293c-6.20476,-3.01635 -4.28361,-1.18401 -2.78644,3.45423c0.57502,1.7814 1.09864,3.6587 1.77474,5.40891c1.19816,3.10168 3.07695,5.83198 3.88675,9.07119v0.54545c0,1.17422 -0.80953,2.15936 -1.90093,2.42776c-0.90993,0.44206 -1.96664,0.27986 -2.78657,-1.17776z" stroke-width="0.5"/><path d="M966.78066,518.72508c1.37595,-2.18433 3.80948,-3.61467 5.68011,-5.38244c4.74016,-4.47952 10.35877,-10.11985 16.58032,-12.44554c2.29436,-0.85766 5.68135,-2.27701 7.6351,0.02993c3.91993,4.6286 1.70796,20.6286 -0.13223,25.18205c-0.80851,2.00061 -4.08979,8.3708 -7.14323,6.51398c-3.03402,-1.845 3.3217,-9.48937 3.617,-11.94204c0.25792,-2.14219 0.40039,-4.29739 0.53477,-6.45086c0.1527,-2.44694 0.97644,-7.51768 -0.48219,-9.49898c-0.24603,-0.33419 -3.18765,1.12365 -3.64642,1.47154c-3.58593,2.7193 -7.25678,5.28735 -10.76761,8.10251c-2.36978,1.90021 -6.52204,5.23826 -7.81918,7.43964c-0.06305,0.31316 -0.1838,0.60335 -0.34995,0.86011c-0.41746,1.22804 -1.47823,1.49279 -2.45108,1.11877c-1.3026,-0.18328 -2.25093,-1.35437 -2.14088,-2.68191c0.03126,-0.37713 0.14469,-0.72773 0.32123,-1.03568c0.10384,-0.41071 0.28648,-0.84014 0.56424,-1.28108z" stroke-width="0.5"/><path d="M983.54545,549.43939c0,13.0289 -11.05043,23.59091 -24.68182,23.59091c-13.63139,0 -24.68182,-10.56201 -24.68182,-23.59091c0,-13.0289 11.05043,-23.59091 24.68182,-23.59091c13.63139,0 24.68182,10.56201 24.68182,23.59091z" stroke-width="0"/></g></g></svg>