<svg version="1.1" xmlns="http://www.w3.org/2000/svg" xmlns:xlink="http://www.w3.org/1999/xlink" width="1922.40992" height="615.61561" viewBox="0,0,1922.40992,615.61561"><defs><linearGradient x1="1217.51249" y1="565.25524" x2="1217.51249" y2="659.84984" gradientUnits="userSpaceOnUse" id="color-1"><stop offset="0" stop-color="#383838"/><stop offset="1" stop-color="#ff8d00" stop-opacity="0.50588"/></linearGradient><linearGradient x1="979.59081" y1="425.61561" x2="979.59081" y2="502.19219" gradientUnits="userSpaceOnUse" id="color-2"><stop offset="0" stop-color="#383838"/><stop offset="1" stop-color="#ff8d00" stop-opacity="0.50588"/></linearGradient><linearGradient x1="957.06829" y1="565.25524" x2="957.06829" y2="659.84984" gradientUnits="userSpaceOnUse" id="color-3"><stop offset="0" stop-color="#383838"/><stop offset="1" stop-color="#ff8d00" stop-opacity="0.50588"/></linearGradient><linearGradient x1="962.26162" y1="975.16515" x2="962.26162" y2="1041.23122" gradientUnits="userSpaceOnUse" id="color-4"><stop offset="0" stop-color="#383838"/><stop offset="1" stop-color="#ff8d00" stop-opacity="0.50588"/></linearGradient><linearGradient x1="1177.36107" y1="975.16515" x2="1177.36107" y2="1041.23122" gradientUnits="userSpaceOnUse" id="color-5"><stop offset="0" stop-color="#383838"/><stop offset="1" stop-color="#ff8d00" stop-opacity="0.50588"/></linearGradient><linearGradient x1="962.26162" y1="975.16515" x2="962.26162" y2="1041.23122" gradientUnits="userSpaceOnUse" id="color-6"><stop offset="0" stop-color="#383838"/><stop offset="1" stop-color="#ff8d00" stop-opacity="0.50588"/></linearGradient></defs><g transform="translate(0.88967,-425.61561)"><g data-paper-data="{&quot;isPaintingLayer&quot;:true}" fill-rule="nonzero" stroke="none" stroke-width="0" stroke-linecap="butt" stroke-linejoin="miter" stroke-miterlimit="10" stroke-dasharray="" stroke-dashoffset="0" style="mix-blend-mode: normal"><path d="M1915.02624,565.25525v94.59459l-675.57434,0c0,-31.03103 0,-62.06207 0,-93.0931c0,-0.5005 0,-1.00099 0,-1.50149z" fill="url(#color-1)"/><path d="M810.54862,502.19219c1.24415,-13.24868 1.8361,-26.65701 2.47321,-39.89299c0.58631,-12.18074 0.06526,-24.48292 0.00853,-36.68358h176.69181c0,0.40516 0,0.81033 0,1.21549c0,25.12036 0,50.24072 0,75.36108z" fill="url(#color-2)"/><path d="M-0.88967,659.84984v-94.59459h771.39768c0.05803,14.88932 0.58484,29.91203 -0.00142,44.77506c-0.65214,16.53347 -1.23909,33.28469 -2.54007,49.81953z" fill="url(#color-3)"/><path d="M1921.52025,975.16515v66.06607l-515.40169,0c0,-22.02202 0,-44.04405 0,-66.06607z" fill="url(#color-4)"/><path d="M1171.88433,1041.23122c0,-22.02202 0,-44.04405 0,-66.06607h58.07808c0,22.02202 0,44.04405 0,66.06607z" fill="url(#color-5)"/><path d="M3.003,1041.23122v-66.06607l895.12757,0c0,22.02202 0,44.04405 0,66.06607z" fill="url(#color-6)"/></g></g></svg>