<svg version="1.1" xmlns="http://www.w3.org/2000/svg" xmlns:xlink="http://www.w3.org/1999/xlink" width="482.95932" height="264" viewBox="0,0,482.95932,264"><g transform="translate(1.45932,-1.5)"><g data-paper-data="{&quot;isPaintingLayer&quot;:true}" fill="#191919" fill-rule="nonzero" stroke="#000000" stroke-width="2" stroke-linecap="butt" stroke-linejoin="miter" stroke-miterlimit="10" stroke-dasharray="" stroke-dashoffset="0" style="mix-blend-mode: normal"><path d="M480.5,2.5v24.00107c-3.58946,0.00373 -6.85316,0.01273 -7.12944,0.03301c-5.67742,0.4168 -11.09852,2.13127 -16.62862,3.2608c-2.40763,0.49176 -4.9363,0.50807 -7.34387,1c-3.56402,0.72822 -7.81157,2.50203 -11.71942,2.75379c-14.06044,0.90583 -28.75768,-0.04866 -42.85715,-0.04866c-16.05627,0 -32.38693,-0.70996 -48.41203,0.0153c-14.1919,0.64229 -29.85327,1.65143 -43.75053,4.25221c-2.23563,0.41838 -4.23081,1.54969 -6.49234,1.86162c-2.055,0.28344 -4.17283,-0.23269 -6.25094,-0.10397c-5.75338,0.35637 -11.37842,1.68857 -17.1357,2c-9.38469,0.50764 -19.10061,-0.02516 -28.50782,-0.02516c-15.50373,0 -31.00746,0 -46.51119,0c-12.83831,0 -25.40752,0.00781 -38.04806,2.2199c-8.64734,1.51328 -16.93133,4.57943 -25.59846,5.98208c-5.6132,0.90841 -11.45963,0.90027 -16.95182,2.21259c-0.44005,0.10515 -6.87771,2.45936 -9.02362,2.66036c-5.76674,0.54014 -11.38318,1.35857 -17.1357,2c-3.38764,0.37774 -6.86695,-0.30936 -10.25692,0.0542c-1.27921,0.13719 -2.39822,0.83212 -3.67194,1c-4.27072,0.56291 -9.9285,-0.10454 -14.22265,-0.0542c-5.70867,1.166 -10.98842,0.92507 -16.86418,0.92507c-1.51452,0 -3.121,0.71766 -4.53174,0.26751c-4.456,-1.42183 -8.92176,-3.55564 -13.52761,-4.72624c-6.63582,-1.68653 -13.0651,-1.68599 -19.88398,-1.54127c-1.1369,0.02413 -2.29151,-0.03183 -3.43995,-0.05265c-0.88999,-9.91754 -1.79919,-19.83399 -2.71942,-29.74987c-0.73115,-7.87846 -1.60214,-9.37994 -2.27963,-20.19748z"/><path d="M124.5,236.5c11,0 22,0 33,0c1.29925,0 14.20666,0.01422 14.98538,-0.04866c1.69416,-0.13682 3.30972,-0.82162 5,-1c3.2617,-0.34421 6.57259,0.30599 9.83943,0.01459c9.76747,-0.87126 18.7871,-2.99267 28.67333,-2.97834c29.32362,-2.93236 59.04216,-1.98758 88.50187,-1.98758c10.77436,0 21.79031,0.54356 32.553,-0.0153c14.40157,-0.74781 28.79326,-1.95642 43.15589,-3.00986c14.58224,-1.06954 29.65902,0.02516 44.29111,0.02516c18.66667,0 37.33333,0 56,0v37l-377.36,0c-0.43345,-9.19993 -0.64655,-18.41418 -1.00156,-27.62161c7.47707,0.3586 15.32645,-0.37839 22.36156,-0.37839z"/></g></g></svg>