<svg version="1.1" xmlns="http://www.w3.org/2000/svg" xmlns:xlink="http://www.w3.org/1999/xlink" width="1817.88424" height="479.99854" viewBox="0,0,1817.88424,479.99854"><defs><linearGradient x1="1023.95268" y1="779.96996" x2="1023.95268" y2="1081.77176" gradientUnits="userSpaceOnUse" id="color-1"><stop offset="0" stop-color="#000000"/><stop offset="1" stop-color="#525252"/></linearGradient><linearGradient x1="1621.60876" y1="678.36335" x2="1621.60876" y2="1101.78678" gradientUnits="userSpaceOnUse" id="color-2"><stop offset="0" stop-color="#000000"/><stop offset="1" stop-color="#525252"/></linearGradient></defs><g transform="translate(-108.11795,-675.86335)"><g data-paper-data="{&quot;isPaintingLayer&quot;:true}" fill-rule="nonzero" stroke="#000000" stroke-linejoin="miter" stroke-miterlimit="10" stroke-dasharray="" stroke-dashoffset="0" style="mix-blend-mode: normal"><path d="M425.6987,770.86208c1.66331,2.30539 3.26512,4.66164 5.29431,6.63738c5.52133,5.3759 12.61384,9.0013 18.05453,14.44734c-7.84119,9.08439 -15.09059,17.44933 -20.4544,28.90775c-2.61446,5.58512 -3.90433,11.71777 -5.30507,17.72334c-0.41471,1.77801 -0.0984,3.65044 -0.106,5.47615c-0.02774,6.66661 0,13.33334 0,20c0,8.34835 0,16.69669 0,25.04504c0,29.45118 -1.22834,59.11193 2.23618,88.39249c0.73483,6.21051 1.63104,12.40401 2.22459,18.62937l-34.53944,159.44369l-284.68819,-61.67049l17.63953,-81.429c1.59349,-0.27072 2.76382,-0.48935 3.11856,-0.54048l0.699,-0.74288l0.16574,0.49722l4.28574,-1.42858c4.08625,-1.2567 7.05649,-5.06136 7.05649,-9.55975c0,-5.52284 -4.47715,-10 -10,-10h-0.60865l1.78049,-8.21925c1.53643,-0.06183 3.06533,-0.19962 4.55449,-0.38421c3.33651,-0.41356 6.85726,-0.94733 9.71116,-2.72457c3.04187,-1.8943 5.71678,-4.67074 7.31481,-7.87817c0.83709,-1.68014 0.76139,-7.8006 0.7612,-10.85386c-0.00052,-8.467 0.10716,-16.93808 -0.17445,-25.4004c-0.55656,-16.7242 -0.88369,-33.4275 -1.07384,-50.13171l29.16759,-134.64572c4.18171,1.0254 8.4115,1.73867 12.6706,2.00582c1.51986,0.09533 2.95852,-0.77029 4.47306,-0.92919c1.91512,-0.20093 3.86142,0.06853 5.77508,-0.14607c9.18525,-1.03003 19.95333,-4.14639 28.27652,-6.56562c5.49782,-1.59801 10.96714,-3.23949 16.44472,-4.8188c1.35802,1.61599 2.82456,3.14037 4.37696,4.55406c1.91186,1.74104 4.63902,2.29773 6.85966,3.62257c3.35956,2.00431 6.7007,4.057 9.86595,6.35591c3.5928,2.60945 6.83327,5.67768 10.38035,8.34894c2.23122,1.68031 4.64649,3.10174 6.94051,4.69524c6.21604,4.31783 14.14452,11.64626 22.72702,10.91132c3.51797,-0.30125 7.11757,-5.99771 10.04732,-8.31406c1.11048,-0.87798 2.49622,-1.37746 3.5707,-2.29914c0.90283,-0.77444 1.18106,-2.31558 2.29507,-2.73249c2.55373,-0.95573 5.39173,-0.82273 8.09787,-1.15702c4.27778,-0.52843 8.54296,-1.30711 12.85149,-1.43082c4.86568,-0.13971 9.76482,0.78315 14.60119,0.23191c2.95516,-0.33682 6.33172,0.60285 8.87296,-0.94264c0.90053,-0.54768 1.60309,-1.29367 2.19801,-2.14995l8.0036,1.73377c3.60913,8.56354 6.26253,19.31571 18.01312,17.96415c4.00311,-0.46044 6.07686,-5.31043 8.8562,-8.228c1.01442,-1.06488 1.99658,-2.16069 2.95988,-3.27441z" data-paper-data="{&quot;index&quot;:null}" fill="#525252" stroke-width="0.5" stroke-linecap="butt"/><path d="M809.98871,1077.26726l109.60961,-297.2973h156.15616l162.16216,301.8018z" fill="url(#color-1)" stroke-width="5" stroke-linecap="round"/><path d="M1321.42052,1095.46702l153.78065,-417.10367h219.08476l227.51109,423.42342z" fill="url(#color-2)" stroke-width="5" stroke-linecap="round"/></g></g></svg>