<svg version="1.1" xmlns="http://www.w3.org/2000/svg" xmlns:xlink="http://www.w3.org/1999/xlink" width="482.95933" height="265.1445" viewBox="0,0,482.95933,265.1445"><g transform="translate(1.45933,-1.5)"><g data-paper-data="{&quot;isPaintingLayer&quot;:true}" fill="#191919" fill-rule="nonzero" stroke="#000000" stroke-width="2" stroke-linecap="butt" stroke-linejoin="miter" stroke-miterlimit="10" stroke-dasharray="" stroke-dashoffset="0" style="mix-blend-mode: normal"><path d="M480.5,2.5v24.00107c-3.58946,0.00373 -6.85316,0.01273 -7.12944,0.03301c-5.67743,0.4168 -11.09852,2.13127 -16.62862,3.2608c-2.40762,0.49176 -4.9363,0.50807 -7.34387,1c-3.56402,0.72822 -7.81157,2.50203 -11.71942,2.75379c-14.06044,0.90583 -28.75768,-0.04866 -42.85715,-0.04866c-16.05628,0 -32.38693,-0.70996 -48.41203,0.0153c-14.19191,0.64229 -29.85327,1.65143 -43.75054,4.25221c-2.23563,0.41838 -4.23081,1.54969 -6.49233,1.86162c-2.055,0.28344 -4.17283,-0.23269 -6.25095,-0.10397c-5.75338,0.35637 -11.37842,1.68857 -17.1357,2c-9.38469,0.50764 -19.10061,-0.02516 -28.50782,-0.02516c-15.50373,0 -31.00746,0 -46.51118,0c-12.83831,0 -25.40753,0.00781 -38.04806,2.2199c-8.64733,1.51328 -16.93133,4.57943 -25.59846,5.98208c-5.61319,0.90841 -11.45963,0.90027 -16.95182,2.21259c-0.44005,0.10515 -6.87771,2.45936 -9.02362,2.66036c-5.76674,0.54014 -11.38318,1.35857 -17.1357,2c-3.38764,0.37774 -6.86695,-0.30936 -10.25692,0.0542c-1.27921,0.13719 -2.39822,0.83212 -3.67194,1c-4.27072,0.56291 -9.9285,-0.10454 -14.22265,-0.0542c-5.70867,1.166 -10.98842,0.92507 -16.86418,0.92507c-1.51452,0 -3.121,0.71766 -4.53174,0.26751c-4.456,-1.42183 -8.92177,-3.55564 -13.52762,-4.72624c-6.63582,-1.68653 -13.06509,-1.68599 -19.88398,-1.54127c-1.1369,0.02413 -2.2915,-0.03183 -3.43995,-0.05265c-0.88999,-9.91755 -1.7992,-19.834 -2.71942,-29.74987c-0.73115,-7.87846 -1.60214,-9.37994 -2.27963,-20.19747z"/><path d="M86.37961,169.64537c10.79538,2.11183 21.59075,4.22367 32.38613,6.3355c1.27508,0.24944 13.93966,2.74142 14.71596,2.82921c1.68891,0.19098 3.40589,-0.17092 5.09897,-0.02147c3.26711,0.28839 6.39158,1.56214 9.65359,1.90334c9.75304,1.02015 19.01217,0.66984 28.71174,2.58191c29.34111,2.75188 58.32544,9.38459 87.23713,15.04041c10.57393,2.06851 21.28061,4.71686 31.95038,6.23467c14.27724,2.03098 28.63325,3.60784 42.93095,5.3314c14.51632,1.74992 29.10247,5.71877 43.46237,8.52791c18.31943,3.58372 36.63885,7.16743 54.95828,10.75115l-7.10344,36.31172l-370.34031,-72.44738c1.34086,-9.11201 2.90072,-18.19577 4.32,-27.30007c7.26914,1.78741 15.11399,2.57109 22.01823,3.92173z"/></g></g></svg>