<svg version="1.1" xmlns="http://www.w3.org/2000/svg" xmlns:xlink="http://www.w3.org/1999/xlink" width="482.95934" height="264.00001" viewBox="0,0,482.95934,264.00001"><g transform="translate(1.45933,-1.5)"><g data-paper-data="{&quot;isPaintingLayer&quot;:true}" fill="#191919" fill-rule="nonzero" stroke="#000000" stroke-width="2" stroke-linecap="butt" stroke-linejoin="miter" stroke-miterlimit="10" stroke-dasharray="" stroke-dashoffset="0" style="mix-blend-mode: normal"><path d="M480.5,2.5v24.00107c-3.58946,0.00373 -6.85316,0.01273 -7.12944,0.03301c-5.67743,0.4168 -11.09852,2.13127 -16.62862,3.2608c-2.40762,0.49176 -4.9363,0.50807 -7.34387,1c-3.56402,0.72822 -7.81157,2.50203 -11.71942,2.75379c-14.06044,0.90583 -28.75768,-0.04866 -42.85715,-0.04866c-16.05628,0 -32.38693,-0.70996 -48.41203,0.0153c-14.19191,0.64229 -29.85327,1.65143 -43.75054,4.25221c-2.23563,0.41838 -4.23081,1.54969 -6.49233,1.86162c-2.055,0.28344 -4.17283,-0.23269 -6.25095,-0.10397c-5.75338,0.35637 -11.37842,1.68857 -17.1357,2c-9.38469,0.50764 -19.10061,-0.02516 -28.50782,-0.02516c-15.50373,0 -31.00746,0 -46.51118,0c-12.83831,0 -25.40753,0.00781 -38.04806,2.2199c-8.64733,1.51328 -16.93133,4.57943 -25.59846,5.98208c-5.61319,0.90841 -11.45963,0.90027 -16.95182,2.21259c-0.44005,0.10515 -6.87771,2.45936 -9.02362,2.66036c-5.76674,0.54014 -11.38318,1.35857 -17.1357,2c-3.38764,0.37774 -6.86695,-0.30936 -10.25692,0.0542c-1.27921,0.13719 -2.39822,0.83212 -3.67194,1c-4.27072,0.56291 -9.9285,-0.10454 -14.22265,-0.0542c-5.70867,1.166 -10.98842,0.92507 -16.86418,0.92507c-1.51452,0 -3.121,0.71766 -4.53174,0.26751c-4.456,-1.42183 -8.92177,-3.55564 -13.52762,-4.72624c-6.63582,-1.68653 -13.06509,-1.68599 -19.88398,-1.54127c-1.1369,0.02413 -2.2915,-0.03183 -3.43995,-0.05265c-0.88999,-9.91755 -1.7992,-19.834 -2.71942,-29.74987c-0.73115,-7.87846 -1.60214,-9.37994 -2.27963,-20.19747z"/><path d="M380.2089,145.51288c14.58224,-3.43716 29.65902,0.08086 44.29111,0.08086c18.66667,0 37.33333,0 56,0v118.90628h-124.26435c-0.28762,-37.57841 -0.31609,-75.54255 0.10965,-113.24508c7.96126,-1.84315 15.91687,-3.86893 23.86359,-5.74205z"/><path d="M304.50001,185.69121c10.52584,0 21.28225,1.20247 31.80785,0.05014c-0.36115,26.2376 -0.3355,52.60935 -0.07201,78.75865h-100.73584c0,-25.8377 0,-51.67539 0,-77.51309c22.95108,-2.62427 46.05406,-1.29571 69.00001,-1.29571z"/><path d="M124.5,209.3846c11,0 22,0 33,0c1.29925,0 14.20666,0.02799 14.98538,-0.09578c1.69416,-0.26932 3.30972,-1.61728 5,-1.96841c3.2617,-0.67755 6.57259,0.60231 9.83943,0.02872c9.60318,-1.68615 18.48346,-5.75101 28.17519,-5.86047c0,20.91663 0,41.94295 0,63.01135h-112.35999c-0.43345,-18.1092 -0.64655,-36.24659 -1.00156,-54.37056c7.47707,0.70587 15.32645,-0.74483 22.36156,-0.74483z"/></g></g></svg>