<svg version="1.1" xmlns="http://www.w3.org/2000/svg" xmlns:xlink="http://www.w3.org/1999/xlink" width="152.23174" height="73.74383" viewBox="0,0,152.23174,73.74383"><g transform="translate(-164.00912,-98.25309)"><g data-paper-data="{&quot;isPaintingLayer&quot;:true}" fill="#0031ff" fill-rule="nonzero" stroke-linecap="butt" stroke-linejoin="miter" stroke-miterlimit="10" stroke-dasharray="" stroke-dashoffset="0" style="mix-blend-mode: normal"><path d="M172.0458,125.76965c-3.30593,-5.8771 -4.94771,-12.95504 -7.09027,-19.34934c-0.75301,-2.24728 -1.82204,-5.71878 0.3005,-7.36089c1.54252,-1.19337 5.31643,0.43346 6.76378,0.91514c7.30155,2.43 13.03527,7.93296 17.85238,13.79145c0.90649,1.10246 6.09222,5.27822 3.82134,7.54909c-1.78119,1.78119 -2.59381,1.55214 -4.375,0c-4.48245,-3.90606 -7.52085,-9.92196 -12.71068,-13.57231c-1.04613,-0.73581 -1.59393,-1.14112 -2.74961,-1.70293c-6.20476,-3.01635 -4.28361,-1.18401 -2.78644,3.45423c0.57502,1.7814 1.09864,3.6587 1.77474,5.40891c1.19816,3.10168 3.07695,5.83198 3.88675,9.07119v0.54545c0,1.17422 -0.80953,2.15936 -1.90093,2.42776c-0.90993,0.44206 -1.96664,0.27986 -2.78657,-1.17776z" stroke="none" stroke-width="0.5"/><path d="M213.10487,117.30533c1.37595,-2.18433 3.80948,-3.61467 5.68011,-5.38244c4.74016,-4.47952 10.35877,-10.11985 16.58032,-12.44554c2.29436,-0.85766 5.68135,-2.27701 7.6351,0.02993c1.8542,2.1894 2.33641,6.92311 2.13495,11.78617c-1.81446,1.29014 -3.61327,2.60367 -5.41671,3.90934c0.05743,-0.7972 0.1083,-1.5949 0.15807,-2.39238c0.1527,-2.44694 0.97644,-7.51768 -0.48219,-9.49898c-0.24603,-0.33419 -3.18765,1.12365 -3.64642,1.47154c-3.58593,2.7193 -7.25678,5.28735 -10.76761,8.10251c-2.36978,1.90021 -6.52204,5.23826 -7.81918,7.43964c-0.06305,0.31316 -0.1838,0.60335 -0.34995,0.86011c-0.41746,1.22804 -1.47823,1.49279 -2.45108,1.11877c-1.3026,-0.18328 -2.25093,-1.35437 -2.14088,-2.68191c0.03126,-0.37713 0.14469,-0.72773 0.32123,-1.03568c0.10384,-0.41071 0.28648,-0.84014 0.56424,-1.28108z" stroke="none" stroke-width="0.5"/><path d="M242.86817,124.68933c-0.80851,2.00061 -4.08979,8.3708 -7.14323,6.51398c-2.0702,-1.25889 0.23121,-5.21782 1.99612,-8.3852c2.27444,-1.58283 4.51178,-3.22608 6.75344,-4.86364c-0.44626,2.88024 -1.04367,5.3426 -1.60632,6.73486z" stroke="none" stroke-width="0.5"/><path d="M229.86966,148.01964c0,13.0289 -11.05043,23.59091 -24.68182,23.59091c-7.79572,0 -14.7473,-3.45445 -19.27057,-8.84918c1.47727,-1.51879 2.99391,-2.9912 4.57069,-4.38728c2.46027,-2.17832 5.29259,-3.79921 7.71067,-6.03978c0.61209,-0.56716 5.34605,-5.39327 5.55302,-5.56761c6.24072,-5.25715 13.27173,-9.55339 19.6943,-14.62147c3.99084,4.19086 6.42371,9.76109 6.42371,15.87442z" stroke="none" stroke-width="0"/><path d="M180.50602,148.01964c0,-13.0289 11.05043,-23.59091 24.68182,-23.59091c5.35109,0 10.30446,1.62762 14.34776,4.39315c-6.26253,4.7782 -12.94571,9.02014 -18.9539,14.0781c-1.11523,0.93885 -4.3873,4.46916 -5.78032,5.76572c-2.37982,2.21501 -5.18918,3.80983 -7.62267,5.96022c-1.40891,1.245 -2.77099,2.54891 -4.10027,3.89172c-1.64648,-3.16171 -2.57243,-6.72649 -2.57243,-10.49798z" stroke="none" stroke-width="0"/><path d="M291.65754,171.41358v-57.66667h9.33333v57.66667z" stroke="#000000" stroke-width="0.5"/><path d="M276.65754,171.41358v-47h9.33333v47z" stroke="#000000" stroke-width="0.5"/><path d="M261.65754,171.74692v-29h9.33333v29z" stroke="#000000" stroke-width="0.5"/><path d="M306.65754,171.41358v-65.66667h9.33333v65.66667z" stroke="#000000" stroke-width="0.5"/></g></g></svg>