<svg version="1.1" xmlns="http://www.w3.org/2000/svg" xmlns:xlink="http://www.w3.org/1999/xlink" width="1673.73612" height="425.11636" viewBox="0,0,1673.73612,425.11636"><g transform="translate(0.44239,-566.89482)"><g data-paper-data="{&quot;isPaintingLayer&quot;:true}" fill-opacity="0.75294" fill="#ffffff" fill-rule="nonzero" stroke="none" stroke-width="0.5" stroke-linecap="butt" stroke-linejoin="miter" stroke-miterlimit="10" stroke-dasharray="" stroke-dashoffset="0" style="mix-blend-mode: normal"><path d="M761.75926,872.18107c0,2.5 -2.5,2.5 -2.5,2.5l0.08923,-0.26393c-1.4553,0.72209 -2.84116,1.60548 -4.36589,2.16626c-1.14748,0.42203 -2.53941,0.13129 -3.58843,0.75926c-0.81084,0.48539 -0.87007,1.73766 -1.59513,2.34376c-3.19601,2.67164 -6.41677,4.2445 -9.21281,7.49032c-4.48734,5.20919 -7.47311,11.43986 -11.10744,17.2054c-2.98075,4.7287 -6.95766,9.09659 -10.91535,13.01979c-11.97722,6.45562 -23.14576,14.48457 -34.1127,22.50733c-4.02806,2.94668 -7.76947,6.63288 -11.97171,9.30664c-1.36524,0.86867 -3.02197,1.23004 -4.35058,2.15377c-1.34753,0.93688 -2.10391,2.67469 -3.59149,3.36801c-0.38121,0.17767 -5.24612,0.2177 -6.8322,0.19727c-1.87699,2.37955 -3.71919,4.78837 -5.46536,7.17757c-7.71048,10.54983 -13.72381,22.46337 -24.97172,29.74523c-14.1344,0.31328 -28.32596,0.35832 -42.31893,-1.98976c-5.39479,-0.90527 -10.81441,-2.69509 -16.1274,-4.01863c-6.29523,-1.56824 -12.66814,-2.75497 -18.9842,-4.23928c-5.5821,-1.31182 -10.75486,-3.02121 -16.4957,-3.53718c-3.41047,-0.73839 -6.64168,-2.15599 -9.89304,-3.42294c-5.97811,-2.32948 -12.65761,-2.78104 -17.83173,-6.91413c-6.17983,-4.93646 -9.64653,-13.69058 -12.14741,-20.78176c-1.10938,-3.14561 -2.95263,-5.99921 -4.06352,-9.14429c-3.00757,-8.51485 -6.30758,-17.49191 -11.77694,-24.79402c-3.29594,-2.60451 -6.57812,-4.94486 -10.46298,-6.62561c-3.15608,-1.36545 -3.34334,-0.86007 -7.28928,-0.84488c-2.20849,0.0085 -4.47999,-0.59245 -6.62517,-0.06737c-3.97094,0.97197 -8.24758,4.40061 -11.43274,6.77691c-4.77207,3.56022 -9.51857,7.29981 -14.59634,10.41779c-8.9392,5.48908 -18.11462,10.34809 -26.90762,16.11799c-7.28316,4.19744 -12.78167,10.45208 -19.85029,14.99879c-4.13332,2.65865 -8.69408,4.72182 -13.02959,7.01563c-3.88104,2.05336 -7.5049,4.59163 -11.57435,6.29236c-2.44321,1.02108 -5.16492,1.26362 -7.60896,2.28272c-3.2229,1.34386 -6.23351,3.38855 -9.66311,4.04496c-7.89143,1.51039 -16.33771,1.12971 -24.34794,0.98338c-4.31082,-2.08049 -8.65621,-4.13389 -12.88933,-6.36989c-1.66536,-0.87967 -3.78005,-1.25126 -4.9473,-2.72936c-2.31542,-2.93205 -1.52998,-6.10642 -1.15076,-9.25869c0.53303,-4.4308 1.34028,-8.64391 2.20749,-13.01899c1.00348,-5.06258 2.65586,-9.68657 4.07319,-14.63109c4.13729,-14.43341 7.36357,-29.08252 11.66993,-43.48072c9.79992,-32.7594 18.07034,-66.14248 26.28683,-99.33116c3.19859,-12.91798 5.89348,-25.97041 8.78041,-38.96156c2.3713,-10.67087 5.28077,-21.87192 6.23452,-32.77082c0.85337,-9.75194 -0.00952,-19.98686 -0.00952,-29.78206c0,-27.01753 0.62783,-54.50101 -3.1097,-81.32919c-0.76366,-5.48159 -3.58951,-10.07288 -4.84507,-15.43081c-2.72346,-3.08643 -5.21278,-6.83714 -8.47215,-9.38371c-1.9561,-1.52832 -4.51173,-2.07217 -6.75505,-3.135c-19.37118,-9.17751 -39.23985,6.66903 -54.21877,17.6527c-4.06611,2.98158 -8.18522,5.87759 -12.31022,8.77693c-4.12341,2.56952 -8.73238,4.91373 -12.60707,7.84226c-0.90449,0.68362 -1.82892,1.43752 -2.77218,2.22525c-0.02494,1.11946 -0.09713,2.13092 -0.25823,2.69939c-2.41121,8.50791 -9.81364,16.00917 -16.52599,21.38412c-15.82573,12.67253 -33.79876,20.73401 -51.42495,30.46009c-10.84326,5.98184 -22.11147,11.22653 -34.00709,14.75269c-0.33363,0.0989 -9.84966,2.68669 -10.02631,2.71214c-5.72048,0.82433 -12.17063,0.02212 -17.96558,0.02212c-10.92593,0 -21.85185,0 -32.77778,0c-28.12071,0 -56.24143,0 -84.36214,0c0,0 -2.5,0 -2.5,-2.5c0,-2.5 2.5,-2.5 2.5,-2.5c28.12071,0 56.24143,0 84.36214,0c10.92593,0 21.85185,0 32.77778,0c5.56383,0 11.81543,0.82146 17.30191,0.02212c4.63283,-0.67497 9.53163,-2.636 13.97812,-4.0598c9.85111,-3.15441 19.26768,-7.83997 28.30332,-12.82703c17.37705,-9.5886 35.10843,-17.51192 50.7171,-29.98668c4.74326,-3.79091 10.21355,-8.93132 13.20247,-14.71473c-2.07471,1.52835 -4.21638,2.85565 -6.41569,3.67805c-4.09141,1.52993 -8.27861,1.16298 -12.51338,1.15496c-5.2031,-0.00985 -9.98832,-0.49474 -15.12985,-1.03261c-1.13594,-0.11884 -2.31799,0.22525 -3.42602,-0.05179c-10.15512,-2.5391 -19.01001,-10.6263 -24.48067,-19.20494c-0.06279,-2.83283 -0.82753,-5.77849 -0.04039,-8.50049c1.40363,-4.85387 7.10633,-12.50574 11.99673,-14.16403c4.1051,-1.392 9.34646,0.36243 13.3756,0.94027c10.48947,1.50435 20.08832,2.02623 29.01085,8.74121c6.05405,4.5562 10.06701,10.60445 13.79129,16.98281c0.0993,-0.07513 0.19868,-0.15013 0.29815,-0.22501c3.96672,-2.98576 8.63992,-5.3934 12.85702,-8.01904c12.20581,-8.58616 23.61897,-17.84996 37.07142,-24.3955c2.92822,-1.42478 5.66815,-3.31662 8.77335,-4.29753c8.19292,-2.58808 17.9889,-1.63343 25.57258,1.90731c2.50914,1.17149 5.30854,1.87826 7.50193,3.56859c3.89921,3.00492 6.94347,7.42019 10.04637,11.19242c1.54094,5.85348 4.47146,10.9751 5.34655,17.00874c3.91739,27.00989 3.15959,54.8194 3.15959,82.03373c0,9.94265 0.85681,20.31793 -0.00952,30.21794c-0.97299,11.1188 -3.91576,22.53507 -6.33455,33.41959c-2.89563,13.03032 -5.60057,26.12132 -8.80787,39.07848c-8.23578,33.26657 -16.53054,66.72499 -26.34998,99.56233c-4.30086,14.37983 -7.52174,29.01048 -11.65382,43.42573c-1.37968,4.81319 -3.00246,9.29737 -3.97465,14.2235c-0.8425,4.26897 -1.5887,8.35536 -2.15107,12.66901c-0.14339,1.0999 -0.92578,4.40803 0.08958,5.50988c0.80498,0.87355 2.2062,0.88461 3.28316,1.38586c3.99103,1.85757 7.90201,3.93506 11.80203,5.97579c7.39705,-0.19693 14.97209,0.28967 22.28242,-1.03237c3.09562,-0.55983 5.75506,-2.54398 8.66172,-3.74716c2.4711,-1.02289 5.21578,-1.27996 7.68277,-2.3127c3.88517,-1.62642 7.35164,-4.09007 11.05939,-6.05332c4.21541,-2.23206 8.66431,-4.22689 12.684,-6.81245c7.09629,-4.56451 12.61449,-10.80813 19.931,-15.04961c8.80048,-5.77989 17.98806,-10.6453 26.93906,-16.13721c7.94821,-4.87665 14.66888,-11.48158 23.03954,-15.63591c1.46994,-0.72952 2.83471,-1.76136 4.42932,-2.14881c0.31411,-0.07632 6.68378,-0.0712 7.77812,-0.06737c4.78661,0.01675 5.08595,-0.49054 9.17162,1.21273c4.56192,1.90182 8.36276,4.70294 12.17077,7.77768c5.95078,7.92617 9.65856,17.37945 12.91442,26.64631c1.10421,3.14283 2.9464,5.99216 4.05925,9.13194c2.2127,6.24286 5.13666,14.18022 10.59402,18.55518c4.60495,3.69162 11.12174,4.04122 16.47487,6.12115c2.9117,1.13132 5.77275,2.4974 8.82987,3.13919c5.87347,0.54077 11.18567,2.27364 16.89455,3.61438c6.33625,1.48808 12.72821,2.68134 19.04374,4.25372c5.20238,1.29524 10.52113,3.06805 15.80351,3.94928c13.32383,2.22273 26.5657,1.70091 39.9856,2.12546c9.8549,-6.87133 15.4334,-18.3914 22.35338,-27.86794c1.32073,-1.80867 2.69602,-3.63375 4.10093,-5.45009c-0.94838,-0.33596 -1.89102,-0.69471 -2.83647,-1.00516c-4.25633,-1.39762 -7.78086,-2.59652 -11.94927,-4.42379c-2.17051,-2.13125 -4.43099,-4.17068 -6.71719,-6.17733c-1.44552,-1.26877 -3.28394,-2.21391 -4.30115,-3.84626c-1.48161,-2.37758 -1.79352,-8.47498 -1.35362,-11.02859c0.51388,-2.98303 2.92423,-6.6558 4.45936,-9.10383c3.49249,-5.56939 8.00172,-11.41829 12.74642,-15.91726c2.21052,-2.09604 5.33855,-4.83217 8.24609,-5.73129c1.5233,-0.47106 3.18819,-0.07233 4.78256,-0.09071c3.91412,-0.04512 8.97317,-0.73877 12.74613,0.03228c1.67683,0.34268 3.66912,0.67929 4.71407,2.03475c0.63867,0.82845 0.47189,8.97501 0.47189,9.69223c0,4.46856 0.44664,9.21233 -0.01493,13.64728c-0.60393,5.80284 -2.48814,12.09158 -4.56147,17.52831c-0.65677,1.7222 -1.02395,3.59035 -1.9945,5.1573c-0.81582,1.31713 -2.26532,2.12589 -3.255,3.31793c-0.71367,0.8596 -1.43125,1.7305 -2.14942,2.61005c0.46242,-0.01207 0.90585,-0.10372 1.31697,-0.33188c1.111,-0.61658 1.54728,-2.06646 2.58135,-2.80483c1.39587,-0.9967 3.14498,-1.40016 4.59369,-2.31837c4.10776,-2.60354 7.76619,-6.2429 11.69982,-9.12115c10.91569,-7.98703 22.06091,-16.26129 34.09454,-22.49398c2.74563,-2.77675 5.34283,-5.7929 7.77706,-8.82679c5.12725,-6.3903 8.00174,-14.33097 13.41002,-20.6188c1.691,-1.966 3.45346,-3.9119 5.5086,-5.49337c1.2711,-0.97814 2.90795,-1.42436 4.14159,-2.44934c0.90899,-0.75523 1.16271,-2.19055 2.17562,-2.79935c1.37712,-0.82771 3.14095,-0.72533 4.64202,-1.29835c1.34786,-0.51454 2.57637,-1.29931 3.86456,-1.94897l2.14684,-0.26393c0,0 2.5,0 2.5,2.5zM655.52706,949.62621c1.35162,-1.68379 2.71263,-3.34281 4.06222,-4.95604c0.87311,-1.04368 2.19413,-1.70259 2.91784,-2.85491c0.79266,-1.2621 1.00248,-2.80715 1.51673,-4.20599c1.87631,-5.10386 3.71184,-10.89019 4.27297,-16.31828c0.44003,-4.25665 -0.01493,-8.81308 -0.01493,-13.10169c0,-1.66667 -0.11591,-3.33737 0,-5c0.04244,-0.6087 0.7663,-1.23422 0.47189,-1.76868c-0.23464,-0.42596 -0.97245,-0.02362 -1.45877,-0.02286c-1.53322,0.00238 -3.06634,0.02669 -4.59954,0.03228c-2.68142,0.00977 -8.18744,-0.87711 -10.79357,-0.09071c-4.64408,1.40134 -8.31543,6.77602 -10.98007,10.36262c-3.31576,4.46302 -6.99027,8.17443 -9.56327,13.19413c-1.41244,2.75554 -2.55538,7.921 -0.62589,10.79397c0.78667,1.17133 2.20778,1.75799 3.29141,2.66166c2.19166,1.82769 4.27049,3.7936 6.26638,5.83328c3.6963,1.54072 6.92049,2.56181 10.68447,3.80666c1.51755,0.5019 3.00979,1.22772 4.55213,1.63457zM244.51409,608.6234c-0.01284,-0.40419 -0.0204,-0.80729 -0.0098,-1.2071c-1.30969,-2.08513 -2.21145,-4.43525 -3.71692,-6.38374c-4.81863,-6.23661 -12.43724,-12.58997 -20.22575,-14.49849c-4.99229,-1.22332 -10.10515,-1.28354 -15.10576,-1.99519c-3.3781,-0.48075 -7.85171,-2.16565 -11.31576,-1.11735c-1.98898,0.60191 -4.11117,4.08341 -5.02418,5.18206c-1.70597,2.05285 -2.74611,2.46151 -3.55522,5.34527c-0.53155,1.89449 0.02182,3.93614 -0.04039,5.9028c4.87516,6.78976 12.4496,13.70905 20.78682,15.77448c0.8889,0.22021 1.83562,-0.14314 2.74682,-0.05179c5.02324,0.5036 9.64408,1.00653 14.72663,1.01559c3.51337,0.00626 7.26575,0.47553 10.64583,-0.79679c1.19142,-0.44847 6.46799,-4.59424 6.85926,-4.85787c1.09794,-0.73977 2.16904,-1.51759 3.22844,-2.31189z"/><path d="M1673.24904,876.92114c0.40397,2.46715 -2.06318,2.87111 -2.06318,2.87111l-2.98464,0.4887c-23.02454,3.77001 -46.55639,5.01625 -69.7871,7.16547c-13.26658,1.22738 -26.63778,3.07864 -39.94494,3.69289c-6.22516,0.28735 -12.54377,0.00266 -18.77783,0.00266c-5.01734,0 -10.31033,0.42669 -15.30546,-0.01873c-2.66646,-0.23777 -5.19876,-1.28029 -7.79585,-1.92965c-5.78088,-1.44543 -11.4897,-3.10915 -17.22181,-4.73741c-18.95757,-5.38507 -37.35878,-12.25064 -56.53347,-17.04518c-13.66143,-3.41597 -27.74904,-5.78165 -41.59107,-8.35538c-14.59424,-2.71905 -29.68817,-3.66328 -44.46982,-4.96057c-10.91405,-0.95786 -21.86905,-2.57416 -32.81309,-3.07911c-8.19968,-0.37833 -16.51246,0.00257 -24.7221,0.00257c-32.8738,0 -65.7476,0 -98.6214,0c-11.32634,0 -22.74171,0.42032 -34.05901,-0.00235c-22.1218,-0.82619 -44.13294,-4.47944 -66.05812,-7.22023c-7.48253,-1.01381 -15.09249,-2.56683 -22.62311,-3.07115c-20.09016,-1.34542 -40.24539,-1.02314 -60.38733,-1.02314c0,0 -2.5,0 -2.5,-2.5c0,-2.5 2.5,-2.5 2.5,-2.5c20.25221,0 40.52393,-0.33697 60.72378,1.03447c7.63616,0.51845 15.3452,2.07352 22.93244,3.10169c21.78122,2.7225 43.65213,6.36903 65.62912,7.18306c11.24525,0.41652 22.58799,-0.00235 33.84223,-0.00235c32.8738,0 65.7476,0 98.6214,0c8.28548,0 16.67308,-0.37898 24.94868,0.00257c11.01721,0.50794 22.04375,2.1296 33.03053,3.09373c14.94192,1.31121 30.18549,2.28703 44.93982,5.02507c13.92593,2.58932 28.09289,4.9772 41.83879,8.40796c19.24489,4.80321 37.71402,11.69469 56.73798,17.09862c5.68106,1.61376 11.33879,3.26426 17.06824,4.69641c2.39957,0.5998 4.72923,1.61245 7.19409,1.81783c4.80174,0.4001 9.87413,-0.01873 14.69454,-0.01873c6.1569,0 12.39923,0.28645 18.54728,0.00266c13.22979,-0.61068 26.5252,-2.45669 39.71487,-3.67695c23.11373,-2.1384 46.53136,-3.37003 69.43978,-7.12103l2.98464,-0.4887c0,0 2.46715,-0.40397 2.87111,2.06318z"/><path d="M1310.2572,648.93004c0,-1.38071 1.11929,-2.5 2.5,-2.5c1.38071,0 2.5,1.11929 2.5,2.5c0,1.38071 -1.11929,2.5 -2.5,2.5c-1.38071,0 -2.5,-1.11929 -2.5,-2.5z"/></g></g></svg>