<svg version="1.1" xmlns="http://www.w3.org/2000/svg" xmlns:xlink="http://www.w3.org/1999/xlink" width="158.5" height="119.9095" viewBox="0,0,158.5,119.9095"><g transform="translate(-161.00002,-56.09051)"><g data-paper-data="{&quot;isPaintingLayer&quot;:true}" fill-rule="nonzero" stroke-linecap="butt" stroke-linejoin="miter" stroke-miterlimit="10" stroke-dasharray="" stroke-dashoffset="0" style="mix-blend-mode: normal"><path d="M240,176.00001c-22.91981,0 -41.5,-18.35632 -41.5,-41c0,-22.64368 18.58019,-41 41.5,-41c22.91981,0 41.5,18.35633 41.5,41c0,22.64368 -18.58019,41 -41.5,41z" fill="#ffed00" stroke="none" stroke-width="0"/><path d="M213.5,153v-36h53v36z" fill="none" stroke="#ffffff" stroke-width="5"/><path d="M240,144.25c-4.83249,0 -8.75,-4.14137 -8.75,-9.25c0,-5.10863 3.91751,-9.25 8.75,-9.25c4.83249,0 8.75,4.14137 8.75,9.25c0,5.10863 -3.91751,9.25 -8.75,9.25z" fill="#ffffff" stroke="none" stroke-width="0"/><path d="M221,117.12624c-3.31371,0 -6,-1.67893 -6,-3.75c0,-2.07107 2.68629,-3.75 6,-3.75c3.31371,0 6,1.67893 6,3.75c0,2.07107 -2.68629,3.75 -6,3.75z" fill="#ffffff" stroke="none" stroke-width="0"/><text transform="translate(277.86109,100.08221) rotate(90.07732) scale(3.05672,0.5) skewX(0)" font-size="40" xml:space="preserve" fill="#ffffff" fill-rule="nonzero" stroke="none" stroke-width="1" stroke-linecap="butt" stroke-linejoin="miter" stroke-miterlimit="10" stroke-dasharray="" stroke-dashoffset="0" font-family="Sans Serif" font-weight="normal" text-anchor="start" style="mix-blend-mode: normal"><tspan x="0" dy="0">^</tspan></text><text transform="translate(202.23331,99.98015) rotate(90.07732) scale(3.05672,-0.5) skewX(0)" font-size="40" xml:space="preserve" data-paper-data="{&quot;index&quot;:null}" fill="#ffffff" fill-rule="nonzero" stroke="none" stroke-width="1" stroke-linecap="butt" stroke-linejoin="miter" stroke-miterlimit="10" stroke-dasharray="" stroke-dashoffset="0" font-family="Sans Serif" font-weight="normal" text-anchor="start" style="mix-blend-mode: normal"><tspan x="0" dy="0">^</tspan></text><text transform="translate(161.25002,77.84051) scale(0.5,0.5)" font-size="40" xml:space="preserve" fill="#000000" fill-rule="nonzero" stroke="none" stroke-width="1" stroke-linecap="butt" stroke-linejoin="miter" stroke-miterlimit="10" stroke-dasharray="" stroke-dashoffset="0" font-family="Sans Serif" font-weight="normal" text-anchor="start" style="mix-blend-mode: normal"><tspan x="0" dy="0">Push screenshot</tspan></text></g></g></svg>