<svg version="1.1" xmlns="http://www.w3.org/2000/svg" xmlns:xlink="http://www.w3.org/1999/xlink" width="2146.88417" height="1237.73574" viewBox="0,0,2146.88417,1237.73574"><g transform="translate(833.44208,483.86787)"><g data-paper-data="{&quot;isPaintingLayer&quot;:true}" fill-rule="nonzero" stroke-linecap="butt" stroke-linejoin="miter" stroke-miterlimit="10" stroke-dasharray="" stroke-dashoffset="0" style="mix-blend-mode: normal"><path d="M-832.44208,752.86787v-1235.73574h2144.88417v1235.73574z" fill-opacity="0.74902" fill="#000000" stroke="#000000" stroke-width="2"/><path d="M4.2956,71.15334c-24.04519,-42.74622 -35.98643,-94.22656 -51.57003,-140.73455c-5.47691,-16.34526 -13.25234,-41.5947 2.18564,-53.53834c11.21929,-8.6798 38.66826,3.15271 49.19535,6.65614c53.10674,17.67424 94.8101,57.69921 129.84664,100.31007c6.59322,8.01858 44.31086,38.39035 27.79395,54.90719c-12.95522,12.95522 -18.86569,11.28926 -31.82091,0c-32.60244,-28.41015 -54.70179,-72.1659 -92.44925,-98.71618c-7.60887,-5.3518 -11.59321,-8.29977 -19.99888,-12.38601c-45.1294,-21.93897 -31.1562,-8.61172 -20.26676,25.12383c4.18232,12.95675 7.9908,26.61101 12.90831,39.3409c8.71464,22.55961 22.37974,42.41804 28.2697,65.97795v3.96725c0,8.54051 -5.888,15.70578 -13.82613,17.65795c-6.61824,3.21526 -14.30406,2.03552 -20.2677,-8.56626z" fill="#0031ff" stroke="none" stroke-width="0.5"/><path d="M305.25627,18.94915c8.66103,-16.6599 25.44095,-28.49001 37.93795,-42.42771c31.6673,-35.31809 69.00447,-79.5781 112.70378,-100.17435c16.11527,-7.59542 39.81295,-19.9188 55.3609,-4.37092c31.1949,31.1949 24.77573,148.49988 14.17329,182.61124c-4.65829,14.98725 -24.61484,63.1332 -47.86338,51.50886c-23.10067,-11.55037 18.37518,-70.7796 19.04185,-88.73518c0.5823,-15.68266 0.31995,-31.39019 0,-47.08033c-0.36352,-17.82837 2.56037,-55.07855 -9.20304,-68.56349c-1.98417,-2.27452 -22.43043,10.06021 -25.54677,12.85754c-24.35853,21.86559 -49.42352,42.68585 -73.1801,65.20116c-16.03549,15.19767 -44.12728,41.88854 -52.20681,58.62467c-0.26882,2.30783 -0.96976,4.4838 -2.01981,6.44477c-2.28805,9.15228 -9.81793,11.70871 -17.09434,9.5822c-9.55202,-0.54579 -17.12969,-8.46458 -17.12969,-18.15334c0,-2.75238 0.61147,-5.36191 1.70611,-7.70015c0.50586,-3.03939 1.5717,-6.26192 3.32007,-9.62497z" fill="#0031ff" stroke="none" stroke-width="0.5"/><path d="M424.86887,233.91917c0,94.76377 -80.37366,171.58498 -179.51956,171.58498c-99.14589,0 -179.51956,-76.82121 -179.51956,-171.58498c0,-94.76377 80.37366,-171.58498 179.51956,-171.58498c99.14589,0 179.51956,76.82121 179.51956,171.58498z" fill="#0031ff" stroke="none" stroke-width="0"/></g></g></svg>