<svg version="1.1" xmlns="http://www.w3.org/2000/svg" xmlns:xlink="http://www.w3.org/1999/xlink" width="119.26806" height="120.14075" viewBox="0,0,119.26806,120.14075"><g transform="translate(-180.38275,-55.85926)"><g data-paper-data="{&quot;isPaintingLayer&quot;:true}" fill-rule="nonzero" stroke-linejoin="miter" stroke-miterlimit="10" stroke-dasharray="" stroke-dashoffset="0" style="mix-blend-mode: normal"><path d="M240,176.00001c-22.91981,0 -41.5,-18.35632 -41.5,-41c0,-22.64368 18.58019,-41 41.5,-41c22.91981,0 41.5,18.35633 41.5,41c0,22.64368 -18.58019,41 -41.5,41z" fill="#ffed00" stroke="none" stroke-width="0" stroke-linecap="butt"/><path d="M225.84609,132.77183c-0.38711,-0.09519 -0.67424,-0.44461 -0.67424,-0.86109v-0.19346c0.28723,-1.1489 0.95361,-2.11729 1.37858,-3.21741c0.2398,-0.62078 0.42552,-1.28663 0.62947,-1.91846c0.53103,-1.64512 1.21244,-2.29503 -0.9883,-1.22517c-0.4099,0.19927 -0.6042,0.34303 -0.97525,0.60401c-1.84076,1.29472 -2.91843,3.42847 -4.50829,4.81389c-0.63176,0.55052 -0.91999,0.63176 -1.55175,0c-0.80545,-0.80545 1.03385,-2.28652 1.35537,-2.67755c1.70856,-2.07792 3.74222,-4.02973 6.33197,-4.89162c0.51336,-0.17084 1.8519,-0.74785 2.39901,-0.32458c0.75284,0.58243 0.37367,1.81371 0.10659,2.61079c-0.75994,2.26797 -1.34225,4.7784 -2.51481,6.86292c-0.29082,0.517 -0.66561,0.57452 -0.98835,0.41773z" fill="#ffffff" stroke="none" stroke-width="0.5" stroke-linecap="butt"/><path d="M212.15811,129.80837c0.08526,0.164 0.13723,0.32115 0.1619,0.46936c0.05338,0.11403 0.0832,0.24128 0.0832,0.3755c0,0.47246 -0.36953,0.85863 -0.83533,0.88524c-0.35484,0.1037 -0.72204,-0.02097 -0.83361,-0.46728c-0.0512,-0.09563 -0.08538,-0.20174 -0.09849,-0.31428c-0.394,-0.81614 -1.7639,-2.11772 -2.54587,-2.85883c-1.15849,-1.09796 -2.38077,-2.11325 -3.56862,-3.17953c-0.15197,-0.13641 -1.14902,-0.73792 -1.24578,-0.627c-0.57364,0.6576 -0.43106,2.4741 -0.44879,3.3435c-0.0156,0.76513 -0.02839,1.5311 0,2.29587c0.03251,0.87561 2.05508,3.76392 0.92857,4.32717c-1.13372,0.56686 -2.1069,-1.78098 -2.33406,-2.51183c-0.51703,-1.66344 -0.83006,-7.38381 0.69116,-8.90503c0.7582,-0.75819 1.91382,-0.15724 2.69968,0.21315c2.13099,1.00437 3.95174,3.16272 5.49599,4.885c0.60941,0.67967 1.42768,1.25656 1.85004,2.06898z" fill="#ffffff" stroke="none" stroke-width="0.5" stroke-linecap="butt"/><path d="M215.07947,131.92403c4.83484,0 8.75426,3.74619 8.75426,8.36734c0,4.62115 -3.91941,8.36733 -8.75426,8.36733c-4.83485,0 -8.75427,-3.74618 -8.75427,-8.36733c0,-4.62116 3.91942,-8.36734 8.75427,-8.36734z" fill="#ffffff" stroke="none" stroke-width="0" stroke-linecap="butt"/><path d="M270.83445,132.3541c-0.29082,0.517 -0.66561,0.57452 -0.98835,0.41773c-0.38711,-0.09519 -0.67424,-0.44461 -0.67424,-0.86109v-0.19346c0.28723,-1.1489 0.95361,-2.11729 1.37858,-3.21741c0.2398,-0.62078 0.42552,-1.28663 0.62947,-1.91846c0.53103,-1.64512 1.21244,-2.29503 -0.9883,-1.22517c-0.4099,0.19927 -0.60421,0.34303 -0.97525,0.60401c-1.84076,1.29472 -2.91843,3.42847 -4.50829,4.81389c-0.63176,0.55052 -0.91999,0.63176 -1.55175,0c-0.80545,-0.80545 1.03385,-2.28652 1.35537,-2.67755c1.70856,-2.07792 3.74222,-4.02973 6.33197,-4.89162c0.51336,-0.17084 1.8519,-0.74785 2.39901,-0.32458c0.75283,0.58243 0.37366,1.81371 0.10658,2.61079c-0.75993,2.26797 -1.34224,4.7784 -2.51481,6.86292z" fill="#ffffff" stroke="none" stroke-width="0.5" stroke-linecap="butt"/><path d="M256.15811,129.80837c0.08526,0.164 0.13723,0.32115 0.1619,0.46936c0.05338,0.11403 0.0832,0.24128 0.0832,0.3755c0,0.47246 -0.36952,0.85863 -0.83533,0.88524c-0.35484,0.1037 -0.72204,-0.02097 -0.83361,-0.46728c-0.0512,-0.09563 -0.08538,-0.20174 -0.09849,-0.31428c-0.394,-0.81614 -1.7639,-2.11772 -2.54587,-2.85883c-1.15849,-1.09796 -2.38077,-2.11325 -3.56862,-3.17953c-0.15197,-0.13641 -1.14902,-0.73792 -1.24578,-0.627c-0.57364,0.6576 -0.43106,2.4741 -0.44879,3.3435c-0.0156,0.76513 -0.02839,1.5311 0,2.29587c0.03251,0.87561 2.05508,3.76392 0.92857,4.32717c-1.13372,0.56686 -2.1069,-1.78098 -2.33406,-2.51183c-0.51703,-1.66344 -0.83006,-7.38381 0.69116,-8.90503c0.7582,-0.75819 1.91382,-0.15724 2.69968,0.21315c2.13099,1.00437 3.95174,3.16272 5.49599,4.885c0.60941,0.67967 1.42768,1.25656 1.85004,2.06898z" fill="#ffffff" stroke="none" stroke-width="0.5" stroke-linecap="butt"/><path d="M259.07946,131.92403c4.83485,0 8.75427,3.74619 8.75427,8.36734c0,4.62115 -3.91943,8.36733 -8.75427,8.36733c-4.83484,0 -8.75426,-3.74618 -8.75426,-8.36733c0,-4.62116 3.91941,-8.36734 8.75426,-8.36734z" fill="#ffffff" stroke="none" stroke-width="0" stroke-linecap="butt"/><path d="M243.5,134.62624l4.5,4.5l-20.5,-0.5l3.4375,-3.93873" fill="none" stroke="#ffffff" stroke-width="0.5" stroke-linecap="round"/><path d="M244.1875,145.4375l4.25,-6" fill="none" stroke="#ffffff" stroke-width="0.5" stroke-linecap="round"/><path d="M232.0625,143.9375l-4.625,-5" fill="none" stroke="#ffffff" stroke-width="0.5" stroke-linecap="round"/><text transform="translate(277.86109,100.08221) rotate(90.07732) scale(3.05672,0.5) skewX(0)" font-size="40" xml:space="preserve" fill="#ffffff" fill-rule="nonzero" stroke="none" stroke-width="1" stroke-linecap="butt" stroke-linejoin="miter" stroke-miterlimit="10" stroke-dasharray="" stroke-dashoffset="0" font-family="Sans Serif" font-weight="normal" text-anchor="start" style="mix-blend-mode: normal"><tspan x="0" dy="0">^</tspan></text><text transform="translate(202.23331,99.98015) rotate(90.07732) scale(3.05672,-0.5) skewX(0)" font-size="40" xml:space="preserve" data-paper-data="{&quot;index&quot;:null}" fill="#ffffff" fill-rule="nonzero" stroke="none" stroke-width="1" stroke-linecap="butt" stroke-linejoin="miter" stroke-miterlimit="10" stroke-dasharray="" stroke-dashoffset="0" font-family="Sans Serif" font-weight="normal" text-anchor="start" style="mix-blend-mode: normal"><tspan x="0" dy="0">^</tspan></text><text transform="translate(181.10002,77.60926) scale(0.5,0.5)" font-size="40" xml:space="preserve" fill="#000000" fill-rule="nonzero" stroke="none" stroke-width="1" stroke-linecap="butt" stroke-linejoin="miter" stroke-miterlimit="10" stroke-dasharray="" stroke-dashoffset="0" font-family="Sans Serif" font-weight="normal" text-anchor="start" style="mix-blend-mode: normal"><tspan x="0" dy="0">peer to peer</tspan></text></g></g></svg>