<svg version="1.1" xmlns="http://www.w3.org/2000/svg" xmlns:xlink="http://www.w3.org/1999/xlink" width="484" height="264" viewBox="0,0,484,264"><g transform="translate(2.5,-1.5)"><g data-paper-data="{&quot;isPaintingLayer&quot;:true}" fill="#191919" fill-rule="nonzero" stroke="#000000" stroke-width="2" stroke-linecap="butt" stroke-linejoin="miter" stroke-miterlimit="10" stroke-dasharray="" stroke-dashoffset="0" style="mix-blend-mode: normal"><path d="M-1.5,264.5v-262h482v24.00107c-2.93261,0.00373 -5.59908,0.01272 -5.82481,0.033c-4.6385,0.4168 -9.06758,2.13127 -13.58571,3.2608c-1.96705,0.49176 -4.03299,0.50807 -6,1c-2.91183,0.72822 -6.38211,2.50203 -9.57486,2.75379c-11.48749,0.90583 -23.49524,-0.04867 -35.01462,-0.04867c-13.1181,0 -26.46037,-0.70996 -39.553,0.0153c-11.5949,0.64229 -24.39035,1.65143 -35.74453,4.25221c-1.82653,0.41838 -3.45661,1.54969 -5.30429,1.86162c-1.67895,0.28344 -3.40923,-0.23269 -5.10707,-0.10397c-4.70056,0.35638 -9.29625,1.68857 -14,2c-7.66736,0.50764 -15.60534,-0.02516 -23.29111,-0.02516c-12.66667,0 -25.33333,0 -38,0c-10.489,0 -20.75815,0.00781 -31.08556,2.2199c-7.06494,1.51328 -13.83303,4.57944 -20.91414,5.98208c-4.58603,0.90841 -9.3626,0.90027 -13.84977,2.21259c-0.35952,0.10515 -5.61915,2.45936 -7.37236,2.66036c-4.71147,0.54014 -9.30014,1.35857 -14,2c-2.76773,0.37774 -5.61036,-0.30936 -8.37999,0.0542c-1.04513,0.13719 -1.95936,0.83212 -3,1c-3.48922,0.56291 -8.11166,-0.10454 -11.62001,-0.0542c-4.66403,1.16601 -8.97763,0.92508 -13.77817,0.92508c-1.23737,0 -2.54988,0.71765 -3.70247,0.26751c-3.64059,-1.42183 -7.28915,-3.55564 -11.05216,-4.72624c-5.42151,-1.68653 -10.67428,-1.68599 -16.24536,-1.54127c-2.10036,0.05456 -4.27467,-0.30041 -6.29753,0.26751c-4.28392,1.20271 -7.87456,4.28406 -11.25449,7.17795c-1.44473,1.23698 -3.18719,2.12571 -4.51905,3.48347c-1.41281,1.44028 -6.09377,7.86135 -7.07408,10.02553c-0.65185,1.43907 -0.677,3.09759 -1.23371,4.57607c-1.1911,3.1633 -2.51569,6.31124 -3.20658,9.61999c-1.32884,3.3221 -2.14883,6.82795 -3.07956,10.28279c-0.9895,3.67297 -2.82391,7.07476 -3.92044,10.71721c-0.45029,1.49576 -0.37932,3.1222 -0.8733,4.6041c-0.44653,1.33956 -1.43287,2.45061 -1.92012,3.7759c-1.66279,4.52273 -2.33844,9.59126 -3.37753,14.27558c-0.95634,4.31129 -2.51569,8.60345 -3.1687,12.97205c-0.12914,0.86393 0.19917,1.7586 0.0542,2.62001c-0.17493,1.03948 -0.87689,1.95312 -1,3c-1.05243,8.94962 -0.12913,18.57826 -0.12913,27.60182c0,10.93542 -1.83813,23.85683 3.298,33.92699c0.68506,1.34316 2.04513,2.22101 2.96858,3.4129c1.83189,2.3644 3.45108,5.03592 5.88632,6.77253c0.63341,0.45169 8.90595,4.65133 10.02027,5.12637c1.74979,0.74595 3.7481,0.86219 5.43332,1.74436c1.06478,0.55739 1.9149,1.48327 3,2c5.08411,2.42109 11.15932,3.26985 16.59764,4.61805c10.33273,3.12804 23.01959,1.3988 33.79588,1.3988c11,0 22,0 33,0c1.29925,0 14.20666,0.01422 14.98538,-0.04867c1.69416,-0.13682 3.30971,-0.82162 5,-1c3.2617,-0.34421 6.57259,0.306 9.83943,0.01459c9.76747,-0.87127 18.78711,-2.99268 28.67333,-2.97834c29.32362,-2.93236 59.04215,-1.98759 88.50186,-1.98759c10.77435,0 21.79031,0.54356 32.553,-0.0153c14.40157,-0.74781 28.79326,-1.95642 43.15589,-3.00986c14.58224,-1.06954 29.65902,0.02516 44.29111,0.02516c18.66667,0 37.33333,0 56,0v37z"/></g></g></svg>