<svg version="1.1" xmlns="http://www.w3.org/2000/svg" xmlns:xlink="http://www.w3.org/1999/xlink" width="1921.5" height="1087.5" viewBox="0,0,1921.5,1087.5"><defs><linearGradient x1="960" y1="-3.5" x2="960" y2="1083.5" gradientUnits="userSpaceOnUse" id="color-1"><stop offset="0" stop-color="#ff4a00"/><stop offset="1" stop-color="#ff4a00" stop-opacity="0"/></linearGradient></defs><g transform="translate(0.75,3.75)"><g data-paper-data="{&quot;isPaintingLayer&quot;:true}" fill-rule="nonzero" stroke-linecap="butt" stroke-linejoin="miter" stroke-miterlimit="10" stroke-dasharray="" stroke-dashoffset="0" style="mix-blend-mode: normal"><path d="M278.8776,841.57251c1.90099,-2.11369 3.8647,-4.17804 5.36604,-6.57952c4.19792,-6.71479 6.23794,-14.65978 10.64797,-21.2372c2.58264,-3.85192 11.01567,-14.41934 16.68595,-21.77383h350.18291v291.29129h-351.40718c0.11683,-4.30401 -0.08158,-8.58893 -0.72219,-12.80804c-0.2286,-1.50559 -1.37919,-2.72838 -1.85514,-4.17494c-0.60184,-1.82917 -0.75054,-3.7884 -1.36542,-5.61324c-2.95133,-8.75897 -8.2768,-18.62317 -12.40333,-26.2455c-2.72575,-5.03487 -5.48795,-10.03268 -8.19114,-15.05173c1.29184,-1.66936 2.47118,-3.42539 3.52416,-5.2419c1.2968,-2.23713 1.2635,-5.02033 2.08816,-7.47112c1.24761,-3.70774 2.5464,-7.40773 4.12308,-10.98794c1.78965,-4.06381 4.10228,-7.88042 5.96202,-11.91263c1.16984,-2.53639 2.0477,-5.19784 3.1194,-7.77723c2.90393,-6.98928 8.38766,-16.28957 5.85234,-24.52192c-1.03923,-3.37444 -7.36864,-5.68643 -10.25275,-8.05936c-1.09318,-0.89942 -1.87473,-2.14801 -3.003,-3.003c-0.94803,-0.71841 -2.51313,-0.66404 -3.15645,-1.66454c-1.47472,-2.2935 -1.94559,-5.09533 -2.84523,-7.66935c-1.42212,-4.06894 -3.08615,-8.07257 -4.11923,-12.25724c-1.16667,-4.7258 -1.30195,-9.70928 -2.86462,-14.31931c-0.95484,-2.81686 -0.75133,-6.31582 -2.79981,-8.47225c-0.72592,-0.76417 -1.60374,-1.29286 -2.56656,-1.69301v-8.18924c7.60531,-5.34034 17.55199,-10.20997 13.7433,-21.40805c-1.29752,-3.81489 -6.47661,-4.81482 -9.91647,-6.91346c-1.25551,-0.76598 -2.53441,-1.49387 -3.82683,-2.19955z" fill="#525252" stroke="#000000" stroke-width="0.5"/><path d="" fill="#525252" stroke="#000000" stroke-width="0.5"/><path d="M1684.86222,713.17702c-4.06037,-2.64228 -8.22957,-5.35564 -12.57263,-7.52065c-11.75823,-5.86146 -26.05123,-7.27049 -38.99757,-7.27049c-34.36436,0 -68.72873,0 -103.09309,0c-19.04912,0 -37.45045,5.54893 -56.35099,7.49985c-4.13913,0.42724 -8.56124,0.00766 -12.71807,0.00766c-9.17417,0 -18.34835,0 -27.52252,0c-33.10627,-0.00932 -65.92892,6.80002 -98.98412,8.05713c-35.00869,1.3314 -70.05434,1.08479 -105.0881,0.9278c-24.99452,-0.11203 -50.18082,-0.99348 -75.10533,-3.06952c-9.3745,-0.78083 -18.73325,-2.92433 -28.14978,-2.9124c-34.03904,0 -68.07808,0 -102.11712,0c-34.30427,0 -68.57043,-0.51209 -102.82059,1.48972c-10.99618,1.50584 -21.9943,3.26468 -33.02332,4.50354c-8.45262,0.94946 -17.01311,0.79258 -25.45545,1.87961c-12.37877,1.59389 -24.87776,5.08001 -37.31035,5.77806c-29.21829,1.59228 -58.37889,1.36408 -87.63654,1.36408c0,0 -2.5,0 -2.5,-2.5c0,-2.5 2.5,-2.5 2.5,-2.5c29.16685,0 58.23703,0.23065 87.36446,-1.35668c10.68954,-0.56272 21.35567,-3.739 31.98548,-5.10683c10.15804,-1.30712 20.38718,-1.38622 30.54802,-2.53275c11.03572,-1.24525 22.03752,-3.01077 33.04275,-4.50547c34.41071,-2.03664 68.83977,-1.51329 103.30554,-1.51329c34.03904,0 68.07808,0 102.11712,0c9.56655,0.01115 19.04282,2.13654 28.56481,2.92966c24.79445,2.0652 49.84837,2.94086 74.71271,3.05231c34.9629,0.15676 69.93782,0.40447 104.87568,-0.92424c33.12228,-1.25966 65.9982,-8.0517 99.17413,-8.06074c9.17417,0 18.34835,0 27.52252,0c4.01777,0 8.32873,0.43127 12.32697,0.00766c19.03393,-2.01665 37.54692,-7.51517 56.7421,-7.51517c34.36436,0 68.72873,0 103.09309,0c13.68688,0 28.68839,1.58166 41.12255,7.74452c3.79547,1.88119 7.46416,4.16355 11.04335,6.47333c0,1.99126 0,3.98251 0,5.97377c-0.1971,-0.1364 -0.39551,-0.2702 -0.5957,-0.40048z" fill="#525252" stroke="none" stroke-width="0.5"/><path d="M814.07654,1078.76876v-366.36637h78.07808v366.36637z" fill="#525252" stroke="none" stroke-width="0"/><path d="M1575.3378,1081.77176v-387.38739h55.55556v387.38739z" fill="#525252" stroke="none" stroke-width="0"/><path d="M-0.5,1083.5v-1087h1921v1087z" fill="url(#color-1)" stroke="#000000" stroke-width="0.5"/></g></g></svg>