<svg version="1.1" xmlns="http://www.w3.org/2000/svg" xmlns:xlink="http://www.w3.org/1999/xlink" width="1861.87004" height="1270.5961" viewBox="0,0,1861.87004,1270.5961"><defs><linearGradient x1="160.83039" y1="992.47486" x2="160.83039" y2="1081.09758" gradientUnits="userSpaceOnUse" id="color-1"><stop offset="0" stop-color="#00a5ff"/><stop offset="1" stop-color="#4c4c4c"/></linearGradient><linearGradient x1="1162.76438" y1="441.45794" x2="1162.76438" y2="1111.12761" gradientUnits="userSpaceOnUse" id="color-2"><stop offset="0" stop-color="#00a5ff"/><stop offset="1" stop-color="#4c4c4c"/></linearGradient><linearGradient x1="691.2929" y1="782.29878" x2="691.2929" y2="1343.86034" gradientUnits="userSpaceOnUse" id="color-3"><stop offset="0" stop-color="#00a5ff"/><stop offset="1" stop-color="#00fff3"/></linearGradient><linearGradient x1="1612.54127" y1="74.26425" x2="1612.54127" y2="1069.75975" gradientUnits="userSpaceOnUse" id="color-4"><stop offset="0" stop-color="#00a5ff"/><stop offset="1" stop-color="#4c4c4c"/></linearGradient><linearGradient x1="820.58553" y1="231.92191" x2="820.58553" y2="311.50149" gradientUnits="userSpaceOnUse" id="color-5"><stop offset="0" stop-color="#00a5ff"/><stop offset="1" stop-color="#4c4c4c"/></linearGradient></defs><g transform="translate(-1.17123,-73.76425)"><g data-paper-data="{&quot;isPaintingLayer&quot;:true}" fill-rule="nonzero" stroke-linejoin="miter" stroke-miterlimit="10" stroke-dasharray="" stroke-dashoffset="0" style="mix-blend-mode: normal"><path d="M1.67123,1081.09758v-88.62271h318.31832v88.62271z" fill="url(#color-1)" stroke="#ffffff" stroke-width="1" stroke-linecap="butt"/><path d="M1069.67128,1111.12761v-669.66967h186.18619v669.66967z" fill="url(#color-2)" stroke="#ffffff" stroke-width="1" stroke-linecap="butt"/><path d="M1014.11573,1031.95088c0,155.07094 -161.11783,311.90947 -322.82282,311.90947c-161.70499,0 -282.28228,-248.97945 -282.28228,-404.05039c0,-29.64438 102.00406,-32.6899 110.26192,-52.22785c17.27995,-40.88405 63.58798,-23.53675 85.37935,-39.57327c22.26988,-16.38867 20.53458,-65.71006 86.64101,-65.71006c52.48029,0 151.44529,-171.71959 198.31437,-152.96079c97.54635,39.04178 124.50845,297.86919 124.50845,402.61288z" fill="url(#color-3)" stroke="#ffffff" stroke-width="1" stroke-linecap="butt"/><path d="M1362.54127,1069.75975v-995.4955h500v995.4955z" fill="url(#color-4)" stroke="#ffffff" stroke-width="1" stroke-linecap="butt"/><path d="M698.21316,311.50149v-79.57958h244.74474v79.57958z" fill="url(#color-5)" stroke="#ffffff" stroke-width="1" stroke-linecap="butt"/><path d="M1192.92219,101.1679l-139.25869,25.92542" fill="none" stroke="#000000" stroke-width="5" stroke-linecap="round"/></g></g></svg>