<svg version="1.1" xmlns="http://www.w3.org/2000/svg" xmlns:xlink="http://www.w3.org/1999/xlink" width="1919" height="263.5625" viewBox="0,0,1919,263.5625"><defs><linearGradient x1="961.0015" y1="1050.00002" x2="961.0015" y2="1081.00002" gradientUnits="userSpaceOnUse" id="color-1"><stop offset="0" stop-color="#02ff00"/><stop offset="1" stop-color="#ffca00"/></linearGradient></defs><g transform="translate(-1.5015,-817.43751)"><g data-paper-data="{&quot;isPaintingLayer&quot;:true}" fill-rule="nonzero" stroke="none" stroke-linecap="butt" stroke-linejoin="miter" stroke-miterlimit="10" stroke-dasharray="" stroke-dashoffset="0" style="mix-blend-mode: normal"><path d="M1.5015,1081.00002v-31h1919v31z" fill="url(#color-1)" stroke-width="NaN"/><path d="M1914.8994,997.04056c0.70598,0.11962 2.1006,0.59223 2.1006,2.45946c0,2.5 -2.5,2.5 -2.5,2.5l-3.08013,-1.11325c-3.68943,-5.84267 -3.41987,-12.54723 -3.41987,-19.38675c0,-8.48316 0,-16.96632 0,-25.44948c-0.56662,0.25474 -1.1583,0.48104 -1.51323,0.96697c-0.57531,0.78764 -0.34134,1.97089 -0.86014,2.79684c-1.33378,2.12346 -3.75021,3.43658 -5.73988,4.7658c-3.406,2.27541 -6.71052,3.98822 -10.59618,5.29158c-9.76489,3.15695 -20.53602,2.12829 -30.79057,2.12829c-12.99429,0 -26.19117,0.67147 -39.1673,-0.0056c-4.39047,-0.22909 -8.69099,-1.11371 -13.1119,-1.29779c-3.3166,-0.47595 -6.69698,-0.33811 -10.02626,-0.71533c-2.73126,-0.30946 -5.27323,-1.65315 -8,-2c-1.46152,-0.18591 -3.00637,0.32987 -4.419,-0.08854c-1.37638,-0.40767 -2.43048,-1.52817 -3.6415,-2.29889c-2.40578,-1.5311 -5.05896,-2.64016 -7.65818,-3.81324c-1.22096,-0.55104 -2.26599,-1.5314 -3.56674,-1.85143c-1.28295,-0.31565 -2.6506,0.14546 -3.96363,-0.00132c-0.16062,-0.01796 -9.73518,-1.93625 -10.03287,-1.99581c-12.99417,-2.59974 -26.49468,-5.8839 -39.80842,-5.96356c-3.81185,-1.22224 -8.06861,-1.45538 -11.68015,-3.21185c-2.69549,-1.31095 -5.33795,-2.72989 -8.04299,-4.021c-9.36605,-4.47042 -16.59431,-12.53574 -25.94343,-16.97257c-12.87456,-6.10991 -27.85719,-5.30988 -41.5831,-3.78831c-5.73091,1.00924 -12.09537,1.34357 -17.66349,2.92786c-5.57088,1.58508 -10.6092,5.13725 -15.1632,8.57622c-1.84673,1.39457 -4.07092,2.46317 -5.41039,4.35025c-2.3885,3.36499 0.26156,9.90848 1.33126,13.14718c1.5868,4.80432 3.15299,9.56642 4.47982,14.44987c0.84471,3.10899 1.2582,6.36516 2.51156,9.33307c1.2446,2.94716 3.27554,5.49637 4.90324,8.25052c7.3953,11.15088 19.22529,19.52737 31.09889,25.39202c5.74895,2.83954 11.3765,5.81845 17.86323,6.617c4.69674,0.5782 9.95884,-0.01873 14.69454,-0.01873c8.33333,0 16.66667,0 25,0c29.66667,0 59.33333,0 89,0c0,0 2.5,0 2.5,2.5c0,2.5 -2.5,2.5 -2.5,2.5c-29.66667,0 -59.33333,0 -89,0c-8.33333,0 -16.66667,0 -25,0c-4.94105,0 -10.40663,0.58434 -15.30546,-0.01873c-7.05905,-0.86901 -13.2096,-4.00037 -19.46823,-7.09739c-12.76522,-6.31672 -25.12292,-15.27835 -33.11664,-27.21409c-0.19904,-0.33651 -5.18597,-8.75298 -5.27569,-8.96544c-0.08577,-0.20311 -2.62029,-9.56127 -2.73064,-9.96769c-1.30281,-4.7984 -2.84928,-9.47285 -4.40324,-14.19493c-1.64396,-4.99558 -4.06799,-12.3591 -0.81755,-17.3708c0.02195,-0.03384 5.42404,-4.76865 6.58961,-5.64975c5.06659,-3.83003 10.64465,-7.65285 16.8368,-9.42378c5.78194,-1.65361 12.38635,-2.02902 18.33651,-3.07214c14.71945,-1.63916 30.62572,-2.32494 44.4169,4.21169c9.40392,4.45719 16.64566,12.57095 26.05657,17.02743c2.68016,1.26917 5.30861,2.64481 7.95701,3.979c3.14752,1.58563 6.97566,1.65412 10.31985,2.78815c13.30624,-0.08882 27.015,3.40204 39.99739,5.9976c3.19365,0.6385 6.34291,1.5571 9.57874,1.92651c1.53019,0.17469 3.12483,-0.25845 4.61895,0.11519c3.25015,0.81279 6.19901,2.55926 9.19328,4.06208c2.12927,1.06868 3.64113,3.35013 5.9403,3.97436c1.15232,0.31285 2.39586,-0.234 3.581,-0.08854c2.72827,0.33485 5.26736,1.70296 8,2c3.27999,0.35653 6.60679,0.23432 9.87324,0.69888c4.37673,0.1814 8.64361,1.06684 12.98861,1.28799c12.86709,0.6549 25.948,-0.0056 38.8327,-0.0056c9.56768,0 20.15188,1.26557 29.20943,-1.87171c3.47689,-1.15083 6.35825,-2.68277 9.40382,-4.70842c0.54637,-0.3634 3.67106,-2.19489 4.26012,-3.2342c0.55882,-0.98595 0.40702,-2.33867 1.13986,-3.20316c0.92739,-1.09398 2.14676,-1.99338 3.4717,-2.56181c-1.42304,-0.79678 -2.32227,-2.37716 -3.67394,-3.58113c-1.93457,-1.72316 -4.23328,-3.10867 -6.66898,-3.99141c-12.74384,-4.61859 -26.00075,-7.83046 -38.90522,-11.96751l-2.35482,-1.14458c0,0 -2.23607,-1.11803 -1.11803,-3.3541c1.11803,-2.23607 3.3541,-1.11803 3.3541,-1.11803l1.64518,0.85542c8.7603,2.80846 17.59219,5.3621 26.41143,7.98012c5.22916,1.5523 11.82983,2.78952 16.58061,5.62937c2.22869,1.33223 6.33692,4.9453 8.01252,7.00339c0.34896,0.42862 0.77116,0.84679 1.20324,1.26788c0.00963,-0.00007 0.01929,-0.00011 0.02899,-0.00011c2.5,0 2.5,2.5 2.5,2.5c0,10 0,20 0,30c0,5.06666 -0.56324,11.10919 1.8994,15.54054z" fill-opacity="0.50196" fill="#000000" stroke-width="0.5"/><text transform="translate(1630.5,860.00002) scale(1.125,1.125)" font-size="40" xml:space="preserve" fill-opacity="0.50196" fill="#000000" fill-rule="nonzero" stroke="none" stroke-width="1" stroke-linecap="butt" stroke-linejoin="miter" stroke-miterlimit="10" stroke-dasharray="" stroke-dashoffset="0" font-family="Handwriting" font-weight="normal" text-anchor="start" style="mix-blend-mode: normal"><tspan x="0" dy="0">keep going!</tspan></text></g></g></svg>