<svg version="1.1" xmlns="http://www.w3.org/2000/svg" xmlns:xlink="http://www.w3.org/1999/xlink" width="2020.52051" height="540.18828" viewBox="0,0,2020.52051,540.18828"><g transform="translate(-12.02704,-511.53113)"><g data-paper-data="{&quot;isPaintingLayer&quot;:true}" fill="#ffffff" fill-rule="nonzero" stroke="none" stroke-width="0.5" stroke-linecap="butt" stroke-linejoin="miter" stroke-miterlimit="10" stroke-dasharray="" stroke-dashoffset="0" style="mix-blend-mode: normal"><path d="M33.93432,955.91242c0,-1.38071 1.11929,-2.5 2.5,-2.5c1.38071,0 2.5,1.11929 2.5,2.5c0,1.38071 -1.11929,2.5 -2.5,2.5c-1.38071,0 -2.5,-1.11929 -2.5,-2.5z"/><path d="M1099.44757,972.27873c-0.6114,-0.62933 -0.50418,-1.86299 -1.25785,-2.31226c-0.63809,-0.38037 -1.47257,0.23886 -2.21543,0.2418c-1.67631,0.00665 -3.34963,-0.14203 -5.02445,-0.21309c-8.30489,-0.35236 -16.56769,-0.63385 -24.88049,-0.63385c-31.87235,0 -63.74953,0.16381 -95.6213,-0.01721c-5.90374,-1.3906 -12.30287,-3.05528 -18.3439,-3.64422c-6.43482,-0.62733 -13.28748,0.0118 -19.75743,0.0118c-6.60147,0 -13.28793,-0.30355 -19.88158,-0.00281c-14.45688,0.6594 -28.81437,2.51638 -43.31211,2.93614c-7.57992,1.08863 -15.44644,0.96824 -22.90308,2.48874c-4.89028,0.99719 -9.82027,2.86855 -14.70716,3.66973c-4.70147,0.77079 -10.19972,-0.0462 -14.95095,0.03182c-12.76996,0.2097 -25.52623,1.06147 -38.25568,2.02438c-6.51853,1.2799 -13.02529,2.59545 -19.57816,3.68776c-4.74027,0.79016 -9.8993,1.15767 -14.53687,2.40854c-2.95521,0.7971 -5.64377,2.38102 -8.5314,3.39601c-7.56534,2.65917 -15.17365,5.39932 -22.7927,7.91359c-11.21528,3.70103 -22.68911,6.39672 -34.19682,8.98331c-20.07946,2.36252 -40.29997,5.33303 -60.47916,2.58689c-5.689,-0.7742 -11.64119,-0.73954 -17.25132,-2.06617c-8.09482,-1.91418 -15.70294,-5.7046 -23.79469,-7.72282c-6.38312,-1.60532 -12.19332,-4.26607 -18.25474,-6.81384c-15.51949,-6.52323 -30.14489,-14.54742 -44.70223,-22.93286c-3.59626,-2.07155 -7.23862,-4.42891 -10.88194,-6.35032c-2.70189,-1.42492 -5.78391,-2.10732 -8.36662,-3.73834c-2.40851,-1.52102 -6.04714,-4.73227 -8.20236,-6.55691c-0.9933,-1.21455 -1.76949,-2.64532 -2.97991,-3.64365c-1.06537,-0.87869 -2.65131,-0.9659 -3.69933,-1.86522c-1.20783,-1.03645 -1.76686,-2.67479 -2.89715,-3.79529c-4.11301,-4.07737 -10.44446,-6.50444 -15.50828,-9.13208c-8.31875,-4.31664 -17.61117,-9.36466 -26.91916,-11.15823c-2.64894,-0.51043 -5.395,0.06348 -8.09263,0.07831c-9.91692,0.05453 -19.83354,0.71163 -29.7402,1.15724c-5.93129,0.91697 -11.76779,1.65069 -17.33625,4.05845c-11.80613,5.10488 -20.24006,14.13647 -28.1137,23.89226c-2.43455,3.01651 -5.981,6.98707 -6.95619,10.8901c-0.46968,1.87983 0.06688,3.87486 0.06688,5.81248c0,4.21854 -0.22215,8.03211 0.84233,12.13115c0.18919,0.47088 3.38438,8.45239 3.61863,8.91943c4.62962,9.23022 11.72396,17.23143 17.07861,26.01757c1.17018,1.92008 1.20903,4.46671 2.62357,6.2146c0.51007,0.63028 1.19812,1.15979 1.99042,1.61384c18.47612,-4.15464 36.95223,-8.30929 55.42835,-12.46393c11.26909,-2.53256 23.10212,-5.13514 34.5751,-6.47987c7.97868,-0.93517 16.48997,-0.13162 24.51818,-0.13162c14.45255,0 28.90511,0 43.35766,0c7.36596,0 14.58662,-0.90904 21.93431,-0.91241c1.1472,-0.00053 6.717,-0.11887 7.41068,0.47189c2.50615,2.13432 2.51912,6.69842 0.48833,9.06688c-2.32613,2.7129 -6.0432,3.81902 -8.99302,5.83628c-0.15829,0.10824 -7.97908,5.62719 -8.13807,5.71775c-10.89556,6.20607 -23.38193,10.50907 -34.84695,15.60238c-4.80118,2.40137 -9.77472,4.61723 -14.46248,7.2299c-1.54435,0.86073 -2.92281,2.04457 -4.56371,2.70283c-1.59435,0.63959 -3.38404,0.63567 -5.02503,1.14376c-2.89636,0.89678 -5.63716,2.44473 -8.64459,2.83002c-4.47728,0.5736 -9.44619,0.01949 -13.95509,0.01873c-4.97287,-0.00083 -10.56606,0.19643 -15.46369,-0.78411c-0.19992,-0.04003 -9.41608,-3.11663 -9.78677,-3.24011c-7.90616,-2.63384 -15.81232,-5.26768 -23.71847,-7.90152c-9.48739,-3.16061 -18.97478,-6.32122 -28.46217,-9.48182c-3.76191,-1.25323 -8.64451,-2.12709 -12.30356,-3.9538c-15.08856,3.3929 -30.17712,6.7858 -45.26569,10.1787c-4.87405,1.09601 -9.88902,2.62929 -14.83364,3.32718c-4.94462,0.69789 -10.18805,0.6125 -15.17505,0.90829c-25.0185,1.48394 -50.15138,-0.92382 -75.17061,-2.22352c-15.16655,-0.78787 -30.51502,-3.08048 -44.74333,-8.57434c-9.61563,1.96734 -20.26085,1.67207 -30.00402,1.67207c-14.41606,0 -28.83212,0 -43.24818,0c-18.11436,0 -36.22871,0 -54.34307,0c-10.76424,0 -21.74589,-0.64699 -32.42017,0.88728c0,0 -2.47487,0.35355 -2.82843,-2.12132c-0.35355,-2.47487 2.12132,-2.82843 2.12132,-2.82843c10.92151,-1.55116 22.11552,-0.93754 33.12728,-0.93754c18.11436,0 36.22871,0 54.34307,0c14.41606,0 28.83212,0 43.24818,0c6.8965,0 14.28314,0.17763 21.39184,-0.47709c-13.75463,-6.91838 -25.98837,-17.51861 -37.02319,-28.02328c-6.1079,-5.81445 -12.29028,-11.8195 -17.31315,-18.63829c-2.68754,-3.64847 -4.76152,-8.01658 -7.07014,-11.91239c-2.48918,-4.20049 -6.0326,-8.75384 -7.83057,-13.28376c-1.49687,-3.77132 -1.98444,-8.76276 -1.99056,-12.79293c-0.01186,-7.81517 -0.8656,-14.91983 4.16399,-21.55545c1.91934,-2.53222 4.71415,-4.26166 7.08808,-6.37365c10.72046,-7.02257 22.11901,-14.59114 35.15968,-16.4794c0.29915,-0.04332 8.68196,-0.02032 9.59165,-0.0188c17.63973,0.02933 35.22035,3.80416 50.33343,13.23395c8.09916,5.06461 15.57296,11.01186 23.46766,16.37956c19.15198,13.02166 39.75801,24.10462 56.19821,40.63758c0.78493,1.29851 2.14215,2.39318 2.35478,3.89552c1.13493,8.01864 -9.78716,14.39677 -15.16449,17.98148c-10.77412,7.18239 -22.95625,12.67646 -34.70604,18.07501c-10.05667,4.62063 -20.01798,9.40034 -30.34373,13.38817c-6.35882,2.45579 -12.63434,4.33815 -19.15011,6.29379c-0.25433,0.07633 -0.73383,0.23457 -1.34272,0.43969c12.00008,3.79889 24.66167,5.48837 37.19212,6.13931c24.83192,1.28997 49.7848,3.69834 74.61517,2.22556c4.85199,-0.28779 9.96108,-0.18893 14.77232,-0.868c4.81124,-0.67907 9.69339,-2.1881 14.43549,-3.25444c13.79537,-3.10211 27.59075,-6.20421 41.38612,-9.30632c-1.18936,-1.77831 -1.53881,-3.70883 -3.27001,-6.51484c-5.46921,-8.86475 -12.56836,-17.01161 -17.26343,-26.35298c-0.4242,-0.844 -3.55009,-8.72662 -3.90357,-9.61184c-1.17712,-4.67378 -1.08905,-8.88591 -1.08905,-13.68236c0,-1.02809 -0.01444,-6.6361 0.06688,-6.96124c1.58287,-6.32877 7.11484,-11.86796 11.06611,-16.77184c7.17627,-8.90641 16.20937,-16.82716 26.85671,-21.4385c6.06115,-2.62508 12.39423,-3.46786 18.85454,-4.45715c10.0613,-0.46699 20.13508,-1.12533 30.20748,-1.18173c2.96915,-0.01663 5.98886,-0.56118 8.90759,-0.01603c9.83972,1.83783 19.65411,7.10141 28.43488,11.65779c5.58536,2.89827 12.1638,5.56635 16.72892,10.0227c1.03753,1.01281 1.47588,2.56104 2.57731,3.50398c1.0174,0.871 2.569,0.92949 3.59994,1.78441c1.3582,1.12631 2.28129,2.69237 3.42193,4.03856c8.02608,6.74705 17.31973,10.61026 26.36622,15.8182c11.58098,6.66701 23.13343,12.81898 35.17941,18.62121c8.48192,4.08553 17.38235,8.35498 26.52856,10.62679c8.06708,2.02127 15.66511,5.8 23.73263,7.70773c5.44109,1.28665 11.24273,1.22347 16.76082,1.97574c19.6757,2.68236 39.39734,-0.28308 58.97754,-2.55933c11.26105,-2.54756 22.49277,-5.17983 33.47146,-8.80278c7.5889,-2.50433 15.16631,-5.23394 22.70155,-7.88254c0.00435,-0.00153 8.66437,-3.44593 8.84937,-3.496c4.80584,-1.30064 10.14071,-1.70452 15.05494,-2.52343c6.60272,-1.10029 13.15847,-2.43206 19.72874,-3.71051c12.91927,-0.99937 25.86917,-1.8551 38.831,-2.06874c4.45605,-0.07344 9.84045,0.7816 14.24613,0.03182c4.81198,-0.81892 9.65866,-2.66119 14.48992,-3.62954c7.66893,-1.53712 15.70758,-1.46863 23.49277,-2.57511c14.56051,-0.44299 28.98295,-2.28534 43.50372,-2.94892c6.67269,-0.30493 13.43788,-0.00281 20.11842,-0.00281c6.63341,0 13.64431,-0.63147 20.24257,0.0118c6.06423,0.5912 12.52814,2.21584 18.44442,3.65505c31.67541,-0.223 63.35934,-0.01721 95.03564,-0.01721c8.38342,0 16.71717,0.28272 25.09252,0.63835c0.25228,0.01071 8.9057,0.31142 9.42945,0.58133c1.17479,0.60543 1.44753,2.23749 2.39178,3.16219c0.86017,0.84237 2.24411,1.10434 2.95623,2.0751c0.043,0.05862 0.08406,0.11828 0.12333,0.1789c1.30232,0.63245 1.30232,2.251 1.30232,2.251v4.56204c0,1.38071 -1.11929,2.5 -2.5,2.5c-1.38071,0 -2.5,-1.11929 -2.5,-2.5v-2.44724c-0.42369,-1.33049 -1.93431,-2.07235 -2.9174,-3.08427zM175.295,1024.51037c2.48496,-0.67462 4.83951,-1.81745 7.31045,-2.55935c6.40182,-1.92217 12.55458,-3.7611 18.80214,-6.17392c10.2287,-3.95035 20.09524,-8.69002 30.05757,-13.26731c10.05504,-4.61988 20.47887,-9.28775 29.97642,-14.99157c5.32892,-3.20032 10.82262,-6.94963 15.05515,-11.54922c1.89238,-2.05649 2.43092,-3.59326 0.70496,-5.69788c-16.18709,-16.06459 -36.36927,-26.91487 -55.11566,-39.6544c-7.85115,-5.33543 -15.27816,-11.26081 -23.33349,-16.29269c-14.29739,-8.95193 -31.00142,-12.4464 -47.69172,-12.47395c-2.95559,-0.00488 -5.94166,-0.45654 -8.86672,-0.03282c-12.17189,1.76321 -22.82362,8.98191 -32.83649,15.50083c-2.04121,1.82628 -4.50479,3.25695 -6.15663,5.44174c-4.23947,5.60732 -3.12458,11.89858 -3.13528,18.51755c-0.00554,3.4293 0.37693,7.79438 1.65908,11.00269c1.70597,4.26884 5.11688,8.56506 7.46351,12.52498c2.23312,3.76839 4.22857,8.02374 6.83287,11.54894c4.84654,6.56031 10.81395,12.32942 16.69643,17.92929c11.01806,10.48871 23.27546,21.15748 37.1175,27.81553c1.79738,0.86454 3.61839,1.667 5.45991,2.41156zM379.7983,1023.93454c10.88052,3.62471 21.76103,7.24942 32.64155,10.87413c7.90616,2.63384 15.81232,5.26768 23.71847,7.90152c3.0647,1.02097 6.02058,2.44696 9.18801,3.0811c4.57484,0.91591 9.83985,0.68761 14.48214,0.68682c4.31629,-0.00074 9.05643,0.53821 13.34418,0.01873c3.20362,-0.38813 4.54554,-1.649 7.77877,-2.64443c1.5154,-0.46656 3.17537,-0.4233 4.64821,-1.01055c1.45407,-0.57976 2.64736,-1.6738 4.01122,-2.44212c4.76022,-2.68165 9.8461,-4.92517 14.7346,-7.36864c11.34059,-5.04243 23.71737,-9.28332 34.49612,-15.41951c4.20629,-2.39458 7.90058,-5.78876 12.04373,-8.32098c1.19234,-0.72874 2.57651,-1.15513 3.6719,-2.0228c0.50804,-0.40243 1.12307,-1.75105 0.48833,-1.88203c-0.44396,-0.09161 -0.82462,0.42448 -1.27545,0.47189c-1.06469,0.11197 -2.14112,0.00051 -3.21168,0c-7.34299,-0.00348 -14.56929,0.91241 -21.93431,0.91241c-14.45255,0 -28.90511,0 -43.35766,0c-7.83494,0 -16.18209,-0.82453 -23.96606,0.10104c-11.29286,1.34281 -22.93533,3.89228 -34.03028,6.38864c-15.82393,3.55826 -31.64786,7.11652 -47.4718,10.67477z"/><path d="M2032.54745,691.31811c-0.00423,2.5 -2.50422,2.49577 -2.50422,2.49577l-3.56532,-0.00604c-8.54648,-0.0695 -16.69707,-1.77116 -25.12258,-2.96989c-13.19845,-1.87778 -26.48826,-3.06231 -39.6911,-4.96802c-17.66763,-2.55015 -35.27965,-5.68978 -52.82692,-8.96843c-9.05411,-1.69173 -18.11274,-4.17144 -27.33317,-4.99532c-6.18379,-0.55254 -12.688,0.00989 -18.90194,0.00989c-7.66853,-0.00124 -15.28961,0.71722 -22.95138,0.9119c-10.00781,0.25429 -19.85528,0.15778 -29.81591,0.90577c-14.1866,1.06534 -28.59808,-1.38821 -42.69266,0.97596c-7.42284,1.22631 -14.93492,0.92246 -22.37328,1.74969c-4.12292,0.45852 -7.73738,2.0334 -11.76632,2.72368c-8.71875,1.49377 -17.76566,3.78826 -26.65411,4.58581c-9.65405,0.86624 -19.79222,0.00986 -29.48922,0.00704c-6.09288,-0.41693 -12.35797,-0.3349 -18.40858,-0.9231c-4.49398,-0.43687 -4.80247,-1.22182 -8.99102,-2.06866c-2.45754,-0.49687 -5.00974,-0.31803 -7.49145,-0.67513c-5.44782,-0.7839 -12.32751,-2.78973 -17.13723,-5.39881c-13.097,-7.10459 -21.48705,-20.42229 -31.6545,-30.85533c-9.96798,-10.24697 -17.54059,-21.62005 -25.55387,-33.37384c-10.084,-14.79111 -19.25758,-30.24114 -28.69725,-45.50395c-9.45877,-12.81816 -18.74809,-26.13203 -31.7272,-35.68406c-3.72742,-2.74321 -7.52976,-6.28341 -11.84198,-8.10466c-2.60032,-1.09823 -5.48255,-1.34646 -8.221,-2.03108c-3.13503,-0.78376 -6.21316,-1.83715 -9.40054,-2.36944c-3.81826,-0.63765 -8.39863,0.01884 -12.26447,0.01915c-4.83645,0.00038 -9.95601,-0.41768 -14.77125,0.02504c-4.18397,0.38468 -8.48639,1.51968 -12.59979,2.39141c-8.04301,1.70451 -16.22487,3.1452 -24.06504,5.67164c-4.50733,1.45246 -8.88206,3.44753 -13.32669,5.08239c-10.33774,3.8025 -19.76727,7.30117 -28.88647,13.57062c-7.68138,5.28095 -15.52994,10.94154 -20.86278,18.78475c-0.27228,0.40046 -2.97925,6.09011 -3.46469,7.10466c-1.38236,2.88904 -3.25188,5.58689 -4.17503,8.65369c-1.31121,4.35601 -0.55198,9.77528 -0.55206,14.24457c-0.0001,6.35738 -0.02045,12.40939 2.97501,18.2573c2.75915,5.38658 7.25157,10.52037 11.47255,14.80618c2.30962,1.05111 4.40471,2.70316 6.88139,3.25561c2.7914,0.62266 5.71981,-0.06377 8.57981,-0.05997c6.52009,0.00866 12.92006,-1.22916 19.42132,-1.81853c6.64913,-0.60277 13.65367,-0.00629 20.32321,-0.00629c13.27202,0 25.83306,0.04232 38.80606,3.23975c9.22311,2.27824 18.15707,4.23091 26.91783,7.92486c6.98356,2.94459 13.95716,8.75428 19.92639,13.34464c12.69141,9.75973 25.29577,19.08016 35.01395,32.009c6.54187,8.7225 13.73255,17.34971 19.54666,26.5804c2.67049,4.23976 4.78977,8.91773 7.22943,13.29569c2.0457,3.67101 5.1703,8.24474 6.37966,12.2831c1.23603,4.1274 -0.26866,9.80996 -1.44053,13.71105c-0.11709,0.38979 -3.2328,9.69235 -3.32685,9.89558c-1.61419,3.48824 -4.76293,6.72522 -7.24327,9.62581c-0.20493,0.23933 -6.55695,7.66386 -6.6743,7.77602c-5.76564,5.51062 -12.97742,9.36265 -20.13153,12.66023c-4.22032,1.9453 -9.24957,4.31916 -13.89346,5.03355c-4.88589,0.75162 -11.7545,0.51023 -16.76296,-0.01807c-11.59511,-1.22309 -23.04534,-5.79846 -34.23249,-8.95542c-15.57034,-4.39395 -30.28424,-11.29894 -45.54535,-16.68747c-6.30168,-2.22505 -12.63163,-3.64524 -19.002,-5.42434c-10.61691,-2.96505 -21.06458,-7.28927 -30.91352,-12.21259c-15.42033,-7.71017 -30.94921,-14.25217 -46.90843,-20.72545c-10.43366,-4.23204 -21.04398,-9.4753 -32.06629,-12.03323c-3.88896,-0.9025 -8.23337,-0.5567 -12.17535,-0.5567c-15.71753,0 -31.00535,1.57744 -46.31689,5.38742c-4.04382,1.00623 -8.0669,2.85457 -11.99396,4.24061c-12.55424,4.43097 -24.63769,9.27393 -36.78204,14.72786c-3.94398,2.32294 -10.15144,4.58636 -12.84791,8.42148c-2.58654,3.67876 -3.44298,8.3076 -4.78352,12.52073c-2.10978,6.63074 -4.27571,13.15881 -6.71652,19.66764c-2.02605,5.4028 -3.48299,10.67517 -3.4971,16.47587c-0.00483,1.98345 -0.23657,4.02216 -0.94469,5.87491c-0.19498,0.51016 -0.88482,0.9675 -0.69995,1.48141c0.13708,0.38106 0.64631,-0.48816 0.96946,-0.73223c1.23131,0.06343 2.53578,-0.23259 3.69393,0.1903c0.80804,0.29505 1.04135,1.46962 1.82482,1.82482c0.54363,0.24646 1.18416,-0.16518 1.78052,-0.1903c2.48872,-0.10483 5.36347,0.45687 7.81122,0.03228c8.13323,-1.41078 16.47677,-4.45754 24.73003,-5.488c2.81718,-0.35174 5.67808,-0.01873 8.51714,-0.01873c4.11192,0 8.22384,0 12.33577,0c1.66667,0 3.49591,-0.71798 5,0h2.73723c1.38071,0 2.5,1.11929 2.5,2.5c0,1.38071 -1.11929,2.5 -2.5,2.5h-2.55113c-1.36875,0.27662 -2.7349,0.56641 -4.10647,0.82866c-0.53452,0.1022 -1.23664,-0.13093 -1.61113,0.26393c-1.20837,1.27407 -0.9494,5.37377 -1.14496,6.90083c-0.80474,6.28403 -2.20122,12.58006 -3.15855,18.85595c-2.03888,13.36586 -4.39994,26.65718 -7.8287,39.74862c-1.97047,7.52352 -4.53378,15.54286 -5.39591,23.30164c-0.68058,6.12495 0.01217,12.75404 0.01217,18.91424c-0.03758,2.6467 1.14632,5.16884 1.77971,7.73891c0.1801,0.73079 -0.41927,1.55231 -0.14519,2.25329c0.24605,0.62929 1.16199,0.75749 1.5411,1.3168c1.74425,2.57339 3.29536,5.27276 4.90678,7.93134c2.52999,4.17407 4.99597,9.03805 7.16817,13.40788c2.49562,5.02045 4.40643,11.09825 10.28903,13.30016c0.6468,0.2421 1.37935,-0.07976 2.06989,-0.09071c3.25247,-0.05158 7.09309,0.423 10.29868,-0.19932c4.06436,-0.78904 6.80224,-3.19915 10.08508,-5.5027c11.25358,-9.10239 18.01746,-20.79155 26.4893,-32.26238c4.77311,-6.46278 10.05567,-12.51545 14.19439,-19.43422c2.73178,-4.56678 5.46832,-9.46264 7.85465,-14.19245c1.46175,-2.89726 2.18433,-6.18276 3.65936,-9.14374c2.39997,-4.71471 5.3417,-8.56422 10.9597,-9.56136c1.79674,-0.3189 3.67648,0.31187 5.47445,0c3.314,-0.57484 6.99261,-1.93621 10.48125,-0.75439c1.04054,0.35249 1.585,1.52781 2.45308,2.20116c1.61251,1.25078 3.34534,2.37702 4.76872,3.83943c2.81632,2.89354 4.95344,6.15633 7.44097,9.28267c0.60379,0.75884 1.51669,1.2654 2.01809,2.09546c0.53913,0.89252 0.56377,2.02128 1.03157,2.95318c2.76666,5.51135 4.84788,10.9005 6.5659,16.91326c0.21645,0.99703 1.86595,8.57752 1.88574,8.76233c0.87864,8.20423 0.02023,17.01318 0.00815,25.26988c-0.03321,22.69093 -2.20632,45.64931 -10.23684,67.02363c-2.17636,4.39987 -3.62217,9.74378 -6.87783,13.51117c-1.87638,2.17131 -4.76398,3.20122 -7.16556,4.77214c-5.95374,3.89445 -11.80107,5.63152 -18.5175,7.74033c-8.41556,2.6423 -16.87316,4.60349 -25.38243,6.92459c-8.49178,2.31633 -17.0971,5.17519 -25.80983,6.41101c-12.82432,1.8029 -25.60292,1.37953 -38.5404,1.37953c-15.3528,0 -30.7056,0 -46.05839,0c0,0 -2.5,0 -2.5,-2.5c0,-2.5 2.5,-2.5 2.5,-2.5c15.3528,0 30.7056,0 46.05839,0c12.70099,0 25.25684,0.43885 37.8443,-1.33084c8.4973,-1.183 16.91041,-4.02574 25.19034,-6.28352c8.44514,-2.30283 16.83854,-4.24538 25.18891,-6.86759c6.28684,-1.97421 11.72721,-3.50413 17.28564,-7.15526c2.08766,-1.37131 4.67968,-2.15517 6.30138,-4.0549c2.78725,-3.26511 4.00872,-8.22849 5.8959,-12.03628c7.75963,-20.73356 9.79175,-43.04566 9.82394,-65.04132c0.01181,-8.07362 0.87924,-16.70969 0.02028,-24.73012c-0.29349,-2.74038 -1.18108,-5.38409 -1.76381,-8.07783c-1.62522,-5.68856 -3.61387,-10.72329 -6.20783,-15.93345c-0.39267,-0.7887 -0.34276,-1.76412 -0.79325,-2.52128c-1.54341,-2.59408 -4.58333,-5.86709 -6.53181,-8.13891c-2.1218,-2.4739 -4.16506,-3.80396 -6.61266,-5.84061c-0.4814,-0.40057 -0.60069,-1.25572 -1.19655,-1.44847c-2.32016,-0.75053 -5.59254,0.72079 -7.76692,1.07043c-1.80167,0.28971 -3.66993,-0.27141 -5.47445,0c-3.91769,0.58925 -5.73585,3.68743 -7.28848,6.86199c-1.49096,2.96995 -2.186,6.17422 -3.63991,9.10443c-2.41081,4.85874 -5.26077,9.89327 -8.05565,14.56297c-4.22555,7.06008 -9.59036,13.24419 -14.46344,19.83802c-5.49972,7.44174 -9.9985,15.75105 -16.15924,22.70798c-3.4279,3.87091 -7.3353,7.33017 -11.34025,10.5748c-4.00651,2.81479 -7.18946,5.40544 -12.15872,6.42252c-3.39948,0.69579 -7.75074,0.33286 -11.23639,0.28804c-1.13516,-0.0146 -2.33674,0.29474 -3.40456,-0.09071c-7.61269,-2.74797 -10.17776,-9.34201 -13.4336,-15.89692c-2.11398,-4.25603 -4.49178,-8.97252 -6.96279,-13.03466c-1.54617,-2.54178 -3.04958,-5.11155 -4.68488,-7.59692c-0.57614,-0.87563 -1.71442,-1.36158 -2.10854,-2.33283c-0.40414,-0.99594 0.11854,-2.17921 -0.14519,-3.22117c-0.40188,-1.58775 -1.48006,-2.96092 -1.82482,-4.56204c-0.28927,-1.34343 -0.03007,-2.74827 -0.04511,-4.1224c0,-6.32517 -0.68671,-13.11683 0.01217,-19.40693c0.89366,-8.04321 3.50701,-16.34603 5.553,-24.14362c3.3841,-12.89736 5.69573,-25.9992 7.70445,-39.16793c0.94522,-6.19651 2.33598,-12.4156 3.1282,-18.61919c0.26458,-2.07184 0.29703,-5.19734 1.18282,-7.61093c-4.95252,-0.19555 -10.05998,-0.47421 -14.77517,0.116c-8.20067,1.02649 -16.43767,4.15803 -24.54004,5.4609c-2.62837,0.42264 -5.94129,0.11131 -8.61213,0.03228c-1.23241,-0.03647 -2.53578,0.23259 -3.69393,-0.1903c-0.80804,-0.29505 -1.04135,-1.46962 -1.82482,-1.82482c-0.54363,-0.24646 -1.18701,0.12687 -1.78052,0.1903c-1.50166,-0.24408 -3.5585,0.45887 -4.50499,-0.73223c-1.21519,-1.52924 -0.74844,-3.86519 -0.69995,-5.81786c0.02388,-0.96147 0.74804,-1.78961 0.91241,-2.73723c0.71658,-4.13112 0.00599,-8.73182 0.92524,-12.84604c1.33081,-5.95625 4.57448,-11.79795 6.46469,-17.63731c2.4536,-7.57983 3.89887,-17.01178 8.60255,-23.55415c3.2556,-4.52823 9.83898,-7.07889 14.52435,-9.8267c12.34547,-5.56609 24.64404,-10.49405 37.41387,-15.00111c4.0489,-1.42904 8.18216,-3.30614 12.35026,-4.35159c15.72142,-3.94328 31.47812,-5.56149 47.62471,-5.56149c4.39844,0 8.9615,-0.30307 13.29488,0.68365c11.28454,2.5695 22.15927,7.9464 32.82845,12.27387c16.07827,6.52142 31.72741,13.11802 47.26281,20.88572c9.56124,4.78176 19.7156,9.00092 30.02473,11.86967c6.47367,1.80144 12.91798,3.26439 19.31917,5.52457c15.15755,5.35194 29.77599,12.22662 45.23886,16.59024c13.07487,3.68978 25.99454,8.81468 39.69534,8.81463c3.06066,-0.00001 6.15686,0.49443 9.18193,0.02907c4.17269,-0.6419 8.77677,-2.88376 12.5584,-4.63148c6.64811,-3.0725 13.411,-6.59541 18.76954,-11.73253c2.34665,-2.24968 4.21929,-4.9466 6.3336,-7.4159c2.22657,-2.5968 5.16765,-5.51331 6.58568,-8.64272c1.31528,-2.90265 2.06368,-6.0313 2.99771,-9.07808c0.92303,-3.0109 2.39751,-7.91414 1.359,-11.1109c-1.17095,-3.60443 -4.056,-7.72324 -5.88099,-10.99787c-2.39582,-4.29887 -4.47026,-8.90162 -7.09256,-13.06489c-5.74084,-9.11436 -12.85637,-17.63242 -19.31595,-26.24519c-9.41005,-12.57705 -21.74544,-21.56837 -34.0625,-31.04588c-3.86741,-2.97583 -7.84902,-5.71424 -11.95045,-8.36113c-2.30268,-1.48605 -4.42622,-3.33153 -6.95911,-4.37803c-8.53566,-3.52663 -17.11579,-5.42379 -26.08515,-7.63935c-12.57331,-3.11298 -24.74162,-3.09385 -37.60702,-3.09385c-6.54362,0 -13.44719,-0.61542 -19.96876,-0.00629c-8.057,0.75254 -15.78075,1.88146 -23.89985,1.83111c-1.84817,-0.01146 -3.74041,0.34241 -5.54428,-0.05997c-0.59624,-0.133 -7.48596,-3.47616 -8.66605,-4.04366c-4.85337,-4.79478 -9.92468,-10.48505 -13.05217,-16.62393c-3.35373,-6.58295 -3.52206,-13.36623 -3.52217,-20.53157c-0.00008,-5.03484 -0.68321,-10.76428 0.75927,-15.66908c0.07151,-0.24317 4.24867,-8.95079 4.45756,-9.38733c0.72257,-1.51003 3.31562,-6.98313 3.83725,-7.75356c5.66794,-8.3713 13.97707,-14.46677 22.16782,-20.09791c9.46474,-6.50701 19.26829,-10.19817 29.99304,-14.14303c4.50363,-1.65656 8.93577,-3.67088 13.50274,-5.14345c8.01016,-2.58278 16.36059,-4.06831 24.57863,-5.80937c4.30249,-0.91151 8.80275,-2.0767 13.17846,-2.47901c4.96691,-0.45667 10.23914,-0.04564 15.22863,-0.04604c4.10024,-0.00033 8.81664,-0.63265 12.87578,0.01831c0.28309,0.0454 9.54921,2.368 10.00231,2.48127c2.95941,0.73985 6.06471,1.04992 8.8725,2.2423c4.74047,2.01312 8.84083,5.69385 12.94324,8.71845c13.4393,9.90845 23.12076,23.60645 32.90364,36.90889c9.44893,15.2501 18.60639,30.70271 28.68662,45.48829c7.8488,11.51254 15.2417,22.66953 25.00628,32.70362c4.33491,4.46222 8.65967,9.1404 12.80206,13.78801c2.17171,2.43658 3.72097,5.42223 6.08966,7.66779c2.98883,2.83346 7.9432,6.52669 11.5636,8.49147c4.26721,2.3158 10.52232,4.14518 15.36367,4.83107c2.61293,0.37018 5.29373,0.22651 7.8825,0.73909c3.33932,0.66118 5.06967,1.67276 8.48175,1.99158c5.95314,0.55624 12.09487,0.4862 18.08777,0.90172c9.50072,-0.00286 19.44867,0.86174 28.90494,0.00704c8.77615,-0.79323 17.64331,-3.14957 26.2656,-4.53828c4.0407,-0.6508 7.81515,-2.29105 11.95631,-2.75078c7.36485,-0.81759 14.82225,-0.48423 22.1622,-1.71912c14.27917,-2.36554 28.77959,0.06864 43.13683,-1.02969c10.0459,-0.76851 19.97467,-0.66202 30.06673,-0.91845c7.70438,-0.19577 15.36696,-0.91229 23.07839,-0.91351c6.36335,0 13.01277,-0.55431 19.34624,0.00989c9.379,0.83551 18.59637,3.34483 27.80588,5.06035c17.48248,3.25659 35.02348,6.39442 52.62422,8.93491c13.19954,1.90522 26.48581,3.08925 39.68107,4.96658c8.19318,1.16567 16.13049,2.86627 24.44085,2.92009l3.55123,0.006c0,0 2.5,0.00423 2.49577,2.50422z"/></g></g></svg>