<svg version="1.1" xmlns="http://www.w3.org/2000/svg" xmlns:xlink="http://www.w3.org/1999/xlink" width="1848.91892" height="483.99399" viewBox="0,0,1848.91892,483.99399"><defs><linearGradient x1="146.74547" y1="879.06906" x2="146.74547" y2="1086.27626" gradientUnits="userSpaceOnUse" id="color-1"><stop offset="0" stop-color="#9d794d"/><stop offset="1" stop-color="#4d4d4d"/></linearGradient></defs><g transform="translate(-43.14186,-602.28227)"><g data-paper-data="{&quot;isPaintingLayer&quot;:true}" fill-rule="nonzero" stroke="none" stroke-width="0" stroke-linecap="butt" stroke-linejoin="miter" stroke-miterlimit="10" stroke-dasharray="" stroke-dashoffset="0" style="mix-blend-mode: normal"><path d="M43.14187,1086.27626v-207.20721h207.2072v207.20721z" fill="url(#color-1)"/><path d="M626.05477,1009.69968c-90.80357,0 -164.41441,-32.60389 -164.41441,-72.82282c0,-40.21893 73.61084,-72.82282 164.41441,-72.82282c90.80357,0 164.41441,32.60389 164.41441,72.82282c0,40.21893 -73.61084,72.82282 -164.41441,72.82282z" fill="#6a6a6a"/><path d="M1356.28001,1049.23422c-90.80357,0 -164.41441,-32.60388 -164.41441,-72.82282c0,-40.21894 73.61084,-72.82283 164.41441,-72.82283c90.80357,0 164.41441,32.6039 164.41441,72.82283c0,40.21894 -73.61084,72.82282 -164.41441,72.82282z" fill="#6a6a6a"/><path d="M1727.64638,747.92791c-90.80357,0 -164.41441,-32.60389 -164.41441,-72.82282c0,-40.21893 73.61084,-72.82282 164.41441,-72.82282c90.80357,0 164.41441,32.60389 164.41441,72.82282c0,40.21893 -73.61084,72.82282 -164.41441,72.82282z" fill="#6a6a6a"/><path d="M997.42115,900.58558c-90.80358,0 -164.41442,-32.6039 -164.41442,-72.82283c0,-40.21893 73.61084,-72.82282 164.41442,-72.82282c90.80357,0 164.41441,32.60389 164.41441,72.82282c0,40.21894 -73.61083,72.82283 -164.41441,72.82283z" fill="#6a6a6a"/></g></g></svg>