<svg version="1.1" xmlns="http://www.w3.org/2000/svg" xmlns:xlink="http://www.w3.org/1999/xlink" width="2020.60059" height="1028.52853" viewBox="0,0,2020.60059,1028.52853"><g transform="translate(-5.60433,-56.24623)"><g data-paper-data="{&quot;isPaintingLayer&quot;:true}" fill="#525252" fill-rule="nonzero" stroke-linecap="butt" stroke-linejoin="miter" stroke-miterlimit="10" stroke-dasharray="" stroke-dashoffset="0" style="mix-blend-mode: normal"><path d="M439.11784,1072.76275v-358.85886h117.11712v358.85886z" stroke="none" stroke-width="0"/><path d="M1131.31003,673.36335v-66.20721h894.89489v66.20721z" stroke="none" stroke-width="0"/><path d="M5.60433,683.87386v-273.27327h165.16517v273.27327z" stroke="none" stroke-width="0"/><path d="M838.93766,754.44443v-698.1982h52.55255v698.1982z" stroke="none" stroke-width="0"/><path d="M88.18691,1084.77476v-166.66667h162.16216v166.66667z" stroke="none" stroke-width="0"/><path d="M559.65838,740.93092v-451.95195h63.06306v451.95195z" stroke="#000000" stroke-width="0.5"/><path d="M391.49021,278.46846v-48.04805h237.23724v48.04805z" stroke="#000000" stroke-width="0.5"/><path d="M495.09382,620.8108v-96.0961h64.56456v96.0961z" stroke="#000000" stroke-width="0.5"/><path d="M655.42037,1050.24023v-40.54054h539.03904v40.54054z" stroke="#000000" stroke-width="0.5"/><path d="M1355.12007,1045.73572v-49.54955h530.03003v49.54955z" stroke="#000000" stroke-width="0.5"/><path d="M1849.11406,1039.72972v-372.37237h60.06006v372.37237z" stroke="#000000" stroke-width="0.5"/><path d="M861.12607,842.5914v-23.20102h105.10511v23.20102z" stroke="#000000" stroke-width="0.5"/><path d="M1029.29424,1057.74774v-99.0991h64.56456v99.0991z" stroke="none" stroke-width="0"/></g></g></svg>