<svg version="1.1" xmlns="http://www.w3.org/2000/svg" xmlns:xlink="http://www.w3.org/1999/xlink" width="1917.75" height="503.7986" viewBox="0,0,1917.75,503.7986"><g transform="translate(3.25,-561.44151)"><g data-paper-data="{&quot;isPaintingLayer&quot;:true}" fill="#ffffff" fill-rule="nonzero" stroke="none" stroke-width="0.5" stroke-linecap="butt" stroke-linejoin="miter" stroke-miterlimit="10" stroke-dasharray="" stroke-dashoffset="0" style="mix-blend-mode: normal"><path d="M1851.08306,586.54522c-48.19776,0.67884 -96.38104,0.70478 -144.58306,0.70478c-16.83333,0 -33.66667,0 -50.5,0c-8.57182,0 -18.28322,-0.89381 -26.78363,0.29313c-22.04459,2.91544 -44.48914,1.70687 -66.71637,1.70687c-39.07231,0 -78.30811,-1.05404 -117.35559,0.61883c-2.34077,2.02443 -5.66026,1.19456 -5.66026,1.19456l-4.23158,-1.06264c-0.0242,-0.00816 -0.0484,-0.01629 -0.07261,-0.0244c-0.24262,-0.06447 -0.49469,-0.14422 -0.74997,-0.24281c-3.78793,-1.18548 -7.73691,-1.82188 -11.63146,-2.60011c-2.6636,-0.53226 -5.23777,-1.46337 -7.90405,-1.98198c-17.98026,-3.49728 -36.86009,-2.61419 -55.07807,-2.90415c-12.79954,-0.20372 -25.47699,-2.00132 -38.15931,-3.53857c-9.92434,-1.20476 -19.32607,-3.08921 -29.20226,-4.48255c-5.10111,-0.71967 -10.30322,0.02382 -15.45484,0.02382c-12.33333,0 -24.66667,0 -37,0c-52.88952,0 -105.83311,3.46405 -158.64894,6.11307c-0.57055,0.06599 -24.54149,2.84059 -24.85066,2.86686c-26.66488,2.26543 -53.76644,1.02006 -80.5004,1.02006c-34.33333,0 -68.66667,0 -103,0c-13.26893,0 -26.5686,-0.23953 -39.8357,-0.00216c-26.8015,0.47953 -53.65126,3.01091 -80.4333,3.99789c-13.5133,0.498 -27.12041,-0.16268 -40.63912,0.0036c-18.31986,0.22533 -36.64521,1.13014 -54.9432,1.99891c-29.05674,0.01632 -57.99788,1.39921 -87.03709,2.00077c-19.66058,0.40728 -39.34577,-0.39265 -59.0066,0.00055c-8.33168,0.16662 -16.64931,0.79151 -24.98007,0.9992c-16.64774,0.41504 -33.12782,-0.29327 -49.7551,0.9903c-22.67343,0.94661 -45.33371,2.38667 -67.98147,2.99887c-5.33576,0.14423 -10.58108,1.42633 -15.88872,1.99207c-9.24503,0.98544 -19.09637,0.83885 -28.38808,1.01901c-38.33688,0.74333 -76.76525,0.001 -115.11155,0.001c-68.66667,0 -137.33333,0 -206,0c0,0 -6.25,0 -6.25,-6.25c0,-6.25 6.25,-6.25 6.25,-6.25c68.66667,0 137.33333,0 206,0c38.27178,0 76.62615,0.74403 114.88845,0.001c8.99836,-0.17474 18.66636,-0.00994 27.61192,-0.98099c5.38037,-0.58405 10.70182,-1.84286 16.11128,-2.00793c22.66235,-0.69152 45.3285,-2.05763 68.01853,-3.00113c16.79347,-1.28731 33.43319,-0.58847 50.2449,-1.0097c1.30341,-0.03266 23.81821,-0.97597 24.97998,-0.9992c19.6698,-0.39337 39.36398,0.40758 59.03335,-0.00105c29.01467,-0.60279 57.92975,-2.01724 86.96291,-1.99923c18.33565,-0.87576 36.69904,-1.77455 55.0568,-2.00109c13.42493,-0.16567 26.94137,0.50178 40.36088,0.0036c26.82621,-0.9959 53.72046,-3.51412 80.5667,-4.00211c13.37628,-0.24314 26.7861,-0.00216 40.1643,-0.00216c34.33333,0 68.66667,0 103,0c26.39639,0 53.17164,1.26178 79.4996,-0.97994c8.29815,-0.70655 16.54626,-1.91185 24.81979,-2.86434c53.15668,-2.69384 106.44852,-6.15572 159.68061,-6.15572c12.33333,0 24.66667,0 37,0c5.51506,0 11.0791,-0.70972 16.54516,0.02382c10.00352,1.34246 19.58312,3.3115 29.61609,4.52573c12.3027,1.49124 24.60525,3.26288 37.02234,3.45314c25.92055,0.39717 52.72171,-0.04855 77.64047,7.94614c41.46491,-2.12074 83.16074,-0.94884 124.67595,-0.94884c21.655,0 43.59753,1.28983 65.06433,-1.59722c9.2566,-1.19181 19.10985,-0.40278 28.43567,-0.40278c16.83333,0 33.66667,0 50.5,0c48.14335,0 96.26794,-0.02552 144.40702,-0.70354c21.15895,-0.29801 42.32203,-1.08884 63.48352,-1.66218c0.06011,1.9119 0.10945,3.79095 0.10945,5.61572c0,2.29412 0,4.58825 0,6.88237c-21.13935,0.57334 -42.28041,1.36515 -63.41694,1.66285z"/><path d="M1809.52467,1039.2319c-24.86707,-1.83738 -49.67467,-6.40633 -74.32457,-10.0333c-11.29651,-1.25314 -22.57012,-1.87444 -33.86382,-2.98394c-11.10302,-1.09077 -22.18067,-3.44474 -33.22295,-5.02787c-27.68813,-3.96965 -55.35137,-7.94725 -83.02118,-12.00307c-16.3553,-2.39735 -32.59188,-5.60705 -48.94879,-7.9927c-10.41367,-1.51883 -20.97328,-2.38146 -31.42899,-3.56961c-21.57845,-2.47009 -43.50657,-1.3714 -65.21438,-1.3714c-29.04127,0 -58.08253,0 -87.1238,0c0.56879,2.33545 -0.53603,4.54508 -0.53603,4.54508l-5.89997,5.41669c-6.78933,0.74879 -13.64303,0.70924 -20.45863,1.16004c-22.49747,1.48804 -44.88223,5.76467 -67.42529,6.87067c-0.20284,0.00995 -24.90654,0.00751 -25.30627,0.00751c-20.45453,0 -40.71408,-0.56999 -61.12281,-2.03111c-26.44397,-3.40152 -52.97261,-6.37218 -79.37833,-10.04959c-14.30024,-1.99153 -28.47364,-5.71289 -42.75059,-7.96467c-8.85584,-1.39675 -18.32552,-0.95579 -27.24828,-0.95463c-19,0.00248 -38,0 -57,0c-34.29233,0 -68.38033,3.10444 -102.59454,5.35769c-49.8682,3.28417 -99.61855,6.88576 -149.38492,11.46951c-84.52517,7.78419 -168.90321,17.6152 -253.36137,26.13795c-17.97874,1.99969 -36.0388,3.64609 -53.97393,6.00113c-20.60016,2.70498 -41.12902,6.23291 -61.67213,9.3455c-26.48617,4.01306 -52.94706,9.19335 -79.49761,12.66693c-5.2934,0.69253 -10.677,0.0213 -16.0155,0.0213c-8.33333,0 -16.66667,0 -25,0c-44.5,0 -89,0 -133.5,0c-28.76355,0 -57.83838,-1.2351 -86.52065,0.98159c0,0 -6.23159,0.47935 -6.71094,-5.75224c-0.47935,-6.23159 5.75224,-6.71094 5.75224,-6.71094c29.00896,-2.22137 58.38984,-1.01841 87.47935,-1.01841c44.5,0 89,0 133.5,0c8.33333,0 16.66667,0 25,0c4.99484,0 10.03637,0.70283 14.9845,0.0213c26.26677,-3.61786 52.43031,-8.59487 78.65605,-12.56847c20.62476,-3.12496 41.23524,-6.66444 61.91731,-9.38017c18.038,-2.36855 36.20105,-4.02729 54.28297,-6.0378c84.51538,-8.52963 168.95087,-18.36348 253.53326,-26.15498c49.8745,-4.5937 99.73344,-8.20388 149.70995,-11.49517c34.48902,-2.27134 68.84741,-5.38471 103.41597,-5.38471c19,0 38,-0.00244 57,0c9.45479,0.00122 19.36468,-0.40534 28.75172,1.04537c14.4499,2.23315 28.782,6.04093 43.24941,8.03533c26.16131,3.60646 52.4302,6.55974 78.62167,9.95041c19.99328,1.42467 39.83975,1.96889 59.87719,1.96889c8.23124,0 16.47238,0.41086 24.69373,0.00751c22.4812,-1.10297 44.8084,-5.36263 67.24515,-6.86053c0.69883,-0.04665 1.3981,-0.08759 2.09769,-0.12435c-1.12601,-0.91202 -2.03657,-2.38704 -2.03657,-4.77262c0,-6.25 6.25,-6.25 6.25,-6.25c36.16667,0 72.33333,0 108.5,0c22.19551,0 44.55851,-1.03891 66.62575,1.45134c10.55701,1.19966 21.21589,2.07649 31.73088,3.60765c16.39165,2.3869 32.66184,5.60502 49.05121,8.0073c27.65582,4.05367 55.30478,8.02931 82.97882,11.99693c10.89181,1.56155 21.82507,3.90126 32.77705,4.97213c11.38344,1.11306 22.7497,1.74892 34.13618,3.01606c24.43159,3.59095 49.02829,8.15499 73.67543,9.9667c33.82728,2.48651 67.86339,2.50491 101.86019,2.26403c-0.08749,4.16413 -0.13217,8.33094 -0.15663,12.49906c-34.2618,0.24084 -68.56348,0.2196 -102.65421,-2.29929z"/></g></g></svg>