<svg version="1.1" xmlns="http://www.w3.org/2000/svg" xmlns:xlink="http://www.w3.org/1999/xlink" width="1956.10516" height="926.15013" viewBox="0,0,1956.10516,926.15013"><defs><radialGradient cx="960" cy="540" r="490.5742" gradientUnits="userSpaceOnUse" id="color-1"><stop offset="0" stop-color="#4c4c4c"/><stop offset="1" stop-color="#5fc7ff"/></radialGradient><radialGradient cx="162.51124" cy="707.14714" r="162.91291" gradientUnits="userSpaceOnUse" id="color-2"><stop offset="0" stop-color="#4c4c4c"/><stop offset="1" stop-color="#4cc0ff"/></radialGradient><radialGradient cx="1750.09382" cy="928.36335" r="162.91291" gradientUnits="userSpaceOnUse" id="color-3"><stop offset="0" stop-color="#4c4c4c"/><stop offset="1" stop-color="#64c9ff"/></radialGradient></defs><g transform="translate(0.90168,-84.54505)"><g data-paper-data="{&quot;isPaintingLayer&quot;:true}" fill-rule="nonzero" stroke-linejoin="miter" stroke-miterlimit="10" stroke-dasharray="" stroke-dashoffset="0" style="mix-blend-mode: normal"><path d="M1450.5742,540c0,251.26468 -219.63755,454.95495 -490.5742,454.95495c-270.93665,0 -490.5742,-203.69027 -490.5742,-454.95495c0,-251.26468 219.63755,-454.95495 490.5742,-454.95495c270.93665,0 490.5742,203.69027 490.5742,454.95495z" fill="url(#color-1)" stroke="#ffffff" stroke-width="1" stroke-linecap="butt"/><path d="M-0.40168,707.14714c0,-45.19447 72.9386,-81.83183 162.91291,-81.83183c89.97432,0 162.91291,36.63736 162.91291,81.83183c0,45.19447 -72.9386,81.83183 -162.91291,81.83183c-89.97432,0 -162.91291,-36.63736 -162.91291,-81.83183z" fill="url(#color-2)" stroke="#ffffff" stroke-width="1" stroke-linecap="butt"/><path d="M1587.18091,928.36335c0,-45.19448 72.9386,-81.83183 162.91291,-81.83183c89.97431,0 162.91291,36.63736 162.91291,81.83183c0,45.19448 -72.9386,81.83183 -162.91291,81.83183c-89.97431,0 -162.91291,-36.63735 -162.91291,-81.83183z" fill="url(#color-3)" stroke="#ffffff" stroke-width="1" stroke-linecap="butt"/><path d="M1422.67345,680.19667l169.66967,18.01802v205.70571" fill="none" stroke="#000000" stroke-width="5" stroke-linecap="round"/><path d="M1808.55934,522.53902h144.14414" fill="none" stroke="#000000" stroke-width="5" stroke-linecap="round"/></g></g></svg>