<svg version="1.1" xmlns="http://www.w3.org/2000/svg" xmlns:xlink="http://www.w3.org/1999/xlink" width="1877.02703" height="199.35044" viewBox="0,0,1877.02703,199.35044"><g transform="translate(-21.48649,-440.14956)"><g data-paper-data="{&quot;isPaintingLayer&quot;:true}" fill-rule="nonzero" stroke="none" stroke-linecap="butt" stroke-linejoin="miter" stroke-miterlimit="10" stroke-dasharray="" stroke-dashoffset="0" style="mix-blend-mode: normal"><path d="M21.48649,639.5v-199h1877.02703v199z" fill-opacity="0.74902" fill="#0019ff" stroke-width="0"/><text transform="translate(325.9054,525.32432) scale(1.98173,1.98173)" font-size="40" xml:space="preserve" fill="#ffffff" fill-rule="nonzero" stroke="none" stroke-width="1" stroke-linecap="butt" stroke-linejoin="miter" stroke-miterlimit="10" stroke-dasharray="" stroke-dashoffset="0" font-family="Sans Serif" font-weight="normal" text-anchor="start" style="mix-blend-mode: normal"><tspan x="0" dy="0">Autosave was successful!</tspan></text><path d="M159.77977,564.61852c-34.27931,0 -62.06819,-17.12531 -62.06819,-38.25046c0,-21.12514 27.78887,-38.25046 62.06819,-38.25046c34.27931,0 62.06819,17.12531 62.06819,38.25046c0,21.12514 -27.78887,38.25046 -62.06819,38.25046z" fill="#ffffff" stroke-width="0"/><path d="M111.92295,598.8431c-34.27931,0 -62.06819,-17.12531 -62.06819,-38.25046c0,-21.12514 27.78887,-38.25046 62.06819,-38.25046c34.27931,0 62.06819,17.12531 62.06819,38.25046c0,21.12514 -27.78887,38.25046 -62.06819,38.25046z" fill="#ffffff" stroke-width="0"/><path d="M207.95741,604.21671c-34.27931,0 -62.06819,-17.12531 -62.06819,-38.25046c0,-21.12514 27.78887,-38.25046 62.06819,-38.25046c34.27931,0 62.06819,17.12531 62.06819,38.25046c0,21.12514 -27.78887,38.25046 -62.06819,38.25046z" fill="#ffffff" stroke-width="0"/><text transform="translate(319.00001,594.25) scale(0.82503,0.82503)" font-size="40" xml:space="preserve" fill="#ffffff" fill-rule="nonzero" stroke="none" stroke-width="1" stroke-linecap="butt" stroke-linejoin="miter" stroke-miterlimit="10" stroke-dasharray="" stroke-dashoffset="0" font-family="Sans Serif" font-weight="normal" text-anchor="start" style="mix-blend-mode: normal"><tspan x="0" dy="0">(This will be auto dismissed shortly)</tspan></text></g></g></svg>