<svg version="1.1" xmlns="http://www.w3.org/2000/svg" xmlns:xlink="http://www.w3.org/1999/xlink" width="1811.5" height="830" viewBox="0,0,1811.5,830"><defs><linearGradient x1="232.5" y1="664" x2="232.5" y2="1036" gradientUnits="userSpaceOnUse" id="color-1"><stop offset="0" stop-color="#1a1a1a" stop-opacity="0"/><stop offset="1" stop-color="#1a1a1a"/></linearGradient><linearGradient x1="758.5" y1="682" x2="758.5" y2="766" gradientUnits="userSpaceOnUse" id="color-2"><stop offset="0" stop-color="#1a1a1a" stop-opacity="0"/><stop offset="1" stop-color="#1a1a1a"/></linearGradient><linearGradient x1="697" y1="483" x2="697" y2="553" gradientUnits="userSpaceOnUse" id="color-3"><stop offset="0" stop-color="#1a1a1a" stop-opacity="0"/><stop offset="1" stop-color="#1a1a1a"/></linearGradient><linearGradient x1="520.5" y1="216" x2="520.5" y2="547" gradientUnits="userSpaceOnUse" id="color-4"><stop offset="0" stop-color="#1a1a1a" stop-opacity="0"/><stop offset="1" stop-color="#1a1a1a"/></linearGradient><linearGradient x1="1093" y1="211" x2="1093" y2="787" gradientUnits="userSpaceOnUse" id="color-5"><stop offset="0" stop-color="#1a1a1a" stop-opacity="0"/><stop offset="1" stop-color="#1a1a1a"/></linearGradient></defs><g transform="translate(-26.5,-208.5)"><g data-paper-data="{&quot;isPaintingLayer&quot;:true}" fill-rule="nonzero" stroke-linecap="butt" stroke-linejoin="miter" stroke-miterlimit="10" stroke-dasharray="" stroke-dashoffset="0" style="mix-blend-mode: normal"><path d="M29,1036v-372h407v372z" fill="url(#color-1)" stroke="#000000" stroke-width="5"/><path d="M475,766v-84h567v84z" fill="url(#color-2)" stroke="#000000" stroke-width="5"/><path d="M487,553v-70h420v70z" fill="url(#color-3)" stroke="#000000" stroke-width="5"/><path d="M461,547v-331h119v331z" fill="url(#color-4)" stroke="#000000" stroke-width="5"/><path d="M1049,787v-576h88v576z" fill="url(#color-5)" stroke="#000000" stroke-width="5"/><path d="M831,356v-92h212v92z" fill="#9966ff" stroke="#000000" stroke-width="5"/><path d="M320.58058,745.41942c-4.2865,-4.2865 -0.25783,-8.57301 -0.01163,-8.82696c6.23129,-17.40122 17.8781,-32.24363 30.66323,-45.57292c-2.38274,-1.00373 -4.67103,-2.1994 -6.97813,-3.40506c-1.83596,-0.95945 -4.01815,-1.01562 -6.00148,-1.61372c-1.89843,-0.57249 -3.69799,-1.4822 -5.63513,-1.90558c-5.79375,-1.26629 -11.74579,-0.84517 -17.61745,-0.84517c-5.33565,0 -10.91987,-0.7737 -15.99886,0.9193c-3.26175,-0.27922 -3.75327,1.38146 -6.71532,3.14727c-2.13248,1.27127 -4.48368,2.19095 -6.49211,3.65035c-1.42124,1.03272 -2.37613,2.59827 -3.6987,3.75467c-3.42083,2.99103 -7.35555,4.59449 -9.77844,8.56423c-2.10219,3.44428 -2.89492,10.24964 -6.52148,12.30435c-1.97481,1.11887 -4.52857,-0.32345 -6.79622,-0.42087c-2.35937,-0.10137 -4.72683,-0.51796 -6.97528,-1.24003c-7.42192,-2.38346 -13.95958,-6.36345 -21.2447,-9.08726c-6.56115,-2.45313 -13.2522,-4.54616 -19.83522,-6.93998c-4.72456,-1.5858 -9.61769,-2.61862 -14.45023,-3.83633c-1.87881,-0.47342 -3.57433,-1.63801 -5.49456,-1.8964c-2.64261,-0.35559 -5.33247,0.06875 -7.99886,0.0807c-7.33326,0.03288 -14.66667,0.0031 -22,0c-6.55977,-0.00277 -13.10735,0.58171 -19.65437,0.99044c-5.10539,0.31873 -10.29639,0.14973 -15.34449,0.92886c-2.59356,0.40029 -5.52797,1.92773 -8.02472,2.75997c-1.54681,0.5156 -3.30519,0.52759 -4.6906,1.3873c-1.07538,0.66732 -1.72373,1.97592 -2.89405,2.45768c-1.10554,0.45509 -2.44393,-0.16292 -3.58062,0.20758c-0.83433,0.27195 -1.28656,1.22794 -2.0652,1.63265c-1.98408,1.03123 -4.13948,1.75965 -6,3c-3.10545,1.07378 -6.14929,2.18025 -8.78352,4.21892c-0.73784,0.57103 -1.80463,1.06151 -1.98061,1.97776c-0.13864,0.72188 0.23635,1.45447 0.26817,2.18885c0.17243,3.97925 0,8.0166 0,12c0,15.64914 2.98271,30.61588 6.61178,45.83159c0.70797,1.38177 3.45906,6.71496 3.91247,7.77664c1.08712,2.54554 1.23327,5.26395 3.05914,7.42934c2.61111,3.09665 6.0273,4.62925 9.12904,7.12904c0.52244,0.42105 0.75612,1.15844 1.32339,1.51682c1.89258,1.19565 5.53342,1.66824 7.6906,2.3873c0.36618,0.12206 0.72757,0.26303 1.08703,0.41136c0.04655,-0.02429 0.0937,-0.04837 0.14147,-0.07225c3.22628,-1.61314 5.52156,-0.43328 6.88584,0.85301c0.63366,-0.1656 1.26775,-0.33329 1.9081,-0.43214c2.9078,-0.44885 6.13834,0.5052 9,0c12.38082,-2.18571 24.38029,-7.58923 36.50056,-10.89789c6.39086,-1.41535 12.48323,-3.14776 18.75315,-4.93356c3.22168,-0.9176 6.44374,-2.60473 9.74628,-3.16855c0.72222,-0.1233 1.49807,0.42839 2.18999,0.18747c0.94785,-0.33004 1.47953,-1.44024 2.41938,-1.79242c1.79207,-0.67152 3.77924,-0.66199 5.61085,-1.21665c1.77304,-0.53692 3.36856,-1.60225 5.16691,-2.04711c10.95911,-2.71098 22.44416,-2.212 33.61401,-2.212c5.95855,0 12.80158,-0.64619 18.76365,0.04683c6.18402,0.71881 11.76845,3.73289 16.84618,7.10105c5.86061,4.3912 12.99543,8.53428 17.46044,14.44768c3.76472,4.98595 5.94299,11.93683 7.87657,17.73151c3.48802,10.45312 5.29577,19.8212 5.30317,30.92293c0.00332,4.98205 0.13624,10.01585 0,15c-0.05298,1.93839 0.23802,3.93928 -0.26817,5.81115c-0.51366,1.89946 -2.59351,3.23452 -2.81253,5.18999c-0.43095,3.84755 0.44556,7.76334 0.05029,11.61472c-0.25625,2.49681 -1.13941,4.88883 -1.70912,7.33325c-1.40822,1.45582 -2.52961,3.25871 -4.22465,4.36746c-4.48879,2.93618 -5.02902,1.37158 -9.52217,1.8866c-4.30187,0.4931 -8.51323,2.3102 -12.76251,2.96612c-1.40842,0.2174 -9.55141,-0.04583 -10,0c-1.04863,0.10713 -1.95242,0.883 -3,1c-3.81941,0.42657 -7.773,-0.06264 -11.49456,0.8964c-4.31586,1.1122 -8.55406,2.74284 -12.99107,3.163c-9.57884,0.90706 -19.39636,-0.31028 -28.90386,-0.99078c-2.07055,-0.1482 -4.16014,0.16917 -6.2275,-0.01834c-2.80184,-0.25413 -5.57091,-0.99487 -8.38414,-0.96958c-7,0 -14,0 -21,0c-2.66667,0 -5.33689,0.13764 -8,0c-0.4057,-0.02097 -0.81421,-0.42527 -1.18885,-0.26817c-0.80927,0.33934 -1.28194,1.23697 -2.0652,1.63265c-1.88172,0.95056 -4.11711,1.05176 -6,2c-2.43988,1.22874 -4.33457,3.52971 -6.9348,4.36735c-1.00523,0.32383 -6.19607,0.26817 -7.81115,0.26817c-6.66667,0 -13.33333,0 -20,0c-9.33333,0 -18.66667,0 -28,0c-5.28534,0 -11.69251,-0.79821 -16.99886,-0.0807c-3.41015,0.46111 -6.73914,2.51611 -10.23749,3.03388c-12.06353,1.78545 -24.57576,1.04683 -36.76365,1.04683c0,0 -6.25,0 -6.25,-6.25c0,-6.25 6.25,-6.25 6.25,-6.25c11.71093,0 23.63476,0.61572 35.23635,-0.95317c3.38121,-0.45724 6.40914,-2.47273 9.76251,-2.96612c5.95023,-0.87548 13.04595,-0.0807 19.00114,-0.0807c9.33333,0 18.66667,0 28,0c5.33333,0 10.66667,0 16,0c2.33333,0 4.67143,-0.14908 7,0c0.40541,0.02595 0.80849,0.41087 1.18885,0.26817c1.94533,-0.7298 3.20522,-2.70669 5.0652,-3.63265c1.88725,-0.93953 4.11071,-1.06457 6,-2c1.37175,-0.67918 2.46921,-1.92571 3.9348,-2.36735c3.61346,-1.08889 9.03858,-0.26817 12.81115,-0.26817c7,0 14,0 21,0c3.22357,0.02124 6.40552,0.73787 9.61586,1.03042c1.91624,0.17462 3.85319,-0.15514 5.7725,-0.01834c8.9373,0.63702 18.08892,1.78314 27.09614,1.00922c3.77562,-0.32441 7.32696,-1.94053 11.00893,-2.837c4.0659,-0.98995 8.34606,-0.6441 12.50544,-1.1036c1.04772,-0.11574 1.95096,-0.89695 3,-1c5.63967,-0.55402 10.55109,-0.13765 16,-1c2.47514,-0.39172 4.75362,-1.70202 7.23749,-2.03388c1.24317,-0.16609 2.50869,0.06563 3.76251,0.03388c0.1484,-0.00376 0.4516,0.04481 0.49838,0.14847c0.52272,-4.93908 -0.57311,-10.13243 0.33346,-14.98031c0.30594,-1.63599 0.84927,-3.2374 1.55483,-4.74481c0.372,-0.79478 1.36463,-1.2296 1.63265,-2.0652c0.63066,-1.96622 -0.26817,-4.12396 -0.26817,-6.18885c0,-3.66667 -0.00257,-7.33333 0,-11c0.00688,-9.82911 -1.62268,-17.8444 -4.69683,-27.07707c-1.54371,-4.63627 -3.14637,-10.25477 -6.12343,-14.26849c-3.48049,-4.69245 -9.92703,-8.08933 -14.53956,-11.55232c-3.28247,-2.20341 -7.10078,-4.4794 -11.15382,-4.89895c-5.49959,-0.56929 -11.76009,0.04683 -17.23635,0.04683c-10.01114,0 -20.56493,-0.69751 -30.38599,1.788c-1.68447,0.42631 -3.16729,1.45865 -4.83309,1.95289c-1.42478,0.42273 -2.99773,0.26118 -4.38915,0.78335c-1.31275,0.49266 -2.24676,1.77532 -3.58062,2.20758c-1.20961,0.39199 -2.55491,-0.01633 -3.81001,0.18747c-2.72559,0.44258 -5.58923,2.06794 -8.25372,2.83145c-6.43008,1.84255 -12.69217,3.60506 -19.24685,5.06644c-12.42186,3.38434 -24.74903,9.04614 -37.49944,11.10211c-0.82166,0.13249 -1.67104,0.14784 -2.53133,0.1137c-1.66853,0.96701 -3.46981,0.96701 -3.46981,0.96701c-3.86792,0 -8.19162,0.4798 -12.00114,-0.0807c-0.57252,-0.08424 -6.00666,-1.91715 -6.97528,-2.24003c-3.21564,-1.07188 -7.40775,-1.91147 -10.3094,-3.6127c-1.04989,-0.61555 -1.72371,-1.72612 -2.67661,-2.48318c-3.73887,-2.97046 -7.84987,-4.99013 -10.87096,-8.87096c-2.74956,-3.53203 -3.25995,-6.66586 -4.94086,-10.57066c-1.21033,-2.81163 -2.73844,-5.47561 -4.08753,-8.22336c-4.27213,-16.54144 -7.38822,-33.09067 -7.38822,-50.16841c0,-3.99337 -0.10911,-8.00828 0,-12c0.05298,-1.93839 -0.30881,-3.95987 0.26817,-5.81115c2.26748,-7.27536 10.59116,-11.69318 17.23588,-13.80332c1.86052,-1.24035 3.98853,-2.02328 6,-3c1.37694,-0.66861 2.48554,-1.87475 3.9348,-2.36735c0.76636,-0.26049 1.6624,0.49418 2.41938,0.20758c0.59164,-0.224 0.55933,-1.22386 1.10595,-1.54232c0.86897,-0.50627 5.8973,-2.14201 7.3094,-2.6127c3.18188,-1.06063 6.68169,-2.6664 9.97528,-3.24003c5.45188,-0.94953 11.14729,-0.7265 16.65551,-1.07114c6.77697,-0.42403 13.55541,-1.00678 20.34563,-1.00956c7.33333,-0.003 14.66673,-0.02959 22,0c3.33379,0.01345 6.69613,-0.35665 10.00114,0.0807c2.25933,0.29898 4.29351,1.55464 6.50544,2.1036c5.20787,1.29249 10.45615,2.47624 15.54977,4.16367c10.71196,3.89526 21.53264,7.18966 31.73874,12.31186c3.26633,1.63929 7.52939,3.86479 11.20605,4.42087c0.18229,0.02757 0.3717,0.02518 0.56451,0.00658c0.2323,-0.41596 0.48556,-0.82759 0.6601,-1.22906c1.60448,-3.69038 3.49273,-7.11623 6.35483,-10.02765c1.73166,-1.7615 6.30486,-4.53376 8.32441,-6.30217c1.51558,-1.32712 2.67252,-3.05987 4.3013,-4.24533c2.33849,-1.702 5.03173,-2.85501 7.50789,-4.34965c1.99535,-1.20442 5.5705,-3.99745 7.47467,-4.66526c1.19989,-0.42081 2.54001,-0.12498 3.81001,-0.18747c5.69446,-1.89815 12.03349,-1.0807 18.00114,-1.0807c6.87466,0 13.5771,-0.27952 20.38255,1.15483c2.18552,0.46063 4.22468,1.45546 6.36487,2.09442c0.04547,0.01357 0.09076,0.02697 0.13588,0.0402c-3.35547,-3.27432 -6.70353,-6.55643 -10.15754,-9.72569c-6.65952,-6.16235 -14.94874,-10.93546 -22.3585,-16.22793l-1.78668,-1.66642c0,0 -4.41942,-4.41942 0,-8.83883c4.41942,-4.41942 8.83883,0 8.83883,0l0.21332,0.33358c7.87064,5.62212 16.40709,10.68251 23.54511,17.19024c6.11838,5.61655 11.90178,11.58976 17.99041,17.23855c2.40037,2.22697 6.20622,4.44905 8.25116,7.23763c1.47356,2.00942 4.33269,3.97872 3.83058,6.41942c-0.49252,2.39406 -2.07822,4.56882 -4.04527,6.22244c-0.48438,1.89604 -1.78531,3.19698 -1.78531,3.19698c-13.33192,13.315 -26.56956,28.44685 -32.49015,46.55701l-2.50985,3.44299c0,0 -4.41942,4.41942 -8.83883,0z" fill="#9966ff" stroke="none" stroke-width="0.5"/><path d="M1387,746v-59h450v59z" fill="#9a5e3e" stroke="#000000" stroke-width="2"/></g></g></svg>