<svg version="1.1" xmlns="http://www.w3.org/2000/svg" xmlns:xlink="http://www.w3.org/1999/xlink" width="1981.22396" height="672.15164" viewBox="0,0,1981.22396,672.15164"><defs><linearGradient x1="969.92488" y1="957.14714" x2="969.92488" y2="1069.75975" gradientUnits="userSpaceOnUse" id="color-1"><stop offset="0" stop-color="#ff9400"/><stop offset="1" stop-color="#525252"/></linearGradient><linearGradient x1="82.93166" y1="590.78077" x2="82.93166" y2="958.64864" gradientUnits="userSpaceOnUse" id="color-2"><stop offset="0" stop-color="#ff9400"/><stop offset="1" stop-color="#525252"/></linearGradient><linearGradient x1="1861.20493" y1="594.27927" x2="1861.20493" y2="962.14713" gradientUnits="userSpaceOnUse" id="color-3"><stop offset="0" stop-color="#ff9400"/><stop offset="1" stop-color="#525252"/></linearGradient><radialGradient cx="400.99556" cy="927.72072" r="50.15316" gradientUnits="userSpaceOnUse" id="color-4"><stop offset="0" stop-color="#525252"/><stop offset="1" stop-color="#ff9400"/></radialGradient><radialGradient cx="1380.85358" cy="553.2132" r="96.84685" gradientUnits="userSpaceOnUse" id="color-5"><stop offset="0" stop-color="#525252"/><stop offset="1" stop-color="#ff9400"/></radialGradient><radialGradient cx="960" cy="427.38739" r="331.83183" gradientUnits="userSpaceOnUse" id="color-6"><stop offset="0" stop-color="#525252"/><stop offset="1" stop-color="#ff9400"/></radialGradient><linearGradient x1="45.60077" y1="798.82155" x2="45.60077" y2="966.41693" gradientUnits="userSpaceOnUse" id="color-7"><stop offset="0" stop-color="#ffb900"/><stop offset="1" stop-color="#ffb900" stop-opacity="0"/></linearGradient><radialGradient cx="1552.99556" cy="915.72072" r="50.15316" gradientUnits="userSpaceOnUse" id="color-8"><stop offset="0" stop-color="#525252"/><stop offset="1" stop-color="#ff9400"/></radialGradient><radialGradient cx="539.85358" cy="554.2132" r="96.84685" gradientUnits="userSpaceOnUse" id="color-9"><stop offset="0" stop-color="#525252"/><stop offset="1" stop-color="#ff9400"/></radialGradient></defs><g transform="translate(56.84488,-397.85811)"><g data-paper-data="{&quot;isPaintingLayer&quot;:true}" fill-rule="nonzero" stroke="#000000" stroke-width="0.5" stroke-linecap="butt" stroke-linejoin="miter" stroke-miterlimit="10" stroke-dasharray="" stroke-dashoffset="0" style="mix-blend-mode: normal"><path d="M15.72067,1069.75975v-112.61261h1908.40841v112.61261z" fill="url(#color-1)"/><path d="M22.12085,958.64864v-367.86787h121.62162v367.86787z" fill="url(#color-2)"/><path d="M1800.39412,962.14713v-367.86787h121.62162v367.86787z" fill="url(#color-3)"/><path d="M353.95268,877.56756v100.30631h94.08576v-100.30631z" fill="url(#color-4)"/><path d="M1290.01274,650.06005v-193.6937h181.68169v193.6937z" fill="url(#color-5)"/><path d="M628.16817,456.66667v-58.55856h663.66366v58.55856z" fill="url(#color-6)"/><path d="M-56.59488,966.41693v-167.59536h204.3913v167.59536z" fill="url(#color-7)"/><path d="M1505.95268,865.56756v100.30631h94.08577v-100.30631z" fill="url(#color-8)"/><path d="M449.01274,651.06005v-193.6937h181.68169v193.6937z" fill="url(#color-9)"/></g></g></svg>