<svg version="1.1" xmlns="http://www.w3.org/2000/svg" xmlns:xlink="http://www.w3.org/1999/xlink" width="1968.36723" height="1087.5" viewBox="0,0,1968.36723,1087.5"><defs><linearGradient x1="960" y1="-3.5" x2="960" y2="1083.5" gradientUnits="userSpaceOnUse" id="color-1"><stop offset="0" stop-color="#ff5600" stop-opacity="0.74902"/><stop offset="1" stop-color="#ff5600" stop-opacity="0"/></linearGradient></defs><g transform="translate(0.75,3.75)"><g data-paper-data="{&quot;isPaintingLayer&quot;:true}" fill-rule="nonzero" stroke-width="0.5" stroke-linecap="butt" stroke-linejoin="miter" stroke-miterlimit="10" stroke-dasharray="" stroke-dashoffset="0" style="mix-blend-mode: normal"><path d="M1856.4431,533.42551c-1.42056,0.32407 -2.97256,0.2931 -4.26168,0.9722c-0.31748,0.16725 -4.1158,4.43269 -4.49179,4.84926c-3.4706,3.84515 -5.45047,7.1278 -7.48751,11.88684c-1.84775,4.31681 -3.59749,8.73411 -4.85628,13.26934c-1.24512,4.48598 -1.67039,9.16234 -3.03845,13.63329c-3.93289,12.85298 -9.89558,25.4932 -14.85702,37.98513c-1.68004,4.22408 -3.9032,9.1359 -4.5677,13.66562c-0.6455,4.4002 0.30138,9.29423 0.02482,13.73686c-0.12305,1.97667 0.34512,4.20921 -0.68268,5.90214c-1.10261,1.81615 -3.32039,2.68132 -5.1667,3.73264c-4.15554,2.36622 -9.31278,3.39824 -13.68593,5.33883c-3.86902,1.71687 -8.43733,3.40124 -12.16236,5.38988c-1.49538,0.79832 -2.71585,2.0642 -4.23683,2.8126c-1.34764,0.66311 -3.00068,0.60955 -4.28856,1.38234c-2.29608,1.37776 -3.97443,3.81497 -6.48893,4.73558c-4.20943,1.54116 -9.17164,1.95282 -13.57795,2.50582c-4.67287,0.58361 -9.3959,1.70424 -14.07428,2.13246c-12.19861,1.11657 -25.00349,0.00852 -37.26326,0.00852c-14.73156,0 -29.38808,0.36491 -44.01449,-1.51891c-9.87135,-0.09505 -18.99447,-3.59495 -28.74427,-4.49561c-9.08985,-0.8397 -18.69623,0.00883 -27.82683,0.00851c-4.24752,-0.00015 -9.0983,-0.3321 -13.31604,0.26466c-1.66389,0.23542 -3.22519,1.00446 -4.89202,1.21811c-1.4005,0.17952 -2.84785,-0.30855 -4.23558,-0.04815c-4.14622,0.77804 -7.33962,4.9167 -10.2767,7.5326c0.29776,5.55103 -0.39655,11.30187 0.17776,16.81124c0.50928,4.88558 2.48073,9.62619 3.00165,14.50639c0.17205,1.61177 -0.26962,3.26141 -0.01839,4.86274c0.67009,4.27117 2.57751,8.3411 3.13623,12.73628c0.20251,1.59304 -0.06355,3.23646 0.25217,4.81098c0.95732,4.77422 3.80168,9.10963 5.51758,13.57338c0.93682,2.43704 0.89155,5.15148 1.55306,7.67718c1.44965,5.53487 3.7804,10.89775 5.90235,16.19794c0.2609,0.52124 4.43662,8.84693 4.5566,9.15792c0.92881,2.4075 0.78006,5.11938 1.52794,7.58908c1.38326,4.56791 3.9104,8.90809 5.89549,13.21914c2.85784,6.20644 5.83574,13.31704 7.64127,19.89494c0.85116,3.10092 1.0258,6.3494 1.6072,9.51202c2.00637,10.914 4.12076,21.77823 5.94499,32.72804c0.27789,1.38857 1.50293,7.49938 1.52979,7.70686c0.3264,2.52128 -0.24914,5.09978 0.02849,7.6269c0.71077,6.46959 2.91026,12.99011 4.04019,19.42011c0.89099,5.07025 2.8655,10.61727 1.88311,15.82076c-0.55682,2.94939 -2.62468,5.39891 -3.96699,8.08353c-2.05625,4.11251 -4.21854,10.97501 -7.49305,14.29819c-1.28862,1.30777 -3.04443,2.05342 -4.54591,3.11001c-3.65911,2.57488 -6.83408,4.94088 -10.86703,6.96693c-7.00077,3.50018 -13.96204,7.22332 -21.79977,8.4871c-2.55958,0.41271 -5.18853,-0.106 -7.77788,0.02468c-4.98656,0.25165 -9.94422,1.16463 -14.92703,1.49263c-15.96461,1.0509 -32.14217,-1.13538 -48.09116,0.26723c-14.9814,1.30579 -29.95558,1.82011 -44.96034,2.73335c-5.90207,0.35922 -11.78168,1.23749 -17.68794,1.51311c-3.30624,0.15429 -6.62867,-0.17339 -9.92923,0.0742c-9.39821,0.70499 -18.90575,2.68475 -28.2408,3.99621c-6.53366,0.91773 -13.25665,1.27134 -19.73933,2.46578c-2.41266,0.44453 -7.51161,2.07022 -9.84896,2.44801c-2.50311,0.40458 -5.07818,-0.17813 -7.60676,0.01021c-3.03601,0.22614 -5.97582,1.24018 -9.00901,1.5015c-1.398,0.12045 -2.83053,-0.3028 -4.20931,-0.04228c-1.25149,0.23647 -2.25835,1.28537 -3.51351,1.5015c-4.68189,0.80619 -10.34414,0.0508 -15.11101,0.0508c-10,0 -20,0 -30,0c-28.5035,0 -57.00701,0 -85.51051,0c0,0 -1.81696,0 -2.3529,-1.54899c-2.23115,-0.21752 -4.38513,-1.11499 -6.60616,-1.49404c-7.56274,-1.29069 -15.02376,1.70614 -22.18899,-1.72541c-0.77366,-0.38683 -6.36198,-3.13853 -6.68574,-3.50181c-1.16903,-1.31172 -1.66455,-3.10305 -2.31882,-4.73375c-2.63783,-6.57457 -2.88792,-12.62545 -2.88792,-19.52602c0,-0.64307 -0.01871,-6.23502 0.06687,-6.58039c0.91515,-3.6929 3.84958,-6.44667 4.46991,-10.33659c0.22834,-1.4319 -0.1282,-2.90396 -0.02016,-4.34992c0.19051,-2.54986 1.25003,-4.97794 1.5015,-7.52252c0.71743,-7.2595 -0.01212,-14.96407 -0.01212,-22.27666c0,-7.50251 0,-15.005 0,-22.50751c0,-2.31115 0.65742,-4.6987 0.06688,-6.93313c-0.281,-1.06322 -1.25214,-1.87069 -1.48708,-2.94504c-0.34426,-1.57425 0.23575,-3.28199 -0.21311,-4.82967c-0.88077,-3.03691 -3.3345,-5.37795 -4.83866,-8.15933c-3.22296,-5.95966 -6.69819,-13.4667 -14.12494,-15.24026c-0.97363,-0.23251 -2.03189,0.24278 -3.003,0c-1.08574,-0.27143 -1.91065,-1.25807 -3.003,-1.5015c-2.74431,-0.61157 -5.623,0.06688 -8.43463,0.06688c-21.92806,0 -44.05276,-0.85386 -65.96262,-0.00214c-11.40055,0.44318 -22.85422,1.88076 -34.23203,2.76908c-13.23446,1.03314 -26.58909,1.84979 -39.78075,3.31115c-20.25233,2.24353 -40.44024,6.63662 -60.39566,10.65336c-8.12285,1.83833 -16.20305,4.01372 -24.3451,5.73869c-10.872,2.30333 -22.15286,3.32972 -32.93948,5.98467c-1.6032,0.3946 -3.07832,1.27018 -4.70668,1.54294c-1.48087,0.24806 -3.02343,-0.24685 -4.5045,0c-1.56119,0.2602 -2.95253,1.19107 -4.5045,1.50151c-0.92477,0.18498 -1.91205,-0.2548 -2.82907,-0.0346c-4.46868,1.07302 -7.23748,4.38629 -12.12473,4.66742c-1.4139,0.93323 -2.66148,2.18903 -4.24171,2.7997c-0.82625,0.3193 -1.89924,-0.59863 -2.65398,-0.13494c-1.16779,0.71746 -1.34853,2.50133 -2.47304,3.28488c-2.77823,1.93585 -6.36515,2.39918 -9.29812,4.09146c-3.67471,2.12024 -8.49288,5.71173 -11.5864,8.67755c-2.27087,2.17713 -3.78679,5.03399 -5.88312,7.37965c-0.84657,0.94726 -2.08799,1.5592 -2.73919,2.65003c-0.7435,1.24543 -0.78466,2.79819 -1.31843,4.14688c-0.77501,1.95823 -2.3904,3.57527 -2.87958,5.62368c-0.23251,0.97362 0.24278,2.03189 0,3.003c-0.27143,1.08574 -1.2301,1.91726 -1.50151,3.00301c-0.24409,0.97648 0.27223,2.05167 -0.00396,3.01955c-1.41182,4.94756 -4.67698,8.46123 -9.0114,10.80126c-4.20537,2.78224 -8.96333,5.22633 -14.03832,6.09054c-0.2476,0.04216 -8.92582,0.03229 -9.40947,0.03229c-4.51451,0 -9.02903,0 -13.54354,0c-21.29645,0 -42.59289,0.00225 -63.88934,-0.00657c-8.48378,-0.02366 -16.80325,-0.49597 -25.23112,-1.55197c-6.53624,-0.81898 -13.08749,-2.46337 -19.65397,-2.95288c-6.02012,-0.44877 -12.28442,0.00692 -18.32767,0.00692c-11.86268,0 -23.72933,-0.08758 -35.59132,0.03777c-8.36051,0.08826 -16.52053,1.04266 -24.85095,1.46117c-5.44867,0.27373 -10.98439,-0.4111 -16.4236,-0.00596c-3.03602,0.22614 -5.98253,1.1715 -9.00901,1.50151c-2.39185,0.26081 -4.95343,-0.40459 -7.31326,-0.02377c-1.5625,0.25216 -2.95461,1.1808 -4.5045,1.5015c-2.39385,0.49533 -4.93337,-0.49812 -7.33358,-0.03459c-1.09885,0.21221 -1.90558,1.28202 -3.003,1.50151c-1.47235,0.29447 -3.03216,-0.29447 -4.5045,0c-1.09742,0.21948 -1.90703,1.27492 -3.00301,1.5015c-0.44111,0.09119 -9.39152,0.06687 -9.58339,0.06687c-12.49714,0 -25.5809,-1.14596 -38.00932,0.12444c-8.22928,0.84118 -15.80235,4.11749 -23.67556,6.36332c-10.41511,2.9709 -20.707,5.84993 -31.3465,7.89469c-0.6158,0.27904 -8.68854,3.9463 -9.06146,4.07549c-10.40276,3.60379 -21.78451,4.51126 -32.46792,7.00072c-18.65945,4.34803 -36.69659,10.57101 -55.61793,13.84868c-17.8471,3.82622 -35.68684,7.71703 -53.58527,11.29678c-8.14175,1.62838 -16.50863,4.03629 -24.75847,4.93929c-3.0668,0.33568 -6.17023,0.01216 -9.25535,0.01216c0,0 -2.5,0 -2.5,-2.5c0,-2.5 2.5,-2.5 2.5,-2.5c11.30918,0 21.95655,-2.63906 33.03323,-4.85436c17.90839,-3.58162 35.75716,-7.47775 53.6149,-11.3026c18.8521,-3.26945 36.82751,-9.47166 55.42013,-13.80619c10.51063,-2.45036 21.7466,-3.3139 31.97998,-6.85901c3.16992,-1.09815 6.11933,-2.75158 9.184,-4.11617c10.68056,-2.12529 21.01789,-4.95078 31.48913,-7.93768c8.16711,-2.32966 15.99989,-5.65638 24.53866,-6.52919c12.60234,-1.28818 25.84745,-0.15036 38.51775,-0.15036c2.81163,0 5.69032,0.67845 8.43463,0.06688c1.09235,-0.24343 1.90558,-1.28202 3.003,-1.5015c1.47235,-0.29447 3.03216,0.29447 4.5045,0c1.09742,-0.21948 1.9021,-1.30021 3.003,-1.5015c2.51874,-0.46055 5.1819,0.52085 7.68143,-0.0346c1.54503,-0.34334 2.94043,-1.2593 4.5045,-1.5015c2.53703,-0.39286 5.15048,0.26226 7.70176,-0.02377c3.02547,-0.3392 5.97316,-1.27319 9.00901,-1.5015c5.5034,-0.41387 11.09805,0.27233 16.60943,-0.00595c8.38684,-0.42346 16.60647,-1.37716 25.02474,-1.46603c11.8796,-0.1253 23.76382,-0.03805 35.6441,-0.03805c6.16849,0 12.55419,-0.45118 18.69936,0.00692c6.6527,0.49593 13.28278,2.14822 19.90392,2.97784c8.22585,1.03069 16.33788,1.49009 24.61748,1.51319c21.29378,0.00881 42.58756,0.00656 63.88134,0.00656c4.51451,0 9.02903,0 13.54354,0c2.86954,0 5.78044,0.51811 8.60856,0.03228c4.45437,-0.76519 8.63456,-2.9985 12.30021,-5.46246c3.12807,-1.52738 5.77234,-4.09243 6.69212,-7.67577c0.2475,-0.96423 -0.24543,-2.02069 -0.00396,-2.98645c0.27147,-1.08573 1.23006,-1.91726 1.5015,-3.003c0.24278,-0.97112 -0.25128,-2.03406 0,-3.00301c0.27119,-1.04571 2.63468,-5.17119 3.12643,-6.38833c0.64252,-1.59034 0.7994,-3.39295 1.68457,-4.86212c0.80566,-1.3372 2.23503,-2.18439 3.26681,-3.35598c0.29054,-0.32991 5.83792,-7.35604 6.12888,-7.63537c3.32272,-3.18986 8.46422,-7.0447 12.43763,-9.34047c2.83264,-1.63666 6.32922,-2.01859 9.00738,-3.89741c1.35152,-0.94814 1.82204,-2.90496 3.24548,-3.74126c0.96416,-0.56646 2.30946,0.26945 3.35203,-0.13494c1.52831,-0.5928 2.7192,-1.83154 4.0788,-2.7473c1.16529,-0.09167 2.36599,0.02449 3.49586,-0.275c3.18737,-0.84488 5.86502,-3.69378 9.09194,-4.52559c1.02552,-0.26435 2.13845,0.17307 3.17693,-0.0346c1.552,-0.31036 2.94332,-1.2413 4.5045,-1.5015c1.48107,-0.24685 3.02322,0.24558 4.5045,0c1.49405,-0.2477 2.83184,-1.09786 4.30233,-1.46006c10.84974,-2.67247 22.19211,-3.70888 33.12659,-6.02734c8.13274,-1.72441 16.20391,-3.89724 24.31801,-5.73298c20.11841,-4.05103 40.47227,-8.47154 60.89036,-10.73343c13.24539,-1.46731 26.65384,-2.28878 39.94208,-3.32639c11.43893,-0.89309 22.95239,-2.33315 34.41433,-2.77996c21.97879,-0.85679 44.17251,-0.00214 66.16951,-0.00214c0.19187,0 9.14227,-0.02432 9.58339,0.06687c1.09597,0.22658 1.91727,1.23007 3.00301,1.5015c0.97112,0.24278 2.03405,-0.25128 3.003,0c5.18597,1.34491 10.34375,5.80181 13.46573,9.98036c1.73131,2.31723 2.53252,5.20334 3.9085,7.74768c0.42832,0.79202 5.07216,8.58605 5.23492,9.11848c0.48633,1.59095 -0.10167,3.3596 0.25619,4.98428c0.24492,1.11194 1.25185,1.95342 1.51592,3.06097c0.62484,2.62059 0.06687,5.38783 0.06687,8.08189c0,7.50251 0,15.005 0,22.50751c0,7.47915 0.72186,15.34141 -0.01212,22.76838c-0.25147,2.54458 -1.3178,4.97217 -1.5015,7.52252c-0.11158,1.54903 0.2443,3.12873 -0.02016,4.65909c-0.71311,4.12656 -3.57597,6.8804 -4.5391,10.68444c-0.44441,1.75529 0.06688,3.62095 0.06688,5.43163c0,4.65706 -0.17425,8.64437 1.11829,13.17924c0.03655,0.12823 2.0317,6.86463 2.68399,7.60603c1.2959,1.47294 3.57153,1.62681 5.32627,2.50419c6.11054,3.24104 14.14584,0.18548 20.84404,1.2776c2.21315,0.36085 4.32436,1.49656 6.56646,1.46147h1.5015c0,0 1.77963,0.00001 2.3359,1.50151c27.72487,0 55.44974,0 83.17461,0c10,0 20,0 30,0c4.39518,0 9.79947,0.83095 14.10821,0.05079c1.25326,-0.22692 2.26129,-1.26896 3.51351,-1.5015c1.57307,-0.29212 3.2059,0.09805 4.7997,-0.04228c3.0327,-0.26701 5.97315,-1.2732 9.00901,-1.5015c2.46247,-0.18519 4.97318,0.42065 7.40825,0.01021c3.23812,-0.54579 6.32445,-1.80768 9.55389,-2.4027c6.55369,-1.20751 13.34495,-1.57187 19.94972,-2.49992c9.4426,-1.32656 19.05552,-3.31769 28.56239,-4.03083c0.6031,-0.04524 9.32609,-0.04805 10.07016,-0.08277c5.87283,-0.27406 11.7199,-1.14949 17.58876,-1.5075c14.97061,-0.91324 29.91109,-1.42269 44.85844,-2.72551c16.01707,-1.38437 32.24936,0.79264 48.27625,-0.27991c4.98176,-0.33339 9.93756,-1.24083 14.92408,-1.49248c2.46888,-0.12459 4.97726,0.41072 7.41605,0.00678c7.23983,-1.19914 13.70462,-4.7604 20.17754,-7.99705c3.81202,-1.89613 6.74019,-4.20653 10.21872,-6.57895c1.23728,-0.84384 2.70539,-1.38831 3.77459,-2.437c0.7328,-0.71874 0.99541,-1.79568 1.46922,-2.70622c1.79048,-3.44079 3.47298,-6.9481 5.20738,-10.41689c1.17106,-2.34213 3.07913,-4.42462 3.57289,-6.99622c0.82764,-4.31055 -1.20396,-9.60967 -1.94142,-13.80667c-1.14904,-6.53949 -3.36262,-13.15733 -4.08574,-19.73942c-0.27922,-2.54147 0.3048,-5.13588 -0.03306,-7.67023c-0.32839,-2.46326 -0.98614,-4.8713 -1.47321,-7.30816c-1.82552,-10.94877 -3.93827,-21.81221 -5.9445,-32.72542c-0.55713,-3.0306 -0.70098,-6.1476 -1.51833,-9.11861c-3.15948,-11.48447 -10.06242,-21.6409 -13.49026,-32.95198c-0.73193,-2.41521 -0.54974,-5.07803 -1.47507,-7.42594c-1.19423,-3.03021 -2.93229,-5.81682 -4.38768,-8.73063c-2.22787,-5.55111 -4.65424,-11.16563 -6.1744,-16.96456c-0.63223,-2.41175 -0.5329,-5.01937 -1.44994,-7.33784c-1.8496,-4.6762 -4.66304,-9.18849 -5.68862,-14.20311c-0.34614,-1.69246 -0.09375,-3.45943 -0.31181,-5.1731c-0.55314,-4.34709 -2.43811,-8.32995 -3.11162,-12.5662c-0.26887,-1.69119 0.16038,-3.43419 -0.01839,-5.13726c-0.51282,-4.88527 -2.4957,-9.63518 -3.00436,-14.53265c-0.64603,-6.22012 -0.03957,-12.98775 0.17776,-19.22479c0.89703,-0.96514 5.61375,-6.15081 6.85393,-7.0774c0.29029,-0.21689 6.6367,-3.35413 6.8934,-3.40802c1.55727,-0.32693 3.19568,0.15855 4.77342,-0.04814c1.63887,-0.2147 3.17221,-0.98018 4.80941,-1.20725c4.45782,-0.61826 9.51557,-0.31284 14.00957,-0.31299c9.27268,-0.00032 19.00608,-0.83662 28.23924,0.00852c9.72493,0.89015 18.84004,4.41191 28.67157,4.49013c14.52157,1.84444 29.04982,1.50737 43.67478,1.50737c8.01301,0 16.02602,0 24.03904,0c4.21064,0 8.62208,0.39555 12.81182,0.00851c4.60938,-0.4258 9.26242,-1.53489 13.86651,-2.11089c4.10649,-0.51115 8.58618,-0.92494 12.53531,-2.25984c2.2052,-0.74541 3.52699,-3.07587 5.52309,-4.27343c1.42658,-0.85588 3.22928,-0.88303 4.72045,-1.62066c1.46837,-0.72635 2.63686,-1.966 4.08367,-2.7344c3.81454,-2.02589 8.52105,-3.7905 12.48543,-5.54726c4.36987,-1.93646 9.08062,-3.1745 13.40583,-5.20406c1.09795,-0.5152 2.53963,-0.76855 3.1538,-1.81436c0.60192,-1.02495 0.00524,-2.37725 0.00583,-3.56588c0.00221,-4.49094 -0.62534,-9.84913 0.02483,-14.28115c0.72096,-4.91461 3.04769,-10.19654 4.86785,-14.78551c3.68839,-9.28665 7.28187,-18.60815 10.87627,-27.93154c1.24917,-3.24018 2.85735,-6.42968 3.87019,-9.74632c1.34007,-4.3882 1.74709,-8.98779 2.96756,-13.39374c1.31933,-4.76283 3.14445,-9.40839 5.08892,-13.94013c2.24225,-5.22576 4.56416,-9.029 8.36745,-13.26283c1.16659,-1.29865 4.63332,-5.25024 5.74408,-5.85468c1.64856,-0.89708 3.62651,-0.96876 5.43976,-1.45315c21.93382,-6.19058 44.6116,-4.94124 67.20708,-4.87962c-0.0097,1.66785 -0.00987,3.3347 0.00285,4.99985c-22.15057,-0.06456 -44.42777,-1.35288 -65.92452,4.71172z" fill="#00a3ff" stroke="none"/><path d="M1966.83156,538.49448c-1.76777,1.76777 -3.53553,0 -3.53553,0l0.26626,-0.76926c-4.07182,-0.07612 -6.26515,-1.08958 -9.51201,-3.50601c-3.49984,-2.66346 -7.38624,-4.07282 -11.46081,-4.80676c0.05255,-1.77781 0.11816,-3.55613 0.17035,-5.33411c3.52382,0.46386 6.91504,1.33533 9.95072,2.92642c1.59445,0.83569 2.89315,2.14296 4.33974,3.21444c2.34378,1.77409 3.52833,2.58817 6.51201,2.50601l3.26927,2.23373c0,0 1.76777,1.76776 0,3.53553z" fill="#00a3ff" stroke="none"/><path d="M-0.5,1083.5v-1087h1921v1087z" fill="url(#color-1)" stroke="#000000"/></g></g></svg>