<svg version="1.1" xmlns="http://www.w3.org/2000/svg" xmlns:xlink="http://www.w3.org/1999/xlink" width="1973" height="868" viewBox="0,0,1973,868"><defs><linearGradient x1="958" y1="1004" x2="958" y2="1079" gradientUnits="userSpaceOnUse" id="color-1"><stop offset="0" stop-color="#ffffff" stop-opacity="0.54902"/><stop offset="1" stop-color="#1a1a1a"/></linearGradient><linearGradient x1="1621" y1="657.4837" x2="1621" y2="713.4837" gradientUnits="userSpaceOnUse" id="color-2"><stop offset="0" stop-color="#ffffff" stop-opacity="0.54902"/><stop offset="1" stop-color="#1a1a1a"/></linearGradient><linearGradient x1="1626.5" y1="211" x2="1626.5" y2="268" gradientUnits="userSpaceOnUse" id="color-3"><stop offset="0" stop-color="#ffffff" stop-opacity="0.54902"/><stop offset="1" stop-color="#1a1a1a"/></linearGradient><linearGradient x1="109.5" y1="882.5" x2="109.5" y2="978.5" gradientUnits="userSpaceOnUse" id="color-4"><stop offset="0" stop-color="#ffffff" stop-opacity="0.54902"/><stop offset="1" stop-color="#1a1a1a"/></linearGradient><linearGradient x1="228.5" y1="730.5" x2="228.5" y2="843.5" gradientUnits="userSpaceOnUse" id="color-5"><stop offset="0" stop-color="#ffffff" stop-opacity="0.54902"/><stop offset="1" stop-color="#1a1a1a"/></linearGradient><linearGradient x1="326" y1="577.5" x2="326" y2="690.5" gradientUnits="userSpaceOnUse" id="color-6"><stop offset="0" stop-color="#ffffff" stop-opacity="0.54902"/><stop offset="1" stop-color="#1a1a1a"/></linearGradient><linearGradient x1="447" y1="416.5" x2="447" y2="546.5" gradientUnits="userSpaceOnUse" id="color-7"><stop offset="0" stop-color="#ffffff" stop-opacity="0.54902"/><stop offset="1" stop-color="#1a1a1a"/></linearGradient><linearGradient x1="553.5" y1="248.5" x2="553.5" y2="349.5" gradientUnits="userSpaceOnUse" id="color-8"><stop offset="0" stop-color="#ffffff" stop-opacity="0.54902"/><stop offset="1" stop-color="#1a1a1a"/></linearGradient><linearGradient x1="830.5" y1="326.5" x2="830.5" y2="413.5" gradientUnits="userSpaceOnUse" id="color-9"><stop offset="0" stop-color="#ffffff" stop-opacity="0.54902"/><stop offset="1" stop-color="#1a1a1a"/></linearGradient><linearGradient x1="1022.5" y1="456.5" x2="1022.5" y2="529.5" gradientUnits="userSpaceOnUse" id="color-10"><stop offset="0" stop-color="#ffffff" stop-opacity="0.54902"/><stop offset="1" stop-color="#1a1a1a"/></linearGradient><linearGradient x1="1149.5" y1="270.5" x2="1149.5" y2="329.5" gradientUnits="userSpaceOnUse" id="color-11"><stop offset="0" stop-color="#ffffff" stop-opacity="0.54902"/><stop offset="1" stop-color="#1a1a1a"/></linearGradient><linearGradient x1="1085.5" y1="691.5" x2="1085.5" y2="834.5" gradientUnits="userSpaceOnUse" id="color-12"><stop offset="0" stop-color="#ffffff" stop-opacity="0.54902"/><stop offset="1" stop-color="#1a1a1a"/></linearGradient></defs><g transform="translate(1,-211)"><g data-paper-data="{&quot;isPaintingLayer&quot;:true}" fill-rule="nonzero" stroke="none" stroke-width="0" stroke-linecap="butt" stroke-linejoin="miter" stroke-miterlimit="10" stroke-dasharray="" stroke-dashoffset="0" style="mix-blend-mode: normal"><path d="M-1,1079v-75h1918v75z" fill="url(#color-1)"/><path d="M1287,713.4837v-56h668v56z" fill="url(#color-2)"/><path d="M1281,268v-57h691v57z" fill="url(#color-3)"/><path d="M71.5,978.5v-96h76v96z" fill="url(#color-4)"/><path d="M188.5,843.5v-113h80v113z" fill="url(#color-5)"/><path d="M276.5,690.5v-113h99v113z" fill="url(#color-6)"/><path d="M383.5,546.5v-130h127v130z" fill="url(#color-7)"/><path d="M507.5,349.5v-101h92v101z" fill="url(#color-8)"/><path d="M784.5,413.5v-87h92v87z" fill="url(#color-9)"/><path d="M963.5,529.5v-73h118v73z" fill="url(#color-10)"/><path d="M1111.5,329.5v-59h76v59z" fill="url(#color-11)"/><path d="M1048.5,834.5v-143h74v143z" fill="url(#color-12)"/></g></g></svg>