<svg version="1.1" xmlns="http://www.w3.org/2000/svg" xmlns:xlink="http://www.w3.org/1999/xlink" width="1891.96697" height="683.67868" viewBox="0,0,1891.96697,683.67868"><defs><linearGradient x1="185.78451" y1="490.18017" x2="185.78451" y2="1083.27326" gradientUnits="userSpaceOnUse" id="color-1"><stop offset="0" stop-color="#441a00"/><stop offset="1" stop-color="#ff7400"/></linearGradient><linearGradient x1="184.28301" y1="976.32205" x2="184.28301" y2="1083.27326" gradientUnits="userSpaceOnUse" id="color-2"><stop offset="0" stop-color="#441a00"/><stop offset="1" stop-color="#ff7400"/></linearGradient><linearGradient x1="1656.83556" y1="404.59458" x2="1656.83556" y2="1083.27326" gradientUnits="userSpaceOnUse" id="color-3"><stop offset="0" stop-color="#441a00"/><stop offset="1" stop-color="#ff7400"/></linearGradient></defs><g transform="translate(7.40618,-402.09458)"><g data-paper-data="{&quot;isPaintingLayer&quot;:true}" fill-rule="nonzero" stroke="#000000" stroke-width="5" stroke-linecap="butt" stroke-linejoin="miter" stroke-miterlimit="10" stroke-dasharray="" stroke-dashoffset="0" style="mix-blend-mode: normal"><path d="M620.66066,587.2973v-94.5946h678.67868v94.5946z" fill="#441a00"/><path d="M-3.40468,490.18017h378.37838v303.81381c-50.59686,0 -101.19371,0 -151.79057,0c-53.71371,0 -107.42743,0 -161.14114,0c-18.01802,0 -36.03604,0 -54.05405,0c-3.79602,0 -7.59462,0.09109 -11.39262,0.16128z" fill="url(#color-1)"/><path d="M-4.90618,1083.27326l0,-48.53124c3.79802,-0.01208 7.59653,-0.02731 11.39262,-0.02731c18.01802,0 36.03604,0 54.05405,0c53.71371,0 107.42743,0 161.14114,0c50.59686,0 101.19371,0 151.79057,0v48.55856z" fill="url(#color-2)"/><path d="M1431.61033,1083.27326v-678.67868h450.45045v678.67868z" fill="url(#color-3)"/></g></g></svg>