<svg version="1.1" xmlns="http://www.w3.org/2000/svg" xmlns:xlink="http://www.w3.org/1999/xlink" width="1926.18988" height="711.01029" viewBox="0,0,1926.18988,711.01029"><defs><linearGradient x1="582.93664" y1="902.26492" x2="582.93664" y2="1096.21286" gradientUnits="userSpaceOnUse" id="color-1"><stop offset="0" stop-color="#4a4a4a"/><stop offset="1" stop-color="#000000"/></linearGradient><linearGradient x1="813.21464" y1="781.9447" x2="813.21464" y2="1092.26142" gradientUnits="userSpaceOnUse" id="color-2"><stop offset="0" stop-color="#4a4a4a"/><stop offset="1" stop-color="#000000"/></linearGradient><linearGradient x1="1027.08166" y1="707.87362" x2="1027.08166" y2="1092.7857" gradientUnits="userSpaceOnUse" id="color-3"><stop offset="0" stop-color="#4a4a4a"/><stop offset="1" stop-color="#000000"/></linearGradient><linearGradient x1="1366.26889" y1="648.72161" x2="1366.26889" y2="1093.30998" gradientUnits="userSpaceOnUse" id="color-4"><stop offset="0" stop-color="#4a4a4a"/><stop offset="1" stop-color="#000000"/></linearGradient><linearGradient x1="1601.02262" y1="509.0066" x2="1601.02262" y2="1089.35854" gradientUnits="userSpaceOnUse" id="color-5"><stop offset="0" stop-color="#4a4a4a"/><stop offset="1" stop-color="#000000"/></linearGradient><linearGradient x1="1843.23587" y1="385.70257" x2="1843.23587" y2="1094.35853" gradientUnits="userSpaceOnUse" id="color-6"><stop offset="0" stop-color="#4a4a4a"/><stop offset="1" stop-color="#000000"/></linearGradient></defs><g transform="translate(12.58437,-385.45257)"><g data-paper-data="{&quot;isPaintingLayer&quot;:true}" fill-rule="nonzero" stroke="#000000" stroke-width="0.5" stroke-linecap="butt" stroke-linejoin="miter" stroke-miterlimit="10" stroke-dasharray="" stroke-dashoffset="0" style="mix-blend-mode: normal"><path d="M-12.33437,1091.73714v-65.64392h416.24213v65.64392z" fill="#780000"/><path d="M512.817,1096.21286v-193.94795h140.23929v193.94795z" fill="url(#color-1)"/><path d="M743.095,1092.26142v-310.31672h140.23929v310.31672z" fill="url(#color-2)"/><path d="M956.96202,1092.7857v-384.91208h140.23928v384.91208z" fill="url(#color-3)"/><path d="M1296.14925,1093.30998v-444.58837h140.23928v444.58837z" fill="url(#color-4)"/><path d="M1530.90297,1089.35854v-580.35194h140.23929v580.35194z" fill="url(#color-5)"/><path d="M1773.11623,1094.35853v-708.65596h140.23928v708.65596z" fill="url(#color-6)"/></g></g></svg>